<?xml version="1.0" encoding="UTF-8"?>
<svg version="1.1" xmlns="http://www.w3.org/2000/svg" width="460" height="215">
<path d="M0 0 C151.8 0 303.6 0 460 0 C460 70.95 460 141.9 460 215 C308.2 215 156.4 215 0 215 C0 144.05 0 73.1 0 0 Z " fill="#FCFCFC" transform="translate(0,0)"/>
<path d="M0 0 C2.7661126 1.16665492 5.40835001 2.53731817 8.0625 3.9375 C10.1086463 4.99952022 12.15629854 6.05642912 14.21533203 7.09326172 C15.65745397 7.82596225 17.08019695 8.59672852 18.49609375 9.37890625 C21.59510731 10.14761632 23.74243962 9.41152885 26.75585938 8.53320312 C30.8778669 7.55382275 35.03425303 7.71020353 39.25 7.75 C40.64424194 7.74709961 40.64424194 7.74709961 42.06665039 7.74414062 C47.10239423 7.78282639 51.54439232 8.2057367 56.4375 9.5 C62.32093872 10.74084002 66.28247121 8.27916524 71.10717773 5.2109375 C71.65704346 4.84871094 72.20690918 4.48648437 72.7734375 4.11328125 C76.55346275 1.637502 80.15267224 -0.64812805 84.625 -1.5 C88.13095703 -0.76190378 88.97688411 1.10255302 91 4 C95.10252993 13.28169065 97.69337648 22.82514923 98.3125 32.9375 C98.73566968 37.99956745 100.5593125 41.96120513 102.84375 46.45703125 C104.74895778 50.64720106 105.12510402 54.36360029 104.81640625 58.921875 C104.23493676 71.05220708 105.17753775 79.3523621 110.953125 90.01953125 C118.88906187 104.7530534 118.65072446 122.05595547 114.3203125 137.8515625 C110.03501584 152.02397986 102.25389753 163.55615809 89.26171875 170.94140625 C84.50876905 173.16601656 79.91034702 173.17013638 74.73413086 173.20874023 C73.90265533 173.21852402 73.07117981 173.2283078 72.21450806 173.23838806 C69.46463605 173.26828159 66.71481266 173.28971504 63.96484375 173.30859375 C63.02240877 173.31516558 62.07997379 173.3217374 61.10898018 173.32850838 C56.11669541 173.36108133 51.12443174 173.38553289 46.13208008 173.4050293 C42.0145738 173.42280936 37.89775661 173.45757963 33.78051758 173.50756836 C28.79615925 173.56800468 23.81243743 173.59853736 18.82773018 173.60820198 C16.93601636 173.61672049 15.04431789 173.63544878 13.15281487 173.6649456 C-0.22777722 173.86231044 -9.10194829 172.5933808 -19.3125 163.1875 C-25.27828971 156.71139834 -29.17282041 150.12599607 -32.3125 141.9375 C-32.69462646 140.9465332 -32.69462646 140.9465332 -33.08447266 139.93554688 C-39.30565242 122.81988122 -36.48739808 102.8938605 -29.2734375 86.5859375 C-28.17224432 84.34977221 -26.993041 82.24534674 -25.6875 80.125 C-23.86096092 76.74252021 -23.63104443 74.7817946 -24 71 C-29.46897771 75.37906047 -29.46897771 75.37906047 -33.6875 80.875 C-35 83 -35 83 -37.5 84 C-40 84 -40 84 -41.875 82.875 C-43 81 -43 81 -42.84375 78.703125 C-41.77131911 75.26737418 -40.08902188 73.48255713 -37.625 70.875 C-36.43777344 69.60269531 -36.43777344 69.60269531 -35.2265625 68.3046875 C-33.50078995 66.51836153 -31.76758841 64.74478082 -30 63 C-31.29409592 63.45142881 -32.58521059 63.91141021 -33.875 64.375 C-34.59429687 64.63023438 -35.31359375 64.88546875 -36.0546875 65.1484375 C-38.18157994 65.93877783 -38.18157994 65.93877783 -40 68 C-42.5 68.3125 -42.5 68.3125 -45 68 C-47 65 -47 65 -46.80078125 62.97265625 C-45.34781643 59.39340144 -42.30751392 57.67894108 -39 56 C-34.0895357 54.40330709 -29.18442219 53 -24 53 C-23.81824219 52.34773438 -23.63648438 51.69546875 -23.44921875 51.0234375 C-21.28828829 43.51004851 -21.28828829 43.51004851 -19.375 40.125 C-17.98931008 36.97570472 -17.82424767 35.25125275 -17.6875 31.875 C-17.32920975 25.81455853 -15.8649517 20.34489588 -14.125 14.5625 C-13.86807373 13.69802246 -13.61114746 12.83354492 -13.34643555 11.94287109 C-12.00779867 7.62840949 -10.68798635 3.69414518 -8 0 C-5.00846535 -1.49576733 -3.23858734 -0.77501454 0 0 Z " fill="#050505" transform="translate(341,21)"/>
<path d="M0 0 C3 1 3 1 5 3.625 C9.49260262 9.31288222 16.55064312 12.9043087 23 16 C22.67 18.31 22.34 20.62 22 23 C24.61482803 24.0121915 26.3686239 24.2622448 28.984375 23.17578125 C29.71140625 22.80839844 30.4384375 22.44101563 31.1875 22.0625 C36.13713989 19.69923287 40.5747088 18.92250314 46 20 C49.7609077 22.48219909 50.75900716 23.93561495 51.75 28.3125 C50.56380333 34.14463362 47.1594564 37.88900463 42.24609375 41.171875 C36.02764317 44.0192001 28.6581588 43.75300606 22 43 C19.32338354 41.94126986 17.40240956 40.63568311 15 39 C12.20526411 38.6615115 12.20526411 38.6615115 10 39 C9.4465236 41.07553648 9 42.84365964 9 45 C9.70125 45.268125 10.4025 45.53625 11.125 45.8125 C14 47 14 47 17 48.5625 C25.73905302 52.7499629 33.99456067 51.19740237 42.875 48.2578125 C50.71482613 45.10228248 55.09808907 40.39111975 59 33 C59.64388672 33.86625 59.64388672 33.86625 60.30078125 34.75 C66.00570756 42.30410932 71.33948601 48.18761442 81 50 C90.97601165 50.72590521 99.48630409 51.01082698 108 45 C109.29633621 43.93354885 109.29633621 43.93354885 109.0625 41.4375 C109.041875 40.633125 109.02125 39.82875 109 39 C105.32218176 39.36778182 102.4869143 39.73571412 99.21484375 41.51171875 C92.85481888 44.4560316 84.77884836 44.26482115 78.1640625 42.05078125 C73.13420776 39.40217003 69.57157615 36.14315231 67 31 C66.47542777 27.06570828 66.69309297 25.45541043 68.9375 22.125 C73.11210552 19.22833495 76.06200475 19.11849374 81 20 C83.62897654 20.91018059 86.12379821 21.94061092 88.640625 23.125 C91.24461693 24.09071886 93.24524745 24.15629802 96 24 C96.92091738 21.42143135 97.18506902 20.4056713 96.0234375 17.859375 C95.51683594 16.93898438 95.51683594 16.93898438 95 16 C95.75023437 15.68289062 96.50046875 15.36578125 97.2734375 15.0390625 C104.58130434 11.70726427 109.62949253 7.91133344 115.0390625 1.9765625 C115.68617188 1.32429688 116.33328125 0.67203125 117 0 C117.66 0 118.32 0 119 0 C127.96324151 17.66934085 130.84217252 35.15638024 124.68896484 54.12207031 C121.0259994 64.10631204 114.37645379 72.78982667 105.375 78.5 C101.78873986 80.09389339 99.8571384 80.67080668 96 80 C93.1875 78.4375 93.1875 78.4375 91 76 C89.7923794 71.34203481 90.10943605 67.67546075 91 63 C89.93354885 61.70366379 89.93354885 61.70366379 87.4375 61.9375 C86.633125 61.958125 85.82875 61.97875 85 62 C83.1533317 65.14590528 82.75225717 67.43150052 82.8125 71.0625 C82.81894531 71.91972656 82.82539063 72.77695313 82.83203125 73.66015625 C82.91409966 76.15477968 82.91409966 76.15477968 84 79 C67.83 79 51.66 79 35 79 C35.33 75.37 35.66 71.74 36 68 C34.76285357 64.42568054 34.76285357 64.42568054 33 62 C31.35 62 29.7 62 28 62 C28.05800781 62.88042969 28.11601562 63.76085937 28.17578125 64.66796875 C28.54418419 74.15171289 28.54418419 74.15171289 25.875 78.3125 C22.36974611 80.36993163 20.99879078 80.78407662 17 80 C14.14781664 78.57390832 11.59109221 76.85155131 9 75 C8.154375 74.443125 7.30875 73.88625 6.4375 73.3125 C-2.92878875 64.42653375 -8.77022528 51.39135467 -9.30078125 38.484375 C-9.32026081 36.90636539 -9.32373424 35.32808985 -9.3125 33.75 C-9.30686035 32.915896 -9.3012207 32.08179199 -9.29541016 31.22241211 C-9.06517003 19.44255237 -5.63716632 10.28919678 0 0 Z " fill="#FAFAFA" transform="translate(322,106)"/>
<path d="M0 0 C4.63990218 1.66336116 9.42668373 0.93817737 14.29296875 0.7421875 C17.69140625 0.96484375 17.69140625 0.96484375 19.3581543 2.18725586 C21.03136752 4.41810469 21.1948528 5.85896676 21.421875 8.62890625 C21.50276367 9.57475586 21.58365234 10.52060547 21.66699219 11.49511719 C21.73692383 12.51637695 21.80685547 13.53763672 21.87890625 14.58984375 C21.99733887 16.16813965 21.99733887 16.16813965 22.11816406 17.77832031 C22.66277972 25.75422834 22.89735673 33.72132382 22.94140625 41.71484375 C22.95067139 42.77912598 22.95993652 43.8434082 22.96948242 44.93994141 C22.96537354 45.93300293 22.96126465 46.92606445 22.95703125 47.94921875 C22.95477539 48.82288086 22.95251953 49.69654297 22.95019531 50.59667969 C22.66897655 53.17009667 22.07266194 54.78525878 20.69140625 56.96484375 C18.18889911 58.21609732 15.96607522 58.39475409 13.19140625 58.77734375 C9.02022604 59.4343793 5.43201369 60.33383954 1.56640625 62.02734375 C-3.41856388 64.1660311 -7.91696643 64.76848706 -13.30859375 64.96484375 C-14.23027344 65.01640625 -15.15195312 65.06796875 -16.1015625 65.12109375 C-23.54275441 65.36742286 -28.86447214 64.18438879 -35.12109375 60.15234375 C-40.67248499 54.60095251 -41.4660945 48.34769991 -41.55859375 40.83984375 C-41.53720954 28.17580974 -37.24786288 18.08034388 -28.68359375 8.71484375 C-21.25021162 1.73540862 -10.19733937 -4.57241105 0 0 Z " fill="#FAFAFA" transform="translate(272.30859375,76.03515625)"/>
<path d="M0 0 C0.78375 0.495 1.5675 0.99 2.375 1.5 C2.705 1.17 3.035 0.84 3.375 0.5 C7.92516248 -0.00557361 11.99919164 -0.37246384 15.9375 2.125 C19.15871249 7.44700325 18.52197278 13.98446889 18.5078125 20.01953125 C18.50876923 20.91870773 18.50972595 21.81788422 18.51071167 22.74430847 C18.51138947 24.63447134 18.5095632 26.52463658 18.50537109 28.41479492 C18.49998572 31.32020206 18.50534564 34.22545681 18.51171875 37.13085938 C18.51105851 38.96875034 18.50977848 40.80664122 18.5078125 42.64453125 C18.50983673 43.51737259 18.51186096 44.39021393 18.51394653 45.289505 C18.48997118 51.38502882 18.48997118 51.38502882 17.375 52.5 C15.66794321 52.60632188 13.95912154 52.6848019 12.25 52.75 C7.40986213 53.13244613 4.64299416 54.05817266 1.0078125 57.24609375 C-3.73117091 60.88536092 -8.65279765 60.85265166 -14.375 60.8125 C-15.17832764 60.80831055 -15.98165527 60.80412109 -16.80932617 60.79980469 C-24.91541958 60.64513651 -31.68593166 59.43906834 -37.625 53.5 C-42.50186543 46.70722316 -42.43279416 38.66285833 -41.17578125 30.62890625 C-40.69825433 28.24127166 -40.18940186 25.86847207 -39.625 23.5 C-38.635 23.17 -37.645 22.84 -36.625 22.5 C-36.625 23.49 -36.625 24.48 -36.625 25.5 C-34.315 25.83 -32.005 26.16 -29.625 26.5 C-29.625 25.51 -29.625 24.52 -29.625 23.5 C-30.945 23.17 -32.265 22.84 -33.625 22.5 C-33.625 21.84 -33.625 21.18 -33.625 20.5 C-32.820625 20.37625 -32.01625 20.2525 -31.1875 20.125 C-30.341875 19.91875 -29.49625 19.7125 -28.625 19.5 C-28.295 18.84 -27.965 18.18 -27.625 17.5 C-31.25028568 17.29859524 -33.49001708 17.64223235 -36.625 19.5 C-34.35705549 11.43619731 -27.58958045 6.09082997 -20.8359375 1.7265625 C-13.98797069 -2.07248622 -7.34300452 -3.03848463 0 0 Z " fill="#F7F7F7" transform="translate(128.625,147.5)"/>
<path d="M0 0 C8.16594532 -0.33977581 13.0554755 1.39299141 19.12890625 6.8203125 C21.82837453 11.23762423 22.53555649 15.04145276 22.19140625 20.1953125 C21.25198139 22.22447019 20.2654224 24.23406562 19.19140625 26.1953125 C19.95344576 28.1638851 19.95344576 28.1638851 21.19140625 30.1953125 C25.05235548 37.84675569 26.12762006 44.64379858 25.19140625 53.1953125 C23.15580857 59.30210553 19.5467658 61.87631115 14.06640625 64.9453125 C9.27902371 66.85606606 4.25375055 66.79646589 -0.80859375 66.1953125 C-3.43359375 64.8203125 -3.43359375 64.8203125 -5.80859375 63.1953125 C-7.23711746 62.86245261 -8.67664683 62.57535915 -10.12109375 62.3203125 C-17.36808639 60.83961467 -22.90916465 56.97471636 -27.48828125 51.20703125 C-31.62320741 44.90677394 -34.25109638 37.76473352 -32.80859375 30.1953125 C-31.24609375 27.0703125 -31.24609375 27.0703125 -28.80859375 25.1953125 C-25.18359375 25.3828125 -25.18359375 25.3828125 -21.80859375 26.1953125 C-21.14859375 26.1953125 -20.48859375 26.1953125 -19.80859375 26.1953125 C-20.30359375 25.4321875 -20.79859375 24.6690625 -21.30859375 23.8828125 C-23.33522859 18.90066853 -23.53057434 14.50876512 -22.80859375 9.1953125 C-20.42317385 4.79146037 -17.46045204 2.91822298 -12.80859375 1.1953125 C-8.55987986 0.42621315 -4.29903249 0.29895914 0 0 Z " fill="#181818" transform="translate(239.80859375,144.8046875)"/>
<path d="M0 0 C10.7034528 -0.61259825 19.76179567 0.22385822 28.3125 7.1875 C35.20701675 13.79887438 39.43186077 20.9486566 40.3359375 30.578125 C40.45813909 42.06507404 38.73079326 50.51253857 31.171875 59.34375 C24.97189028 64.0717959 18.37982715 64.49938388 10.875 64.4375 C10.00746094 64.45748047 9.13992187 64.47746094 8.24609375 64.49804688 C1.43562797 64.49286387 -2.18747648 62.65180789 -7.1875 57.9375 C-14.04024257 46.83133101 -13.45976511 31.78119275 -10.81616211 19.38745117 C-9.29185651 13.10772589 -7.52785852 7.76616686 -3 3 C-2.34 3 -1.68 3 -1 3 C-0.67 2.01 -0.34 1.02 0 0 Z " fill="#F8F8F8" transform="translate(131,4)"/>
<path d="M0 0 C2.69990662 1.79993774 4.5418865 3.083773 6 6 C6.928125 5.195625 7.85625 4.39125 8.8125 3.5625 C12.85494207 0.05905021 16.46443019 -0.28617623 21.65625 -0.21875 C27.28735262 0.30681958 32.0606672 3.0606672 36 7 C43.07680994 18.12750924 41.53817341 31.55789905 40.125 44.125 C40.04660889 44.84727783 39.96821777 45.56955566 39.88745117 46.3137207 C39.04766 53.1375272 39.04766 53.1375272 37 56 C33.8125 57.125 33.8125 57.125 30 57 C25.05449236 54.21878405 22.03763918 50.27388964 20 45 C20 44.34 20 43.68 20 43 C15.01510642 44.17291614 13.21609944 47.07324628 10.52734375 51.125 C8.26070862 53.90756999 6.14218949 54.76658774 2.66796875 55.4765625 C-1.10375541 55.70227198 -3.86887256 55.76762713 -7.06640625 53.59765625 C-11.86048723 48.53436121 -14.09006012 42.61291013 -16 36 C-16.19207031 35.39929688 -16.38414063 34.79859375 -16.58203125 34.1796875 C-18.41993588 24.59510074 -18.12756668 13.47011015 -13 5 C-9.31713282 0.42431653 -5.81051775 -0.58105177 0 0 Z " fill="#F9F9F9" transform="translate(122,79)"/>
<path d="M0 0 C6.90127354 2.47823511 12.2066758 8.33183687 15.375 14.8125 C17.74073492 26.87774808 15.82648686 42.15876593 10 53 C6.04002899 57.78857809 1.32915256 60.58572445 -4.96191406 61.18774414 C-7.12425519 61.26806398 -9.27387282 61.27295626 -11.4375 61.25 C-12.16259766 61.25773437 -12.88769531 61.26546875 -13.63476562 61.2734375 C-20.70675316 61.24802155 -26.83690187 60.16309813 -32 55 C-35.93646195 49.55621427 -38.52719689 43.78584475 -40.8125 37.5 C-41.12380859 36.69691406 -41.43511719 35.89382812 -41.75585938 35.06640625 C-43.69104291 29.81801838 -44.5109512 25.59613223 -44 20 C-41.47771432 16.33122083 -39.97164531 15.21592118 -35.625 14.25 C-30.64561071 15.28021847 -27.9989587 17.97100382 -25 22 C-25 22.66 -25 23.32 -25 24 C-24.34 24 -23.68 24 -23 24 C-21.86239249 20.35055509 -21.89773136 16.86544215 -21.8125 13.0625 C-21.41040711 6.61561067 -21.41040711 6.61561067 -19.671875 4.0078125 C-13.68282786 -0.905532 -7.43462902 -0.75827986 0 0 Z " fill="#151515" transform="translate(211,78)"/>
<path d="M0 0 C2.9375 2.5625 2.9375 2.5625 5 5 C5.94875 4.195625 6.8975 3.39125 7.875 2.5625 C12.27796678 -1.17045009 15.44781304 -1.34826615 21.1796875 -1.2734375 C27.73360893 -0.63801575 31.52722743 3.16094501 35.73828125 7.92578125 C39.06707527 13.39819494 39.3273705 19.23021371 39.25 25.4375 C39.24468262 26.21303223 39.23936523 26.98856445 39.23388672 27.78759766 C38.88960978 49.24171649 38.88960978 49.24171649 35 55 C32.3125 56.125 32.3125 56.125 29 56 C24.09415214 53.14172 21.04507968 49.29314742 19 44 C19 43.34 19 42.68 19 42 C15.23542896 42.96803255 13.62017043 44.27082537 11.5625 47.4375 C9.16003093 51.00773267 7.19583048 52.62828619 3 54 C-1.53353813 54.71413255 -4.7764431 54.79673473 -8.6875 52.25 C-14.46024678 44.13695047 -18.02844123 35.9314896 -19 26 C-19.10634766 24.97132812 -19.10634766 24.97132812 -19.21484375 23.921875 C-19.66300433 15.10207478 -16.84783688 6.56098772 -11 0 C-7.12092197 -1.37091914 -3.98376996 -0.97846982 0 0 Z " fill="#F9F9F9" transform="translate(24,82)"/>
<path d="M0 0 C10.44442148 4.27691918 20.06584142 4.28264407 31.1875 3.5 C32.43144531 3.4175 33.67539062 3.335 34.95703125 3.25 C37.37813392 3.05109041 39.77935675 2.81582207 42.1875 2.5 C42.02157214 8.97118639 38.48716633 13.01801566 34.1875 17.5 C25.25277539 25.21761042 16.39254463 30.85618389 4.375 30.5625 C3.15167969 30.47097656 1.92835938 30.37945312 0.66796875 30.28515625 C-3.59145336 30.54808354 -5.51828699 31.8626975 -8.8125 34.5 C-10.92951923 36.90902188 -11.78960794 38.43132383 -12.8125 41.5 C-13.4725 41.5 -14.1325 41.5 -14.8125 41.5 C-15.01875 40.778125 -15.225 40.05625 -15.4375 39.3125 C-17.29384044 35.51544 -19.40717803 34.0018692 -22.8125 31.5 C-26.13743765 30.39168745 -28.03422313 30.65484568 -31.5 30.9375 C-43.52375036 31.01801619 -54.42233123 23.92393347 -62.81640625 15.7421875 C-69.8125 7.88356164 -69.8125 7.88356164 -69.8125 2.5 C-68.54019531 2.6546875 -67.26789063 2.809375 -65.95703125 2.96875 C-51.75021499 4.52171059 -39.02111629 4.65682081 -25.6862793 -1.00976562 C-16.2460244 -4.95332845 -9.16273289 -4.12283107 0 0 Z " fill="#F8F8F8" transform="translate(394.8125,88.5)"/>
<path d="M0 0 C10.56235052 0.03300735 18.18456521 2.22267337 26.625 9.01171875 C33.14158596 17.25328335 37.12166097 23.91194573 37 34.69921875 C37.01160156 35.72789063 37.01160156 35.72789063 37.0234375 36.77734375 C37.0068452 41.1245271 36.34030115 44.66035868 34.75 48.69921875 C33.76 48.69921875 32.77 48.69921875 31.75 48.69921875 C31.75 47.70921875 31.75 46.71921875 31.75 45.69921875 C28.45 45.69921875 25.15 45.69921875 21.75 45.69921875 C21.605625 46.48296875 21.46125 47.26671875 21.3125 48.07421875 C20.75 50.69921875 20.75 50.69921875 19.75 52.69921875 C21.4 52.69921875 23.05 52.69921875 24.75 52.69921875 C25.08 53.35921875 25.41 54.01921875 25.75 54.69921875 C24.656875 54.78171875 23.56375 54.86421875 22.4375 54.94921875 C18.71723336 55.33611084 18.71723336 55.33611084 16.8125 57.76171875 C16.461875 58.40109375 16.11125 59.04046875 15.75 59.69921875 C18.06 59.69921875 20.37 59.69921875 22.75 59.69921875 C21.9375 61.63671875 21.9375 61.63671875 20.75 63.69921875 C16.64571218 65.06731469 12.79985669 64.9627826 8.5 65.01171875 C7.24896484 65.05522461 7.24896484 65.05522461 5.97265625 65.09960938 C0.02048743 65.16034579 -3.37846101 64.16008043 -8.25 60.69921875 C-14.71405316 52.83753247 -14.59010616 44.62065252 -14.5625 34.88671875 C-14.57861328 33.76201172 -14.59472656 32.63730469 -14.61132812 31.47851562 C-14.61697511 21.76005102 -13.28027319 13.55684745 -7.25 5.69921875 C-6.69183594 4.83296875 -6.13367188 3.96671875 -5.55859375 3.07421875 C-3.25 0.69921875 -3.25 0.69921875 0 0 Z " fill="#F9F9F9" transform="translate(196.25,3.30078125)"/>
<path d="M0 0 C2.67684936 3.54034916 3.09249602 6.17697083 3.125 10.5 C3.13917969 11.35464844 3.15335938 12.20929688 3.16796875 13.08984375 C2.91460013 15.80818841 2.49636663 17.32313741 0.9375 19.5625 C-1.0859375 20.72265625 -1.0859375 20.72265625 -3.4375 21.625 C-8.19385685 23.41458563 -8.19385685 23.41458563 -12.0625 26.5625 C-12.25467003 29.34896541 -12.24398804 31.79998207 -12.0625 34.5625 C-11.81267982 41.7949863 -12.3200664 48.14153533 -16.0625 54.5625 C-19.69972241 56.98731494 -22.76951427 57.14966033 -27 57.4375 C-28.07411133 57.54578125 -28.07411133 57.54578125 -29.16992188 57.65625 C-32.62258115 57.89944009 -34.59385867 57.89375462 -37.4609375 55.8671875 C-39.11226146 53.49089204 -39.98360659 51.59455239 -40.75 48.8125 C-40.98074219 48.01328125 -41.21148437 47.2140625 -41.44921875 46.390625 C-42.96215873 39.41375527 -43.19596507 32.66992512 -43.125 25.5625 C-43.12048828 24.69238281 -43.11597656 23.82226562 -43.11132812 22.92578125 C-43.0996736 20.80465707 -43.08174357 18.6835689 -43.0625 16.5625 C-43.68898437 16.58570313 -44.31546875 16.60890625 -44.9609375 16.6328125 C-46.18683594 16.65988281 -46.18683594 16.65988281 -47.4375 16.6875 C-48.65566406 16.72230469 -48.65566406 16.72230469 -49.8984375 16.7578125 C-52.0625 16.5625 -52.0625 16.5625 -54.0625 14.5625 C-55.55577354 9.66788117 -55.55577354 9.66788117 -55.0625 6.5625 C-50.4548303 0.08616425 -43.54566254 -2.36006923 -36.0546875 -3.83203125 C-25.29772774 -5.36581829 -8.88309829 -7.07022109 0 0 Z " fill="#131313" transform="translate(205.0625,148.4375)"/>
<path d="M0 0 C1.50240234 -0.01160156 1.50240234 -0.01160156 3.03515625 -0.0234375 C6.37728254 0.43537392 8.23590165 1.38040573 10.9375 3.375 C13.46535679 7.16678518 13.04001011 8.95227267 12.6875 13.4375 C12.59984375 14.68660156 12.5121875 15.93570313 12.421875 17.22265625 C11.9375 20.375 11.9375 20.375 9.9375 22.375 C8.2694364 22.95507536 6.57791076 23.46950582 4.875 23.9375 C1.6253857 24.6461258 1.6253857 24.6461258 -1.0625 26.375 C-1.22916667 29.375 -1.22916667 29.375 -1.0625 32.375 C1.1778023 34.6153023 7.23128125 33.72866656 10.41601562 33.8046875 C15.26549553 34.00657391 18.74358506 34.68936706 22.9375 37.375 C25.68754689 41.50007034 25.88118092 44.53319097 24.9375 49.375 C21.48185922 56.76679965 16.38094538 63.65327731 8.9375 67.375 C0.8621141 68.3563837 -5.40717392 67.0988467 -12.0625 62.375 C-18.22848343 56.96512162 -21.58616899 51.12577615 -24.0625 43.375 C-24.5575 41.89 -24.5575 41.89 -25.0625 40.375 C-25.89955083 27.51735032 -25.34319259 18.09662655 -16.6875 7.9375 C-11.84033313 2.60219089 -7.29951311 -0.05651236 0 0 Z " fill="#131313" transform="translate(58.0625,141.625)"/>
<path d="M0 0 C5.51439486 2.60680484 9.75766529 6.74209321 11.94140625 12.46875 C12.70195462 14.96716977 13.38046454 17.46325345 14 20 C14.2784375 20.95519531 14.2784375 20.95519531 14.5625 21.9296875 C16.70694872 32.07752517 14.93064241 43.74890195 10.1875 52.9375 C5.53922694 59.44508228 5.53922694 59.44508228 2 61 C-2.66611718 61.70304221 -7.2851732 61.92895466 -12 62 C-19.14280572 51.35581893 -18.40669389 37.30625574 -18 25 C-19.91619141 25.04833984 -19.91619141 25.04833984 -21.87109375 25.09765625 C-25.7421875 25.1953125 -25.7421875 25.1953125 -28.0625 23.4375 C-29.467637 19.7841438 -29.06850097 17.77117989 -28 14 C-22.28000687 3.12780717 -12.07396065 -2.02688775 0 0 Z " fill="#1A1A1A" transform="translate(94,5)"/>
<path d="M0 0 C5.26260295 2.12315339 7.25287648 5.80445987 9.5703125 10.81640625 C13.37808331 21.83115958 12.88954343 36.67981933 8.48046875 47.44921875 C7.01914802 50.41996952 5.47199911 52.74098278 2.73046875 54.69921875 C-8.10414663 58.31075721 -8.10414663 58.31075721 -13.51953125 57.44921875 C-22.05406385 48.72390831 -21.02994388 33.00569194 -20.96557617 21.52880859 C-20.95688371 19.15899554 -20.9862652 16.79146252 -21.01757812 14.421875 C-21.01918627 12.90494863 -21.01862005 11.38801802 -21.015625 9.87109375 C-21.02685898 9.16805115 -21.03809296 8.46500854 -21.04966736 7.74066162 C-21.00372826 4.54736392 -20.92593797 2.87868784 -18.68676758 0.51245117 C-13.21276838 -2.17305818 -5.81040946 -1.27018253 0 0 Z " fill="#131313" transform="translate(88.51953125,79.55078125)"/>
<path d="M0 0 C4.63990218 1.66336116 9.42668373 0.93817737 14.29296875 0.7421875 C17.69140625 0.96484375 17.69140625 0.96484375 19.3581543 2.18725586 C21.03136752 4.41810469 21.1948528 5.85896676 21.421875 8.62890625 C21.50276367 9.57475586 21.58365234 10.52060547 21.66699219 11.49511719 C21.73692383 12.51637695 21.80685547 13.53763672 21.87890625 14.58984375 C21.99733887 16.16813965 21.99733887 16.16813965 22.11816406 17.77832031 C22.66277972 25.75422834 22.89735673 33.72132382 22.94140625 41.71484375 C22.95067139 42.77912598 22.95993652 43.8434082 22.96948242 44.93994141 C22.96537354 45.93300293 22.96126465 46.92606445 22.95703125 47.94921875 C22.95477539 48.82288086 22.95251953 49.69654297 22.95019531 50.59667969 C22.66897655 53.17009667 22.07266194 54.78525878 20.69140625 56.96484375 C18.18889911 58.21609732 15.96607522 58.39475409 13.19140625 58.77734375 C9.02022604 59.4343793 5.43201369 60.33383954 1.56640625 62.02734375 C-3.41856388 64.1660311 -7.91696643 64.76848706 -13.30859375 64.96484375 C-14.23027344 65.01640625 -15.15195312 65.06796875 -16.1015625 65.12109375 C-23.54275441 65.36742286 -28.86447214 64.18438879 -35.12109375 60.15234375 C-40.67248499 54.60095251 -41.4660945 48.34769991 -41.55859375 40.83984375 C-41.53720954 28.17580974 -37.24786288 18.08034388 -28.68359375 8.71484375 C-21.25021162 1.73540862 -10.19733937 -4.57241105 0 0 Z M-19.80078125 11.79296875 C-26.81628937 22.00489181 -27.97893395 34.59701913 -25.83984375 46.59375 C-24.23930559 51.61448578 -21.53392968 54.11920935 -17.30859375 56.96484375 C-15.40150532 57.87912714 -15.40150532 57.87912714 -13.30859375 57.96484375 C-12.23609375 58.08859375 -11.16359375 58.21234375 -10.05859375 58.33984375 C-5.15454715 57.84943909 -2.07554215 56.0770404 1.69140625 52.96484375 C3.87938296 50.07106811 5.03236041 47.52369126 5.69140625 43.96484375 C6.68140625 43.96484375 7.67140625 43.96484375 8.69140625 43.96484375 C9.18640625 48.91484375 9.18640625 48.91484375 9.69140625 53.96484375 C12.66140625 53.96484375 15.63140625 53.96484375 18.69140625 53.96484375 C18.71621309 48.11157537 18.7343168 42.25833793 18.74633789 36.4050293 C18.75135189 34.41576606 18.75816474 32.42650648 18.7668457 30.43725586 C18.77904009 27.57014053 18.78466402 24.70307413 18.7890625 21.8359375 C18.79422379 20.95336777 18.79938507 20.07079803 18.80470276 19.16148376 C18.80513761 14.32339947 18.59057976 9.72505804 17.69140625 4.96484375 C16.68304563 3.73217027 16.68304563 3.73217027 14.625 3.8671875 C13.38943359 3.88458984 13.38943359 3.88458984 12.12890625 3.90234375 C11.30261719 3.91136719 10.47632813 3.92039062 9.625 3.9296875 C8.66787109 3.94708984 8.66787109 3.94708984 7.69140625 3.96484375 C7.69140625 5.94484375 7.69140625 7.92484375 7.69140625 9.96484375 C5.69140625 7.96484375 3.69140625 5.96484375 1.69140625 3.96484375 C-7.88848449 2.75394556 -13.67878606 4.29272334 -19.80078125 11.79296875 Z " fill="#1C1C1C" transform="translate(272.30859375,76.03515625)"/>
<path d="M0 0 C4.12379396 1.93327203 7.31537701 4.18965186 9.50390625 8.28125 C9.50390625 11.96875 9.50390625 11.96875 8.50390625 15.28125 C6.44140625 16.71875 6.44140625 16.71875 4.50390625 17.28125 C4.03210938 16.54068359 4.03210938 16.54068359 3.55078125 15.78515625 C3.1228125 15.14449219 2.69484375 14.50382813 2.25390625 13.84375 C1.83625 13.20566406 1.41859375 12.56757813 0.98828125 11.91015625 C-0.76858252 9.98222943 -1.95699178 9.66645564 -4.49609375 9.28125 C-1.3054957 15.33295092 -1.3054957 15.33295092 2.62890625 20.90625 C8.19315203 27.95429465 8.95115409 36.51130323 8.50390625 45.28125 C6.92196798 48.69318195 5.90910502 50.01418717 2.75390625 52.09375 C-3.52989663 54.3897549 -7.52736432 53.51257631 -13.49609375 50.78125 C-21.08908512 46.73292169 -26.40167123 41.53890164 -29.0703125 33.23828125 C-29.89303456 29.45677894 -30.25113425 25.79133099 -28.49609375 22.28125 C-24.86609375 23.27125 -21.23609375 24.26125 -17.49609375 25.28125 C-17.90044125 21.88473096 -18.41350987 19.43320434 -20.05859375 16.40625 C-21.98714394 12.21374959 -22.00730551 9.88215586 -21.49609375 5.28125 C-16.63215319 -2.33892354 -8.31061347 -2.3930405 0 0 Z " fill="#FAFAFA" transform="translate(241.49609375,150.71875)"/>
<path d="M0 0 C3.59228631 2.75739565 6.99637572 5.6018905 10 9 C10 9.66 10 10.32 10 11 C-19.7 11 -49.4 11 -80 11 C-59.08875907 -13.39644775 -26.96720699 -16.39982471 0 0 Z " fill="#FBFBFB" transform="translate(416,47)"/>
<path d="M0 0 C10.7034528 -0.61259825 19.76179567 0.22385822 28.3125 7.1875 C35.20701675 13.79887438 39.43186077 20.9486566 40.3359375 30.578125 C40.45813909 42.06507404 38.73079326 50.51253857 31.171875 59.34375 C24.97189028 64.0717959 18.37982715 64.49938388 10.875 64.4375 C10.00746094 64.45748047 9.13992187 64.47746094 8.24609375 64.49804688 C1.43562797 64.49286387 -2.18747648 62.65180789 -7.1875 57.9375 C-14.04024257 46.83133101 -13.45976511 31.78119275 -10.81616211 19.38745117 C-9.29185651 13.10772589 -7.52785852 7.76616686 -3 3 C-2.34 3 -1.68 3 -1 3 C-0.67 2.01 -0.34 1.02 0 0 Z M-1.75 6.5625 C-8.14589442 15.48308958 -8.25099439 24.70952291 -8.375 35.25 C-8.41238281 36.43980469 -8.44976562 37.62960938 -8.48828125 38.85546875 C-8.5630448 46.37335888 -7.80898966 52.01453619 -3 58 C0.73649867 60.74009902 4.30333901 61.67834264 8.98046875 61.47265625 C13.70138127 60.36776183 16.80166296 56.92823324 19.2890625 52.92578125 C22.11428917 47.42776819 23.15644266 42.98631477 23.1875 36.75 C23.20167969 35.46609375 23.21585938 34.1821875 23.23046875 32.859375 C22.9911447 28.85171124 22.24191146 25.789548 21 22 C20.34 22 19.68 22 19 22 C18.979375 21.030625 18.95875 20.06125 18.9375 19.0625 C18.20488009 13.70453346 14.58594982 9.84432612 11 6 C6.21037941 2.80691961 2.55590618 2.55017833 -1.75 6.5625 Z " fill="#171717" transform="translate(131,4)"/>
<path d="M0 0 C3.6046907 5.46517623 4.77085853 9.50154801 5 16 C5.06316406 17.21300781 5.12632812 18.42601563 5.19140625 19.67578125 C5.56573853 29.76434305 4.96105813 39.7880814 -1.375 48.125 C-6.60266756 51.85904826 -10.45336895 53.81832888 -17 53 C-25.97404481 48.2490351 -29.82853502 39.68717019 -33.3125 30.5625 C-34.29131063 25.49048127 -35.38356195 18.7671239 -33 14 C-29.75547296 14.305041 -28.37803489 14.56807676 -26.19140625 17.06640625 C-25.65386719 17.89011719 -25.11632812 18.71382812 -24.5625 19.5625 C-21.96676471 23.33785659 -21.96676471 23.33785659 -17.6875 24.6875 C-14.87022608 24.21009434 -14.87022608 24.21009434 -13 22 C-12.69665347 20.13051286 -12.69665347 20.13051286 -12.7265625 18.0078125 C-12.7059375 17.22019531 -12.6853125 16.43257812 -12.6640625 15.62109375 C-12.6381447 13.96494622 -12.61984146 12.308661 -12.609375 10.65234375 C-12.43232405 4.62277517 -12.43232405 4.62277517 -10.2265625 1.4453125 C-6.66398168 -0.86723996 -4.16585961 -0.27772397 0 0 Z " fill="#F9F9F9" transform="translate(206,82)"/>
<path d="M0 0 C0.78375 0.495 1.5675 0.99 2.375 1.5 C2.705 1.17 3.035 0.84 3.375 0.5 C7.92516248 -0.00557361 11.99919164 -0.37246384 15.9375 2.125 C19.15871249 7.44700325 18.52197278 13.98446889 18.5078125 20.01953125 C18.50876923 20.91870773 18.50972595 21.81788422 18.51071167 22.74430847 C18.51138947 24.63447134 18.5095632 26.52463658 18.50537109 28.41479492 C18.49998572 31.32020206 18.50534564 34.22545681 18.51171875 37.13085938 C18.51105851 38.96875034 18.50977848 40.80664122 18.5078125 42.64453125 C18.50983673 43.51737259 18.51186096 44.39021393 18.51394653 45.289505 C18.48997118 51.38502882 18.48997118 51.38502882 17.375 52.5 C15.66794321 52.60632188 13.95912154 52.6848019 12.25 52.75 C7.40986213 53.13244613 4.64299416 54.05817266 1.0078125 57.24609375 C-3.73117091 60.88536092 -8.65279765 60.85265166 -14.375 60.8125 C-15.17832764 60.80831055 -15.98165527 60.80412109 -16.80932617 60.79980469 C-24.91541958 60.64513651 -31.68593166 59.43906834 -37.625 53.5 C-42.50186543 46.70722316 -42.43279416 38.66285833 -41.17578125 30.62890625 C-40.69825433 28.24127166 -40.18940186 25.86847207 -39.625 23.5 C-38.635 23.17 -37.645 22.84 -36.625 22.5 C-36.625 23.49 -36.625 24.48 -36.625 25.5 C-34.315 25.83 -32.005 26.16 -29.625 26.5 C-29.625 25.51 -29.625 24.52 -29.625 23.5 C-30.945 23.17 -32.265 22.84 -33.625 22.5 C-33.625 21.84 -33.625 21.18 -33.625 20.5 C-32.820625 20.37625 -32.01625 20.2525 -31.1875 20.125 C-30.341875 19.91875 -29.49625 19.7125 -28.625 19.5 C-28.295 18.84 -27.965 18.18 -27.625 17.5 C-31.25028568 17.29859524 -33.49001708 17.64223235 -36.625 19.5 C-34.35705549 11.43619731 -27.58958045 6.09082997 -20.8359375 1.7265625 C-13.98797069 -2.07248622 -7.34300452 -3.03848463 0 0 Z M-20.4296875 9.4140625 C-26.74648604 18.05644856 -28.79221628 28.96263082 -27.625 39.5 C-26.34465943 45.75232977 -23.79610497 48.86922417 -18.625 52.5 C-15.36376322 54.13061839 -12.14843883 54.03160656 -8.625 53.5 C-3.62510118 51.56863114 -0.54174235 48.97843641 1.875 44.1875 C2.6175 42.3621875 2.6175 42.3621875 3.375 40.5 C4.035 40.5 4.695 40.5 5.375 40.5 C6.035 43.8 6.695 47.1 7.375 50.5 C10.015 50.5 12.655 50.5 15.375 50.5 C15.39982169 45.07397795 15.4179175 39.64798938 15.42993164 34.22192383 C15.43494316 32.37816797 15.44175415 30.53441604 15.45043945 28.69067383 C15.46264484 26.03205388 15.46826025 23.37348673 15.47265625 20.71484375 C15.47781754 19.89789536 15.48297882 19.08094696 15.48829651 18.23924255 C15.48874997 13.55476386 15.23401117 9.11091868 14.375 4.5 C13.36663938 3.26732652 13.36663938 3.26732652 11.30859375 3.40234375 C10.07302734 3.41974609 10.07302734 3.41974609 8.8125 3.4375 C7.98621094 3.44652344 7.15992188 3.45554688 6.30859375 3.46484375 C5.35146484 3.48224609 5.35146484 3.48224609 4.375 3.5 C4.87 5.975 4.87 5.975 5.375 8.5 C4.385 8.5 3.395 8.5 2.375 8.5 C2.1275 7.88125 1.88 7.2625 1.625 6.625 C0.10278828 4.03724008 -0.79277975 3.44407342 -3.625 2.5 C-10.25627829 1.42048958 -15.96286837 4.67652706 -20.4296875 9.4140625 Z " fill="#232323" transform="translate(128.625,147.5)"/>
<path d="M0 0 C2.69990662 1.79993774 4.5418865 3.083773 6 6 C6.928125 5.195625 7.85625 4.39125 8.8125 3.5625 C12.85494207 0.05905021 16.46443019 -0.28617623 21.65625 -0.21875 C27.28735262 0.30681958 32.0606672 3.0606672 36 7 C43.07680994 18.12750924 41.53817341 31.55789905 40.125 44.125 C40.04660889 44.84727783 39.96821777 45.56955566 39.88745117 46.3137207 C39.04766 53.1375272 39.04766 53.1375272 37 56 C33.8125 57.125 33.8125 57.125 30 57 C25.05449236 54.21878405 22.03763918 50.27388964 20 45 C20 44.34 20 43.68 20 43 C15.01510642 44.17291614 13.21609944 47.07324628 10.52734375 51.125 C8.26070862 53.90756999 6.14218949 54.76658774 2.66796875 55.4765625 C-1.10375541 55.70227198 -3.86887256 55.76762713 -7.06640625 53.59765625 C-11.86048723 48.53436121 -14.09006012 42.61291013 -16 36 C-16.19207031 35.39929688 -16.38414063 34.79859375 -16.58203125 34.1796875 C-18.41993588 24.59510074 -18.12756668 13.47011015 -13 5 C-9.31713282 0.42431653 -5.81051775 -0.58105177 0 0 Z M-5 3 C-6.31872281 4.08471985 -6.31872281 4.08471985 -6.01953125 6.71875 C-5.53306831 15.6035826 -4.48429578 24.33023464 -3.125 33.125 C-2.96362549 34.20330078 -2.80225098 35.28160156 -2.63598633 36.39257812 C-1.76398427 41.79129054 -0.8454165 46.30099789 2 51 C4.8017367 51.29170908 4.8017367 51.29170908 8 50 C10.36628674 46.85583049 12.15269049 43.46596181 14 40 C15 39 15 39 17.23046875 38.5625 C21.31455084 39.20765824 22.9392289 41.87783002 25.3125 45 C25.9940918 45.85851562 25.9940918 45.85851562 26.68945312 46.734375 C27.80662795 48.14554319 28.90517971 49.57141896 30 51 C30.66 50.67 31.32 50.34 32 50 C35.82067601 38.51008382 39.48867583 22.68160482 34.3125 11.125 C31.26998479 7.01349296 28.76206694 5.58735565 24 4 C19.06671551 3.48994855 15.241812 3.23970694 10.9375 5.875 C7.53505779 9.60671081 7.89224783 12.14726165 7.9375 17.125 C7.94652344 18.40632813 7.95554688 19.68765625 7.96484375 21.0078125 C7.97644531 21.99523437 7.98804688 22.98265625 8 24 C7.34 23.67 6.68 23.34 6 23 C5.69140625 20.70703125 5.69140625 20.70703125 5.5625 17.8125 C5.1544728 12.29339526 3.95921559 8.55549859 0.5625 4.125 C-1.22012869 2.61046352 -1.22012869 2.61046352 -5 3 Z " fill="#141414" transform="translate(122,79)"/>
<path d="M0 0 C2.9375 2.5625 2.9375 2.5625 5 5 C5.94875 4.195625 6.8975 3.39125 7.875 2.5625 C12.27796678 -1.17045009 15.44781304 -1.34826615 21.1796875 -1.2734375 C27.73360893 -0.63801575 31.52722743 3.16094501 35.73828125 7.92578125 C39.06707527 13.39819494 39.3273705 19.23021371 39.25 25.4375 C39.24468262 26.21303223 39.23936523 26.98856445 39.23388672 27.78759766 C38.88960978 49.24171649 38.88960978 49.24171649 35 55 C32.3125 56.125 32.3125 56.125 29 56 C24.09415214 53.14172 21.04507968 49.29314742 19 44 C19 43.34 19 42.68 19 42 C15.23542896 42.96803255 13.62017043 44.27082537 11.5625 47.4375 C9.16003093 51.00773267 7.19583048 52.62828619 3 54 C-1.53353813 54.71413255 -4.7764431 54.79673473 -8.6875 52.25 C-14.46024678 44.13695047 -18.02844123 35.9314896 -19 26 C-19.10634766 24.97132812 -19.10634766 24.97132812 -19.21484375 23.921875 C-19.66300433 15.10207478 -16.84783688 6.56098772 -11 0 C-7.12092197 -1.37091914 -3.98376996 -0.97846982 0 0 Z M-7 2 C-6.68970801 12.1540379 -6.18325412 22.20132316 -4.625 32.25 C-4.51115967 33.01030518 -4.39731934 33.77061035 -4.2800293 34.55395508 C-3.43394104 39.66717291 -2.11362394 44.25620562 0 49 C2.57080135 50.13440778 2.57080135 50.13440778 5 50 C8.44868587 45.91266859 11.23793154 41.56194093 14 37 C16.20703125 37.12109375 16.20703125 37.12109375 19 38 C20.7594823 40.00713447 22.21475548 41.86718236 23.6875 44.0625 C25.08008851 46.09038509 26.50016288 48.04638111 28 50 C28.66 50 29.32 50 30 50 C30.65035371 47.48025747 31.29537493 44.95934065 31.9375 42.4375 C32.21110352 41.38079102 32.21110352 41.38079102 32.49023438 40.30273438 C35.12235579 29.91781895 37.14699226 18.92771915 32 9 C28.04816275 4.20883449 23.01874955 2.37734369 17 1.625 C13.13355366 2.10830579 11.02815368 3.60564593 8 6 C6.46733418 9.06533164 6.89723529 12.26754272 6.9375 15.625 C6.94201172 16.33140625 6.94652344 17.0378125 6.95117188 17.765625 C6.96296125 19.51045275 6.98089676 21.255237 7 23 C6.34 22.67 5.68 22.34 5 22 C4.69140625 19.70703125 4.69140625 19.70703125 4.5625 16.8125 C4.15459761 11.29508344 2.91498976 7.61134968 -0.375 3.125 C-2.60604707 1.58042895 -4.34315302 1.92211198 -7 2 Z " fill="#101010" transform="translate(24,82)"/>
<path d="M0 0 C10.56235052 0.03300735 18.18456521 2.22267337 26.625 9.01171875 C33.14158596 17.25328335 37.12166097 23.91194573 37 34.69921875 C37.01160156 35.72789063 37.01160156 35.72789063 37.0234375 36.77734375 C37.0068452 41.1245271 36.34030115 44.66035868 34.75 48.69921875 C33.76 48.69921875 32.77 48.69921875 31.75 48.69921875 C31.75 47.70921875 31.75 46.71921875 31.75 45.69921875 C28.45 45.69921875 25.15 45.69921875 21.75 45.69921875 C21.605625 46.48296875 21.46125 47.26671875 21.3125 48.07421875 C20.75 50.69921875 20.75 50.69921875 19.75 52.69921875 C21.4 52.69921875 23.05 52.69921875 24.75 52.69921875 C25.08 53.35921875 25.41 54.01921875 25.75 54.69921875 C24.656875 54.78171875 23.56375 54.86421875 22.4375 54.94921875 C18.71723336 55.33611084 18.71723336 55.33611084 16.8125 57.76171875 C16.461875 58.40109375 16.11125 59.04046875 15.75 59.69921875 C18.06 59.69921875 20.37 59.69921875 22.75 59.69921875 C21.9375 61.63671875 21.9375 61.63671875 20.75 63.69921875 C16.64571218 65.06731469 12.79985669 64.9627826 8.5 65.01171875 C7.24896484 65.05522461 7.24896484 65.05522461 5.97265625 65.09960938 C0.02048743 65.16034579 -3.37846101 64.16008043 -8.25 60.69921875 C-14.71405316 52.83753247 -14.59010616 44.62065252 -14.5625 34.88671875 C-14.57861328 33.76201172 -14.59472656 32.63730469 -14.61132812 31.47851562 C-14.61697511 21.76005102 -13.28027319 13.55684745 -7.25 5.69921875 C-6.69183594 4.83296875 -6.13367188 3.96671875 -5.55859375 3.07421875 C-3.25 0.69921875 -3.25 0.69921875 0 0 Z M-6.25 9.69921875 C-10.76707306 18.08157245 -11.45227414 25.55915552 -11.5 34.94921875 C-11.520625 35.94824219 -11.54125 36.94726562 -11.5625 37.9765625 C-11.59724085 44.62074998 -11.46865084 52.10454466 -6.79760742 57.32128906 C-2.66204096 60.86050621 0.19529961 62.07158651 5.65625 61.97265625 C9.19117534 61.51100555 11.11685188 60.03314549 13.75 57.69921875 C19.75162031 49.03021163 21.02529555 39.30701636 19.296875 28.99609375 C18.83222718 26.88526509 18.29836552 24.78986231 17.75 22.69921875 C17.09 22.69921875 16.43 22.69921875 15.75 22.69921875 C15.70875 21.70921875 15.6675 20.71921875 15.625 19.69921875 C14.82638214 14.00472618 11.02283574 9.61967686 6.734375 5.99609375 C1.19471549 2.37568635 -2.624508 5.02424222 -6.25 9.69921875 Z " fill="#1A1A1A" transform="translate(196.25,3.30078125)"/>
<path d="M0 0 C2.625 2.1875 2.625 2.1875 4 4 C3 7 3 7 0.88671875 8.65625 C-3.61306619 10.75087249 -8.02205147 10.47071124 -12.91796875 10.59375 C-13.93503906 10.7278125 -14.95210937 10.861875 -16 11 C-18.47476959 14.71215438 -18.26634575 16.68528966 -18.30859375 21.1171875 C-18.33375686 22.54297278 -18.35915484 23.96875394 -18.38476562 25.39453125 C-18.41347594 27.6349172 -18.43750194 29.87523139 -18.45629883 32.11572266 C-18.47802669 34.2832561 -18.51747141 36.44994769 -18.55859375 38.6171875 C-18.57204834 39.91253418 -18.58550293 41.20788086 -18.59936523 42.54248047 C-19.01835347 46.15839232 -19.88978822 48.07838362 -22 51 C-23.86328125 50.8203125 -23.86328125 50.8203125 -26 50 C-27.23046875 47.7421875 -27.23046875 47.7421875 -28.1875 44.875 C-28.67283203 43.47894531 -28.67283203 43.47894531 -29.16796875 42.0546875 C-31.04807115 35.15215194 -31.26614885 28.17006931 -31.5625 21.0625 C-31.60568359 20.09248047 -31.64886719 19.12246094 -31.69335938 18.12304688 C-31.79862017 15.74883106 -31.89973199 13.37443191 -32 11 C-34.97 10.67 -37.94 10.34 -41 10 C-41.33 8.68 -41.66 7.36 -42 6 C-36.59644534 1.65366256 -31.70092687 -0.3387987 -25 -2 C-24.34644531 -2.185625 -23.69289062 -2.37125 -23.01953125 -2.5625 C-15.3053744 -4.23365197 -7.17464421 -3.18133574 0 0 Z " fill="#F6F6F6" transform="translate(196,152)"/>
<path d="M0 0 C7.09838819 7.808227 5.16630622 18.52161669 4.9140625 28.34765625 C4.50840399 36.14209468 3.74816856 49.25183144 -2 55 C-4 54.9375 -4 54.9375 -6 54 C-11.25681232 43.01910316 -10.23972452 29.86636356 -10 18 C-12.97 18 -15.94 18 -19 18 C-20.53653295 12.20845272 -20.53653295 12.20845272 -19.1640625 9.1171875 C-14.56072062 2.34411759 -8.43798573 -2.14960093 0 0 Z " fill="#F9F9F9" transform="translate(89,9)"/>
<path d="M0 0 C2 3 2 3 1.625 5.6875 C1.315625 6.8321875 1.315625 6.8321875 1 8 C0.31292969 8.17015625 -0.37414062 8.3403125 -1.08203125 8.515625 C-2.43361328 8.87914062 -2.43361328 8.87914062 -3.8125 9.25 C-4.70582031 9.48203125 -5.59914063 9.7140625 -6.51953125 9.953125 C-9.44862075 11.18933915 -10.48013132 12.2278807 -12 15 C-12.33333393 17.03389303 -12.33333393 17.03389303 -12 19.0625 C-11.938125 19.73410156 -11.87625 20.40570313 -11.8125 21.09765625 C-10.53546345 24.08764087 -8.95823722 24.71887364 -6 26 C-3.12697814 26.43181475 -0.27702735 26.51050122 2.625 26.5625 C10.61712943 26.74475295 10.61712943 26.74475295 14 29 C14.5240138 33.56640598 14.68524784 35.85792027 12.3125 39.8125 C8.62318517 43.30239241 5.86797263 45.17086383 0.75 45.5625 C-4.93976328 45.35387535 -8.82792823 42.70311796 -13 39 C-18.73222667 32.53077276 -19.345839 26.99006992 -19.28515625 18.58984375 C-18.73578302 11.67376158 -15.829662 5.98058894 -11 1 C-7.39495175 -1.73486419 -4.25191824 -1.02360995 0 0 Z " fill="#F8F8F8" transform="translate(65,153)"/>
<path d="M0 0 C2.8125 -0.5625 2.8125 -0.5625 6 0 C11.19103856 4.83710411 12.77204225 9.70466954 13.265625 16.83984375 C13.27409113 18.20571286 13.26835715 19.57172802 13.25 20.9375 C13.24395752 21.66678711 13.23791504 22.39607422 13.23168945 23.14746094 C12.85080517 44.61548438 12.85080517 44.61548438 8 51 C5.3125 51.8125 5.3125 51.8125 3 52 C-3.2653948 42.03232645 -2.3169451 28.69987999 -2.25 17.375 C-2.25714609 16.01431925 -2.26495572 14.65364183 -2.2734375 13.29296875 C-2.27085938 12.00777344 -2.26828125 10.72257812 -2.265625 9.3984375 C-2.26336914 8.24005371 -2.26111328 7.08166992 -2.25878906 5.88818359 C-2 3 -2 3 0 0 Z " fill="#F7F7F7" transform="translate(73,82)"/>
<path d="M0 0 C4.3189403 0.47988226 6.21653313 2.818895 9 6 C14.73504164 13.89607183 16.58659399 19.19160288 16 29 C15.5142142 31.46272277 14.84350554 33.62764068 14 36 C12.04174127 36.02694851 10.08337774 36.04637218 8.125 36.0625 C7.03445312 36.07410156 5.94390625 36.08570313 4.8203125 36.09765625 C2 36 2 36 0 35 C-0.41064453 33.23413086 -0.41064453 33.23413086 -0.6328125 30.96484375 C-0.71660156 30.15595703 -0.80039063 29.34707031 -0.88671875 28.51367188 C-0.96535156 27.66353516 -1.04398438 26.81339844 -1.125 25.9375 C-1.21136719 25.08349609 -1.29773438 24.22949219 -1.38671875 23.34960938 C-1.59947228 21.23389367 -1.80079953 19.11703476 -2 17 C-2.66 17 -3.32 17 -4 17 C-4.18175781 16.39671875 -4.36351562 15.7934375 -4.55078125 15.171875 C-5.91400984 10.83750718 -7.21516132 7.62029029 -10 4 C-9.67 3.01 -9.34 2.02 -9 1 C-6.36 1.66 -3.72 2.32 -1 3 C-0.67 2.01 -0.34 1.02 0 0 Z " fill="#0D0D0D" transform="translate(216,9)"/>
<path d="M0 0 C4.29 0 8.58 0 13 0 C13 2.64 13 5.28 13 8 C11.93458984 8.07347656 11.93458984 8.07347656 10.84765625 8.1484375 C9.92855469 8.22320312 9.00945312 8.29796875 8.0625 8.375 C7.14597656 8.44460937 6.22945312 8.51421875 5.28515625 8.5859375 C4.53105469 8.72257812 3.77695313 8.85921875 3 9 C2.67 9.66 2.34 10.32 2 11 C4.97 11.33 7.94 11.66 11 12 C11 13.32 11 14.64 11 16 C11.66 15.67 12.32 15.34 13 15 C12.46331077 18.89948881 11.50314361 21.14441175 8.9375 24.125 C8.11572266 25.11886719 8.11572266 25.11886719 7.27734375 26.1328125 C0.97627274 31.29904225 -5.72880453 31.40775917 -13.5 31.1875 C-14.4178125 31.17396484 -15.335625 31.16042969 -16.28125 31.14648438 C-18.52146803 31.11148097 -20.76040594 31.06238869 -23 31 C-23 29.68 -23 28.36 -23 27 C-22.34773437 27.05800781 -21.69546875 27.11601563 -21.0234375 27.17578125 C-16.36953754 27.41602682 -13.71699891 27.42488825 -9.625 25 C-3.17185981 17.62498264 -1.76117538 9.49967326 0 0 Z " fill="#151515" transform="translate(155,37)"/>
<path d="M0 0 C2.19510603 0.25361783 4.38228739 0.57765908 6.5625 0.9375 C8.35880859 1.22947266 8.35880859 1.22947266 10.19140625 1.52734375 C11.11824219 1.68332031 12.04507813 1.83929688 13 2 C13 2.66 13 3.32 13 4 C13.33 4 13.66 4 14 4 C14.8024634 8.24984618 15.16218381 12.3009943 15.1875 16.625 C15.20167969 17.73101562 15.21585938 18.83703125 15.23046875 19.9765625 C15.00761948 22.9000427 14.52134128 24.53458529 13 27 C12.34 27 11.68 27 11 27 C10.34 27.66 9.68 28.32 9 29 C5.875 29.125 5.875 29.125 3 29 C5.475 29.99 5.475 29.99 8 31 C7.67 31.66 7.34 32.32 7 33 C3.65747276 33.07427838 1.1964086 33.06546953 -2 32 C-1.88202982 27.60324012 -1.75780274 23.20671601 -1.62768555 18.81030273 C-1.58428187 17.31360731 -1.54261087 15.81686061 -1.50268555 14.32006836 C-1.44511384 12.17285688 -1.38138284 10.02590479 -1.31640625 7.87890625 C-1.27974854 6.5854126 -1.24309082 5.29191895 -1.20532227 3.95922852 C-1 1 -1 1 0 0 Z " fill="#232323" transform="translate(178,169)"/>
<path d="M0 0 C0.66 0 1.32 0 2 0 C3.11165232 4.4378561 3.11527763 8.76956386 3.0625 13.3125 C3.05798828 14.05306641 3.05347656 14.79363281 3.04882812 15.55664062 C3.03712175 17.37112899 3.01918898 19.18557534 3 21 C2.34 21 1.68 21 1 21 C0.87625 21.598125 0.7525 22.19625 0.625 22.8125 C0 25 0 25 -2 28 C-0.68 27.67 0.64 27.34 2 27 C3.35384615 33.27692308 3.35384615 33.27692308 1.5625 36.9375 C0.7890625 37.9584375 0.7890625 37.9584375 0 39 C0.66 39.33 1.32 39.66 2 40 C2 39.34 2 38.68 2 38 C2.66 38 3.32 38 4 38 C4.99 40.64 5.98 43.28 7 46 C5.68 45.67 4.36 45.34 3 45 C1.5459375 44.814375 1.5459375 44.814375 0.0625 44.625 C-4.98515838 41.94665065 -6.23719102 37.24186218 -8 32 C-10.29198742 23.21206898 -11.78171369 12.59804717 -8 4 C-5.921875 2.7421875 -5.921875 2.7421875 -4 2 C-4.33 3.65 -4.66 5.3 -5 7 C-4.319375 6.2575 -4.319375 6.2575 -3.625 5.5 C-2 4 -2 4 0 4 C0 2.68 0 1.36 0 0 Z " fill="#0F0F0F" transform="translate(15,87)"/>
<path d="M0 0 C7.52289356 -0.36997837 7.52289356 -0.36997837 9.58203125 1.22680664 C11.36333029 3.45435054 11.49862221 4.83526029 11.73046875 7.6640625 C11.81135742 8.60991211 11.89224609 9.55576172 11.97558594 10.53027344 C12.04551758 11.5515332 12.11544922 12.57279297 12.1875 13.625 C12.26645508 14.67719727 12.34541016 15.72939453 12.42675781 16.81347656 C12.97137347 24.78938459 13.20595048 32.75648007 13.25 40.75 C13.26389771 42.34642334 13.26389771 42.34642334 13.27807617 43.97509766 C13.27191284 45.46468994 13.27191284 45.46468994 13.265625 46.984375 C13.26336914 47.85803711 13.26111328 48.73169922 13.25878906 49.63183594 C12.9775703 52.20525292 12.38125569 53.82041503 11 56 C8.45327008 57.27336496 6.13266528 57.47161375 3.3125 57.875 C-0.38423985 58.45496757 -3.61861555 59.07415971 -7 60.6875 C-10 62 -10 62 -12.4375 61.6875 C-12.953125 61.460625 -13.46875 61.23375 -14 61 C-12.02 60.505 -12.02 60.505 -10 60 C-10 59.01 -10 58.02 -10 57 C-10.66 56.67 -11.32 56.34 -12 56 C-11.59007812 55.40832031 -11.18015625 54.81664062 -10.7578125 54.20703125 C-10.21898437 53.41683594 -9.68015625 52.62664062 -9.125 51.8125 C-8.59132813 51.03519531 -8.05765625 50.25789063 -7.5078125 49.45703125 C-6.01984561 47.0323391 -4.97571922 44.6666501 -4 42 C-2.68 42.33 -1.36 42.66 0 43 C0 46.3 0 49.6 0 53 C2.97 53 5.94 53 9 53 C8.8813062 47.14660184 8.75702946 41.29335808 8.62768555 35.44018555 C8.58450129 33.4509601 8.5428153 31.46170152 8.50268555 29.47241211 C8.44458102 26.60520463 8.38100445 23.7381614 8.31640625 20.87109375 C8.29969376 19.98852402 8.28298126 19.10595428 8.26576233 18.19664001 C8.15142803 13.37944551 7.79190871 8.75427042 7 4 C4.36 3.34 1.72 2.68 -1 2 C-0.67 1.34 -0.34 0.68 0 0 Z " fill="#262626" transform="translate(282,77)"/>
<path d="M0 0 C0.70125 0.09023437 1.4025 0.18046875 2.125 0.2734375 C4 0.625 4 0.625 6 1.625 C6.4140625 4.34765625 6.4140625 4.34765625 6.625 7.6875 C6.69976562 8.79222656 6.77453125 9.89695313 6.8515625 11.03515625 C6.90054688 11.88980469 6.94953125 12.74445313 7 13.625 C6.34 13.625 5.68 13.625 5 13.625 C5 14.615 5 15.605 5 16.625 C3.02 16.955 1.04 17.285 -1 17.625 C1.64 17.955 4.28 18.285 7 18.625 C7 19.285 7 19.945 7 20.625 C5.68 20.955 4.36 21.285 3 21.625 C4.11375 21.728125 5.2275 21.83125 6.375 21.9375 C8.169375 22.2778125 8.169375 22.2778125 10 22.625 C10.66 23.615 11.32 24.605 12 25.625 C11.34 25.625 10.68 25.625 10 25.625 C10 26.285 10 26.945 10 27.625 C13.96 27.13 13.96 27.13 18 26.625 C16.33333333 28.29166667 14.66666667 29.95833333 13 31.625 C6.39318933 31.4196695 0.73948585 29.20606292 -4 24.625 C-8.42210811 18.72885585 -8.6867165 11.78314659 -8 4.625 C-6.23780858 0.16129926 -4.66851584 -0.63505546 0 0 Z " fill="#2F2F2F" transform="translate(95,176.375)"/>
<path d="M0 0 C0.66 0.33 1.32 0.66 2 1 C1.01 2.2684375 1.01 2.2684375 0 3.5625 C-2.25272405 7.43436947 -2.35177696 9.60278797 -2 14 C0.97 14 3.94 14 7 14 C7.07347656 15.72283203 7.07347656 15.72283203 7.1484375 17.48046875 C7.6242866 34.11968222 7.6242866 34.11968222 12 50 C13.98491642 49.73323796 13.98491642 49.73323796 16 49 C16.33 48.01 16.66 47.02 17 46 C20.05242138 43.99772359 23.1864461 43.46892565 26.75 42.875 C27.73484375 42.70742188 28.7196875 42.53984375 29.734375 42.3671875 C30.48203125 42.24601562 31.2296875 42.12484375 32 42 C31.31769122 46.71997133 30.09671423 48.7881438 26.453125 51.7734375 C21.38821174 54.30589413 15.56266927 53.98456957 10 54 C2.85719428 43.35581893 3.59330611 29.30625574 4 17 C2.08380859 17.04833984 2.08380859 17.04833984 0.12890625 17.09765625 C-3.7421875 17.1953125 -3.7421875 17.1953125 -6.0625 15.4375 C-7.44043199 11.85487682 -7.03149705 9.67470825 -6 6 C-3.5 3.125 -3.5 3.125 -1 1 C-0.67 0.67 -0.34 0.34 0 0 Z " fill="#131313" transform="translate(72,13)"/>
<path d="M0 0 C0.33 0.66 0.66 1.32 1 2 C3.55351113 2.43052263 3.55351113 2.43052263 6.5 2.5625 C11.90371389 2.90371389 11.90371389 2.90371389 13 4 C13.12105599 5.39626652 13.17960592 6.79806455 13.2109375 8.19921875 C13.23728271 9.07263916 13.26362793 9.94605957 13.29077148 10.84594727 C13.3324646 12.25251587 13.3324646 12.25251587 13.375 13.6875 C13.92728562 28.86019683 13.92728562 28.86019683 19 43 C21.38564077 42.42415568 23.66682784 41.77772405 26 41 C26.495 41.495 26.495 41.495 27 42 C28.99958364 42.04080783 31.00045254 42.04254356 33 42 C31.35 41.34 29.7 40.68 28 40 C28.33 39.34 28.66 38.68 29 38 C30.36125 38.0928125 30.36125 38.0928125 31.75 38.1875 C35.28982642 37.98327924 36.44931155 37.35448165 39 35 C38.5174216 41.27351916 38.5174216 41.27351916 36.453125 44.171875 C33.12295524 46.65359386 30.01393267 46.81820957 26 47 C25.2884375 47.06316406 24.576875 47.12632812 23.84375 47.19140625 C20.41369522 47.38978628 18.4401698 47.31307346 15.60546875 45.296875 C13.94660393 42.92360854 13.07934288 41.03368399 12.3125 38.25 C12.08175781 37.45078125 11.85101563 36.6515625 11.61328125 35.828125 C10.10034127 28.85125527 9.86653493 22.10742512 9.9375 15 C9.94201172 14.12988281 9.94652344 13.25976562 9.95117188 12.36328125 C9.9628264 10.24215707 9.98075643 8.1210689 10 6 C9.06027344 6.03480469 9.06027344 6.03480469 8.1015625 6.0703125 C6.87566406 6.09738281 6.87566406 6.09738281 5.625 6.125 C4.81289062 6.14820313 4.00078125 6.17140625 3.1640625 6.1953125 C1 6 1 6 -1 4 C-0.625 1.875 -0.625 1.875 0 0 Z " fill="#0D0D0D" transform="translate(152,159)"/>
<path d="M0 0 C2.9375 2.5625 2.9375 2.5625 5 5 C5.94875 4.195625 6.8975 3.39125 7.875 2.5625 C11.52638247 -0.53323731 13.60316751 -1.13784019 18.4375 -1.125 C19.40558594 -1.12757812 20.37367187 -1.13015625 21.37109375 -1.1328125 C24 -1 24 -1 27 0 C27 1.65 27 3.3 27 5 C25.96875 4.67 24.9375 4.34 23.875 4 C19.23048993 2.69841351 15.64692645 2.19483596 11.1875 4.375 C8.90394668 5.81601354 8.90394668 5.81601354 8 8 C7.76827173 10.54615009 7.58105471 13.07396225 7.4375 15.625 C7.39431641 16.33140625 7.35113281 17.0378125 7.30664062 17.765625 C7.20055249 19.51018537 7.09977111 21.25506697 7 23 C6.01 22.67 5.02 22.34 4 22 C3.96261719 21.27554688 3.92523437 20.55109375 3.88671875 19.8046875 C3.4374981 13.19850143 2.88992603 7.88992603 -2 3 C-4.57061311 2.35232207 -4.57061311 2.35232207 -7 2 C-7 2.99 -7 3.98 -7 5 C-7.66 5 -8.32 5 -9 5 C-9 6.32 -9 7.64 -9 9 C-9.66 9 -10.32 9 -11 9 C-11.66 10.32 -12.32 11.64 -13 13 C-13.66 12.67 -14.32 12.34 -15 12 C-15 11.01 -15 10.02 -15 9 C-15.33 8.34 -15.66 7.68 -16 7 C-15.26418258 5.8450079 -14.51069961 4.70125815 -13.75 3.5625 C-13.33234375 2.92441406 -12.9146875 2.28632812 -12.484375 1.62890625 C-9.0834324 -2.10318076 -4.5323288 -1.11320356 0 0 Z " fill="#121212" transform="translate(24,82)"/>
<path d="M0 0 C3 1 3 1 4.875 3.875 C7.12235328 7.1799313 8.33279246 8.49977873 12 10 C18.45411597 10.72869051 21.66505969 9.62775941 27 6 C27.66 5.34 28.32 4.68 29 4 C30.32 4 31.64 4 33 4 C33 5.65 33 7.3 33 9 C32.01 8.67 31.02 8.34 30 8 C30 9.32 30 10.64 30 12 C28.68 11.67 27.36 11.34 26 11 C26 11.99 26 12.98 26 14 C25.34 14.33 24.68 14.66 24 15 C23.67 15.99 23.34 16.98 23 18 C20.54137599 18.05383848 18.0839245 18.09359038 15.625 18.125 C14.57699219 18.15013672 14.57699219 18.15013672 13.5078125 18.17578125 C11.67102514 18.19344267 9.83398037 18.10303261 8 18 C7.34 17.34 6.68 16.68 6 16 C7.32 15.34 8.64 14.68 10 14 C8.35 14 6.7 14 5 14 C5 12.68 5 11.36 5 10 C2.03 9.67 -0.94 9.34 -4 9 C-3.34 8.34 -2.68 7.68 -2 7 C-0.68 7 0.64 7 2 7 C2 6.34 2 5.68 2 5 C-0.64 5 -3.28 5 -6 5 C-6.33 4.34 -6.66 3.68 -7 3 C-4.69 3 -2.38 3 0 3 C0 2.01 0 1.02 0 0 Z " fill="#0C0C0C" transform="translate(100,190)"/>
<path d="M0 0 C1.134375 0.020625 2.26875 0.04125 3.4375 0.0625 C3.4375 1.3825 3.4375 2.7025 3.4375 4.0625 C2.7775 4.0625 2.1175 4.0625 1.4375 4.0625 C2.0975 5.3825 2.7575 6.7025 3.4375 8.0625 C5.38749129 7.86778889 5.38749129 7.86778889 7.4375 7.0625 C8.72186734 5.0787233 8.72186734 5.0787233 9.4375 3.0625 C10.0975 3.0625 10.7575 3.0625 11.4375 3.0625 C12.1875 5.8125 12.1875 5.8125 12.4375 9.0625 C10.9375 11.4375 10.9375 11.4375 8.4375 13.0625 C4.875 13.3125 4.875 13.3125 1.4375 13.0625 C-0.20870877 13.0625 -1.85622486 13.07848905 -3.5 13.16796875 C-9.03146939 13.38797037 -9.03146939 13.38797037 -11.5 11.875 C-12.81162987 9.63751375 -13.21697612 7.61937669 -13.5625 5.0625 C-12.2425 4.4025 -10.9225 3.7425 -9.5625 3.0625 C-8.9025 4.7125 -8.2425 6.3625 -7.5625 8.0625 C-6.2425 8.0625 -4.9225 8.0625 -3.5625 8.0625 C-3.8409375 6.3609375 -3.8409375 6.3609375 -4.125 4.625 C-4.269375 3.449375 -4.41375 2.27375 -4.5625 1.0625 C-3.5625 0.0625 -3.5625 0.0625 0 0 Z " fill="#0F0F0F" transform="translate(381.5625,88.9375)"/>
<path d="M0 0 C1.65 0 3.3 0 5 0 C8.26162419 3.26162419 7.29608654 7.23485731 7.32226562 11.67578125 C7.31904297 12.93777344 7.31582031 14.19976562 7.3125 15.5 C7.32861328 16.76199219 7.34472656 18.02398437 7.36132812 19.32421875 C7.36197266 20.52691406 7.36261719 21.72960937 7.36328125 22.96875 C7.36626221 24.07669922 7.36924316 25.18464844 7.37231445 26.32617188 C7.24945068 27.20853516 7.12658691 28.09089844 7 29 C4 31 4 31 1 31 C0.67 20.77 0.34 10.54 0 0 Z " fill="#050505" transform="translate(258,91)"/>
<path d="M0 0 C2 2 2 2 2.24291992 5.05688477 C2.23675659 6.9797229 2.23675659 6.9797229 2.23046875 8.94140625 C2.22978142 9.96571999 2.22978142 9.96571999 2.2290802 11.01072693 C2.22605891 12.45402769 2.21817622 13.89732522 2.20581055 15.34057617 C2.1875433 17.55724553 2.18530093 19.77349758 2.18554688 21.99023438 C2.14742468 32.85257532 2.14742468 32.85257532 1 34 C-0.70705679 34.10632188 -2.41587846 34.1848019 -4.125 34.25 C-9.95555644 34.7037398 -12.53298813 36.3534597 -17 40 C-19.19140625 40.65625 -19.19140625 40.65625 -21 41 C-21.495 39.515 -21.495 39.515 -22 38 C-21.01 37.505 -21.01 37.505 -20 37 C-20.495 35.515 -20.495 35.515 -21 34 C-20.01 33.505 -20.01 33.505 -19 33 C-18.67 33.66 -18.34 34.32 -18 35 C-17.01 35.33 -16.02 35.66 -15 36 C-15 34.68 -15 33.36 -15 32 C-14.34 32 -13.68 32 -13 32 C-13.33 31.01 -13.66 30.02 -14 29 C-14.66 29 -15.32 29 -16 29 C-15.01 25.535 -15.01 25.535 -14 22 C-12.68 22 -11.36 22 -10 22 C-9.67 25.3 -9.34 28.6 -9 32 C-5.04 31.505 -5.04 31.505 -1 31 C-0.67 20.77 -0.34 10.54 0 0 Z " fill="#0D0D0D" transform="translate(145,166)"/>
<path d="M0 0 C1.62463842 -0.05395478 3.24978541 -0.09277195 4.875 -0.125 C6.23238281 -0.15980469 6.23238281 -0.15980469 7.6171875 -0.1953125 C10 0 10 0 12 2 C12.13106912 7.5049029 9.32834299 10.44386102 5.88671875 14.36328125 C3.8834812 16.10107946 2.59102864 16.60534001 0 17 C0 16.34 0 15.68 0 15 C-2.31 15 -4.62 15 -7 15 C-5.375 12.0625 -5.375 12.0625 -3 9 C0.25 8.125 0.25 8.125 3 8 C1.35 7.67 -0.3 7.34 -2 7 C-1.34 4.69 -0.68 2.38 0 0 Z " fill="#1E1E1E" transform="translate(218,49)"/>
<path d="M0 0 C3.875 0.875 3.875 0.875 5 2 C5.08851529 4.59359322 5.11525945 7.16039691 5.09765625 9.75390625 C5.0962413 10.52935287 5.09482635 11.3047995 5.09336853 12.10374451 C5.08775345 14.59003494 5.07519846 17.0762366 5.0625 19.5625 C5.05748694 21.24413933 5.0529237 22.92578006 5.04882812 24.60742188 C5.03777913 28.73831566 5.02050445 32.86914276 5 37 C4.01 37 3.02 37 2 37 C-0.07418879 32.73319988 -0.2328762 29.22596288 -0.1953125 24.51171875 C-0.1924826 23.80852005 -0.18965271 23.10532135 -0.18673706 22.3808136 C-0.17560151 20.14953108 -0.15050997 17.91865983 -0.125 15.6875 C-0.1149616 14.16862562 -0.10583726 12.6497449 -0.09765625 11.13085938 C-0.07568413 7.42044079 -0.04120047 3.71026058 0 0 Z " fill="#141414" transform="translate(133,18)"/>
<path d="M0 0 C0.99 0 1.98 0 3 0 C4.55977064 3.11954128 4.12104126 6.42959384 4.09765625 9.8515625 C4.0962413 10.62559418 4.09482635 11.39962585 4.09336853 12.19711304 C4.08776403 14.67311442 4.07521083 17.14902588 4.0625 19.625 C4.05748558 21.30208203 4.05292257 22.97916547 4.04882812 24.65625 C4.03779315 28.77086806 4.02052554 32.88541878 4 37 C1 36 1 36 -0.1730957 34.38354492 C-1.29868233 31.13905061 -1.24156068 28.29547176 -1.23046875 24.86328125 C-1.22978142 23.84321236 -1.22978142 23.84321236 -1.2290802 22.80253601 C-1.22606848 21.3711878 -1.21821459 19.93984255 -1.20581055 18.50854492 C-1.18747595 16.30961612 -1.18530153 14.11110688 -1.18554688 11.91210938 C-1.14753687 1.14753687 -1.14753687 1.14753687 0 0 Z " fill="#0F0F0F" transform="translate(196,18)"/>
<path d="M0 0 C0.0093457 0.86689453 0.01869141 1.73378906 0.02832031 2.62695312 C0.07262577 5.87775741 0.13436953 9.12765627 0.20751953 12.37792969 C0.23555071 13.77819961 0.25685316 15.17862251 0.27099609 16.57910156 C0.35621805 24.54451347 0.46717416 31.19230447 5 38 C7.12603185 39.76323505 7.12603185 39.76323505 9 41 C9 41.99 9 42.98 9 44 C4.26908636 42.64831039 1.46430984 40.17493042 -1 36 C-5.47673458 25.92288829 -5.58308311 11.68005515 -3 1 C-1 0 -1 0 0 0 Z " fill="#1B1B1B" transform="translate(123,23)"/>
<path d="M0 0 C1.65 0 3.3 0 5 0 C6 1 6 1 6.11352539 3.59204102 C6.10828857 4.71795654 6.10305176 5.84387207 6.09765625 7.00390625 C6.09443359 8.21884766 6.09121094 9.43378906 6.08789062 10.68554688 C6.07951172 11.96494141 6.07113281 13.24433594 6.0625 14.5625 C6.05798828 15.84576172 6.05347656 17.12902344 6.04882812 18.45117188 C6.03699545 21.63416022 6.02051068 24.81705762 6 28 C4.35 28.33 2.7 28.66 1 29 C0.67 19.43 0.34 9.86 0 0 Z " fill="#050505" transform="translate(113,161)"/>
<path d="M0 0 C4.60428934 1.31551124 8.18320388 3.09196486 12 6 C12 6.66 12 7.32 12 8 C10.05859375 9.33203125 10.05859375 9.33203125 7.4375 10.8125 C3.09112888 13.32882012 -0.96313064 16.016227 -5 19 C-4.48378772 12.16018724 -2.51409031 6.36123316 0 0 Z " fill="#F0F0F0" transform="translate(338,29)"/>
<path d="M0 0 C5.32546052 4.70068582 6.2793124 12.22553656 7 19 C6.34 19 5.68 19 5 19 C4.34 18.29875 3.68 17.5975 3 16.875 C-0.6770923 12.99794498 -5.38748863 10.60629283 -10 8 C-8.76736651 4.30209954 -7.79947549 4.0645154 -4.4375 2.3125 C-3.61121094 1.87550781 -2.78492188 1.43851563 -1.93359375 0.98828125 C-1.29550781 0.66214844 -0.65742188 0.33601563 0 0 Z " fill="#F1F1F1" transform="translate(423,29)"/>
<path d="M0 0 C0.33 0.66 0.66 1.32 1 2 C4.465 1.505 4.465 1.505 8 1 C7.34655927 4.00304677 6.67550983 7.00184678 6 10 C5.74863281 11.16015625 5.74863281 11.16015625 5.4921875 12.34375 C5.05825744 14.24477691 4.53568497 16.12510261 4 18 C3.34 18.33 2.68 18.66 2 19 C2 18.34 2 17.68 2 17 C-0.64 16.67 -3.28 16.34 -6 16 C-6.33 16.99 -6.66 17.98 -7 19 C-7.66 18.67 -8.32 18.34 -9 18 C-8.67 15.69 -8.34 13.38 -8 11 C-7.01 10.67 -6.02 10.34 -5 10 C-5 10.99 -5 11.98 -5 13 C-2.69 13.33 -0.38 13.66 2 14 C2 13.01 2 12.02 2 11 C0.68 10.67 -0.64 10.34 -2 10 C-2 9.34 -2 8.68 -2 8 C-1.195625 7.87625 -0.39125 7.7525 0.4375 7.625 C1.283125 7.41875 2.12875 7.2125 3 7 C3.33 6.34 3.66 5.68 4 5 C0.37471432 4.79859524 -1.86501708 5.14223235 -5 7 C-4.60196439 4.11424181 -4.20990931 3.17810487 -1.9375 1.25 C-1.298125 0.8375 -0.65875 0.425 0 0 Z " fill="#121212" transform="translate(97,160)"/>
<path d="M0 0 C0.33 0.99 0.66 1.98 1 3 C-4.60796192 10.63305928 -4.60796192 10.63305928 -9.69921875 11.4140625 C-11.17841797 11.51847656 -11.17841797 11.51847656 -12.6875 11.625 C-13.68136719 11.69976562 -14.67523438 11.77453125 -15.69921875 11.8515625 C-16.45847656 11.90054688 -17.21773438 11.94953125 -18 12 C-17.68804687 11.38382813 -17.37609375 10.76765625 -17.0546875 10.1328125 C-16.36397335 8.73603499 -15.71829488 7.315859 -15.125 5.875 C-13.69297415 3.48829025 -12.5507559 3.07678969 -10 2 C-8.26186612 1.57336714 -6.51011335 1.19923141 -4.75 0.875 C-3.41195312 0.62363281 -3.41195312 0.62363281 -2.046875 0.3671875 C-1.37140625 0.24601562 -0.6959375 0.12484375 0 0 Z " fill="#0C0C0C" transform="translate(103,55)"/>
<path d="M0 0 C9.02251656 -0.61986755 9.02251656 -0.61986755 12.5625 1.625 C15.91282035 7.16031189 15.11143382 13.73494328 15 20 C14.67 20 14.34 20 14 20 C13.67 29.57 13.34 39.14 13 49 C12.67 49 12.34 49 12 49 C11.96241577 47.32828735 11.96241577 47.32828735 11.92407227 45.62280273 C11.82948306 41.46481993 11.72939074 37.30698425 11.62768555 33.14916992 C11.58453063 31.35395768 11.54284295 29.55870952 11.50268555 27.76342773 C11.44450887 25.17420657 11.38095429 22.58516299 11.31640625 19.99609375 C11.29969376 19.20101913 11.28298126 18.40594452 11.26576233 17.58677673 C11.14485725 12.97818999 10.7439088 8.55081574 10 4 C7.36 3.67 4.72 3.34 2 3 C2 2.34 2 1.68 2 1 C1.34 0.67 0.68 0.34 0 0 Z " fill="#2D2D2D" transform="translate(132,148)"/>
<path d="M0 0 C-0.33 0.66 -0.66 1.32 -1 2 C-2.51744214 6.55232642 -2.98984703 10.71796773 -1.06640625 15.15234375 C-0.33999017 16.50212034 0.4209597 17.83415655 1.22265625 19.140625 C2.20025264 21.47899626 1.82528183 22.65391581 1 25 C-3.3177458 24.49202991 -7.03302114 23.80317221 -11 22 C-11 21.34 -11 20.68 -11 20 C-8.33333333 20 -5.66666667 20 -3 20 C-3.495 19.236875 -3.99 18.47375 -4.5 17.6875 C-6.45427551 12.88323938 -7.02210776 8.12663496 -6 3 C-2.88486141 0 -2.88486141 0 0 0 Z " fill="#0F0F0F" transform="translate(223,151)"/>
<path d="M0 0 C1.32 0.33 2.64 0.66 4 1 C4 4.3 4 7.6 4 11 C3.01 11 2.02 11 1 11 C0.67 11.99 0.34 12.98 0 14 C-0.99 13.67 -1.98 13.34 -3 13 C-3.33 13.99 -3.66 14.98 -4 16 C-3.01 16.33 -2.02 16.66 -1 17 C-3.76223278 19.76223278 -6.20706617 19.57856291 -10 20 C-9.67 19.34 -9.34 18.68 -9 18 C-8.01 18 -7.02 18 -6 18 C-6 17.01 -6 16.02 -6 15 C-6.66 14.67 -7.32 14.34 -8 14 C-7.59007812 13.40832031 -7.18015625 12.81664062 -6.7578125 12.20703125 C-5.94957031 11.02173828 -5.94957031 11.02173828 -5.125 9.8125 C-4.59132813 9.03519531 -4.05765625 8.25789063 -3.5078125 7.45703125 C-2.01984561 5.0323391 -0.97571922 2.6666501 0 0 Z " fill="#1A1A1A" transform="translate(278,119)"/>
<path d="M0 0 C3.83473284 -0.35671933 5.55342875 -0.29771416 8.8125 1.875 C11 4 11 4 12 6 C13.65 6 15.3 6 17 6 C16.68289062 6.51046875 16.36578125 7.0209375 16.0390625 7.546875 C14.66023727 10.80214659 14.5706427 13.72843132 14.375 17.25 C14.30023438 18.51328125 14.22546875 19.7765625 14.1484375 21.078125 C14.09945312 22.04234375 14.05046875 23.0065625 14 24 C13.01 23.67 12.02 23.34 11 23 C10.96261719 22.27554688 10.92523438 21.55109375 10.88671875 20.8046875 C10.4374981 14.19850143 9.88992603 8.88992603 5 4 C2.41645782 3.83312552 2.41645782 3.83312552 0 4 C0 2.68 0 1.36 0 0 Z " fill="#161616" transform="translate(116,79)"/>
<path d="M0 0 C1.32087692 2.17556199 2.07112439 3.43100487 1.75 6 C0.96713323 8.08764473 0.05252193 10.03529239 -1 12 C-0.34 12.33 0.32 12.66 1 13 C1 12.34 1 11.68 1 11 C1.66 11 2.32 11 3 11 C3.99 13.64 4.98 16.28 6 19 C4.68 18.67 3.36 18.34 2 18 C0.989375 17.773125 -0.02125 17.54625 -1.0625 17.3125 C-4 16 -4 16 -5.9375 13.1875 C-7.0672123 9.79836309 -7.36860824 8.28465978 -6 5 C-4.0625 3.875 -4.0625 3.875 -2 3 C-1.34 2.01 -0.68 1.02 0 0 Z " fill="#121212" transform="translate(16,114)"/>
<path d="M0 0 C2.12508244 3.18762365 2.5020163 5.26512223 3 9 C-0.63 9 -4.26 9 -8 9 C-10 3.25 -10 3.25 -10 1 C-6.7 0.67 -3.4 0.34 0 0 Z " fill="#DCDCDC" transform="translate(227,25)"/>
<path d="M0 0 C3.63 0 7.26 0 11 0 C11.66 2.64 12.32 5.28 13 8 C9.37 8 5.74 8 2 8 C0 2.25 0 2.25 0 0 Z " fill="#DEDEDE" transform="translate(155,26)"/>
<path d="M0 0 C3.63 0 7.26 0 11 0 C11 2.64 11 5.28 11 8 C7.37 8 3.74 8 0 8 C0 5.36 0 2.72 0 0 Z " fill="#F5F5F5" transform="translate(219,37)"/>
<path d="M0 0 C3.63 0 7.26 0 11 0 C11 2.64 11 5.28 11 8 C7.37 8 3.74 8 0 8 C0 5.36 0 2.72 0 0 Z " fill="#F3F3F3" transform="translate(157,37)"/>
<path d="M0 0 C2 2 2 2 2.24291992 5.05688477 C2.23675659 6.9797229 2.23675659 6.9797229 2.23046875 8.94140625 C2.22978142 9.96571999 2.22978142 9.96571999 2.2290802 11.01072693 C2.22605891 12.45402769 2.21817622 13.89732522 2.20581055 15.34057617 C2.1875433 17.55724553 2.18530093 19.77349758 2.18554688 21.99023438 C2.14742468 32.85257532 2.14742468 32.85257532 1 34 C-1.21484375 34.203125 -1.21484375 34.203125 -3.9375 34.25 C-5.28134766 34.28867188 -5.28134766 34.28867188 -6.65234375 34.328125 C-7.42707031 34.21984375 -8.20179688 34.1115625 -9 34 C-9.66 33.01 -10.32 32.02 -11 31 C-7.7 31 -4.4 31 -1 31 C-0.67 20.77 -0.34 10.54 0 0 Z " fill="#010101" transform="translate(145,166)"/>
<path d="M0 0 C3 1 3 1 4.875 3.875 C7.06289395 7.0924911 8.69645358 8.1250142 12 10 C12.33 10.99 12.66 11.98 13 13 C10.36 13.33 7.72 13.66 5 14 C5 12.68 5 11.36 5 10 C2.03 9.67 -0.94 9.34 -4 9 C-3.34 8.34 -2.68 7.68 -2 7 C-0.68 7 0.64 7 2 7 C2 6.34 2 5.68 2 5 C-0.64 5 -3.28 5 -6 5 C-6.33 4.34 -6.66 3.68 -7 3 C-4.69 3 -2.38 3 0 3 C0 2.01 0 1.02 0 0 Z " fill="#0C0C0C" transform="translate(100,190)"/>
<path d="M0 0 C5.79826464 -0.70281996 5.79826464 -0.70281996 9 0 C11.58162085 2.33128186 13.35373877 4.94634681 15 8 C15 8.33 15 8.66 15 9 C11.7 9 8.4 9 5 9 C3.35 6.03 1.7 3.06 0 0 Z " fill="#EDEDED" transform="translate(149,14)"/>
<path d="M0 0 C5.09516837 -0.70278184 5.09516837 -0.70278184 8 0 C10.51936109 2.35597157 12.32264565 4.99474013 14 8 C14 8.33 14 8.66 14 9 C10.7 9 7.4 9 4 9 C0 2.25 0 2.25 0 0 Z " fill="#EEEEEE" transform="translate(212,14)"/>
<path d="M0 0 C2.625 0.25 2.625 0.25 4.5 1.4375 C5.625 3.25 5.625 3.25 5.375 5.875 C4.625 8.25 4.625 8.25 3.625 9.25 C0.6875 9.4375 0.6875 9.4375 -2.375 9.25 C-3.035 8.59 -3.695 7.93 -4.375 7.25 C-3.67467427 0.38680782 -3.67467427 0.38680782 0 0 Z " fill="#F2F2F2" transform="translate(359.375,67.75)"/>
<path d="M0 0 C2.5 0.25 2.5 0.25 4.5 2.25 C4.6875 5.3125 4.6875 5.3125 4.5 8.25 C3.5 9.25 3.5 9.25 0.5625 9.4375 C-2.5 9.25 -2.5 9.25 -4.5 7.25 C-4.75 4.75 -4.75 4.75 -4.5 2.25 C-2.5 0.25 -2.5 0.25 0 0 Z " fill="#F6F6F6" transform="translate(402.5,67.75)"/>
<path d="M0 0 C0.33 0 0.66 0 1 0 C1.12117188 0.88042969 1.24234375 1.76085937 1.3671875 2.66796875 C1.53476563 3.82941406 1.70234375 4.99085937 1.875 6.1875 C2.03742188 7.33605469 2.19984375 8.48460938 2.3671875 9.66796875 C2.94060245 12.68724625 3.74759043 15.20575848 5 18 C8.60992379 17.34414811 8.60992379 17.34414811 12 16 C11.34 17.98 10.68 19.96 10 22 C7.25 22.3125 7.25 22.3125 4 22 C1.13688588 19.21426734 -0.36178402 16.91077025 -1 13 C-0.91564321 10.74685746 -0.76460801 8.49564461 -0.5625 6.25 C-0.46066406 5.07953125 -0.35882813 3.9090625 -0.25390625 2.703125 C-0.17011719 1.81109375 -0.08632812 0.9190625 0 0 Z " fill="#141414" transform="translate(71,115)"/>
<path d="M0 0 C3.3 0 6.6 0 10 0 C9.40138258 2.35171131 8.73075648 4.6859378 8 7 C4.79937313 8.60031344 2.27728194 7.03173691 -1 6 C-0.67 4.02 -0.34 2.04 0 0 Z " fill="#EDEDED" transform="translate(156,49)"/>
<path d="M0 0 C3.3 0 6.6 0 10 0 C10.33 0.66 10.66 1.32 11 2 C10.34 2 9.68 2 9 2 C9 2.66 9 3.32 9 4 C11.64 3.67 14.28 3.34 17 3 C15.33333333 4.66666667 13.66666667 6.33333333 12 8 C9.27130593 7.96712417 6.7033382 7.43602229 4 7 C3.896875 6.401875 3.79375 5.80375 3.6875 5.1875 C3.05822228 2.59565628 3.05822228 2.59565628 0 0 Z " fill="#525252" transform="translate(96,200)"/>
<path d="M0 0 C3.3 0 6.6 0 10 0 C9.50168276 3.68754757 8.89932357 5.60490662 6 8 C3.69 7.34 1.38 6.68 -1 6 C-0.67 4.02 -0.34 2.04 0 0 Z " fill="#F5F5F5" transform="translate(218,49)"/>
<path d="M0 0 C1.98 0 3.96 0 6 0 C7.32 2.97 8.64 5.94 10 9 C8.02 9.66 6.04 10.32 4 11 C3.32880451 9.5437455 2.66318193 8.08492133 2 6.625 C1.62875 5.81289062 1.2575 5.00078125 0.875 4.1640625 C0 2 0 2 0 0 Z " fill="#E6E6E6" transform="translate(38,184)"/>
<path d="M0 0 C3.63 0.33 7.26 0.66 11 1 C10.34 2.98 9.68 4.96 9 7 C6.03 7 3.06 7 0 7 C0 4.69 0 2.38 0 0 Z " fill="#EBEBEB" transform="translate(180,170)"/>
<path d="M0 0 C0.33 0.66 0.66 1.32 1 2 C3.8159849 2.46898963 3.8159849 2.46898963 7.0625 2.625 C8.71958984 2.73714844 8.71958984 2.73714844 10.41015625 2.8515625 C11.26480469 2.90054688 12.11945313 2.94953125 13 3 C13 3.33 13 3.66 13 4 C11.02 4.33 9.04 4.66 7 5 C9.97 5.495 9.97 5.495 13 6 C13 6.33 13 6.66 13 7 C10.54256214 7.36173964 8.08441207 7.71468169 5.625 8.0625 C4.92632812 8.16626953 4.22765625 8.27003906 3.5078125 8.37695312 C-1.7734375 9.11328125 -1.7734375 9.11328125 -4 8 C-3.67 6.68 -3.34 5.36 -3 4 C-2.01 4.33 -1.02 4.66 0 5 C0 3.35 0 1.7 0 0 Z " fill="#404040" transform="translate(278,127)"/>
<path d="M0 0 C2.64 0 5.28 0 8 0 C8.33 2.31 8.66 4.62 9 7 C6.03 7 3.06 7 0 7 C0 4.69 0 2.38 0 0 Z " fill="#EEEEEE" transform="translate(214,100)"/>
<path d="M0 0 C2.64 0 5.28 0 8 0 C7.88637738 1.4800841 7.75877092 2.95910074 7.625 4.4375 C7.55539062 5.26121094 7.48578125 6.08492187 7.4140625 6.93359375 C7.27742188 7.61550781 7.14078125 8.29742187 7 9 C6.01 9.495 6.01 9.495 5 10 C4.67 9.34 4.34 8.68 4 8 C1.98330173 6.86649466 1.98330173 6.86649466 0 6 C0 4.02 0 2.04 0 0 Z " fill="#EDEDED" transform="translate(254,191)"/>
<path d="M0 0 C2.64 0.33 5.28 0.66 8 1 C8.33 3.64 8.66 6.28 9 9 C6.69 8.67 4.38 8.34 2 8 C1.34 5.36 0.68 2.72 0 0 Z " fill="#EDEDED" transform="translate(252,179)"/>
<path d="M0 0 C-0.33 0.99 -0.66 1.98 -1 3 C-2.65 3 -4.3 3 -6 3 C-5.67 3.66 -5.34 4.32 -5 5 C-4.01 5.33 -3.02 5.66 -2 6 C-2 6.99 -2 7.98 -2 9 C-8.75 8.25 -8.75 8.25 -11 6 C-10.9375 4.0625 -10.9375 4.0625 -10 2 C-6.42504907 -0.87982158 -4.37380275 -1.37462372 0 0 Z " fill="#787878" transform="translate(101,165)"/>
<path d="M0 0 C2.64 0 5.28 0 8 0 C8.05399736 1.45792884 8.09279177 2.91642712 8.125 4.375 C8.14820313 5.18710938 8.17140625 5.99921875 8.1953125 6.8359375 C8 9 8 9 6 11 C2.375 10.625 2.375 10.625 -1 10 C-1 9.34 -1 8.68 -1 8 C1.64 8 4.28 8 7 8 C6.67 7.01 6.34 6.02 6 5 C3.03 4.505 3.03 4.505 0 4 C0 2.68 0 1.36 0 0 Z " fill="#ECECEC" transform="translate(181,187)"/>
<path d="M0 0 C1.65 0 3.3 0 5 0 C5 1.65 5 3.3 5 5 C4.01 4.67 3.02 4.34 2 4 C2 5.32 2 6.64 2 8 C0.68 7.67 -0.64 7.34 -2 7 C-2 7.99 -2 8.98 -2 10 C-3.32 10 -4.64 10 -6 10 C-6.3125 7.6875 -6.3125 7.6875 -6 5 C-3.5625 3.3125 -3.5625 3.3125 -1 2 C-0.67 1.34 -0.34 0.68 0 0 Z " fill="#666666" transform="translate(128,194)"/>
<path d="M0 0 C0.33 0 0.66 0 1 0 C1.602537 6.98942918 1.602537 6.98942918 -0.11328125 9.8671875 C-1.33745588 11.30861002 -2.66278229 12.66278229 -4 14 C-6 12 -6 12 -6.4375 9.1875 C-5.86348785 5.00541147 -4.14699608 3.68646007 -1 1 C-0.67 0.67 -0.34 0.34 0 0 Z " fill="#E1E1E1" transform="translate(15,103)"/>
<path d="M0 0 C2.875 -0.1875 2.875 -0.1875 6 0 C8 3 8 3 8 7 C5.36 7 2.72 7 0 7 C0 4.69 0 2.38 0 0 Z " fill="#ECECEC" transform="translate(213,90)"/>
<path d="M0 0 C2.64 0 5.28 0 8 0 C8 2.31 8 4.62 8 7 C5.36 6.67 2.72 6.34 0 6 C0 4.02 0 2.04 0 0 Z " fill="#EEEEEE" transform="translate(89,106)"/>
<path d="M0 0 C2.64 0 5.28 0 8 0 C8 1.98 8 3.96 8 6 C5.03 6 2.06 6 -1 6 C-0.67 4.02 -0.34 2.04 0 0 Z " fill="#E0E0E0" transform="translate(97,36)"/>
<path d="M0 0 C1.98 0 3.96 0 6 0 C6 2.97 6 5.94 6 9 C4.35 9 2.7 9 1 9 C0.67 6.03 0.34 3.06 0 0 Z " fill="#E9E9E9" transform="translate(36,172)"/>
<path d="M0 0 C0.99 0.99 1.98 1.98 3 3 C2.67 3.99 2.34 4.98 2 6 C1.01 5.67 0.02 5.34 -1 5 C-1.33 5.99 -1.66 6.98 -2 8 C-1.01 8.33 -0.02 8.66 1 9 C-1.76223278 11.76223278 -4.20706617 11.57856291 -8 12 C-7.67 11.34 -7.34 10.68 -7 10 C-6.01 10 -5.02 10 -4 10 C-4 9.01 -4 8.02 -4 7 C-4.66 6.67 -5.32 6.34 -6 6 C-4 4 -2 2 0 0 Z " fill="#0A0A0A" transform="translate(276,127)"/>
<path d="M0 0 C2.875 2.0625 2.875 2.0625 5 4 C-0.15548322 5.74762143 -0.15548322 5.74762143 -3 6 C-6 4.25 -6 4.25 -8 2 C-8 1.34 -8 0.68 -8 0 C-5.0233079 -1.48834605 -3.18307201 -0.8113713 0 0 Z " fill="#E9E9E9" transform="translate(54,197)"/>
<path d="M0 0 C2.64 0 5.28 0 8 0 C8 1.98 8 3.96 8 6 C5.36 6 2.72 6 0 6 C0 4.02 0 2.04 0 0 Z " fill="#F3F3F3" transform="translate(97,27)"/>
<path d="M0 0 C0.33 0 0.66 0 1 0 C1.59981372 5.99813722 1.59981372 5.99813722 -0.078125 8.80078125 C-1.4375 10.4375 -1.4375 10.4375 -4 13 C-4.33 13 -4.66 13 -5 13 C-5.33 10.36 -5.66 7.72 -6 5 C-5.01 4.67 -4.02 4.34 -3 4 C-1.96854629 2.69084721 -0.96457834 1.35917857 0 0 Z " fill="#E9E9E9" transform="translate(114,102)"/>
<path d="M0 0 C7.35678392 -0.36180905 7.35678392 -0.36180905 10 1.125 C11.42098605 3.78934884 11.19767261 6.03491085 11 9 C10.34 9 9.68 9 9 9 C8.67 9.66 8.34 10.32 8 11 C7.67 8.69 7.34 6.38 7 4 C4.36 3.34 1.72 2.68 -1 2 C-0.67 1.34 -0.34 0.68 0 0 Z " fill="#090909" transform="translate(282,77)"/>
<path d="M0 0 C0.33 0.99 0.66 1.98 1 3 C-0.40445835 5.2636564 -2.1967913 7.0208685 -4 9 C-4.99 8.67 -5.98 8.34 -7 8 C-6.34 6.68 -5.68 5.36 -5 4 C-6.65 4 -8.3 4 -10 4 C-10 3.34 -10 2.68 -10 2 C-6.7 1.34 -3.4 0.68 0 0 Z " fill="#040404" transform="translate(103,55)"/>
<path d="M0 0 C2.64 0 5.28 0 8 0 C8 1.65 8 3.3 8 5 C5.03 5 2.06 5 -1 5 C-0.67 3.35 -0.34 1.7 0 0 Z " fill="#F5F5F5" transform="translate(96,45)"/>
<path d="M0 0 C0 0.33 0 0.66 0 1 C-2.64 1.33 -5.28 1.66 -8 2 C-5.03 2.495 -5.03 2.495 -2 3 C-2 3.33 -2 3.66 -2 4 C-9.5 5.5 -9.5 5.5 -17 7 C-15.987668 4.06423721 -15.03642058 3.02487259 -12.4375 1.25 C-8.15014292 -0.30903894 -4.50639866 -0.27038392 0 0 Z " fill="#343434" transform="translate(146,79)"/>
<path d="M0 0 C2.97 0.33 5.94 0.66 9 1 C9 2.32 9 3.64 9 5 C6.03 5 3.06 5 0 5 C0 3.35 0 1.7 0 0 Z " fill="#D1D1D1" transform="translate(234,113)"/>
<path d="M0 0 C2.64 0.33 5.28 0.66 8 1 C6.21825212 3.30142435 4.83695835 4.80034391 1.953125 5.48828125 C-0.0246611 5.72323102 -2.01271872 5.86751458 -4 6 C-2.68 4.02 -1.36 2.04 0 0 Z " fill="#E3E3E3" transform="translate(153,58)"/>
<path d="M0 0 C5.77807024 -0.2358396 10.51324804 0.13216954 16 2 C16 2.66 16 3.32 16 4 C13.70800823 3.85936865 11.41640814 3.71234057 9.125 3.5625 C7.84882813 3.48128906 6.57265625 3.40007812 5.2578125 3.31640625 C2 3 2 3 0 2 C0 1.34 0 0.68 0 0 Z " fill="#E1E1E1" transform="translate(181,165)"/>
<path d="M0 0 C1.65 0 3.3 0 5 0 C5.66 1.98 6.32 3.96 7 6 C4.69 6.33 2.38 6.66 0 7 C0 4.69 0 2.38 0 0 Z " fill="#EDEDED" transform="translate(97,17)"/>
<path d="M0 0 C1.31501363 2.16590481 2.03022952 3.50121292 1.875 6.0625 C0.74991319 8.55376366 -0.73274047 9.53725191 -3 11 C-3.66 9.02 -4.32 7.04 -5 5 C-3.35 3.35 -1.7 1.7 0 0 Z " fill="#E6E6E6" transform="translate(16,114)"/>
<path d="M0 0 C1.4540625 0.0309375 1.4540625 0.0309375 2.9375 0.0625 C2.6075 2.0425 2.2775 4.0225 1.9375 6.0625 C-0.0425 6.0625 -2.0225 6.0625 -4.0625 6.0625 C-4.105221 4.39638095 -4.10313832 2.72867115 -4.0625 1.0625 C-3.0625 0.0625 -3.0625 0.0625 0 0 Z " fill="#E4E4E4" transform="translate(41.0625,162.9375)"/>
<path d="M0 0 C0.66 0.66 1.32 1.32 2 2 C1.69670231 5.84177074 0.47524576 8.09427672 -2 11 C-4 8 -4 8 -3.8125 6.0625 C-2.87858188 3.69178476 -1.61172061 1.96209466 0 0 Z " fill="#E8E8E8" transform="translate(115,113)"/>
<path d="M0 0 C2.64 0.33 5.28 0.66 8 1 C5.86725921 3.34601486 3.97462211 4.86264449 1 6 C-1.75 6.125 -1.75 6.125 -4 6 C-2.68 4.02 -1.36 2.04 0 0 Z " fill="#ECECEC" transform="translate(215,58)"/>
<path d="M0 0 C2.31 0.33 4.62 0.66 7 1 C7 1.66 7 2.32 7 3 C4.18230651 5.17364926 2.7809319 6.08677021 -0.8125 5.6875 C-1.534375 5.460625 -2.25625 5.23375 -3 5 C-3 4.34 -3 3.68 -3 3 C-2.34 3 -1.68 3 -1 3 C-0.67 2.01 -0.34 1.02 0 0 Z " fill="#E4E4E4" transform="translate(252,200)"/>
<path d="M0 0 C2.97 0 5.94 0 9 0 C9 1.32 9 2.64 9 4 C6.03 4 3.06 4 0 4 C0 2.68 0 1.36 0 0 Z " fill="#DBDBDB" transform="translate(235,121)"/>
<path d="M0 0 C2.64 0.33 5.28 0.66 8 1 C7.67 2.32 7.34 3.64 7 5 C4.69 5 2.38 5 0 5 C0 3.35 0 1.7 0 0 Z " fill="#F3F3F3" transform="translate(88,115)"/>
<path d="M0 0 C2.31 0 4.62 0 7 0 C5.875 2.5 5.875 2.5 4 5 C0.8125 5.3125 0.8125 5.3125 -2 5 C-1.34 3.35 -0.68 1.7 0 0 Z " fill="#F1F1F1" transform="translate(211,125)"/>
<path d="M0 0 C0.57775266 3.81316756 -0.28314366 5.76668587 -2.4375 8.8125 C-3.80859375 10.64453125 -3.80859375 10.64453125 -5 12 C-5.33 12 -5.66 12 -6 12 C-6.3125 8.8125 -6.3125 8.8125 -6 5 C-1.85106383 0 -1.85106383 0 0 0 Z " fill="#DFDFDF" transform="translate(114,93)"/>
<path d="M0 0 C2.97 0 5.94 0 9 0 C8.67 1.32 8.34 2.64 8 4 C5.36 4 2.72 4 0 4 C0 2.68 0 1.36 0 0 Z " fill="#FBFBFB" transform="translate(214,111)"/>
<path d="M0 0 C1.65 0 3.3 0 5 0 C4.67 1.98 4.34 3.96 4 6 C2.35 6.33 0.7 6.66 -1 7 C-0.67 4.69 -0.34 2.38 0 0 Z " fill="#707070" transform="translate(93,59)"/>
<path d="M0 0 C2.64 0 5.28 0 8 0 C8 1.32 8 2.64 8 4 C5.36 4 2.72 4 0 4 C0 2.68 0 1.36 0 0 Z " fill="#E2E2E2" transform="translate(90,182)"/>
<path d="M0 0 C0.33 1.32 0.66 2.64 1 4 C2.32 4.33 3.64 4.66 5 5 C4.01 5 3.02 5 2 5 C2 5.66 2 6.32 2 7 C1.34 7 0.68 7 0 7 C-0.33 8.32 -0.66 9.64 -1 11 C-2.81502739 7.26317891 -3.33059914 4.99179743 -2 1 C-1.34 0.67 -0.68 0.34 0 0 Z " fill="#161616" transform="translate(235,100)"/>
<path d="M0 0 C-3.74525799 3.74525799 -7.98270909 3.68909949 -13 4 C-13 3.34 -13 2.68 -13 2 C-9.19220591 -0.28467645 -4.15048462 -2.07524231 0 0 Z " fill="#E4E4E4" transform="translate(71,202)"/>
<path d="M0 0 C0.66 0 1.32 0 2 0 C1.46939601 4.51013391 -0.30886117 7.38378219 -3 11 C-3.33 11 -3.66 11 -4 11 C-4.35858439 7.14521782 -4.2754818 5.42240542 -2.125 2.125 C-1.42375 1.42375 -0.7225 0.7225 0 0 Z " fill="#E6E6E6" transform="translate(13,95)"/>
<path d="M0 0 C1.625 1.6875 1.625 1.6875 3 4 C2.1875 6.75 2.1875 6.75 1 9 C-0.65 8.67 -2.3 8.34 -4 8 C-3.67 6.68 -3.34 5.36 -3 4 C-2.01 4.33 -1.02 4.66 0 5 C0 3.35 0 1.7 0 0 Z " fill="#767676" transform="translate(278,127)"/>
<path d="M0 0 C0.33 0.99 0.66 1.98 1 3 C1.66 3.33 2.32 3.66 3 4 C2.67 4.66 2.34 5.32 2 6 C1.34 6 0.68 6 0 6 C-0.33 6.99 -0.66 7.98 -1 9 C-1.66 8.67 -2.32 8.34 -3 8 C-2.74438677 5.6568787 -2.40729228 3.32156597 -2 1 C-1.34 0.67 -0.68 0.34 0 0 Z " fill="#1A1A1A" transform="translate(91,170)"/>
<path d="M0 0 C0.66 0.33 1.32 0.66 2 1 C2.73075648 3.3140622 3.40138258 5.64828869 4 8 C0.75728494 7.4409112 -0.93057424 6.5867822 -3 4 C-3 3.34 -3 2.68 -3 2 C-2.01 1.34 -1.02 0.68 0 0 Z " fill="#D8D8D8" transform="translate(117,123)"/>
<path d="M0 0 C2.64 0.33 5.28 0.66 8 1 C8 1.99 8 2.98 8 4 C5.36 4 2.72 4 0 4 C0 2.68 0 1.36 0 0 Z " fill="#D3D3D3" transform="translate(235,107)"/>
<path d="M0 0 C2.31 0 4.62 0 7 0 C7 1.32 7 2.64 7 4 C4.69 4 2.38 4 0 4 C0 2.68 0 1.36 0 0 Z " fill="#EAEAEA" transform="translate(89,99)"/>
<path d="M0 0 C4.29 0 8.58 0 13 0 C12.67 0.99 12.34 1.98 12 3 C10.37581255 3.08090971 8.75048255 3.13914995 7.125 3.1875 C5.76761719 3.23970703 5.76761719 3.23970703 4.3828125 3.29296875 C3.20332031 3.14794922 3.20332031 3.14794922 2 3 C1.34 2.01 0.68 1.02 0 0 Z " fill="#070707" transform="translate(134,197)"/>
<path d="M0 0 C2.97 0 5.94 0 9 0 C9 0.99 9 1.98 9 3 C6.03 3 3.06 3 0 3 C0 2.01 0 1.02 0 0 Z " fill="#F2F2F2" transform="translate(180,180)"/>
<path d="M0 0 C3.63 0 7.26 0 11 0 C11.33 0.66 11.66 1.32 12 2 C10.56589632 2.24954005 9.12739928 2.47392642 7.6875 2.6875 C6.88699219 2.81511719 6.08648437 2.94273437 5.26171875 3.07421875 C3 3 3 3 0 0 Z " fill="#F0F0F0" transform="translate(240,133)"/>
<path d="M0 0 C0.66 0 1.32 0 2 0 C2.99 2.64 3.98 5.28 5 8 C0.25 6.8125 0.25 6.8125 -2 4 C-2 3.34 -2 2.68 -2 2 C-1.34 2 -0.68 2 0 2 C0 1.34 0 0.68 0 0 Z " fill="#E0E0E0" transform="translate(17,125)"/>
<path d="M0 0 C2.5 1.3125 2.5 1.3125 5 3 C5 3.99 5 4.98 5 6 C3.02 6.66 1.04 7.32 -1 8 C-1.33 7.01 -1.66 6.02 -2 5 C-1.34 4.67 -0.68 4.34 0 4 C-0.33 3.01 -0.66 2.02 -1 1 C-0.67 0.67 -0.34 0.34 0 0 Z " fill="#171717" transform="translate(125,199)"/>
<path d="M0 0 C0 1.65 0 3.3 0 5 C-0.99 5.495 -0.99 5.495 -2 6 C-2 5.34 -2 4.68 -2 4 C-4.97 3.505 -4.97 3.505 -8 3 C-8 2.34 -8 1.68 -8 1 C-1.125 0 -1.125 0 0 0 Z " fill="#0B0B0B" transform="translate(101,173)"/>
<path d="M0 0 C1.98 0 3.96 0 6 0 C6.66 1.65 7.32 3.3 8 5 C5.125 4.75 5.125 4.75 2 4 C0.625 1.9375 0.625 1.9375 0 0 Z " fill="#F1F1F1" transform="translate(248,171)"/>
<path d="M0 0 C1.65 1.65 3.3 3.3 5 5 C3.625 6.5 3.625 6.5 2 8 C1.34 8 0.68 8 0 8 C-1.125 5.6875 -1.125 5.6875 -2 3 C-1.34 2.01 -0.68 1.02 0 0 Z " fill="#5F5F5F" transform="translate(85,125)"/>
<path d="M0 0 C2.31 0 4.62 0 7 0 C6.67 1.32 6.34 2.64 6 4 C3.69 3.67 1.38 3.34 -1 3 C-0.67 2.01 -0.34 1.02 0 0 Z " fill="#E5E5E5" transform="translate(237,101)"/>
<path d="M0 0 C2.31 0 4.62 0 7 0 C7.33 1.32 7.66 2.64 8 4 C5.36 3.67 2.72 3.34 0 3 C0 2.01 0 1.02 0 0 Z " fill="#E0E0E0" transform="translate(88,92)"/>
<path d="M0 0 C0.99 0 1.98 0 3 0 C3.33 0.99 3.66 1.98 4 3 C3.34 3.66 2.68 4.32 2 5 C-0.8203125 4.9765625 -0.8203125 4.9765625 -4.125 4.625 C-5.22070312 4.51414062 -6.31640625 4.40328125 -7.4453125 4.2890625 C-8.70988281 4.14597656 -8.70988281 4.14597656 -10 4 C-10 3.67 -10 3.34 -10 3 C-9.36191406 2.95101563 -8.72382813 2.90203125 -8.06640625 2.8515625 C-7.24011719 2.77679687 -6.41382813 2.70203125 -5.5625 2.625 C-4.73878906 2.55539063 -3.91507813 2.48578125 -3.06640625 2.4140625 C-2.38449219 2.27742188 -1.70257813 2.14078125 -1 2 C-0.67 1.34 -0.34 0.68 0 0 Z " fill="#242424" transform="translate(226,20)"/>
<path d="M0 0 C2.64 0 5.28 0 8 0 C8 0.99 8 1.98 8 3 C5.36 3 2.72 3 0 3 C0 2.01 0 1.02 0 0 Z " fill="#FAFAFA" transform="translate(91,189)"/>
<path d="M0 0 C2.97 0.495 2.97 0.495 6 1 C5.67 1.99 5.34 2.98 5 4 C2.69 4 0.38 4 -2 4 C-1.34 2.68 -0.68 1.36 0 0 Z " fill="#E2E2E2" transform="translate(41,156)"/>
<path d="M0 0 C2.475 0.495 2.475 0.495 5 1 C5.33 2.65 5.66 4.3 6 6 C4.68 6 3.36 6 2 6 C1.34 4.02 0.68 2.04 0 0 Z " fill="#F0F0F0" transform="translate(252,155)"/>
<path d="M0 0 C0.66 0.33 1.32 0.66 2 1 C2 2.66666667 2 4.33333333 2 6 C-0.64 6.33 -3.28 6.66 -6 7 C-5.67 6.34 -5.34 5.68 -5 5 C-4.01 5 -3.02 5 -2 5 C-2 3.68 -2 2.36 -2 1 C-1.34 0.67 -0.68 0.34 0 0 Z " fill="#727272" transform="translate(270,131)"/>
<path d="M0 0 C2.31 0 4.62 0 7 0 C6.67 1.32 6.34 2.64 6 4 C3.03 3.505 3.03 3.505 0 3 C0 2.01 0 1.02 0 0 Z " fill="#F0F0F0" transform="translate(87,123)"/>
<path d="M0 0 C2.64 0 5.28 0 8 0 C8 0.99 8 1.98 8 3 C5.36 3 2.72 3 0 3 C0 2.01 0 1.02 0 0 Z " fill="#E7E7E7" transform="translate(212,119)"/>
<path d="M0 0 C2.64 0.33 5.28 0.66 8 1 C7.67 1.99 7.34 2.98 7 4 C5.02 4 3.04 4 1 4 C0.67 2.68 0.34 1.36 0 0 Z " fill="#D6D6D6" transform="translate(94,53)"/>
<path d="M0 0 C0.66 0.33 1.32 0.66 2 1 C2 1.66 2 2.32 2 3 C3.65 3 5.3 3 7 3 C6.67 3.66 6.34 4.32 6 5 C3.67843403 5.40729228 1.3431213 5.74438677 -1 6 C-1.042721 4.33388095 -1.04063832 2.66617115 -1 1 C-0.67 0.67 -0.34 0.34 0 0 Z " fill="#050505" transform="translate(211,113)"/>
<path d="M0 0 C0 0.66 0 1.32 0 2 C0.99 2.66 1.98 3.32 3 4 C-0.3 4 -3.6 4 -7 4 C-6.67 3.01 -6.34 2.02 -6 1 C-3 0 -3 0 0 0 Z " fill="#6A6A6A" transform="translate(120,204)"/>
<path d="M0 0 C3.3 0 6.6 0 10 0 C10.33 0.66 10.66 1.32 11 2 C5.04296875 3.07421875 5.04296875 3.07421875 3 3 C2.01 2.01 1.02 1.02 0 0 Z " fill="#F8F8F8" transform="translate(96,200)"/>
<path d="M0 0 C2.97 0.495 2.97 0.495 6 1 C6 1.99 6 2.98 6 4 C3.69 3.67 1.38 3.34 -1 3 C-0.67 2.01 -0.34 1.02 0 0 Z " fill="#E5E5E5" transform="translate(93,170)"/>
<path d="M0 0 C0.33 0 0.66 0 1 0 C1 1.65 1 3.3 1 5 C1.99 5.33 2.98 5.66 4 6 C3.01 6.33 2.02 6.66 1 7 C1 7.66 1 8.32 1 9 C0.34 9 -0.32 9 -1 9 C-1.09765625 2.84765625 -1.09765625 2.84765625 -1 1 C-0.67 0.67 -0.34 0.34 0 0 Z " fill="#000000" transform="translate(86,115)"/>
<path d="M0 0 C0.66 0 1.32 0 2 0 C2 3.3 2 6.6 2 10 C1.01 10 0.02 10 -1 10 C-0.67 6.7 -0.34 3.4 0 0 Z " fill="#020202" transform="translate(155,37)"/>
<path d="M0 0 C5.49152542 0.61016949 5.49152542 0.61016949 7.875 2.4375 C9 4 9 4 9 6 C5.06326356 4.68775452 2.77280706 3.08089673 0 0 Z " fill="#CACACA" transform="translate(59,145)"/>
<path d="M0 0 C1.65 0.33 3.3 0.66 5 1 C5 1.99 5 2.98 5 4 C3.02 4 1.04 4 -1 4 C-0.67 2.68 -0.34 1.36 0 0 Z " fill="#D9D9D9" transform="translate(240,94)"/>
<path d="M0 0 C3.65316671 1.24976756 4.78065836 1.67098753 7 5 C5.35 5 3.7 5 2 5 C1.34 3.35 0.68 1.7 0 0 Z " fill="#E9E9E9" transform="translate(210,82)"/>
<path d="M0 0 C1.98 0 3.96 0 6 0 C6.33 0.99 6.66 1.98 7 3 C5.02 3 3.04 3 1 3 C0.67 2.01 0.34 1.02 0 0 Z " fill="#E9E9E9" transform="translate(86,86)"/>
<path d="M0 0 C2.31 0.33 4.62 0.66 7 1 C7 1.66 7 2.32 7 3 C4.69 3 2.38 3 0 3 C0 2.01 0 1.02 0 0 Z " fill="#F3F3F3" transform="translate(91,176)"/>
<path d="M0 0 C0.99 0.33 1.98 0.66 3 1 C3 3.31 3 5.62 3 8 C2.01 8 1.02 8 0 8 C0 5.36 0 2.72 0 0 Z " fill="#D9D9D9" transform="translate(202,153)"/>
<path d="M0 0 C0.66 1.32 1.32 2.64 2 4 C1.01 4.99 0.02 5.98 -1 7 C-1.99 6.67 -2.98 6.34 -4 6 C-2.68 4.02 -1.36 2.04 0 0 Z " fill="#030303" transform="translate(84,129)"/>
<path d="M0 0 C-0.33 0.99 -0.66 1.98 -1 3 C-3.31 2.67 -5.62 2.34 -8 2 C-4.91190305 0.23537317 -3.76687864 0 0 0 Z " fill="#040404" transform="translate(114,205)"/>
<path d="M0 0 C2.97 0.495 2.97 0.495 6 1 C6 1.66 6 2.32 6 3 C3.36 3 0.72 3 -2 3 C-1.34 2.01 -0.68 1.02 0 0 Z " fill="#EBEBEB" transform="translate(46,150)"/>
<path d="M0 0 C0.6875 1.75 0.6875 1.75 1 4 C-0.4375 6.25 -0.4375 6.25 -2 8 C-2.66 7.67 -3.32 7.34 -4 7 C-2.68 4.69 -1.36 2.38 0 0 Z " fill="#C9C9C9" transform="translate(13,87)"/>
<path d="M0 0 C0.33 0 0.66 0 1 0 C1 1.98 1 3.96 1 6 C0.34 6 -0.32 6 -1 6 C-1.33 6.66 -1.66 7.32 -2 8 C-2.125 5.125 -2.125 5.125 -2 2 C-1.34 1.34 -0.68 0.68 0 0 Z " fill="#131313" transform="translate(292,80)"/>
</svg>
