<?xml version="1.0" standalone="no"?>
<!DOCTYPE svg PUBLIC "-//W3C//DTD SVG 20010904//EN"
 "http://www.w3.org/TR/2001/REC-SVG-20010904/DTD/svg10.dtd">
<svg version="1.0" xmlns="http://www.w3.org/2000/svg"
 width="862.000000pt" height="1024.000000pt" viewBox="0 0 862.000000 1024.000000"
 preserveAspectRatio="xMidYMid meet">

<g transform="translate(0.000000,1024.000000) scale(0.100000,-0.100000)"
fill="#000000" stroke="none">
<path d="M6335 10224 c-306 -35 -684 -183 -999 -392 -566 -374 -975 -1061
-1015 -1707 -5 -71 -6 -168 -2 -215 l6 -85 145 0 c97 1 178 7 245 19 359 66
705 264 1031 590 402 404 642 869 704 1366 11 96 13 410 2 426 -5 7 -40 6
-117 -2z"/>
<path d="M6013 7795 c-257 -33 -480 -94 -917 -250 -316 -112 -549 -186 -653
-206 -54 -11 -76 -10 -150 4 -122 23 -310 81 -585 181 -565 204 -789 257
-1078 257 -475 -1 -947 -147 -1365 -424 -303 -201 -585 -492 -780 -807 -329
-532 -479 -1109 -478 -1845 1 -541 76 -1027 248 -1605 131 -438 357 -970 575
-1350 258 -451 715 -1048 1006 -1315 422 -385 753 -494 1206 -395 152 33 260
67 508 160 268 100 358 128 520 163 452 98 829 59 1340 -140 644 -251 1006
-268 1403 -66 291 149 538 387 893 863 417 559 655 997 878 1613 l35 97 -121
61 c-219 110 -362 208 -551 377 -406 362 -647 812 -723 1348 -25 177 -25 511
0 679 95 634 432 1142 1007 1521 57 37 106 69 108 71 7 5 -53 85 -145 192
-236 275 -538 487 -889 627 -404 160 -924 236 -1292 189z"/>
</g>
</svg>
