<?xml version="1.0" encoding="UTF-8"?>
<svg version="1.1" xmlns="http://www.w3.org/2000/svg" width="1875" height="1289">
<path d="M0 0 C56.43 0 112.86 0 171 0 C171 143.88 171 287.76 171 436 C-6.54 436 -184.08 436 -367 436 C-367 436.66 -367 437.32 -367 438 C-366.42024414 438.27634277 -365.84048828 438.55268555 -365.24316406 438.83740234 C-363.06896352 439.96425726 -361.12022285 441.20694222 -359.109375 442.6015625 C-358.40039062 443.09140625 -357.69140625 443.58125 -356.9609375 444.0859375 C-356.23132813 444.59382813 -355.50171875 445.10171875 -354.75 445.625 C-354.00492188 446.140625 -353.25984375 446.65625 -352.4921875 447.1875 C-350.6598507 448.45604086 -348.82919561 449.72693579 -347 451 C-346.11570312 450.40574219 -345.23140625 449.81148438 -344.3203125 449.19921875 C-341.5312818 447.35189606 -338.73087286 445.55377671 -335.875 443.8125 C-335.04742188 443.30332031 -334.21984375 442.79414063 -333.3671875 442.26953125 C-329.00871487 439.93206655 -325.19474145 439.87310449 -320.27754211 439.86628723 C-319.60260482 439.86402167 -318.92766752 439.86175612 -318.23227757 439.85942191 C-315.97164744 439.85309412 -313.71107746 439.8539105 -311.45043945 439.85473633 C-309.82900414 439.85174399 -308.20756953 439.84834129 -306.58613586 439.84455872 C-302.18094644 439.83572004 -297.77577644 439.8333806 -293.370579 439.83274293 C-290.61662548 439.83203211 -287.86267689 439.82989715 -285.10872459 439.82724571 C-275.49573834 439.81799129 -265.88276595 439.81391077 -256.26977539 439.81469727 C-247.31871509 439.81529743 -238.36771517 439.80475794 -229.41667014 439.7889536 C-221.72563911 439.77585951 -214.03462776 439.77051419 -206.34358567 439.77115268 C-201.75297975 439.7714072 -197.16242745 439.76858133 -192.57183266 439.75797462 C-188.25033327 439.7482627 -183.92893839 439.74823562 -179.60743523 439.75549126 C-178.02606681 439.7565334 -176.44469178 439.75419629 -174.86333466 439.7481308 C-154.67304579 439.67573918 -154.67304579 439.67573918 -146.5 445.1875 C-145.57832031 445.79851562 -144.65664063 446.40953125 -143.70703125 447.0390625 C-140.35233618 449.46915907 -137.2236427 452.11453966 -134.16796875 454.91015625 C-131.97879785 456.28834857 -131.97879785 456.28834857 -129.24609375 455.45703125 C-125.33622803 453.70206144 -121.6189998 451.70546974 -117.875 449.625 C-104.12781793 442.17353412 -92.31893698 439.84345935 -76.81996155 439.87974548 C-75.47335984 439.87930907 -74.12675821 439.87843286 -72.78015703 439.87715632 C-69.09045006 439.87492519 -65.40077224 439.8789137 -61.71106899 439.88393438 C-57.72819641 439.88825856 -53.74532544 439.88679106 -49.76245117 439.8860321 C-42.86536839 439.88550812 -35.96829508 439.88864185 -29.07121468 439.89426994 C-19.09923191 439.90240189 -9.12725372 439.9050019 0.84473199 439.90625793 C17.02417614 439.90844579 33.20361524 439.91509865 49.38305664 439.92456055 C65.09855118 439.93374156 80.81404434 439.94081902 96.52954102 439.94506836 C97.49847551 439.94533108 98.46741001 439.94559381 99.46570616 439.94586449 C104.32663487 439.94716954 109.18756359 439.94843325 114.04849231 439.94967639 C154.36566509 439.9600407 194.68283217 439.97772619 235 440 C235 446.93 235 453.86 235 461 C271.63 461 308.26 461 346 461 C346.33 521.06 346.66 581.12 347 643 C355.55324557 627.33484793 355.55324557 627.33484793 364.06762695 611.64892578 C365.08007451 609.77657943 366.09441956 607.90525854 367.11010742 606.03466797 C369.83366455 601.01752548 372.53834603 595.99188039 375.20703125 590.9453125 C384.88175797 572.73698841 394.57322395 558.82553447 415 552.25 C430.42134173 548.35723413 445.44692454 551.32504696 459.0859375 559.12109375 C469.65552187 565.93606705 475.02478851 575.91219753 477.86816406 587.96557617 C481.0633914 603.00829557 477.44180178 615.85893897 470.9375 629.5 C470.45361816 630.53318359 469.96973633 631.56636719 469.47119141 632.63085938 C467.99656757 635.76173228 466.50306045 638.88268969 465 642 C464.55640137 642.92039062 464.11280273 643.84078125 463.65576172 644.7890625 C458.98132092 654.42576599 454.08992989 663.90139233 448.69091797 673.15429688 C446.66870812 676.36463966 446.66870812 676.36463966 446 680 C447.60875 679.87625 447.60875 679.87625 449.25 679.75 C462.47618885 679.81973386 476.72339141 688.00505072 486.06640625 696.90234375 C495.2408764 706.85525379 498.1730058 717.59205082 498 731 C496.21080858 749.88067784 486.67247078 768.50935562 479.45858765 785.85592651 C454.12431931 846.80612223 432.38883121 910.50252908 418.61523438 975.12792969 C418.08678483 977.59486637 417.5257623 980.05090426 416.953125 982.5078125 C414.77910418 992.44567519 414.6716569 1002.42624387 414.45635986 1012.55258179 C414.21139876 1023.93849001 413.62985792 1035.11042623 410 1046 C411.32090134 1045.6641967 411.32090134 1045.6641967 412.66848755 1045.3216095 C439.24680047 1038.60836596 465.96136164 1032.885013 492.875 1027.6875 C493.92237587 1027.48431782 494.96975174 1027.28113564 496.04886627 1027.07179642 C529.85296299 1020.52219501 563.7036443 1015.16543331 597.875 1010.9375 C598.86972069 1010.81373867 599.86444138 1010.68997734 600.88930511 1010.56246567 C623.89312229 1007.70664462 646.84817179 1005.25195772 670 1004 C671.52477463 1003.91322998 671.52477463 1003.91322998 673.08035278 1003.82470703 C736.17736742 1000.24838407 807.22105974 1000.93044834 857.36425781 1044.58105469 C858.7090868 1045.74764366 860.08149593 1046.88236335 861.4609375 1048.0078125 C872.73943642 1057.94894001 878.22779045 1074.87481868 882 1089 C882.29148926 1090.08474609 882.29148926 1090.08474609 882.58886719 1091.19140625 C884.27915712 1098.39848916 884.37228019 1105.61254007 884.37060547 1112.97460938 C884.37495114 1115.10109333 884.41130516 1117.22544728 884.44921875 1119.3515625 C884.57849269 1135.23618366 881.53777114 1151.2794676 870.4375 1163.25 C859.36120022 1173.76421889 846.62795602 1176.62736238 831.87109375 1176.30859375 C818.47821304 1175.67929286 806.80546549 1170.37862656 797.5625 1160.625 C788.76750656 1150.0314394 787.65323614 1138.13962733 787.69726562 1124.86914062 C787.58337332 1119.02647307 787.58337332 1119.02647307 784.8046875 1113.98828125 C782.04966149 1112.03520571 779.56959271 1110.62783709 776.4375 1109.375 C775.50808594 1108.99085937 774.57867188 1108.60671875 773.62109375 1108.2109375 C728.14533858 1093.00329554 673.52198851 1100.32038301 627 1106 C625.58258514 1106.17045837 625.58258514 1106.17045837 624.13653564 1106.34436035 C550.68318376 1115.1910667 478.99526853 1131.70883964 407.12188721 1148.78381348 C403.0343584 1149.75474826 398.94630382 1150.72344261 394.85799313 1151.69107914 C303.00006972 1173.43356781 211.40548936 1196.38809844 117.59757233 1221.30968475 C114.96671495 1222.00884564 112.33574836 1222.70759446 109.70477295 1223.40631104 C58.24725584 1237.07564678 6.87693043 1251.05037915 -44.37269592 1265.48023987 C-49.1705517 1266.83101383 -53.96951258 1268.17784481 -58.76865292 1269.5240469 C-63.1763867 1270.76109388 -67.58126901 1272.00794445 -71.9855957 1273.25708008 C-147.24086098 1294.46797472 -147.24086098 1294.46797472 -165 1285 C-175.5238929 1278.28328012 -183.10420476 1268.19817724 -186.52832031 1256.1394043 C-189.49318829 1242.69161025 -187.07893461 1228.2271744 -180.5078125 1216.2890625 C-179.10104456 1214.09508764 -177.60755057 1212.04951865 -176 1210 C-175.278125 1208.96875 -174.55625 1207.9375 -173.8125 1206.875 C-162.98674581 1194.42365333 -143.7549569 1191.37727109 -128.6328125 1187.08203125 C-126.61611928 1186.50618282 -124.59951461 1185.9300242 -122.58299255 1185.35357666 C-117.20774569 1183.818239 -111.8310257 1182.28812489 -106.45390701 1180.75935745 C-103.12087144 1179.81132569 -99.78825443 1178.86183709 -96.45578003 1177.91183472 C-69.50963726 1170.23035886 -42.55395601 1162.5833642 -15.5625 1155.0625 C-14.35732727 1154.72650787 -13.15215454 1154.39051575 -11.91046143 1154.04434204 C-8.52551767 1153.10169391 -5.13996491 1152.16129116 -1.75390625 1151.22265625 C-0.72479126 1150.93727493 0.30432373 1150.65189362 1.36462402 1150.35786438 C5.96439379 1149.08877404 10.56746248 1147.84379231 15.19189453 1146.66748047 C16.4260183 1146.35187416 16.4260183 1146.35187416 17.68507385 1146.02989197 C19.13955345 1145.66083955 20.59562072 1145.29791163 22.05406189 1144.94483948 C26.33939036 1143.860007 30.4564057 1142.48672915 34.60625267 1140.96087265 C45.31963715 1137.03824024 56.18906799 1134.28066572 67.27734375 1131.63671875 C69.26628172 1131.15528657 71.25501202 1130.67299571 73.24354553 1130.18989563 C78.41764449 1128.93494133 83.59411569 1127.69008797 88.77130127 1126.44793701 C97.10866815 1124.44552248 105.4420796 1122.42669332 113.77581978 1120.40925026 C116.67904698 1119.7078668 119.58319285 1119.01040078 122.48753357 1118.31364441 C124.25203792 1117.88843325 126.01652941 1117.46316871 127.78100586 1117.0378418 C128.99250809 1116.74879974 128.99250809 1116.74879974 130.22848511 1116.45391846 C134.21698976 1115.52463146 134.21698976 1115.52463146 138 1114 C137.29875 1113.5153125 136.5975 1113.030625 135.875 1112.53125 C116.49357075 1098.8378489 107.56923243 1081.97135397 103.42431641 1058.77880859 C103.05123172 1056.50878651 102.68133875 1054.23823845 102.31396484 1051.96728516 C98.77650974 1030.27107765 93.87120412 1008.87053233 89.02612305 987.43798828 C81.08011071 952.28341086 81.08011071 952.28341086 78.39013672 934.92041016 C78.25498154 934.05603836 78.11982635 933.19166656 77.98057556 932.30110168 C77.65238313 930.20094247 77.32599781 928.10050099 77 926 C76.99761165 926.79384252 76.99522329 927.58768503 76.99276257 928.40558338 C76.93353365 947.75370584 76.8579332 967.1017016 76.76428509 986.44968891 C76.71938847 995.80637292 76.67995974 1005.16301939 76.65356445 1014.51977539 C76.63053461 1022.67855018 76.59708112 1030.83720556 76.55129844 1038.99588555 C76.52743329 1043.3127433 76.50866068 1047.62948328 76.50238609 1051.94640541 C76.49630473 1056.01680468 76.47619583 1060.08690287 76.44572449 1064.15719032 C76.43699287 1065.64416405 76.43321147 1067.13117721 76.43499184 1068.61817551 C76.44464271 1080.40720045 74.74171381 1090.53046994 69.3125 1101.0625 C68.96364746 1101.74513916 68.61479492 1102.42777832 68.25537109 1103.13110352 C58.75728635 1121.16125765 42.66881943 1133.39143609 23.58203125 1139.9921875 C14.71552142 1142.48679986 6.46678955 1143.29128969 -2.73901367 1143.25878906 C-3.97459015 1143.2622937 -5.21016663 1143.26579834 -6.48318481 1143.26940918 C-9.84515059 1143.27666106 -13.20686742 1143.27501957 -16.56881881 1143.26865101 C-20.11052363 1143.2635455 -23.65221866 1143.26829551 -27.19392395 1143.27142334 C-33.1443571 1143.27505221 -39.09474045 1143.27029482 -45.04516602 1143.26074219 C-51.88655744 1143.24988478 -58.72782938 1143.25336779 -65.56921786 1143.264395 C-71.47619707 1143.27352884 -77.38314071 1143.27472287 -83.29012471 1143.26951766 C-86.80324556 1143.26642798 -90.31631065 1143.26590406 -93.82942772 1143.27259064 C-129.39312719 1143.33100278 -129.39312719 1143.33100278 -142.125 1138.3125 C-142.77895752 1138.05629883 -143.43291504 1137.80009766 -144.10668945 1137.53613281 C-149.71174306 1135.27264492 -154.97885913 1132.50884024 -160.23046875 1129.515625 C-161.14441406 1129.01546875 -162.05835938 1128.5153125 -163 1128 C-164.21236328 1127.29423828 -164.21236328 1127.29423828 -165.44921875 1126.57421875 C-168.64426637 1125.85496607 -170.12530536 1126.74334498 -172.85791016 1128.4152832 C-173.73261963 1128.98315552 -173.73261963 1128.98315552 -174.625 1129.5625 C-175.87294342 1130.3211019 -177.12296825 1131.07628983 -178.375 1131.828125 C-178.98988281 1132.20130859 -179.60476563 1132.57449219 -180.23828125 1132.95898438 C-192.56124353 1140.24073481 -205.02474241 1142.44498118 -219.17529297 1142.46411133 C-220.55335612 1142.47643659 -221.93140855 1142.49001349 -223.30944824 1142.50473022 C-227.01616571 1142.54054717 -230.72275937 1142.55828955 -234.42961645 1142.57197404 C-238.3335252 1142.58895187 -242.23731589 1142.62099448 -246.1411438 1142.65080261 C-252.69579019 1142.69852371 -259.25042077 1142.73458292 -265.80517578 1142.76342773 C-273.34883401 1142.79675139 -280.89221112 1142.84780298 -288.43569458 1142.90858442 C-295.73345929 1142.96703027 -303.03125325 1143.01348483 -310.32913589 1143.05438805 C-313.41570975 1143.07184855 -316.50221721 1143.09325372 -319.5887413 1143.11795998 C-323.23482756 1143.14655105 -326.88082554 1143.16447624 -330.52700806 1143.17469406 C-332.47801598 1143.18250922 -334.4289759 1143.20036984 -336.37991333 1143.21870422 C-358.72425861 1143.24352501 -376.79019849 1137.26105682 -394.58984375 1123.734375 C-396.67953682 1122.23060883 -398.66350836 1121.06253448 -401 1120 C-401.69222656 1120.556875 -402.38445313 1121.11375 -403.09765625 1121.6875 C-421.04071757 1135.68261502 -439.99086322 1143.15694623 -462.90307617 1143.14526367 C-464.34188141 1143.15030159 -464.34188141 1143.15030159 -465.80975342 1143.15544128 C-468.97083857 1143.16490906 -472.13187031 1143.16689365 -475.29296875 1143.16796875 C-477.52134726 1143.17118896 -479.74972556 1143.17455359 -481.97810364 1143.17805481 C-486.65768928 1143.18403911 -491.3372565 1143.1858959 -496.0168457 1143.18530273 C-500.75972355 1143.18522208 -505.50250358 1143.19206576 -510.24536133 1143.20581055 C-558.11470331 1143.34283302 -558.11470331 1143.34283302 -579.53637695 1141.4309082 C-587.27113413 1140.77946464 -594.38944098 1140.87522104 -602.08943176 1141.99450684 C-611.66980861 1143.26911523 -621.17997266 1143.2891928 -630.83007812 1143.2746582 C-632.76704604 1143.27901666 -634.70401225 1143.28420354 -636.64097595 1143.29014587 C-641.85376622 1143.30342255 -647.06648349 1143.3041275 -652.27928734 1143.30158257 C-656.65028025 1143.30050551 -661.02125882 1143.3054147 -665.39224863 1143.310188 C-675.71154276 1143.32124313 -686.03080048 1143.32174262 -696.35009766 1143.31567383 C-706.95655607 1143.30963169 -717.56288191 1143.32196043 -728.16931772 1143.3432439 C-737.3154708 1143.36091468 -746.46158187 1143.3668528 -755.60775137 1143.36360615 C-761.0529959 1143.36180251 -766.49814574 1143.36433743 -771.94337463 1143.37832069 C-777.06534718 1143.39098469 -782.1871142 1143.38887467 -787.30908394 1143.37590981 C-789.17616918 1143.37356335 -791.04326929 1143.37620838 -792.91033745 1143.38453293 C-818.72855801 1143.49124646 -839.66807897 1137.88911531 -858.75 1119.6875 C-871.7738126 1106.23698129 -878.33989155 1090.4584764 -878.26069641 1071.84953308 C-878.26643473 1070.39264705 -878.26643473 1070.39264705 -878.27228898 1068.90632898 C-878.28253961 1065.67862583 -878.27864198 1062.45110321 -878.2746582 1059.22338867 C-878.27900909 1056.89820696 -878.28419349 1054.57302668 -878.29014587 1052.24784851 C-878.30350707 1045.95023176 -878.3041177 1039.65267514 -878.30158257 1033.35504699 C-878.30037504 1027.42217958 -878.30659742 1021.48932217 -878.31201603 1015.5564578 C-878.32287469 1003.08621291 -878.32073714 990.61599511 -878.31463119 978.14574871 C-878.3094646 966.76111301 -878.32071362 955.37656293 -878.33972941 943.99194416 C-878.359146 932.27671816 -878.36735705 920.56153259 -878.36360615 908.84629041 C-878.36179683 902.2793191 -878.36439449 895.71242621 -878.37832069 889.14546776 C-878.39093285 882.96725725 -878.38892279 876.7892176 -878.37590981 870.6110096 C-878.3735518 868.35081804 -878.3762507 866.09061432 -878.38453293 863.83043671 C-878.45981949 841.67813237 -875.50419229 824.03547054 -860 807 C-858.76443359 805.62521484 -858.76443359 805.62521484 -857.50390625 804.22265625 C-840.94394542 786.70130437 -819.69009983 781.26024677 -797 776 C-797.38526855 775.58242432 -797.77053711 775.16484863 -798.16748047 774.73461914 C-801.89023913 770.56916964 -804.68966643 766.45566881 -807.125 761.4375 C-807.63365601 760.40411499 -807.63365601 760.40411499 -808.15258789 759.34985352 C-814.19427956 746.66941914 -816.13232663 734.10178362 -816.20532227 720.18969727 C-816.21522186 719.01824661 -816.22512146 717.84679596 -816.23532104 716.6398468 C-816.26681523 712.78205358 -816.29164566 708.92424807 -816.31640625 705.06640625 C-816.33698621 702.38597708 -816.3579366 699.70555337 -816.37937927 697.02513123 C-816.42916752 690.70009669 -816.47415741 684.3750376 -816.51740164 678.04995531 C-816.56689302 670.84554798 -816.62176677 663.64118475 -816.67708123 656.43682015 C-816.7906882 641.62458844 -816.89738215 626.81231198 -817 612 C-822.61 611.67 -828.22 611.34 -834 611 C-834 579.98 -834 548.96 -834 517 C-885.81 517 -937.62 517 -991 517 C-991.08823952 469.24477017 -991.16207399 421.48961744 -991.20426132 373.73432937 C-991.20926394 368.09192907 -991.21444125 362.44952895 -991.21972656 356.80712891 C-991.2207758 355.6838641 -991.22182505 354.5605993 -991.22290608 353.40329617 C-991.2402948 335.23343912 -991.27182404 317.06363287 -991.30861118 298.89380592 C-991.34606328 280.23948712 -991.36824488 261.58519487 -991.37635398 242.93084002 C-991.38183289 231.42705815 -991.39911586 219.9234199 -991.43166587 208.41968226 C-991.45286646 200.52310926 -991.45918752 192.62661012 -991.45400551 184.73001075 C-991.45145235 180.17918138 -991.45526968 175.62860237 -991.4768219 171.07781792 C-991.496457 166.90106102 -991.49716161 162.72472001 -991.48359558 158.54794294 C-991.48192188 157.04698679 -991.48685163 155.54600342 -991.49953273 154.04509991 C-991.67390375 132.10883636 -984.79334152 114.23595461 -970 98 C-969.37609375 97.29488281 -968.7521875 96.58976562 -968.109375 95.86328125 C-954.90628011 81.74484575 -934.51847869 70.71280371 -915.04183352 69.8723495 C-913.9956436 69.871103 -912.94945369 69.86985651 -911.87156105 69.86857224 C-910.65726028 69.86473109 -909.44295951 69.86088995 -908.19186175 69.8569324 C-906.85281215 69.85771254 -905.51376261 69.85859131 -904.17471313 69.85955811 C-902.74550655 69.85697277 -901.31630068 69.85395914 -899.88709581 69.8505547 C-895.9637904 69.84250079 -892.0405033 69.84069602 -888.1171906 69.83995724 C-883.88381668 69.8381038 -879.65045219 69.83055485 -875.41708374 69.82382202 C-866.1604629 69.81024812 -856.90384641 69.80421503 -847.64721727 69.79981136 C-841.86294876 69.79704652 -836.07868191 69.79280864 -830.29441452 69.78830719 C-814.26811389 69.77611418 -798.24181459 69.76581595 -782.21550941 69.7624321 C-781.19001642 69.76221253 -780.16452342 69.76199297 -779.10795488 69.76176675 C-778.08004893 69.76154847 -777.05214298 69.76133019 -775.99308836 69.7611053 C-773.91026854 69.76066184 -771.82744873 69.76021527 -769.74462891 69.75976562 C-768.71148494 69.7595442 -767.67834098 69.75932277 -766.61388962 69.75909463 C-749.88968947 69.75515033 -733.16553299 69.7377077 -716.4413497 69.7144061 C-699.25585217 69.69065588 -682.07037651 69.67822852 -664.8848623 69.67706418 C-655.24204084 69.67614931 -645.59927624 69.67044488 -635.95647049 69.65224457 C-627.74157795 69.63679377 -619.52675983 69.63175225 -611.31185551 69.63998267 C-607.12557471 69.64387204 -602.93944355 69.64304419 -598.75318146 69.62892532 C-594.90978523 69.61608229 -591.06664946 69.61747379 -587.22325306 69.62951604 C-585.19734889 69.63236364 -583.17143977 69.62061647 -581.1455723 69.60809398 C-559.51493857 69.72301256 -539.07511029 76.02091996 -523 91 C-519.8828135 89.56777918 -517.08277963 87.77723838 -514.23120117 85.87768555 C-497.27869157 74.62908281 -479.48463406 69.84428824 -459.17285156 69.85473633 C-458.22179535 69.85137772 -457.27073914 69.8480191 -456.29086304 69.84455872 C-453.15743687 69.83509265 -450.02406458 69.8331065 -446.890625 69.83203125 C-444.68227111 69.82881114 -442.47391743 69.82544653 -440.26556396 69.82194519 C-435.62886056 69.81596148 -430.99217575 69.81410406 -426.35546875 69.81469727 C-421.65425725 69.81477796 -416.95314436 69.80792889 -412.25195312 69.79418945 C-364.89467487 69.65748276 -364.89467487 69.65748276 -344.65527344 71.5690918 C-337.09875804 72.23689603 -329.29080234 72.66456287 -321.77495575 71.50050259 C-317.91356089 70.98853947 -314.14821303 70.85465381 -310.26275635 70.85955811 C-309.51472394 70.85658698 -308.76669153 70.85361586 -307.99599147 70.8505547 C-305.5054541 70.84192792 -303.01496515 70.84036455 -300.52441406 70.83886719 C-298.73157144 70.83423447 -296.9387298 70.8292092 -295.14588928 70.82382202 C-290.28361324 70.81073323 -285.42135099 70.80425907 -280.5590601 70.79981136 C-277.51337819 70.79687283 -274.46769999 70.79276641 -271.42201996 70.78830719 C-261.87042422 70.77463687 -252.31883702 70.7649699 -242.76723218 70.7611053 C-231.78447966 70.75663607 -220.80185231 70.73913911 -209.81913781 70.7101047 C-201.30411794 70.6883853 -192.789133 70.67839545 -184.27408576 70.67706418 C-179.20139477 70.67602277 -174.1288215 70.67025898 -169.05615997 70.65224457 C-164.27246475 70.63558725 -159.48897347 70.63369261 -154.70525932 70.64238358 C-152.96521642 70.64314481 -151.22516175 70.63893459 -149.48514748 70.62892532 C-134.41768112 70.54745144 -118.92022633 71.5932664 -104.625 76.75 C-103.53131104 77.12862183 -103.53131104 77.12862183 -102.41552734 77.51489258 C-94.04295021 80.52685518 -86.02374288 84.4908557 -79 90 C-75.96989848 88.62572829 -73.74702591 86.99490064 -71.25 84.8125 C-51.67850838 69.48735158 -23.75920801 67.360088 0 70 C0 46.9 0 23.8 0 0 Z M5 683 C5 714.35 5 745.7 5 778 C11.93 779.98 18.86 781.96 26 784 C35.89975933 788.44771796 44.62441237 793.09331812 53 800 C53.63035156 800.51691406 54.26070312 801.03382813 54.91015625 801.56640625 C65.74464477 811.41369764 74.24994753 827.53695078 75.20532227 842.13793945 C75.24197998 843.28480225 75.2786377 844.43166504 75.31640625 845.61328125 C75.35830078 846.86044922 75.40019531 848.10761719 75.44335938 849.39257812 C75.48267578 850.68615234 75.52199219 851.97972656 75.5625 853.3125 C75.62727539 855.28186523 75.62727539 855.28186523 75.69335938 857.29101562 C75.79927227 860.52724288 75.90134885 863.76354458 76 867 C78.07487105 864.31394563 79.4525468 861.93663073 80.75 858.8125 C85.91370737 849.35870342 98.63726511 844.61393661 108.4140625 841.65625 C121.20337241 838.41062452 133.23497498 839.41312162 145.015625 845.578125 C158.24550515 853.6028064 165.68909821 863.65072044 169.37280273 878.61547852 C169.72876303 880.1184014 170.08363533 881.62158232 170.4375 883.125 C170.82019434 884.69267568 171.20309228 886.26030167 171.58618164 887.82788086 C174.91056674 901.67177741 177.46321811 915.65187942 179.79272461 929.69384766 C179.92779419 930.49621353 180.06286377 931.29857941 180.20202637 932.1252594 C180.45345431 933.62685284 180.69848464 935.12953705 180.93591309 936.63340759 C181.50735759 940.051139 182.04400803 942.06601204 184 945 C190.10329986 933.9169177 196.13379667 922.8057831 201.9375 911.5625 C206.36098378 903.0092316 211.00959629 894.61452736 215.79272461 886.25805664 C220.91952616 877.25045144 225.75718293 868.09950124 230.59005737 858.93234253 C235.82998693 848.99976724 241.19616081 839.16185293 246.80273438 829.4296875 C247.28548828 828.58921875 247.76824219 827.74875 248.265625 826.8828125 C248.67586914 826.17527832 249.08611328 825.46774414 249.50878906 824.73876953 C250.93049165 822.12765957 252.26705419 819.48951066 253.59320068 816.8288269 C254.04380733 815.92541502 254.49441399 815.02200314 254.95867538 814.09121513 C255.30231251 813.40111414 255.64594963 812.71101315 256 812 C255.44121784 811.99853344 254.88243568 811.99706688 254.30672073 811.99555588 C240.61342772 811.95825526 226.92038059 811.89869346 213.22728348 811.81609726 C206.60497114 811.77680344 199.98277433 811.74452682 193.36035156 811.72900391 C186.95403893 811.71371742 180.54808245 811.67906228 174.14192963 811.63169098 C171.71349964 811.61699983 169.28501877 811.60896615 166.85654449 811.60811615 C138.59546993 811.58829975 111.93143604 807.75178361 90.41796875 787.640625 C73.56156652 769.23201772 68.77944565 744.4914209 68.90234375 720.3046875 C68.90335083 719.35150635 68.90435791 718.3983252 68.90539551 717.41625977 C68.9105731 713.90249403 68.92453373 710.38874563 68.9375 706.875 C68.9684375 695.056875 68.9684375 695.056875 69 683 C47.88 683 26.76 683 5 683 Z M339 872 C338.69932617 872.58152832 338.39865234 873.16305664 338.08886719 873.76220703 C332.0573755 885.41260538 325.95241881 897.01479335 319.64135742 908.51635742 C316.33891059 914.53645946 313.07606779 920.576313 309.83447266 926.62939453 C304.22554703 937.10072854 298.49619867 947.48843985 292.61352539 957.80834961 C289.29495232 963.64995089 286.09523752 969.53731028 283 975.5 C278.85970862 983.47539328 274.47523872 991.29419862 270.02734375 999.1015625 C266.09460014 1006.02061844 262.27057968 1012.99139875 258.5 1020 C252.65565072 1030.85014234 246.64881511 1041.59957672 240.53466797 1052.29980469 C239.06127172 1054.89219452 237.60838706 1057.49505118 236.16015625 1060.1015625 C223.26348015 1083.12150996 223.26348015 1083.12150996 214.34179688 1091.5703125 C212.77188712 1092.91626801 212.77188712 1092.91626801 213 1095 C219.20874134 1094.38356741 224.94511725 1093.06311579 230.94140625 1091.3671875 C232.96112162 1090.80889576 234.98098589 1090.25114249 237.00097656 1089.69384766 C238.60205261 1089.24951385 238.60205261 1089.24951385 240.23547363 1088.79620361 C262.63374269 1082.59445944 285.13298729 1076.96126133 307.75 1071.625 C308.45936329 1071.45755028 309.16872658 1071.29010056 309.89958572 1071.1175766 C318.59668823 1069.06538177 327.29670234 1067.02577429 336 1065 C336 1064.01 336 1063.02 336 1062 C334.46400612 1060.43847041 334.46400612 1060.43847041 332.4375 1058.9375 C319.78913609 1048.2780131 314.13398875 1032.55685104 312.6796875 1016.453125 C311.3454802 972.86901972 324.05794785 924.80669004 337.70068359 883.76391602 C338.01859863 882.78994873 338.33651367 881.81598145 338.6640625 880.8125 C338.94717285 879.97332031 339.2302832 879.13414062 339.52197266 878.26953125 C340.04291031 875.79627464 339.81283707 874.36709037 339 872 Z " fill="#010101" transform="translate(991,0)"/>
<path d="M0 0 C28.05 0 56.1 0 85 0 C85 5.61 85 11.22 85 17 C120.31 17 155.62 17 192 17 C192 39.44 192 61.88 192 85 C156.69 85 121.38 85 85 85 C85 125.92 85 166.84 85 209 C92.26 209 99.52 209 107 209 C107 174.35 107 139.7 107 104 C135.05 104 163.1 104 192 104 C192.33 148.55 192.66 193.1 193 239 C196.96 231.41 200.92 223.82 205 216 C211.58024263 203.87850043 211.58024263 203.87850043 213.9375 199.58984375 C217.12489077 193.77941063 220.28350324 187.95361247 223.4375 182.125 C223.97681152 181.12879639 224.51612305 180.13259277 225.07177734 179.10620117 C226.71481528 176.07096144 228.35746907 173.03551413 230 170 C236.80329502 157.42702629 243.61573265 144.85936296 250.4675293 132.31274414 C254.81667123 124.3451851 259.1418683 116.36475454 263.4609375 108.38085938 C264.47090814 106.5142172 265.48195236 104.64815544 266.49414062 102.78271484 C267.52956556 100.86932745 268.55919754 98.95279746 269.58398438 97.03369141 C277.74255806 81.84458653 288.39492235 71.5953007 305 66.25 C320.42134173 62.35723413 335.44692454 65.32504696 349.0859375 73.12109375 C359.65552187 79.93606705 365.02478851 89.91219753 367.86816406 101.96557617 C371.0633914 117.00829557 367.44180178 129.85893897 360.9375 143.5 C360.45361816 144.53318359 359.96973633 145.56636719 359.47119141 146.63085938 C357.99656757 149.76173228 356.50306045 152.88268969 355 156 C354.55640137 156.92039062 354.11280273 157.84078125 353.65576172 158.7890625 C348.98132092 168.42576599 344.08992989 177.90139233 338.69091797 187.15429688 C336.66870812 190.36463966 336.66870812 190.36463966 336 194 C337.0725 193.9175 338.145 193.835 339.25 193.75 C352.47618885 193.81973386 366.72339141 202.00505072 376.06640625 210.90234375 C385.2408764 220.85525379 388.1730058 231.59205082 388 245 C386.21080858 263.88067784 376.67247078 282.50935562 369.45858765 299.85592651 C344.12431931 360.80612223 322.38883121 424.50252908 308.61523438 489.12792969 C308.08678483 491.59486637 307.5257623 494.05090426 306.953125 496.5078125 C304.77910418 506.44567519 304.6716569 516.42624387 304.45635986 526.55258179 C304.21139876 537.93849001 303.62985792 549.11042623 300 560 C300.88060089 559.77613113 301.76120178 559.55226227 302.66848755 559.3216095 C329.24680047 552.60836596 355.96136164 546.885013 382.875 541.6875 C383.92237587 541.48431782 384.96975174 541.28113564 386.04886627 541.07179642 C419.85296299 534.52219501 453.7036443 529.16543331 487.875 524.9375 C488.86972069 524.81373867 489.86444138 524.68997734 490.88930511 524.56246567 C513.89312229 521.70664462 536.84817179 519.25195772 560 518 C561.52477463 517.91322998 561.52477463 517.91322998 563.08035278 517.82470703 C626.17736742 514.24838407 697.22105974 514.93044834 747.36425781 558.58105469 C748.7090868 559.74764366 750.08149593 560.88236335 751.4609375 562.0078125 C762.73943642 571.94894001 768.22779045 588.87481868 772 603 C772.29148926 604.08474609 772.29148926 604.08474609 772.58886719 605.19140625 C774.27915712 612.39848916 774.37228019 619.61254007 774.37060547 626.97460938 C774.37495114 629.10109333 774.41130516 631.22544728 774.44921875 633.3515625 C774.57849269 649.23618366 771.53777114 665.2794676 760.4375 677.25 C749.36120022 687.76421889 736.62795602 690.62736238 721.87109375 690.30859375 C708.47821304 689.67929286 696.80546549 684.37862656 687.5625 674.625 C678.76750656 664.0314394 677.65323614 652.13962733 677.69726562 638.86914062 C677.58337332 633.02647307 677.58337332 633.02647307 674.8046875 627.98828125 C672.04966149 626.03520571 669.56959271 624.62783709 666.4375 623.375 C665.50808594 622.99085938 664.57867188 622.60671875 663.62109375 622.2109375 C618.14533858 607.00329554 563.52198851 614.32038301 517 620 C516.05505676 620.11363892 515.11011353 620.22727783 514.13653564 620.34436035 C440.68318376 629.1910667 368.99526853 645.70883964 297.12188721 662.78381348 C293.0343584 663.75474826 288.94630382 664.72344261 284.85799313 665.69107914 C193.00006972 687.43356781 101.40548936 710.38809844 7.59757233 735.30968475 C4.96671495 736.00884564 2.33574836 736.70759446 -0.29522705 737.40631104 C-51.75274416 751.07564678 -103.12306957 765.05037915 -154.37269592 779.48023987 C-159.1705517 780.83101383 -163.96951258 782.17784481 -168.76865292 783.5240469 C-173.1763867 784.76109388 -177.58126901 786.00794445 -181.9855957 787.25708008 C-257.24086098 808.46797472 -257.24086098 808.46797472 -275 799 C-285.5238929 792.28328012 -293.10420476 782.19817724 -296.52832031 770.1394043 C-299.49318829 756.69161025 -297.07893461 742.2271744 -290.5078125 730.2890625 C-289.10104456 728.09508764 -287.60755057 726.04951865 -286 724 C-285.278125 722.96875 -284.55625 721.9375 -283.8125 720.875 C-272.98674581 708.42365333 -253.7549569 705.37727109 -238.6328125 701.08203125 C-236.61611928 700.50618282 -234.59951461 699.9300242 -232.58299255 699.35357666 C-227.20774569 697.818239 -221.8310257 696.28812489 -216.45390701 694.75935745 C-213.12087144 693.81132569 -209.78825443 692.86183709 -206.45578003 691.91183472 C-179.50963726 684.23035886 -152.55395601 676.5833642 -125.5625 669.0625 C-123.75474091 668.55851181 -123.75474091 668.55851181 -121.91046143 668.04434204 C-118.52551767 667.10169391 -115.13996491 666.16129116 -111.75390625 665.22265625 C-110.21023376 664.79458427 -110.21023376 664.79458427 -108.63537598 664.35786438 C-104.03560621 663.08877404 -99.43253752 661.84379231 -94.80810547 660.66748047 C-93.98535629 660.45707626 -93.16260712 660.24667206 -92.31492615 660.02989197 C-90.86044655 659.66083955 -89.40437928 659.29791163 -87.94593811 658.94483948 C-83.66060964 657.860007 -79.5435943 656.48672915 -75.39374733 654.96087265 C-64.68036285 651.03824024 -53.81093201 648.28066572 -42.72265625 645.63671875 C-40.73371828 645.15528657 -38.74498798 644.67299571 -36.75645447 644.18989563 C-31.58235551 642.93494133 -26.40588431 641.69008797 -21.22869873 640.44793701 C-12.89133185 638.44552248 -4.5579204 636.42669332 3.77581978 634.40925026 C6.67904698 633.7078668 9.58319285 633.01040078 12.48753357 632.31364441 C14.25203792 631.88843325 16.01652941 631.46316871 17.78100586 631.0378418 C18.58867401 630.84514709 19.39634216 630.65245239 20.22848511 630.45391846 C24.21698976 629.52463146 24.21698976 629.52463146 28 628 C27.29875 627.5153125 26.5975 627.030625 25.875 626.53125 C6.49357075 612.8378489 -2.43076757 595.97135397 -6.57568359 572.77880859 C-6.94876828 570.50878651 -7.31866125 568.23823845 -7.68603516 565.96728516 C-11.22349117 544.2710721 -16.12884913 522.87054816 -20.97387695 501.43798828 C-25.51109084 481.36240539 -29.70981882 461.29709397 -33.125 441 C-33.37864359 439.50646579 -33.63254998 438.01297618 -33.88671875 436.51953125 C-34.37375544 433.65507508 -34.85742594 430.79008512 -35.33813477 427.92456055 C-35.75618993 425.44568307 -36.18034953 422.96782038 -36.61303711 420.49145508 C-39.64103619 403.00580756 -38.15877842 384.96382379 -28.33837891 369.73291016 C-20.87592081 360.07064683 -5.53343336 354.84024766 6 353 C20.04547923 351.83590458 31.82418398 355.44351586 43 364 C45.92402808 366.48745444 48.56890964 369.02812602 51 372 C51.46462646 372.55961426 51.92925293 373.11922852 52.40795898 373.69580078 C57.72562412 380.76529587 59.45219137 388.68698734 61.4375 397.125 C61.81950049 398.69193378 62.20166521 400.25882753 62.58398438 401.82568359 C65.9124481 415.70397802 68.48968654 429.71529038 70.88061523 443.78173828 C71.01749252 444.58591187 71.15436981 445.39008545 71.2953949 446.21862793 C71.55034094 447.72737034 71.80180506 449.2367067 72.04920959 450.7467041 C72.65020554 454.48629304 72.65020554 454.48629304 74 458 C74.4218457 457.17612793 74.84369141 456.35225586 75.27832031 455.50341797 C83.50239795 439.45910372 91.81405662 423.48415308 100.52148438 407.6953125 C102.63431733 403.84364872 104.71436029 399.97454256 106.79736328 396.10668945 C111.53922935 387.30550934 116.35859233 378.55862195 121.3125 369.875 C126.73562306 360.36407081 131.90487381 350.73311749 137.02792358 341.05889893 C141.93526129 331.79796922 146.97870841 322.63201311 152.1784668 313.53100586 C158.66850517 302.13864706 164.82768335 290.56663366 171 279 C168.69933413 279.53092289 166.59343899 280.1595751 164.3894043 281.0246582 C159.82653525 282.33767858 155.49962828 282.46493534 150.76953125 282.60546875 C149.6697847 282.64238327 148.57003815 282.67929779 147.43696594 282.71733093 C128.78357254 283.26241332 110.1151021 283.26222584 91.45532227 283.29516602 C85.78490375 283.30634198 80.11486553 283.34095984 74.44458294 283.38033772 C70.02538871 283.40655496 65.6062864 283.41486094 61.18702126 283.41844749 C59.09605056 283.42327685 57.00508294 283.43478458 54.91419029 283.45348549 C38.66915596 283.59011604 23.77925984 282.59797109 11.00390625 271.22265625 C-4.33230316 255.09490055 -1.29717864 230.73272506 -1.23571944 210.17975903 C-1.2268027 206.55768728 -1.22869906 202.93561809 -1.2290802 199.3135376 C-1.22814882 193.23162659 -1.21954023 187.14976599 -1.20581055 181.06787109 C-1.19011924 174.09242506 -1.18481186 167.11703418 -1.1855461 160.14157176 C-1.18622836 152.64033203 -1.17924765 145.13911281 -1.1700995 137.63787937 C-1.16799489 135.51079031 -1.16726201 133.38370469 -1.16686058 131.25661469 C-1.16128529 115.80299134 -0.93299671 100.42864788 0 85 C-7.26 85 -14.52 85 -22 85 C-22 62.89 -22 40.78 -22 18 C-17.22464388 17.20410731 -12.91388502 16.8771749 -8.125 16.9375 C-7.43664063 16.94201172 -6.74828125 16.94652344 -6.0390625 16.95117188 C-4.35933665 16.96283664 -2.67965625 16.98076729 -1 17 C-1.01160156 16.27554687 -1.02320313 15.55109375 -1.03515625 14.8046875 C-1.04869141 13.35449219 -1.04869141 13.35449219 -1.0625 11.875 C-1.07410156 10.92367188 -1.08570313 9.97234375 -1.09765625 8.9921875 C-1 6 -1 6 0 0 Z M229 386 C228.69932617 386.58152832 228.39865234 387.16305664 228.08886719 387.76220703 C222.0573755 399.41260538 215.95241881 411.01479335 209.64135742 422.51635742 C206.33891059 428.53645946 203.07606779 434.576313 199.83447266 440.62939453 C194.22554703 451.10072854 188.49619867 461.48843985 182.61352539 471.80834961 C179.29495232 477.64995089 176.09523752 483.53731028 173 489.5 C168.85970862 497.47539328 164.47523872 505.29419862 160.02734375 513.1015625 C156.09460014 520.02061844 152.27057968 526.99139875 148.5 534 C142.65565072 544.85014234 136.64881511 555.59957672 130.53466797 566.29980469 C129.06127172 568.89219452 127.60838706 571.49505118 126.16015625 574.1015625 C113.26348015 597.12150996 113.26348015 597.12150996 104.34179688 605.5703125 C102.77188712 606.91626801 102.77188712 606.91626801 103 609 C109.20874134 608.38356741 114.94511725 607.06311579 120.94140625 605.3671875 C122.96112162 604.80889576 124.98098589 604.25114249 127.00097656 603.69384766 C128.60205261 603.24951385 128.60205261 603.24951385 130.23547363 602.79620361 C152.63374269 596.59445944 175.13298729 590.96126133 197.75 585.625 C198.45936329 585.45755028 199.16872658 585.29010056 199.89958572 585.1175766 C208.59668823 583.06538177 217.29670234 581.02577429 226 579 C226 578.01 226 577.02 226 576 C224.46400612 574.43847041 224.46400612 574.43847041 222.4375 572.9375 C209.78913609 562.2780131 204.13398875 546.55685104 202.6796875 530.453125 C201.3454802 486.86901972 214.05794785 438.80669004 227.70068359 397.76391602 C228.01859863 396.78994873 228.33651367 395.81598145 228.6640625 394.8125 C228.94717285 393.97332031 229.2302832 393.13414062 229.52197266 392.26953125 C230.04291031 389.79627464 229.81283707 388.36709037 229 386 Z " fill="#F37BFC" transform="translate(1101,486)"/>
<path d="M0 0 C1.21228775 -0.00571014 2.4245755 -0.01142029 3.67359924 -0.01730347 C5.01426686 -0.01854879 6.3549346 -0.01967389 7.69560242 -0.02069092 C9.11026132 -0.02532149 10.52491898 -0.03034648 11.9395752 -0.03573608 C15.78319765 -0.04884817 19.62680264 -0.05530394 23.47044396 -0.05974674 C25.87736446 -0.06268236 28.28428024 -0.06678832 30.69119835 -0.07125092 C38.23733253 -0.08492925 45.78345587 -0.09459149 53.32960159 -0.09845281 C62.01000808 -0.10291979 70.69025602 -0.12040268 79.37061435 -0.1494534 C86.09699165 -0.17117391 92.82332473 -0.18116276 99.54973668 -0.18249393 C103.55818641 -0.18353554 107.5664872 -0.18930337 111.57489967 -0.20731354 C115.35639171 -0.22397209 119.13762578 -0.22586505 122.91914177 -0.21717453 C124.94277218 -0.2160547 126.96639471 -0.22963817 128.98997498 -0.243927 C145.17777322 -0.17141683 159.96253936 2.5596179 172.10063171 13.96856689 C179.4417505 22.03509267 181.39011561 31.51148334 181.33598328 42.10748291 C181.34124023 43.39447083 181.34124023 43.39447083 181.34660339 44.7074585 C181.35534565 47.5198394 181.34959875 50.33196506 181.34281921 53.14434814 C181.3441679 55.11154732 181.34611012 57.07874617 181.34861755 59.04594421 C181.35155854 63.15877471 181.34730373 67.27151805 181.3379364 71.38433838 C181.32653499 76.64547686 181.33311225 81.90641142 181.34508133 87.16754246 C181.3523212 91.22624742 181.35000235 95.28490433 181.34482574 99.34361076 C181.34349553 101.28321291 181.34511489 103.22281948 181.34978485 105.16241646 C181.35488592 107.87599311 181.34709 110.58924298 181.33598328 113.30279541 C181.34003174 114.09727585 181.3440802 114.89175629 181.34825134 115.71031189 C181.30224723 121.80314562 180.89247516 127.18901488 176.57719421 131.82794189 C172.54230852 134.85912468 167.79681561 136.47085251 163.07719421 138.14044189 C165.9338464 140.13840558 165.9338464 140.13840558 168.63578796 141.40216064 C169.58582703 141.87266846 170.53586609 142.34317627 171.51469421 142.82794189 C172.93588562 143.51436768 172.93588562 143.51436768 174.38578796 144.21466064 C177.85417346 146.69639366 179.67639726 149.16575055 181.07719421 153.14044189 C181.64657778 157.78305456 181.58250754 162.39002167 181.53129578 167.06207275 C181.53016624 168.47195402 181.53080323 169.88183763 181.5330658 171.29171753 C181.53420975 175.10337317 181.51075278 178.91452154 181.48276997 182.72605968 C181.45770272 186.71519928 181.45541013 190.70435153 181.45066833 194.69355774 C181.43825414 202.24057896 181.40545377 209.78736739 181.36527038 217.33428627 C181.32050407 225.92917354 181.29855344 234.52407214 181.27848864 243.11904705 C181.23671962 260.79297712 181.16639802 278.46669077 181.07719421 296.14044189 C182.07871521 296.11014893 183.08023621 296.07985596 184.11210632 296.04864502 C187.91606965 295.93427212 191.72012621 295.8232856 195.5242157 295.7131958 C197.1541247 295.66558156 198.78400903 295.61711272 200.41386414 295.56768799 C217.72358429 295.04396073 234.73532515 295.17700472 252.07719421 296.14044189 C252.07719421 321.55044189 252.07719421 346.96044189 252.07719421 373.14044189 C274.90298632 373.02202044 274.90298632 373.02202044 297.7285614 372.87017822 C302.18119812 372.85662842 302.18119812 372.85662842 304.27720642 372.85411072 C305.71587421 372.84955665 307.15453184 372.83911725 308.59312439 372.82371521 C324.35775821 372.66362947 337.44465232 374.83848725 349.38969421 385.89044189 C357.65603156 394.6085831 359.23237316 403.73567877 359.19744873 415.27064514 C359.19873037 416.81451079 359.19873037 416.81451079 359.2000379 418.38956565 C359.20168668 421.84275622 359.19618111 425.29589836 359.1907196 428.74908447 C359.19043758 431.22269693 359.19059577 433.69630947 359.19116211 436.16992188 C359.19138992 441.49771054 359.18855113 446.82548409 359.18292427 452.15326881 C359.1747941 459.85633108 359.17219249 467.55938743 359.17093628 475.26245352 C359.16874815 487.76044193 359.16209453 500.25842382 359.15263367 512.75640869 C359.14345338 524.89638232 359.13637556 537.03635417 359.13212585 549.17633057 C359.13173177 550.29896398 359.13173177 550.29896398 359.13132972 551.44427685 C359.13002468 555.19892555 359.12876097 558.95357426 359.12751782 562.70822299 C359.11715264 593.8523007 359.09946643 624.99637031 359.07719421 656.14044189 C353.25882112 656.3150406 347.44024445 656.47440065 341.62113953 656.62261963 C339.66335674 656.67428072 337.70565912 656.72934065 335.74809265 656.78863525 C314.79644796 657.41806032 294.09269324 656.66582937 273.07719421 656.14044189 C273.07719421 585.52044189 273.07719421 514.90044189 273.07719421 442.14044189 C266.14719421 442.14044189 259.21719421 442.14044189 252.07719421 442.14044189 C252.07719421 512.76044189 252.07719421 583.38044189 252.07719421 656.14044189 C183.72925 657.5352979 183.72925 657.5352979 167.07719421 656.14044189 C166.07719421 655.14044189 166.07719421 655.14044189 165.95299572 653.14393085 C165.9535653 651.8139604 165.9535653 651.8139604 165.95414639 650.45712185 C165.95215534 649.43797929 165.95016429 648.41883674 165.94811291 647.36881107 C165.95102575 646.23556701 165.95393859 645.10232295 165.9569397 643.93473816 C165.95565806 642.14486059 165.95565806 642.14486059 165.95435053 640.31882387 C165.95298233 636.99180197 165.95612985 633.66483818 165.96112859 630.33782327 C165.96542975 626.75566694 165.96398691 623.17351255 165.96322632 619.59135437 C165.96270087 613.380066 165.96584984 607.1687881 165.97146416 600.95750237 C165.97957634 591.97692352 165.98219409 582.99634976 165.98345215 574.01576764 C165.98564311 559.44688991 165.9923044 544.87801776 166.00175476 530.30914307 C166.01092773 516.15321887 166.01800913 501.99729619 166.02226257 487.84136963 C166.0225253 486.96942964 166.02278802 486.09748966 166.02305871 485.19912725 C166.0243637 480.82504909 166.02562742 476.45097091 166.02687061 472.07689273 C166.0372446 435.76473851 166.05486412 399.45259064 166.07719421 363.14044189 C165.08501892 363.16138916 164.09284363 363.18233643 163.07060242 363.20391846 C159.32645072 363.27729784 155.58235996 363.32259026 151.83769226 363.36016846 C150.22885895 363.38006427 148.6200958 363.40719119 147.01152039 363.44219971 C130.95629399 363.78241641 116.91535929 361.3586231 104.72172546 349.93341064 C98.76452932 343.5638767 95.69605689 337.9188096 95.71643066 329.11054993 C95.71386739 328.43894992 95.71130412 327.76734991 95.70866317 327.07539839 C95.70375554 324.84430576 95.72016701 322.6139029 95.73661804 320.38287354 C95.73746497 318.77595028 95.73698788 317.16902586 95.73529053 315.56210327 C95.73443172 311.21338048 95.75203882 306.86490721 95.7730124 302.51624227 C95.79179838 297.96654487 95.79353116 293.41684141 95.79708862 288.86711121 C95.80640344 280.25766766 95.83100961 271.64833874 95.86113709 263.03894562 C95.89469862 253.23487475 95.91117152 243.43079834 95.9262234 233.62668431 C95.95755966 213.46453786 96.01091532 193.30250114 96.07719421 173.14044189 C88.81719421 173.14044189 81.55719421 173.14044189 74.07719421 173.14044189 C74.07719421 207.13044189 74.07719421 241.12044189 74.07719421 276.14044189 C62.82431854 277.26572946 62.82431854 277.26572946 57.13383484 277.26983643 C55.86551819 277.27298859 54.59720154 277.27614075 53.29045105 277.27938843 C51.93811508 277.27759812 50.58577943 277.27554704 49.23344421 277.27325439 C47.81437666 277.27392995 46.39530923 277.27490205 44.97624207 277.27615356 C42.01785671 277.27761873 39.05950178 277.27551429 36.10112 277.27081299 C32.33579842 277.26511643 28.57054816 277.26840181 24.80522919 277.27438545 C21.87961809 277.27802315 18.9540235 277.27683783 16.02841187 277.27425766 C14.64113354 277.27359724 13.25385364 277.27438533 11.86657715 277.27673721 C9.91790298 277.27931698 7.96922345 277.27467948 6.02055359 277.26983643 C4.91820374 277.26904083 3.81585388 277.26824524 2.68009949 277.26742554 C-0.29495986 277.16257019 -3.18978415 276.93735971 -6.14798737 276.63250542 C-7.04360178 276.54083875 -7.93921618 276.44917207 -8.86197042 276.35472763 C-9.54204609 276.28401333 -10.22212176 276.21329904 -10.92280579 276.14044189 C-10.94567492 241.39590025 -10.96330542 206.65136031 -10.97387112 171.90681276 C-10.97512188 167.80858236 -10.9764162 163.71035197 -10.97773743 159.61212158 C-10.97799974 158.79620837 -10.97826205 157.98029516 -10.97853231 157.1396573 C-10.9828883 143.91372627 -10.99077547 130.68779956 -10.99995858 117.4618711 C-11.00929707 103.89945289 -11.01486181 90.33703694 -11.01689428 76.77461565 C-11.0182691 68.40014492 -11.0226175 60.02568643 -11.03072225 51.65121947 C-11.03599211 45.91517549 -11.03760953 40.17913787 -11.03630716 34.44309165 C-11.03566416 31.12949825 -11.03721684 27.81593094 -11.04201126 24.50234032 C-11.04694739 20.91657166 -11.04580434 17.33085642 -11.0430603 13.74508667 C-11.04597314 12.68868347 -11.04888599 11.63228027 -11.05188709 10.54386485 C-11.04989605 9.58891576 -11.047905 8.63396667 -11.04585361 7.65007973 C-11.04623334 6.82152997 -11.04661306 5.99298021 -11.04700428 5.13932288 C-10.92280579 3.14044189 -10.92280579 3.14044189 -9.92280579 1.14044189 C-6.65619757 -0.04902084 -3.44711069 0.0097334 0 0 Z " fill="#FFFFFF" transform="translate(274.9228057861328,112.85955810546875)"/>
<path d="M0 0 C1.3913574 0.00028309 2.78271495 0.00012176 4.17407227 -0.0004425 C7.8982854 -0.00072572 11.62246535 0.00509299 15.34667087 0.01213145 C19.25837959 0.01844525 23.17008934 0.01897507 27.08180237 0.02015686 C34.46553922 0.02324677 41.84926101 0.03142814 49.23299128 0.04150635 C57.64913822 0.05274077 66.06528593 0.05819629 74.48143852 0.06320179 C91.77222094 0.07361309 109.06298875 0.09116651 126.35375977 0.11352539 C127.45751536 16.00985663 127.51043449 31.8903441 127.51380253 47.81788254 C127.51567993 51.65143608 127.52323916 55.48497964 127.52993774 59.31852722 C127.54340327 67.66278017 127.54952469 76.00702824 127.5539484 84.35129023 C127.55672601 89.56855398 127.56096551 94.78581593 127.56545258 100.00307846 C127.57762048 114.4755218 127.58793067 128.94796372 127.59132767 143.42041206 C127.59165702 144.80396135 127.59165702 144.80396135 127.59199302 146.21546113 C127.5922113 147.13985671 127.59242957 148.06425229 127.59265447 149.01665986 C127.59309792 150.88944316 127.59354448 152.76222646 127.59399414 154.63500977 C127.59432629 156.02841726 127.59432629 156.02841726 127.59466514 157.4499744 C127.59862262 172.5388146 127.61611658 187.6276068 127.63935366 202.71642841 C127.66306976 218.24231566 127.67552931 233.76817877 127.67669559 249.29408443 C127.67761119 257.9980761 127.68333654 266.70200485 127.7015152 275.40597916 C127.71691831 282.80609192 127.72203467 290.20612222 127.7137771 297.60624798 C127.70987391 301.37860357 127.71078462 305.15079304 127.72483444 308.92312813 C127.73993794 313.0156951 127.73169908 317.10788854 127.72125244 321.20046997 C127.73333705 322.98017927 127.73333705 322.98017927 127.74566579 324.79584229 C127.68383502 335.14942587 125.68766462 343.52229054 118.35375977 351.11352539 C109.63781363 358.44598801 98.29534641 363.24287171 86.91241455 363.23377991 C85.94561142 363.23506154 85.94561142 363.23506154 84.95927691 363.23636907 C82.80200584 363.23801471 80.64481272 363.23251753 78.48754883 363.22705078 C76.94018048 363.22676869 75.392812 363.22692708 73.84544373 363.22749329 C69.6453896 363.22778039 65.445364 363.2218977 61.24531651 363.21491933 C56.85574551 363.20867132 52.46617388 363.20808084 48.07659912 363.20689392 C39.7645985 363.20378488 31.45261101 363.19557724 23.14061618 363.18554443 C13.67758555 363.17437005 4.21455431 363.1688695 -5.24848127 363.163849 C-24.71440838 363.15339428 -44.18032325 363.13580309 -63.64624023 363.11352539 C-63.66943555 355.11608657 -63.68719196 347.11866187 -63.69805241 339.1211977 C-63.70326551 335.40744651 -63.71033457 331.69371839 -63.72167969 327.97998047 C-63.7325645 324.39438336 -63.73852892 320.80880839 -63.74111748 317.22319603 C-63.74296165 315.85690144 -63.74656284 314.49060803 -63.75197029 313.12432289 C-63.75925485 311.2070802 -63.75964893 309.28981512 -63.75976562 307.37255859 C-63.76198624 306.28223831 -63.76420685 305.19191803 -63.76649475 304.06855774 C-63.6539536 301.30306715 -63.27504424 298.80375848 -62.64624023 296.11352539 C-41.07003655 294.93731663 -19.51772015 294.99275566 2.0824585 295.04486084 C6.86364287 295.05526166 11.64483287 295.05969361 16.42602539 295.06469727 C25.73528691 295.0752845 35.04451528 295.09280772 44.35375977 295.11352539 C44.35375977 289.17352539 44.35375977 283.23352539 44.35375977 277.11352539 C41.56346313 277.12923584 41.56346313 277.12923584 38.71679688 277.14526367 C32.51029551 277.17776017 26.30381454 277.20060552 20.09725094 277.21714973 C16.34115198 277.22750382 12.58514666 277.24150599 8.82910156 277.2644043 C5.19158089 277.28643649 1.5541492 277.29815661 -2.08343315 277.30327988 C-3.45821976 277.30692202 -4.83300254 277.31403041 -6.20775032 277.3249855 C-23.61712848 277.45796072 -40.3706141 276.6256183 -53.64624023 264.11352539 C-60.94579355 256.23284259 -64.11565847 248.71717819 -64.02719116 238.05654907 C-64.03421112 236.73993383 -64.03421112 236.73993383 -64.0413729 235.39672029 C-64.05328018 232.47355219 -64.0438823 229.55085662 -64.03442383 226.62768555 C-64.03849148 224.52452828 -64.04383445 222.42137314 -64.050354 220.31822205 C-64.06401198 214.61773946 -64.0587347 208.91742006 -64.04921675 203.21693468 C-64.04161033 197.24385171 -64.04866868 191.27078251 -64.05337524 185.29769897 C-64.05883077 175.2655792 -64.05164736 165.23352572 -64.03735352 155.20141602 C-64.02103634 143.61570658 -64.02630962 132.0301556 -64.04283273 120.44445002 C-64.05646397 110.48666393 -64.05835897 100.52892543 -64.05051672 90.57113302 C-64.04584809 84.62853804 -64.04519295 78.68601743 -64.05512619 72.74342728 C-64.06381705 67.15373158 -64.05773512 61.56423932 -64.04044342 55.97456551 C-64.03648953 53.92758967 -64.03759374 51.8805966 -64.04423141 49.8336277 C-64.08801434 34.95531433 -63.73998686 23.75426429 -53.08764648 12.46118164 C-38.82756783 -0.97817306 -18.24141435 -0.05186368 0 0 Z " fill="#FFFFFF" transform="translate(105.646240234375,112.886474609375)"/>
<path d="M0 0 C0 114.18 0 228.36 0 346 C-168.96734694 346 -168.96734694 346 -183.09375 333.0859375 C-189.81098892 325.94175542 -192.61329723 318.35203912 -192.50793457 308.6262207 C-192.51729451 307.27663883 -192.51729451 307.27663883 -192.52684355 305.89979267 C-192.54270007 302.9081828 -192.5301981 299.91739605 -192.51757812 296.92578125 C-192.5230025 294.77159147 -192.53012692 292.6174054 -192.53881836 290.46322632 C-192.55701697 284.62853737 -192.54999833 278.79413208 -192.53730202 272.95943832 C-192.52715649 266.84575399 -192.53657202 260.73209352 -192.54284668 254.6184082 C-192.55011854 244.35265759 -192.54054741 234.08702218 -192.52148438 223.82128906 C-192.49971662 211.96227313 -192.50676831 200.10353231 -192.52879 188.24452305 C-192.54695706 178.05232931 -192.54949589 167.86021827 -192.53903532 157.66801357 C-192.53280762 151.58515859 -192.53194498 145.5024328 -192.54518127 139.41958618 C-192.55675805 133.70014224 -192.54868026 127.9810521 -192.52560425 122.26164627 C-192.52032698 120.16587536 -192.52181406 118.07007455 -192.53065491 115.97431564 C-192.54163269 113.10707176 -192.52781967 110.24095211 -192.50793457 107.3737793 C-192.51685746 106.55012532 -192.52578034 105.72647135 -192.53497362 104.87785816 C-192.41750376 96.10825051 -188.89941907 89.19569892 -182.98046875 82.84765625 C-169.19526084 69.98690015 -152.82336636 68.66164862 -134.73046875 68.8046875 C-133.31415509 68.80842974 -131.8978388 68.81127097 -130.48152161 68.81326294 C-126.80073568 68.82080425 -123.1201142 68.84036775 -119.43939209 68.8626709 C-115.66469546 68.88333735 -111.88997158 68.89230856 -108.11523438 68.90234375 C-100.7434156 68.92362535 -93.37173106 68.95764229 -86 69 C-86.00222061 68.42831589 -86.00444122 67.85663177 -86.00672913 67.2676239 C-86.02918078 61.21463661 -86.04406914 55.16166149 -86.05493164 49.10864258 C-86.05990197 46.86189288 -86.06668056 44.61514632 -86.07543945 42.3684082 C-86.12792042 28.54121626 -85.91854439 14.79887717 -85 1 C-57.21495821 -4.55700836 -28.33529405 0 0 0 Z " fill="#FFFFFF" transform="translate(1121,44)"/>
<path d="M0 0 C1.19206558 -0.00700928 2.38413116 -0.01401855 3.61231995 -0.02124023 C6.83975336 -0.03568833 10.06651537 -0.03250168 13.29393697 -0.01972389 C16.69690131 -0.0094803 20.09982596 -0.01902043 23.50279236 -0.02526855 C29.21255349 -0.03251138 34.92210652 -0.02304547 40.63183594 -0.00390625 C47.20252459 0.01786668 53.77271669 0.01079484 60.34339339 -0.01121187 C66.01942272 -0.02945016 71.69530388 -0.03188367 77.37135309 -0.0214572 C80.74634481 -0.01526954 84.12110425 -0.01425439 87.4960804 -0.02760315 C91.26204484 -0.03783347 95.02707348 -0.02217585 98.79296875 0 C100.43685577 -0.01214539 100.43685577 -0.01214539 102.11395264 -0.02453613 C114.5067075 0.10973185 126.30420401 4.18302657 135.58959961 12.55273438 C146.28014167 23.73638262 145.90892262 35.49850942 145.83349609 50.12280273 C145.8372831 52.21478132 145.84278628 54.30675739 145.84986877 56.39872742 C145.8637916 62.05995765 145.85267534 67.72088286 145.83615756 73.38209605 C145.82226904 79.31866215 145.82877154 85.25521122 145.83229065 91.19178772 C145.83498997 101.16070447 145.82154172 111.12950062 145.79833984 121.09838867 C145.77173925 132.60687326 145.76998179 144.11515619 145.78172821 155.62366098 C145.79252615 166.71458818 145.7863026 177.80544277 145.77217293 188.89636421 C145.7664299 193.60701791 145.76648257 198.31761818 145.77123833 203.02827263 C145.77602811 208.58107496 145.76582365 214.13365789 145.74428368 219.68641853 C145.73874259 221.71845892 145.73822575 223.7505205 145.74323654 225.78256226 C145.77547904 240.7391404 145.46889471 253.68622951 134.73803711 265.23242188 C123.91523335 275.26393574 109.60250647 277.98896874 95.31201172 277.90576172 C93.60950508 277.91364716 93.60950508 277.91364716 91.87260437 277.92169189 C88.15963554 277.93478364 84.44710325 277.92619267 80.73413086 277.91601562 C78.13204365 277.91803932 75.52995699 277.92095322 72.9278717 277.92471313 C67.49044148 277.93014627 62.05313415 277.92304294 56.61572266 277.90869141 C50.35695682 277.89236127 44.09848421 277.89766574 37.83972543 277.91417062 C31.78166168 277.92949793 25.72372646 277.92778333 19.66565132 277.91902542 C17.10415162 277.91703277 14.54264436 277.91944959 11.98115349 277.92646408 C8.39462686 277.93413248 4.80865367 277.9223988 1.22216797 277.90576172 C0.1771814 277.91183441 -0.86780518 277.9179071 -1.94445801 277.92416382 C-15.35859024 277.80961626 -28.00027195 273.65348967 -37.91430664 264.40039062 C-45.26542445 256.50899021 -46.9753023 247.82562558 -46.93563843 237.33998108 C-46.9424351 236.0039315 -46.9424351 236.0039315 -46.94936907 234.64089102 C-46.96196925 231.67403321 -46.96039555 228.70736001 -46.95874023 225.74047852 C-46.96472811 223.60614284 -46.97153425 221.47180932 -46.97909546 219.33747864 C-46.9967335 213.55239698 -47.00144984 207.76737452 -47.00272703 201.98226857 C-47.00415011 198.36594928 -47.00842262 194.74964496 -47.01372147 191.13332939 C-47.0322125 178.5118095 -47.04039299 165.89033181 -47.03881836 153.26879883 C-47.03761631 141.51149976 -47.05873359 129.75438407 -47.09030569 117.99713141 C-47.11646697 107.89414421 -47.12718576 97.79121693 -47.12590754 87.68819612 C-47.12539799 81.65784434 -47.13107807 75.6276557 -47.15226364 69.59733772 C-47.17164406 63.92636094 -47.1717716 58.255703 -47.15723038 52.58471489 C-47.15514116 50.50667225 -47.15984988 48.42860965 -47.17195129 46.3506012 C-47.18743319 43.50741428 -47.17807616 40.66532287 -47.16268921 37.82215881 C-47.17297634 37.00560462 -47.18326346 36.18905042 -47.19386232 35.34775215 C-47.09036548 26.65662362 -43.596285 19.70326075 -37.69946289 13.43164062 C-26.84746239 3.20571708 -14.68674719 -0.10870959 0 0 Z " fill="#FFFFFF" transform="translate(882.668212890625,818.482421875)"/>
<path d="M0 0 C1.65554901 -0.00744736 1.65554901 -0.00744736 3.34454346 -0.01504517 C6.97148273 -0.02957025 10.5983783 -0.03645189 14.2253418 -0.04199219 C15.47085501 -0.04481956 16.71636822 -0.04764694 17.99962425 -0.05056 C23.9113574 -0.06397611 29.82307737 -0.07388446 35.73482352 -0.07776189 C42.5208717 -0.08223957 49.30671817 -0.09978882 56.09270507 -0.12876248 C62.00281899 -0.15310693 67.91288345 -0.160712 73.82304955 -0.16243744 C76.32232958 -0.16545113 78.82160903 -0.17343592 81.32085609 -0.18662262 C84.82603625 -0.2038003 88.33073159 -0.20177438 91.8359375 -0.1953125 C92.85398972 -0.20452728 93.87204193 -0.21374207 94.92094421 -0.22323608 C107.94925766 -0.14852145 121.21725647 3.37774869 131.0144043 12.36425781 C139.8902883 22.34691463 140.90992218 32.16289621 140.83911133 44.9909668 C140.83854655 46.39099621 140.83886507 47.79102622 140.83999634 49.1910553 C140.84056826 52.97569648 140.82884009 56.76020991 140.81484842 60.5448215 C140.80231418 64.50595365 140.80116844 68.46708899 140.79879761 72.42823792 C140.79259074 79.9220516 140.77619069 87.41580667 140.75609863 94.9095946 C140.72952644 105.04102226 140.71876057 115.17246605 140.70709419 125.30391979 C140.6883095 141.256368 140.64845856 157.20869255 140.61206055 173.16113281 C105.30206055 173.16113281 69.99206055 173.16113281 33.61206055 173.16113281 C33.61206055 185.04113281 33.61206055 196.92113281 33.61206055 209.16113281 C40.87206055 209.16113281 48.13206055 209.16113281 55.61206055 209.16113281 C55.61206055 203.22113281 55.61206055 197.28113281 55.61206055 191.16113281 C83.66206055 191.16113281 111.71206055 191.16113281 140.61206055 191.16113281 C140.65331055 199.28738281 140.69456055 207.41363281 140.73706055 215.78613281 C140.75526855 218.32123535 140.77347656 220.85633789 140.79223633 223.46826172 C140.94416081 259.04804579 140.94416081 259.04804579 129.39331055 271.57128906 C117.64676577 282.05559547 103.34419707 284.34857559 88.23583984 284.23046875 C87.10971283 284.22568008 85.98358582 284.22089142 84.82333374 284.21595764 C81.11092381 284.19831447 77.39863195 284.17255371 73.6862793 284.14550781 C71.09707159 284.12880463 68.50786362 284.11214264 65.9186554 284.09552002 C60.49423443 284.05908325 55.06987386 284.01786989 49.64550781 283.97412109 C43.39661639 283.9239173 37.14775838 283.88867647 30.89873379 283.86018729 C24.86355298 283.83182463 18.82860017 283.78725181 12.79355812 283.73688507 C10.23684634 283.71774442 7.68009364 283.70342064 5.12332726 283.69408417 C1.54077744 283.67968791 -2.04116094 283.64673159 -5.62353516 283.609375 C-7.19416466 283.60917107 -7.19416466 283.60917107 -8.79652405 283.60896301 C-21.69754638 283.42638897 -32.33705092 279.17090552 -41.76293945 270.28613281 C-49.66178986 261.90952936 -51.69939856 252.04082505 -51.64863586 240.82495117 C-51.65246141 239.91721168 -51.65628696 239.00947218 -51.66022843 238.07422543 C-51.67050059 235.04974926 -51.66657733 232.025465 -51.66259766 229.00097656 C-51.66694727 226.82561061 -51.67213125 224.65024619 -51.67808533 222.47488403 C-51.69145816 216.57829714 -51.69205601 210.68177442 -51.68952203 204.78517532 C-51.68845138 199.85960214 -51.69333797 194.9340419 -51.69812745 190.00847149 C-51.70921622 178.38845029 -51.70966326 166.76846143 -51.70361328 155.1484375 C-51.69757007 143.16505616 -51.70989478 131.18183875 -51.73118335 119.19847393 C-51.74879913 108.90357306 -51.75480083 98.60870953 -51.75154561 88.31379414 C-51.74973294 82.16781231 -51.75236764 76.02191421 -51.76626015 69.87594604 C-51.77883378 64.09749131 -51.77689864 58.31921959 -51.76384926 52.54076767 C-51.76148312 50.42199517 -51.76421949 48.3032098 -51.77247238 46.18445206 C-51.78293794 43.28852743 -51.77484055 40.39321717 -51.76216125 37.49731445 C-51.76953554 36.66228362 -51.77690982 35.82725279 -51.78450757 34.96691799 C-51.6980671 25.55935515 -48.36530338 19.29861484 -41.9152832 12.49316406 C-29.8453907 1.35602987 -15.71735425 0.0171559 0 0 Z " fill="#FFFFFF" transform="translate(708.387939453125,485.8388671875)"/>
<path d="M0 0 C1.10165497 -0.0049649 2.20330994 -0.00992981 3.33834839 -0.01504517 C6.97679271 -0.02962836 10.61519338 -0.03646341 14.25366211 -0.04199219 C16.79227194 -0.04774801 19.33088176 -0.05350569 21.86949158 -0.05926514 C26.51345431 -0.06842455 31.15740406 -0.07472844 35.80137354 -0.07776189 C42.60442204 -0.08223175 49.40726854 -0.09973544 56.21025568 -0.12876248 C62.12943686 -0.15312825 68.0485687 -0.16071326 73.96780205 -0.16243744 C76.47183772 -0.16545003 78.97587283 -0.17343104 81.47987556 -0.18662262 C118.09304865 -0.36569686 118.09304865 -0.36569686 132.84350586 13.41113281 C141.24430413 22.32380768 143.12559699 31.20350152 143.08876038 43.02558899 C143.09004201 44.52657734 143.09004201 44.52657734 143.09134954 46.05788869 C143.092998 49.41434303 143.08749329 52.77074752 143.08203125 56.12719727 C143.08174922 58.53184508 143.08190743 60.93649298 143.08247375 63.34114075 C143.08270155 68.5199615 143.07986321 73.69877096 143.07423592 78.87758827 C143.06610512 86.36526693 143.06350407 93.8529395 143.06224792 101.34062209 C143.06005989 113.4892105 143.05340654 125.63779219 143.04394531 137.78637695 C143.03476477 149.58683234 143.02768707 161.3872859 143.0234375 173.18774414 C143.02317478 173.91525744 143.02291205 174.64277075 143.02264137 175.39232991 C143.02133632 179.04209011 143.02007261 182.69185033 143.01882946 186.34161055 C143.00846459 216.61478945 142.99077863 246.8879602 142.96850586 277.16113281 C123.01811955 277.25484027 103.0677783 277.32524087 83.11721706 277.3683815 C73.85248364 277.38895058 64.58788747 277.4169622 55.32324219 277.46289062 C47.2421409 277.50293245 39.16113908 277.52860665 31.07994133 277.53748679 C26.80644375 277.54267237 22.53323059 277.55474038 18.25982475 277.58405304 C14.2255604 277.61149734 10.19169367 277.61952025 6.15734482 277.61356354 C4.6881334 277.61465097 3.21890664 277.62243044 1.74977684 277.63795471 C-14.13661864 277.79738504 -28.9061211 274.90040236 -40.90649414 263.78613281 C-45.94937891 258.43401454 -49.14584421 251.83822502 -49.17193604 244.45039368 C-49.17764618 243.48178909 -49.18335632 242.51318451 -49.1892395 241.51522827 C-49.19035736 240.45389679 -49.19147522 239.39256531 -49.19262695 238.29907227 C-49.19759186 237.18007034 -49.20255676 236.06106842 -49.20767212 234.90815735 C-49.2223066 231.19690338 -49.22909855 227.48569218 -49.23461914 223.77441406 C-49.24037033 221.19711811 -49.24612806 218.61982217 -49.25189209 216.04252625 C-49.26106183 211.3246508 -49.2673601 206.60679246 -49.27038884 201.88890964 C-49.27486366 194.95730162 -49.29238477 188.02589139 -49.32138944 181.09434348 C-49.34567056 175.08169856 -49.35333614 169.06914668 -49.35506439 163.05644798 C-49.35808881 160.50362256 -49.36611018 157.95079793 -49.37924957 155.39800453 C-49.39633924 151.82190695 -49.39442213 148.24628808 -49.38793945 144.67016602 C-49.39715424 143.61895569 -49.40636902 142.56774536 -49.41586304 141.48468018 C-49.36209577 131.99718753 -47.11543598 125.40748343 -40.53540039 118.40332031 C-24.72556308 104.2459933 -7.96931498 103.97785192 12.24194336 104.06347656 C14.17657944 104.06559898 14.17657944 104.06559898 16.15029907 104.06776428 C19.52687636 104.07152486 22.90340845 104.08129726 26.27996826 104.09246826 C29.74645363 104.10282394 33.21294676 104.10734715 36.67944336 104.11230469 C43.4425037 104.12239278 50.20544102 104.14198002 56.96850586 104.16113281 C56.96850586 92.61113281 56.96850586 81.06113281 56.96850586 69.16113281 C49.37850586 69.16113281 41.78850586 69.16113281 33.96850586 69.16113281 C33.96850586 74.44113281 33.96850586 79.72113281 33.96850586 85.16113281 C6.57850586 85.16113281 -20.81149414 85.16113281 -49.03149414 85.16113281 C-49.11399414 76.12738281 -49.19649414 67.09363281 -49.28149414 57.78613281 C-49.31791016 54.9535791 -49.35432617 52.12102539 -49.3918457 49.20263672 C-49.40353971 46.93099727 -49.41372984 44.65934937 -49.42211914 42.38769531 C-49.44258301 41.22971436 -49.46304687 40.0717334 -49.48413086 38.87866211 C-49.48848786 28.6418838 -47.2191046 20.51763236 -40.07055664 12.97363281 C-28.6381467 2.81149065 -14.80153983 0.01601219 0 0 Z " fill="#FFFFFF" transform="translate(535.031494140625,112.8388671875)"/>
<path d="M0 0 C1.15232117 -0.00511093 2.30464233 -0.01022186 3.49188232 -0.01548767 C7.28663382 -0.02934335 11.08120283 -0.0284296 14.87597656 -0.02612305 C16.85572477 -0.02902866 18.83547304 -0.03193955 20.81522012 -0.03552979 C27.0369881 -0.04659839 33.2586957 -0.0470781 39.48046875 -0.04101562 C45.86976581 -0.03498492 52.25884215 -0.0472698 58.64810157 -0.06858569 C64.15839774 -0.08628397 69.66862419 -0.09218997 75.17894769 -0.08894795 C78.45898582 -0.08714714 81.73883317 -0.09099071 85.01885223 -0.10366249 C88.68461281 -0.11608496 92.34987164 -0.1091995 96.015625 -0.09765625 C97.08200195 -0.10529999 98.14837891 -0.11294373 99.24707031 -0.12081909 C112.59320353 -0.02855525 125.29144956 3.25120663 135.14160156 12.5871582 C140.8474335 18.63574329 144.39390731 25.20928406 144.38964939 33.63995743 C144.39164044 34.51180372 144.39363149 35.38365002 144.39568287 36.2819159 C144.39277003 37.23521971 144.38985719 38.18852353 144.38685608 39.17071533 C144.38813772 40.69492336 144.38813772 40.69492336 144.38944525 42.24992347 C144.39109619 45.66476167 144.38558492 49.07955107 144.38012695 52.49438477 C144.37984497 54.93829345 144.38000303 57.38220221 144.38056946 59.82611084 C144.38079739 65.09280274 144.37795558 70.35947937 144.37233162 75.6261673 C144.3642056 83.2409183 144.36160027 90.85566331 144.36034363 98.47041818 C144.35815485 110.82476461 144.35149946 123.17910443 144.34204102 135.53344727 C144.33286241 147.53474901 144.32578377 159.53604897 144.3215332 171.53735352 C144.32127048 172.27707752 144.32100776 173.01680153 144.32073707 173.77894142 C144.31943204 177.48990854 144.31816833 181.20087568 144.31692517 184.91184282 C144.30655796 215.69945275 144.28887003 246.48705447 144.26660156 277.2746582 C140.91893267 278.17293241 137.9795939 278.40267298 134.50238037 278.40837097 C133.3251944 278.41263596 132.14800842 278.41690094 130.93515015 278.42129517 C129.6468631 278.42084198 128.35857605 278.42038879 127.03125 278.41992188 C125.65762236 278.42291502 124.28399557 278.42631791 122.91036987 278.43009949 C119.178242 278.43893617 115.44613707 278.4412777 111.71399975 278.44191527 C109.37608541 278.44262692 107.03817687 278.4447636 104.70026398 278.44741249 C96.52510714 278.45667067 88.3499666 278.46074752 80.17480469 278.45996094 C72.58830439 278.4593627 65.00187579 278.46986318 57.41539359 278.4857046 C50.88093096 278.49885637 44.34649151 278.50414153 37.81201577 278.50350553 C33.91926573 278.50325241 30.02657918 278.50599813 26.13384247 278.51668358 C22.45990774 278.52649169 18.78609541 278.52635848 15.11215591 278.51916695 C13.14956303 278.51765139 11.18696983 278.52588167 9.22439575 278.53460693 C-8.78896732 278.47221605 -25.83659028 276.86795018 -39.73339844 264.2746582 C-44.09419051 258.98002264 -46.83961186 254.33289295 -46.89402771 247.38082886 C-46.90407333 246.37159866 -46.91411896 245.36236847 -46.92446899 244.32255554 C-46.93029999 243.21604141 -46.93613098 242.10952728 -46.94213867 240.96948242 C-46.95192245 239.80331894 -46.96170624 238.63715546 -46.9717865 237.43565369 C-47.00176001 233.566896 -47.0231327 229.69817297 -47.04199219 225.8293457 C-47.04528951 225.17017985 -47.04858683 224.51101399 -47.05198407 223.83187342 C-47.08277118 217.60968558 -47.10946654 211.38749276 -47.12640285 205.16525078 C-47.14828399 197.22068876 -47.19020182 189.27680474 -47.25984043 181.33251369 C-47.30719569 175.73915686 -47.33135188 170.14598216 -47.33859974 164.55243123 C-47.34354032 161.21554198 -47.36152004 157.88002153 -47.39834404 154.54323959 C-47.43728281 150.81369245 -47.43828853 147.08590359 -47.43041992 143.35620117 C-47.45042053 142.26183243 -47.47042114 141.16746368 -47.49102783 140.03993225 C-47.41947323 132.46492002 -45.50596516 128.1040309 -40.73339844 122.2746582 C-40.05535156 121.34782227 -39.37730469 120.42098633 -38.67871094 119.46606445 C-32.56029533 112.57363241 -24.44631584 108.02365353 -15.73339844 105.2746582 C-14.89412811 105.00928001 -14.89412811 105.00928001 -14.03790283 104.73854065 C-10.88868992 104.10462362 -7.88238601 104.15551662 -4.66992188 104.16113281 C-3.6156601 104.16091377 -3.6156601 104.16091377 -2.5401001 104.16069031 C-0.22429281 104.16138521 2.09143337 104.16915782 4.40722656 104.17700195 C6.01576697 104.17886763 7.62430794 104.18029083 9.23284912 104.18128967 C13.46115698 104.18510304 17.68943035 104.19492325 21.91772461 104.20599365 C26.99385872 104.21803427 32.07000437 104.22261563 37.14614868 104.22844696 C44.85299028 104.23813564 52.55975623 104.25730044 60.26660156 104.2746582 C60.26660156 92.3946582 60.26660156 80.5146582 60.26660156 68.2746582 C53.00660156 68.2746582 45.74660156 68.2746582 38.26660156 68.2746582 C38.26660156 73.8846582 38.26660156 79.4946582 38.26660156 85.2746582 C10.21660156 85.2746582 -17.83339844 85.2746582 -46.73339844 85.2746582 C-46.85714844 76.1171582 -46.98089844 66.9596582 -47.10839844 57.5246582 C-47.16302246 54.65810547 -47.21764648 51.79155273 -47.27392578 48.83813477 C-47.29147227 46.53053464 -47.30675617 44.22291575 -47.31933594 41.9152832 C-47.35003174 40.74594238 -47.38072754 39.57660156 -47.41235352 38.37182617 C-47.418311 28.8756033 -44.96970183 21.09085507 -38.61434937 13.86553955 C-27.79774508 3.26500077 -14.63525121 -0.03374453 0 0 Z " fill="#FFFFFF" transform="translate(203.7333984375,818.725341796875)"/>
<path d="M0 0 C1.37330136 -0.00067636 2.74660261 -0.00164913 4.11990356 -0.00289917 C6.96861942 -0.00435756 9.81730351 -0.00228036 12.66601562 0.00244141 C16.29689971 0.00817045 19.92771036 0.0048279 23.55859184 -0.00113106 C26.38288926 -0.00475948 29.20716948 -0.00358819 32.03146744 -0.00100327 C34.01437682 -0.00002377 35.9972869 -0.00302935 37.98019409 -0.00613403 C44.12578203 0.00980314 50.05859905 0.17572708 56.1328125 1.1328125 C56.1328125 6.4128125 56.1328125 11.6928125 56.1328125 17.1328125 C91.4428125 17.1328125 126.7528125 17.1328125 163.1328125 17.1328125 C163.1328125 39.5728125 163.1328125 62.0128125 163.1328125 85.1328125 C127.8228125 85.1328125 92.5128125 85.1328125 56.1328125 85.1328125 C56.1328125 126.0528125 56.1328125 166.9728125 56.1328125 209.1328125 C63.3928125 209.1328125 70.6528125 209.1328125 78.1328125 209.1328125 C78.1328125 174.4828125 78.1328125 139.8328125 78.1328125 104.1328125 C106.1828125 104.1328125 134.2328125 104.1328125 163.1328125 104.1328125 C163.2537216 139.76069475 163.2537216 139.76069475 163.27929688 154.734375 C163.29707121 165.05766287 163.31792313 175.38087707 163.35913086 185.70410156 C163.38913293 193.22373664 163.40841105 200.74331174 163.41507798 208.26300502 C163.41897203 212.24069192 163.42805505 216.21820728 163.45000267 220.19583893 C163.47053909 223.9485266 163.47661212 227.70097393 163.47213554 231.45371246 C163.47333961 233.46962061 163.48939116 235.48550329 163.506073 237.50134277 C163.46236139 250.51875651 161.41591708 261.3798302 152.31640625 271.06640625 C136.83708799 285.60758401 116.22006786 283.43642606 96.43359375 283.3984375 C93.9464667 283.39978727 91.4593399 283.40173039 88.97221375 283.40423584 C83.78214992 283.40717078 78.59215533 283.40294103 73.40209961 283.39355469 C66.77167681 283.3821433 60.14141566 283.38874079 53.51099873 283.40069962 C48.38328343 283.40794705 43.25560611 283.40561735 38.12788963 283.40044403 C35.6836158 283.39911644 33.23933845 283.4007238 30.79506874 283.40540314 C27.37411053 283.41051793 23.95340987 283.40268958 20.5324707 283.39160156 C19.03983452 283.39767426 19.03983452 283.39767426 17.51704407 283.40386963 C4.56619448 283.32663676 -6.742323 281.12771876 -16.5546875 272.1953125 C-24.63452532 263.65622991 -28.99645807 253.05527704 -28.98744202 241.34342957 C-28.98829644 240.67353841 -28.98915087 240.00364725 -28.99003118 239.31345636 C-28.99167386 237.07637505 -28.98618453 234.83936929 -28.98071289 232.60229492 C-28.98043073 230.99566652 -28.98058932 229.38903799 -28.9811554 227.78240967 C-28.98144225 223.42539538 -28.9755636 219.06840864 -28.96858144 214.71140075 C-28.96232927 210.15634154 -28.96174262 205.6012817 -28.96055603 201.04621887 C-28.95744822 192.42259126 -28.94924222 183.79897633 -28.93920654 175.1753543 C-28.92802835 165.35680537 -28.92253065 155.53825583 -28.91751111 145.71970212 C-28.90705916 125.52406498 -28.88926886 105.32843999 -28.8671875 85.1328125 C-36.1271875 85.1328125 -43.3871875 85.1328125 -50.8671875 85.1328125 C-50.8671875 63.0228125 -50.8671875 40.9128125 -50.8671875 18.1328125 C-43.6071875 17.8028125 -36.3471875 17.4728125 -28.8671875 17.1328125 C-28.8671875 11.8528125 -28.8671875 6.5728125 -28.8671875 1.1328125 C-19.20942181 0.35059018 -9.6904107 -0.01531641 0 0 Z " fill="#FFFFFF" transform="translate(248.8671875,485.8671875)"/>
<path d="M0 0 C28.05 0 56.1 0 85 0 C85 5.61 85 11.22 85 17 C120.31 17 155.62 17 192 17 C192 39.44 192 61.88 192 85 C156.69 85 121.38 85 85 85 C85 125.92 85 166.84 85 209 C92.26 209 99.52 209 107 209 C107 174.35 107 139.7 107 104 C135.05 104 163.1 104 192 104 C192.68515158 137.31717495 192.68515158 137.31717495 192.83007812 151.4921875 C192.93019295 161.20504733 193.04710685 170.91532887 193.2824707 180.62597656 C194.97840246 251.98222924 194.97840246 251.98222924 173.03268433 276.1681366 C166.78671078 281.79703343 158.5804986 282.62283753 150.51953125 282.73046875 C149.43783157 282.75835983 148.3561319 282.78625092 147.24165344 282.81498718 C143.16111726 282.90547033 139.08124219 282.95568983 135 283 C133.21970605 283.02181634 131.43941227 283.04364739 129.65911865 283.06549072 C116.92456384 283.21356428 104.19065874 283.27256906 91.45532227 283.29516602 C85.78490375 283.30634198 80.11486553 283.34095984 74.44458294 283.38033772 C70.02538871 283.40655496 65.6062864 283.41486094 61.18702126 283.41844749 C59.09605056 283.42327685 57.00508294 283.43478458 54.91419029 283.45348549 C38.66915596 283.59011604 23.77925984 282.59797109 11.00390625 271.22265625 C-4.33230316 255.09490055 -1.29717864 230.73272506 -1.23571944 210.17975903 C-1.2268027 206.55768728 -1.22869906 202.93561809 -1.2290802 199.3135376 C-1.22814882 193.23162659 -1.21954023 187.14976599 -1.20581055 181.06787109 C-1.19011924 174.09242506 -1.18481186 167.11703418 -1.1855461 160.14157176 C-1.18622836 152.64033203 -1.17924765 145.13911281 -1.1700995 137.63787937 C-1.16799489 135.51079031 -1.16726201 133.38370469 -1.16686058 131.25661469 C-1.16128529 115.80299134 -0.93299671 100.42864788 0 85 C-7.26 85 -14.52 85 -22 85 C-22 62.89 -22 40.78 -22 18 C-17.22464388 17.20410731 -12.91388502 16.8771749 -8.125 16.9375 C-7.09246094 16.94426758 -7.09246094 16.94426758 -6.0390625 16.95117188 C-4.35933665 16.96283664 -2.67965625 16.98076729 -1 17 C-1.01160156 16.27554687 -1.02320313 15.55109375 -1.03515625 14.8046875 C-1.04417969 13.83789062 -1.05320312 12.87109375 -1.0625 11.875 C-1.07410156 10.92367188 -1.08570313 9.97234375 -1.09765625 8.9921875 C-1 6 -1 6 0 0 Z " fill="#FFFFFF" transform="translate(1101,486)"/>
<path d="M0 0 C28.05 0 56.1 0 85 0 C85 5.61 85 11.22 85 17 C120.31 17 155.62 17 192 17 C191.67 39.77 191.34 62.54 191 86 C156.02 86 121.04 86 85 86 C85 126.26 85 166.52 85 208 C91.27 208 97.54 208 104 208 C105.32 208.33 106.64 208.66 108 209 C108 174.35 108 139.7 108 104 C135.39 104 162.78 104 191 104 C191.16121214 139.45771388 191.16121214 139.45771388 191.1953125 154.34375 C191.21902474 164.6123862 191.2468641 174.88089087 191.30175781 185.14941406 C191.34172182 192.62874458 191.36745557 200.10796814 191.37635398 207.58740246 C191.38155262 211.54496388 191.39370523 215.50221942 191.42292023 219.45968246 C191.45024093 223.19107353 191.45841177 226.92203518 191.45243073 230.65351677 C191.45404135 232.66267779 191.47547644 234.67179294 191.49768066 236.68083191 C191.44500133 248.33989826 188.3710826 257.6598641 180 266 C171.17614699 272.87486279 161.22661552 277.10135749 149.96177673 277.14044189 C148.970961 277.14615204 147.98014526 277.15186218 146.95930481 277.15774536 C145.88339584 277.15886322 144.80748688 277.15998108 143.69897461 277.16113281 C142.55684509 277.16609772 141.41471558 277.17106262 140.23797607 277.17617798 C136.45942582 277.19078171 132.68091759 277.19759971 128.90234375 277.203125 C126.27022806 277.20887921 123.63811238 277.21463691 121.0059967 277.22039795 C116.18932953 277.22996286 111.37267138 277.23586314 106.55599588 277.2388947 C99.49370826 277.24336532 92.43161515 277.26087003 85.36938661 277.2898953 C79.23074427 277.3142379 73.09218133 277.32184498 66.95349312 277.32357025 C64.35373439 277.32658625 61.75397627 277.33457895 59.15424919 277.34775543 C55.50494806 277.36492687 51.85611292 277.36290807 48.20678711 277.35644531 C47.14504776 277.3656601 46.08330841 277.37487488 44.98939514 277.3843689 C31.44476182 277.3097246 17.89362179 273.69507069 7.94558144 264.06592369 C-0.2089144 255.40703857 -0.84744115 247.03016555 -0.68115234 235.62646484 C-0.6794572 233.98954328 -0.68041516 232.35261717 -0.68380737 230.71569824 C-0.68552011 226.29866996 -0.65038854 221.88263084 -0.60836363 217.46583128 C-0.57070814 212.8401165 -0.56731963 208.2143759 -0.56021118 203.58853149 C-0.54160569 194.84090327 -0.49242723 186.09372807 -0.43211424 177.34629881 C-0.36491491 167.38259636 -0.33202643 157.4188716 -0.30194163 147.45499873 C-0.23932407 126.96974002 -0.13265626 106.4849146 0 86 C-6.93 86 -13.86 86 -21 86 C-21 63.23 -21 40.46 -21 17 C-14.07 17 -7.14 17 0 17 C0 11.39 0 5.78 0 0 Z " fill="#FFFFFF" transform="translate(614,819)"/>
<path d="M0 0 C1.18571594 -0.00021904 1.18571594 -0.00021904 2.39538574 -0.0004425 C5.00881695 0.0002543 7.62217694 0.00803584 10.2355957 0.01586914 C12.04734763 0.01773415 13.85910005 0.01915766 15.67085266 0.02015686 C20.44004711 0.02397554 25.20921113 0.03380031 29.97839355 0.04486084 C34.84472237 0.0550889 39.71105611 0.05965747 44.57739258 0.06469727 C54.12623623 0.07542314 63.6750493 0.09301471 73.22387695 0.11352539 C73.71887695 8.52852539 73.71887695 8.52852539 74.22387695 17.11352539 C75.25383789 16.5218457 76.28379883 15.93016602 77.3449707 15.32055664 C84.70044023 11.19950598 91.91382734 7.52544601 100.03637695 5.17602539 C101.00111938 4.89625854 101.00111938 4.89625854 101.98535156 4.61083984 C120.13558483 -0.28373304 144.17684968 -3.33212276 161.22387695 6.11352539 C169.36636133 10.8992571 176.29108863 18.01236155 179.22387695 27.11352539 C179.50219578 29.93488283 179.64110859 32.53084179 179.62260437 35.34570312 C179.6292512 36.14748363 179.63589802 36.94926414 179.64274627 37.77534103 C179.66132393 40.44939797 179.65877405 43.12300522 179.65625 45.79711914 C179.66527369 47.72187426 179.6756024 49.64662363 179.68713379 51.57136536 C179.71474809 56.80329373 179.72400119 62.03511327 179.72998786 67.2671051 C179.73941998 72.79049888 179.76565535 78.31381363 179.78999329 83.8371582 C179.83374132 94.3490421 179.86220602 104.86091077 179.88531667 115.37285805 C179.91197047 127.14594052 179.95612141 138.91893518 180.00160539 150.69195747 C180.16285961 192.83262715 180.23846453 234.97253634 180.22387695 277.11352539 C152.17387695 277.11352539 124.12387695 277.11352539 95.22387695 277.11352539 C95.55387695 208.47352539 95.88387695 139.83352539 96.22387695 69.11352539 C88.63387695 69.11352539 81.04387695 69.11352539 73.22387695 69.11352539 C73.22387695 137.75352539 73.22387695 206.39352539 73.22387695 277.11352539 C45.17387695 277.11352539 17.12387695 277.11352539 -11.77612305 277.11352539 C-11.79824552 245.99640003 -11.81667977 214.87928237 -11.82718838 183.76215158 C-11.82843881 180.07296107 -11.82973315 176.38377057 -11.83105469 172.69458008 C-11.831317 171.96025231 -11.83157931 171.22592454 -11.83184957 170.46934441 C-11.83617886 158.64158115 -11.84405105 146.81382284 -11.85327584 134.9860625 C-11.86268911 122.81343402 -11.86819474 110.6408081 -11.87021154 98.46817613 C-11.87145023 91.64629804 -11.87438184 84.82443021 -11.8818531 78.00255585 C-11.8887328 71.55773263 -11.8907162 65.11292499 -11.88923073 58.66809845 C-11.88950177 56.32552505 -11.89143501 53.98295104 -11.89532852 51.64038086 C-11.92193651 34.77819486 -11.47851953 17.96097592 -10.77612305 1.11352539 C-7.13055296 -0.10166464 -3.79421083 -0.01827055 0 0 Z " fill="#FFFFFF" transform="translate(718.776123046875,112.886474609375)"/>
<path d="M0 0 C27.39 0 54.78 0 83 0 C83 68.64 83 137.28 83 208 C89.27 208 95.54 208 102 208 C102.99 208.33 103.98 208.66 105 209 C105 140.03 105 71.06 105 0 C132.72 0 160.44 0 189 0 C189.13234403 32.0605119 189.24310121 64.1207581 189.30639198 96.18146109 C189.31389596 99.96895631 189.32166192 103.75645095 189.32958984 107.54394531 C189.33116371 108.29794775 189.33273757 109.05195018 189.33435912 109.82880117 C189.36044676 122.02770453 189.40774295 134.22643774 189.46291678 146.42524026 C189.51908258 158.94807536 189.55236464 171.47082152 189.56453097 183.99377739 C189.57275206 191.71738857 189.59868993 199.44051879 189.6474988 207.16398187 C189.68304935 213.09248575 189.68671683 219.02074455 189.67864609 224.94935799 C189.68029455 227.37692407 189.6922003 229.80450864 189.71523285 232.23196602 C189.74519257 235.55283933 189.73787072 238.87167357 189.7215271 242.19259644 C189.73900415 243.14787794 189.7564812 244.10315944 189.77448785 245.08738887 C189.66872985 253.06560817 186.69036806 259.00280098 181.28919542 264.85304725 C170.67568278 274.91669479 155.964111 277.46941161 141.88842773 277.38818359 C140.74366974 277.39344055 139.59891174 277.39869751 138.41946411 277.40411377 C134.67403096 277.41720711 130.92903045 277.40861395 127.18359375 277.3984375 C124.5590863 277.40046115 121.93457939 277.40337501 119.31007385 277.40713501 C113.82556559 277.41256844 108.34117915 277.40546404 102.85668945 277.39111328 C96.54339291 277.37478316 90.23038705 277.38008749 83.91709751 277.3965925 C77.80670836 277.41191888 71.69644665 277.41020555 65.58604622 277.4014473 C63.00221783 277.3994545 60.41838194 277.401872 57.8345623 277.40888596 C54.2169043 277.41655345 50.59979514 277.40482189 46.98217773 277.38818359 C45.92784042 277.39425629 44.87350311 277.40032898 43.78721619 277.40658569 C29.67409484 277.28708424 17.25976465 272.74235912 6.9140625 263.0546875 C2.16022866 257.95159239 -0.12653468 252.56322466 -0.12304783 245.60346603 C-0.12503888 244.72465295 -0.12702993 243.84583986 -0.12908131 242.94039607 C-0.12471205 241.49876751 -0.12471205 241.49876751 -0.12025452 240.02801514 C-0.12110894 239.00370935 -0.12196337 237.97940356 -0.12284368 236.9240582 C-0.1244947 233.48158107 -0.11898324 230.03915235 -0.11352539 226.59667969 C-0.11324341 224.13306682 -0.11340146 221.66945388 -0.1139679 219.20584106 C-0.11419583 213.89658736 -0.11135392 208.58734881 -0.10573006 203.27809906 C-0.09760417 195.60180988 -0.09499872 187.92552665 -0.09374207 180.24923363 C-0.09155326 167.79505864 -0.08489781 155.34089019 -0.07543945 142.88671875 C-0.06626091 130.78841179 -0.05918224 118.69010661 -0.05493164 106.59179688 C-0.05466892 105.84609887 -0.05440619 105.10040087 -0.05413551 104.33210596 C-0.05283047 100.5911707 -0.05156677 96.85023542 -0.05032361 93.10930014 C-0.03995633 62.07286095 -0.02152089 31.03643395 0 0 Z " fill="#FFFFFF" transform="translate(380,819)"/>
<path d="M0 0 C0.97808624 -0.00794586 1.95617249 -0.01589172 2.96389771 -0.02407837 C21.22287859 -0.13896087 39.34600179 1.54257968 57.1875 5.5625 C58.57799561 5.8733252 58.57799561 5.8733252 59.99658203 6.19042969 C86.77582812 12.44654986 113.44516414 21.90495308 129.75 45.375 C140.24783899 62.83234385 144.8093141 85.34352995 140.03125 105.390625 C138.01554347 111.19446967 134.96943319 115.09317542 129.75 118.375 C122.47678498 120.79940501 114.5566275 119.76570888 107.75 116.375 C103.69061214 113.60934835 100.67233874 110.95202099 98.75 106.375 C98.47875977 103.96826172 98.47875977 103.96826172 98.44140625 101.3046875 C98.40370117 99.83515625 98.40370117 99.83515625 98.36523438 98.3359375 C98.33047961 96.3021402 98.29914761 94.26828111 98.27148438 92.234375 C97.96371775 80.73441232 95.4478399 71.97506122 87.14453125 63.79296875 C66.2428239 46.30566834 30.65851252 44.01126013 4.75 43.375 C3.51588379 43.32835205 3.51588379 43.32835205 2.25683594 43.28076172 C-96.49418626 39.84879291 -197.13641036 64.51484219 -568.5483551 155.68034363 C-581.34847491 159.0774081 -594.1518259 162.46200343 -606.9572773 165.83891106 C-652.02292426 177.72581024 -697.03642036 189.79494089 -742 202.0625 C-743.12768925 202.37006477 -744.25537849 202.67762955 -745.41724014 202.99451447 C-751.99332324 204.78821256 -758.56886161 206.58388896 -765.14368629 208.38219452 C-767.27698509 208.96567388 -769.41035513 209.54889284 -771.54379845 210.13184357 C-784.09808018 213.56350786 -796.63890517 217.03922906 -809.16601562 220.56884766 C-812.87357625 221.61035739 -816.58126023 222.65142713 -820.28894806 223.6924839 C-823.80444188 224.68275454 -827.31723386 225.68221721 -830.83001709 226.68205261 C-832.98584179 227.28821831 -835.14178074 227.89397788 -837.29785156 228.49926758 C-838.26138802 228.77673388 -839.22492447 229.05420017 -840.217659 229.34007454 C-849.09744723 231.81420724 -858.38639747 233.92701883 -867.25 230.375 C-872.38604444 227.42302106 -875.38763869 223.65647674 -876.94140625 217.93359375 C-877.84771795 210.41923721 -875.89991108 203.40362827 -871.859375 197.09375 C-867.29423466 192.2183574 -861.97772983 190.39857988 -855.71533203 188.66796875 C-854.87268421 188.42597716 -854.03003639 188.18398558 -853.16185379 187.93466091 C-850.36328863 187.13378951 -847.56069423 186.34811845 -844.7578125 185.5625 C-842.76689125 184.99624277 -840.7762247 184.42908933 -838.78579712 183.86109924 C-833.4326831 182.33657576 -828.07586218 180.82549194 -822.71812439 179.31731033 C-818.23901552 178.05480554 -813.76203132 176.78485933 -809.28504944 175.51483631 C-795.93998133 171.72928119 -782.58855546 167.96654742 -769.23423767 164.21376801 C-766.43437394 163.42682126 -763.63468926 162.6392416 -760.83508301 161.85137939 C-712.74164804 148.31881746 -664.52743762 135.2346863 -616.25 122.375 C-615.46796204 122.16668045 -614.68592407 121.9583609 -613.88018799 121.74372864 C-526.99703162 98.6060598 -439.87099012 76.363606 -315.63190079 46.46497726 C-312.4524592 45.70599082 -309.27346048 44.94517596 -306.09457397 44.18386841 C-268.41310921 35.16585518 -230.60584782 26.41631522 -192.4375 19.6875 C-191.43534454 19.50900513 -190.43318909 19.33051025 -189.40066528 19.14660645 C-149.25101608 12.02259868 -108.85853925 6.99214609 -68.25 3.375 C-67.3257019 3.2914325 -66.40140381 3.20786499 -65.44909668 3.12176514 C-43.6358195 1.15834724 -21.90394766 0.09223303 0 0 Z " fill="#FFFFFF" transform="translate(1707.25,1029.625)"/>
<path d="M0 0 C1.53825371 0.00056498 3.07650796 0.00024585 4.61476135 -0.00088501 C8.76703646 -0.00145612 12.91919475 0.01025886 17.07144284 0.02426291 C21.4196063 0.03681073 25.76777277 0.03794395 30.11595154 0.04031372 C38.33926509 0.04651662 46.56252513 0.06291126 54.78581518 0.0830127 C64.15222268 0.10540883 73.5186328 0.11637446 82.88506043 0.12640357 C102.14272356 0.14727859 121.40033696 0.18243132 140.65795898 0.22705078 C140.68108487 9.07587468 140.69887532 17.92468825 140.70977116 26.77353573 C140.71499945 30.88199363 140.72209611 34.99043092 140.73339844 39.09887695 C140.74422924 43.06051907 140.75023623 47.0221413 140.75283623 50.98379707 C140.75469013 52.49853389 140.75831008 54.01326957 140.76368904 55.52799797 C140.77090205 57.64246891 140.77194982 59.75685672 140.77148438 61.87133789 C140.77370499 63.07712997 140.7759256 64.28292206 140.7782135 65.5252533 C140.65795898 68.22705078 140.65795898 68.22705078 139.65795898 69.22705078 C138.27919873 69.32244268 136.89558982 69.348937 135.51353455 69.3473053 C134.62025955 69.34867996 133.72698456 69.35005463 132.80664062 69.35147095 C131.32526611 69.34607803 131.32526611 69.34607803 129.81396484 69.34057617 C128.26292809 69.34079521 128.26292809 69.34079521 126.68055725 69.34101868 C123.24461813 69.34031905 119.80873245 69.33252436 116.37280273 69.32470703 C113.99768605 69.32284303 111.62256899 69.32141904 109.24745178 69.32041931 C102.98219754 69.31659275 96.71696631 69.30676129 90.45172119 69.29571533 C84.06409008 69.28550418 77.67645527 69.28092233 71.28881836 69.27587891 C58.74518843 69.26513914 46.20157562 69.24806107 33.65795898 69.22705078 C33.65795898 74.83705078 33.65795898 80.44705078 33.65795898 86.22705078 C68.96795898 86.22705078 104.27795898 86.22705078 140.65795898 86.22705078 C140.65795898 108.66705078 140.65795898 131.10705078 140.65795898 154.22705078 C105.67795898 154.55705078 70.69795898 154.88705078 34.65795898 155.22705078 C34.32795898 197.46705078 33.99795898 239.70705078 33.65795898 283.22705078 C5.15251191 283.82091426 -22.91961721 284.38849341 -51.34204102 283.22705078 C-51.47904808 250.94586578 -51.58516668 218.66476382 -51.64843299 186.38335581 C-51.65593683 182.56839558 -51.6637028 178.75343593 -51.67163086 174.93847656 C-51.67320472 174.17901752 -51.67477858 173.41955848 -51.67640014 172.63708553 C-51.70247638 160.35546894 -51.74976624 148.07402162 -51.80495779 135.79250529 C-51.8611554 123.18151952 -51.89441235 110.57062213 -51.90657198 97.95951629 C-51.9147865 90.18370588 -51.9406884 82.408374 -51.98953982 74.63271096 C-52.0251387 68.66061447 -52.02874994 62.68892573 -52.0206871 56.71671104 C-52.02233329 54.27385965 -52.03420855 51.83098959 -52.05727386 49.38824654 C-52.18528375 35.12785609 -52.20655875 24.75433222 -42.95532227 13.26220703 C-29.86132488 2.03560486 -16.7477385 -0.0865345 0 0 Z " fill="#FFFFFF" transform="translate(923.342041015625,485.77294921875)"/>
<path d="M0 0 C5.75360519 5.17824467 7.94805646 9.65047048 8.875 17.375 C7.60445982 30.50391522 0.89260082 42.14232995 -5 53.6875 C-5.91230217 55.49196666 -6.82416411 57.29665596 -7.7355957 59.1015625 C-13.12497704 69.74234429 -18.64983504 80.2950675 -24.44921875 90.71875 C-28.40449148 97.83957942 -32.19038482 105.05061073 -36 112.25 C-41.3118654 122.27901887 -46.66449087 132.28221857 -52.11767578 142.23535156 C-55.9003204 149.1407723 -59.64489858 156.06606112 -63.375 163 C-63.95975098 164.08700195 -64.54450195 165.17400391 -65.14697266 166.29394531 C-66.3359465 168.50479045 -67.5247477 170.71572844 -68.71337891 172.92675781 C-76.65497026 187.69868203 -84.60869439 202.46384081 -92.60351562 217.20703125 C-96.60460963 224.58844346 -100.58608738 231.98026776 -104.5625 239.375 C-109.33101648 248.24129657 -114.1314694 257.08927553 -118.96118164 265.92236328 C-122.83619858 273.01620113 -126.67271187 280.13031429 -130.5 287.25 C-135.31455985 296.20551547 -140.15790403 305.1444481 -145.03344727 314.06689453 C-148.68205027 320.745427 -152.31409476 327.43276475 -155.9375 334.125 C-156.47769775 335.12217041 -157.01789551 336.11934082 -157.57446289 337.14672852 C-160.30688481 342.19229463 -163.03433325 347.24046478 -165.75390625 352.29296875 C-171.5304873 363.01258567 -177.39458801 373.67235891 -183.41625977 384.25634766 C-187.48030286 391.41066224 -191.45822191 398.60991212 -195.41485596 405.82388306 C-202.28645276 418.34634805 -209.35640915 430.73741212 -216.61376953 443.04101562 C-218.3319228 445.96405556 -220.04003006 448.89258732 -221.74324036 451.82434082 C-223.24943238 454.41682913 -224.75866577 457.00754114 -226.26809692 459.59814453 C-226.99085526 460.83997131 -227.71248455 462.08245609 -228.43283081 463.32568359 C-251.72375764 503.50217071 -251.72375764 503.50217071 -272.4140625 509.8359375 C-280.60330345 511.46151716 -288.2872953 510.47441274 -295.5 506.25 C-305.46536043 498.86035662 -309.24361593 488.24498725 -311.91894531 476.625 C-312.1338776 475.7054805 -312.34880989 474.785961 -312.57025528 473.83857727 C-314.81971269 464.08347648 -316.73799564 454.27079116 -318.609375 444.4375 C-318.98378211 442.49014771 -319.35865201 440.54288435 -319.73394775 438.59570312 C-320.71419103 433.50447415 -321.68926958 428.41227153 -322.6628418 423.31976318 C-324.19799261 415.29373302 -325.74064538 407.26914274 -327.28404617 399.24469566 C-327.85878577 396.25306703 -328.43145051 393.26104607 -329.0039978 390.26899719 C-330.95672963 380.08910952 -332.96189694 369.92263709 -335.05322266 359.77026367 C-335.47135787 357.72848819 -335.88942921 355.68669963 -336.30743408 353.64489746 C-337.09037314 349.8229985 -337.88761465 346.00448612 -338.69354248 342.18737793 C-345.88800163 307.49880241 -345.88800163 307.49880241 -337.86816406 292.29003906 C-335.21334375 288.33149543 -331.99232933 286.74744311 -327.5 285.25 C-319.29195868 284.226093 -311.74947729 286.57752947 -305.125 291.5 C-299.60319636 297.28474667 -297.79594928 304.06128725 -296.34765625 311.75390625 C-296.04916527 313.25649742 -296.04916527 313.25649742 -295.74464417 314.78944397 C-295.27093206 317.17862165 -294.80241683 319.56883274 -294.33770752 321.95977783 C-293.37253664 326.92076749 -292.37909448 331.87603398 -291.38623047 336.83154297 C-289.75365256 344.98641539 -288.12530823 353.14211454 -286.50195312 361.29882812 C-286.29183783 362.35436071 -286.08172253 363.4098933 -285.8652401 364.49741173 C-284.79056459 369.89720909 -283.71697367 375.29721996 -282.64477539 380.69750977 C-281.59114951 386.00362153 -280.53460083 391.30914461 -279.47627449 396.61432076 C-279.07935966 398.60684348 -278.68350349 400.59957744 -278.28881645 402.59254265 C-275.92262008 414.53875924 -273.38401391 426.41750826 -270.5 438.25 C-269.84 438.25 -269.18 438.25 -268.5 438.25 C-268.15855957 437.61723145 -267.81711914 436.98446289 -267.46533203 436.33251953 C-261.53392538 425.3460045 -255.59489196 414.36534514 -249.51538086 403.45996094 C-245.55608158 396.35750281 -241.61794798 389.24345241 -237.6875 382.125 C-237.34330017 381.50176849 -236.99910034 380.87853699 -236.64447021 380.23641968 C-231.99022 371.80581512 -227.38112518 363.35239996 -222.8125 354.875 C-218.69624946 347.23701245 -214.48691078 339.66129705 -210.1875 332.125 C-204.7636361 322.61278403 -199.59334822 312.98065361 -194.47006226 303.30487061 C-189.60361286 294.11983205 -184.5953401 285.03512071 -179.43359375 276.01171875 C-174.60797104 267.53427345 -170.03621007 258.93068744 -165.4732666 250.31027222 C-160.51863014 240.95566911 -155.40891375 231.70888957 -150.15234375 222.51953125 C-145.90651237 215.06035354 -141.93600778 207.47797198 -138.00537109 199.84912109 C-134.60863518 193.28933407 -131.04860278 186.84579467 -127.375 180.4375 C-121.86529338 170.81908795 -116.65566451 161.06073463 -111.5 151.25 C-105.85272051 140.50376926 -100.08858564 129.85349844 -94.05297852 119.31860352 C-89.82432513 111.90690548 -85.85965838 104.37588043 -81.94335938 96.79541016 C-78.58263422 90.29808179 -75.14109272 83.85203269 -71.625 77.4375 C-67.22576381 69.40876735 -62.8457857 61.37032338 -58.5 53.3125 C-57.91484619 52.22864014 -57.32969238 51.14478027 -56.72680664 50.02807617 C-53.83535373 44.6550299 -50.97969673 39.26721575 -48.19140625 33.83984375 C-47.66353516 32.81431396 -47.13566406 31.78878418 -46.59179688 30.73217773 C-45.61109105 28.81977006 -44.6365629 26.90417434 -43.66992188 24.98461914 C-38.26815055 14.44512412 -31.76256603 2.88411954 -20.25 -1.75 C-13.43428512 -3.65178526 -6.31055379 -3.15527689 0 0 Z " fill="#FFFFFF" transform="translate(1433.5,580.75)"/>
<path d="M0 0 C4.70739342 3.06248038 7.96676506 6.43935769 9.75 11.7890625 C11.82152305 27.48565466 4.99070111 39.74448652 -1.40625 53.66015625 C-2.56423066 56.18150152 -3.72027266 58.70372569 -4.875 61.2265625 C-5.17245117 61.87531342 -5.46990234 62.52406433 -5.77636719 63.19247437 C-13.14893981 79.32565654 -19.36235754 95.86442582 -25.42578125 112.52606201 C-26.22599055 114.72314142 -27.03047991 116.91860958 -27.8359375 119.11376953 C-43.6702208 162.36070913 -55.98983241 206.61070469 -66.8125 251.3515625 C-67.02473206 252.21866852 -67.23696411 253.08577454 -67.45562744 253.97915649 C-71.6531176 271.19577491 -73.59943346 287.59980267 -73.55273438 305.3828125 C-73.69357173 313.86939897 -74.94592897 320.88323746 -80.69238281 327.43310547 C-84.51051247 330.89585729 -88.34821606 332.70341957 -93.5 332.85546875 C-101.65887145 332.43477694 -108.9973201 329.50783337 -114.75 323.6015625 C-125.74393393 308.73679088 -119.47967714 279.85007286 -116.92218018 262.57470703 C-105.0737959 185.19715801 -77.9296274 108.37889655 -46.61376953 36.90429688 C-45.3150343 33.93761918 -44.03002784 30.96529258 -42.74609375 27.9921875 C-31.66678781 2.56615828 -31.66678781 2.56615828 -20.9375 -3.5234375 C-12.88103988 -5.58439241 -7.28082281 -3.91901432 0 0 Z " fill="#FFFFFF" transform="translate(1451.25,711.2109375)"/>
<path d="M0 0 C9.24 0 18.48 0 28 0 C28 47.85 28 95.7 28 145 C19.09 145 10.18 145 1 145 C-0.125 130.375 -0.125 130.375 -0.12025452 125.42546082 C-0.12162918 124.29692184 -0.12300385 123.16838287 -0.12442017 122.00564575 C-0.12082489 120.81808685 -0.11722961 119.63052795 -0.11352539 118.40698242 C-0.11367142 117.11761276 -0.11381744 115.8282431 -0.1139679 114.49980164 C-0.11425149 111.00893283 -0.10842642 107.51809931 -0.10139394 104.02723861 C-0.09508667 100.36242467 -0.09455083 96.69760967 -0.09336853 93.03279114 C-0.09027675 86.11293638 -0.08209276 79.19309766 -0.07201904 72.27324992 C-0.06079056 64.38676458 -0.05533058 56.50027842 -0.05032361 48.61378706 C-0.03990804 32.40918053 -0.02158974 16.20459608 0 0 Z " fill="#010101" transform="translate(918,885)"/>
<path d="M0 0 C8.91 0 17.82 0 27 0 C27.33 47.85 27.66 95.7 28 145 C18.76 145 9.52 145 0 145 C0 97.15 0 49.3 0 0 Z " fill="#010101" transform="translate(124,179)"/>
<path d="M0 0 C8.91 0 17.82 0 27 0 C27 47.85 27 95.7 27 145 C18.09 145 9.18 145 0 145 C0 97.15 0 49.3 0 0 Z " fill="#010101" transform="translate(1011,179)"/>
<path d="M0 0 C1.24402588 -0.00451172 2.48805176 -0.00902344 3.76977539 -0.01367188 C4.95692139 -0.01173828 6.14406738 -0.00980469 7.3671875 -0.0078125 C8.89641846 -0.00612061 8.89641846 -0.00612061 10.45654297 -0.00439453 C15.68965802 0.18018892 20.90671831 0.69014319 26.125 1.125 C26.125 12.345 26.125 23.565 26.125 35.125 C0.715 35.125 -24.695 35.125 -50.875 35.125 C-50.875 23.905 -50.875 12.685 -50.875 1.125 C-33.9121167 0.56191674 -16.97175221 0.02496917 0 0 Z " fill="#FFFFFF" transform="translate(315.875,418.875)"/>
<path d="M0 0 C9.24 0 18.48 0 28 0 C28 13.53 28 27.06 28 41 C18.76 41 9.52 41 0 41 C0 27.47 0 13.94 0 0 Z " fill="#010101" transform="translate(739,552)"/>
<path d="M0 0 C9.24 0 18.48 0 28 0 C28 13.53 28 27.06 28 41 C18.76 41 9.52 41 0 41 C0 27.47 0 13.94 0 0 Z " fill="#010101" transform="translate(346,179)"/>
<path d="M0 0 C9.24 0 18.48 0 28 0 C28.495 19.8 28.495 19.8 29 40 C25.10828687 40.77834263 22.15001261 41.11844927 18.26171875 41.09765625 C17.29967529 41.09515869 16.33763184 41.09266113 15.34643555 41.09008789 C14.13898682 41.08098389 12.93153809 41.07187988 11.6875 41.0625 C7.830625 41.041875 3.97375 41.02125 0 41 C0 27.47 0 13.94 0 0 Z " fill="#010101" transform="translate(239,989)"/>
<path d="M0 0 C9.24 0 18.48 0 28 0 C28 13.53 28 27.06 28 41 C19.09 41 10.18 41 1 41 C0.021043 27.29460203 -0.07853921 13.74436161 0 0 Z " fill="#010101" transform="translate(567,283)"/>
</svg>
