<?xml version="1.0" encoding="UTF-8"?>
<svg version="1.1" xmlns="http://www.w3.org/2000/svg" width="512" height="199">
<path d="M0 0 C71.28 0 142.56 0 216 0 C216 7.26 216 14.52 216 22 C204.12 22 192.24 22 180 22 C180 28.93 180 35.86 180 43 C172.45501411 43.02255549 164.91004069 43.04091769 157.36502934 43.05181217 C153.86191115 43.05703989 150.35881715 43.0641355 146.85571289 43.07543945 C142.83219159 43.08834206 138.80869586 43.09322912 134.78515625 43.09765625 C133.52163834 43.10281754 132.25812042 43.10797882 130.95631409 43.11329651 C129.795186 43.11337204 128.63405792 43.11344757 127.43774414 43.11352539 C125.8955294 43.11685631 125.8955294 43.11685631 124.32215881 43.12025452 C122 43 122 43 121 42 C120.91330568 40.5112814 120.89296506 39.018555 120.90234375 37.52734375 C120.90484131 36.71773193 120.90733887 35.90812012 120.90991211 35.07397461 C120.91901611 34.03893799 120.92812012 33.00390137 120.9375 31.9375 C120.958125 28.658125 120.97875 25.37875 121 22 C112.42 22 103.84 22 95 22 C95.03958259 28.5370285 95.03958259 28.5370285 95.09008789 35.07397461 C95.09258545 35.88358643 95.09508301 36.69319824 95.09765625 37.52734375 C95.10289307 38.35999756 95.10812988 39.19265137 95.11352539 40.05053711 C95 42 95 42 94 43 C92.18944975 43.09376053 90.37522799 43.1174411 88.56225586 43.11352539 C87.40112778 43.11344986 86.23999969 43.11337433 85.04368591 43.11329651 C83.14840904 43.10555458 83.14840904 43.10555458 81.21484375 43.09765625 C79.92888809 43.0962413 78.64293243 43.09482635 77.31800842 43.09336853 C73.89356557 43.08954418 70.46916491 43.07971462 67.04473877 43.06866455 C63.55261811 43.05844864 60.06049066 43.05387053 56.56835938 43.04882812 C49.71222047 43.03809226 42.8561166 43.02049614 36 43 C36 36.07 36 29.14 36 22 C24.12 22 12.24 22 0 22 C0 14.74 0 7.48 0 0 Z " fill="#FDE801" transform="translate(148,0)"/>
<path d="M0 0 C7.59878995 -0.14833215 15.19673713 -0.2572145 22.79663086 -0.32958984 C25.38174112 -0.35976055 27.96674904 -0.40070299 30.55151367 -0.45263672 C34.26767215 -0.5254326 37.98247734 -0.5594552 41.69921875 -0.5859375 C42.85459641 -0.61690521 44.00997406 -0.64787292 45.20036316 -0.67977905 C52.97833117 -0.68304057 52.97833117 -0.68304057 55.85432434 1.23971558 C58.72337698 4.4637818 59.54066814 7.37492352 59.45043945 11.66748047 C59.38215942 12.76020264 59.38215942 12.76020264 59.3125 13.875 C59.209375 16.22625 59.10625 18.5775 59 21 C67.58 21 76.16 21 85 21 C84.80366226 16.33220463 84.80366226 16.33220463 84.54956055 11.66748047 C84.45933186 7.37492352 85.27662302 4.4637818 88.14567566 1.23971558 C92.26385971 -1.513512 97.53858537 -0.71357915 102.30078125 -0.5859375 C104.08804878 -0.57320297 104.08804878 -0.57320297 105.91142273 -0.56021118 C109.712706 -0.52665574 113.51185914 -0.45136342 117.3125 -0.375 C119.89124538 -0.34490358 122.47002405 -0.31752723 125.04882812 -0.29296875 C131.36670471 -0.22685587 137.68299136 -0.12331115 144 0 C144 6.93 144 13.86 144 21 C155.88 21 167.76 21 180 21 C180 28.26 180 35.52 180 43 C108.72 43 37.44 43 -36 43 C-36 35.74 -36 28.48 -36 21 C-24.12 21 -12.24 21 0 21 C0 14.07 0 7.14 0 0 Z " fill="#FDE804" transform="translate(184,156)"/>
<path d="M0 0 C75.9 0 151.8 0 230 0 C228.14676556 4.6330861 226.80995612 6.61085828 223.5 10.125 C221.08551892 12.70410479 218.96265593 15.05601611 217 18 C214.09093898 18.29415347 211.39475723 18.39096442 208.48336792 18.36076355 C207.59144466 18.36332682 206.69952139 18.3658901 205.78057015 18.36853105 C202.77394314 18.37349607 199.76781167 18.35693135 196.76123047 18.34057617 C194.61317965 18.33973049 192.46512795 18.34020389 190.31707764 18.34190369 C184.47019978 18.34276735 178.62350512 18.32508162 172.77666998 18.30418181 C166.67209638 18.28547672 160.56751897 18.28366945 154.46292114 18.28010559 C142.89609215 18.27076695 131.32934783 18.2461286 119.7625562 18.21605712 C106.59711319 18.18256963 93.43166621 18.16604134 80.26619124 18.15097082 C53.17741382 18.11958061 26.08871164 18.06678484 -1 18 C-1.02730462 16.12508307 -1.04653244 14.25004775 -1.0625 12.375 C-1.07410156 11.33085938 -1.08570313 10.28671875 -1.09765625 9.2109375 C-1 6 -1 6 0 0 Z " fill="#FDE807" transform="translate(282,110)"/>
<path d="M0 0 C75.9 0 151.8 0 230 0 C231.125 9 231.125 9 231.0625 13.5 C231.05347656 14.3559375 231.04445312 15.211875 231.03515625 16.09375 C231.01775391 17.03734375 231.01775391 17.03734375 231 18 C202.76666124 18.30387708 174.53356806 18.53302141 146.29892254 18.67355824 C133.1885526 18.74055108 120.07919957 18.83185983 106.96948242 18.98071289 C95.54103386 19.11041412 84.11332179 19.19418623 72.68415767 19.22315043 C66.63375806 19.24007868 60.58546511 19.27976644 54.53574181 19.37449074 C48.83627983 19.46300434 43.13978321 19.48989943 37.43969917 19.47039986 C35.35266856 19.4739646 33.26553472 19.49967289 31.17910004 19.54967117 C14.66664253 19.92582309 14.66664253 19.92582309 9.31669044 15.1824398 C5.0209163 10.60430045 2.34203869 5.85509671 0 0 Z " fill="#FDE807" transform="translate(0,110)"/>
<path d="M0 0 C6.69296957 -0.20723644 13.37473072 -0.38612812 20.06835938 -0.49438477 C22.3421813 -0.53951825 24.61574385 -0.60084365 26.88867188 -0.67895508 C30.16601576 -0.78872601 33.43989712 -0.83929424 36.71875 -0.87890625 C38.23172668 -0.9485836 38.23172668 -0.9485836 39.77526855 -1.01966858 C44.11282946 -1.02273877 46.90236006 -0.8185787 50.44140625 1.82070923 C54.59743984 6.17594382 57.01223798 9.72043165 57.0625 15.90625 C57.0728125 17.14503906 57.083125 18.38382813 57.09375 19.66015625 C57.04734375 21.56087891 57.04734375 21.56087891 57 23.5 C57.0309375 24.76714844 57.061875 26.03429687 57.09375 27.33984375 C57.0834375 28.57863281 57.073125 29.81742188 57.0625 31.09375 C57.05347656 32.20427734 57.04445313 33.31480469 57.03515625 34.45898438 C55.44087226 39.91263884 52.55131097 43.60580295 48 47 C44.18752063 48.15149062 40.67345278 48.0610328 36.71875 47.87890625 C35.13761414 47.85980446 35.13761414 47.85980446 33.52453613 47.84031677 C30.18061437 47.79021005 26.842261 47.67736012 23.5 47.5625 C21.22403711 47.51732401 18.94798854 47.47626491 16.671875 47.43945312 C11.11074992 47.34825392 5.56155111 47.17220399 0 47 C0 31.49 0 15.98 0 0 Z M18 15 C18 20.94 18 26.88 18 33 C24.6 33 31.2 33 38 33 C38 27.06 38 21.12 38 15 C31.4 15 24.8 15 18 15 Z " fill="#FDE806" transform="translate(208,49)"/>
<path d="M0 0 C5.94 0 11.88 0 18 0 C18 4.95 18 9.9 18 15 C19.33901792 13.88873341 19.33901792 13.88873341 19.09765625 11.05859375 C19.08605469 9.86363281 19.07445313 8.66867188 19.0625 7.4375 C19.05347656 6.23996094 19.04445313 5.04242188 19.03515625 3.80859375 C19.02355469 2.88175781 19.01195313 1.95492187 19 1 C19.33 1 19.66 1 20 1 C20 4.96 20 8.92 20 13 C24.95 13 29.9 13 35 13 C34.979375 11.040625 34.95875 9.08125 34.9375 7.0625 C34.91622812 5.04167124 34.92755947 3.01964199 35 1 C36.8855253 -0.8855253 39.57768831 -0.13246689 42.08203125 -0.13671875 C42.87996094 -0.13285156 43.67789063 -0.12898438 44.5 -0.125 C45.69689453 -0.13080078 45.69689453 -0.13080078 46.91796875 -0.13671875 C52.87339233 -0.12660767 52.87339233 -0.12660767 54 1 C54.09295815 2.44289787 54.11746513 3.89029785 54.11352539 5.33618164 C54.11344986 6.2570607 54.11337433 7.17793976 54.11329651 8.12672424 C54.10813522 9.12775681 54.10297394 10.12878937 54.09765625 11.16015625 C54.0962413 12.17975937 54.09482635 13.19936249 54.09336853 14.24986267 C54.08775097 17.52077107 54.0751955 20.79161213 54.0625 24.0625 C54.05748726 26.27408756 54.05292396 28.48567618 54.04882812 30.69726562 C54.03777584 36.13153357 54.02102063 41.56576197 54 47 C51.02077407 47.02683987 48.04178705 47.04676037 45.0625 47.0625 C43.78729492 47.07506836 43.78729492 47.07506836 42.48632812 47.08789062 C41.67744141 47.09111328 40.86855469 47.09433594 40.03515625 47.09765625 C39.2862915 47.10289307 38.53742676 47.10812988 37.76586914 47.11352539 C36 47 36 47 35 46 C34.85606543 41.66469082 34.95787939 37.33842269 35 33 C30.05 33 25.1 33 20 33 C20 37.29 20 41.58 20 46 C19.67 46 19.34 46 19 46 C19.01160156 45.00097656 19.02320312 44.00195312 19.03515625 42.97265625 C19.04417969 41.68230469 19.05320312 40.39195313 19.0625 39.0625 C19.07410156 37.77472656 19.08570312 36.48695312 19.09765625 35.16015625 C19.36532549 32.13701597 19.36532549 32.13701597 18 31 C18 36.28 18 41.56 18 47 C12.06 47 6.12 47 0 47 C0 31.49 0 15.98 0 0 Z " fill="#FDE700" transform="translate(0,49)"/>
<path d="M0 0 C15.51 0 31.02 0 47 0 C48.25069801 2.50139602 48.13302467 4.27392691 48.125 7.0625 C48.12886719 8.41021484 48.12886719 8.41021484 48.1328125 9.78515625 C48 12 48 12 47 13 C44.85441173 13.08775605 42.70595579 13.10695219 40.55859375 13.09765625 C39.25341797 13.09443359 37.94824219 13.09121094 36.60351562 13.08789062 C35.2148431 13.07953401 33.82617123 13.07106905 32.4375 13.0625 C31.04492344 13.05748666 29.65234519 13.05292347 28.25976562 13.04882812 C24.8398013 13.03699434 21.41992156 13.0205088 18 13 C18 13.99 18 14.98 18 16 C19.21901001 15.99214478 19.21901001 15.99214478 20.46264648 15.98413086 C24.12092322 15.96343006 27.77918767 15.95036197 31.4375 15.9375 C32.71689453 15.92912109 33.99628906 15.92074219 35.31445312 15.91210938 C37.13686523 15.90727539 37.13686523 15.90727539 38.99609375 15.90234375 C40.12200928 15.89710693 41.2479248 15.89187012 42.40795898 15.88647461 C45 16 45 16 46 17 C46.09873816 18.99799572 46.12971799 20.99957158 46.125 23 C46.12886719 24.6396875 46.12886719 24.6396875 46.1328125 26.3125 C46 29 46 29 45 30 C43.00035018 30.08758003 40.9976389 30.10696576 38.99609375 30.09765625 C37.78115234 30.09443359 36.56621094 30.09121094 35.31445312 30.08789062 C34.03505859 30.07951172 32.75566406 30.07113281 31.4375 30.0625 C30.15423828 30.05798828 28.87097656 30.05347656 27.54882812 30.04882812 C24.36583978 30.03699545 21.18294238 30.02051068 18 30 C18 30.99 18 31.98 18 33 C18.87325928 32.99476318 19.74651855 32.98952637 20.64624023 32.98413086 C23.87589273 32.96712249 27.10552245 32.95456631 30.33520508 32.94506836 C31.73495228 32.9400292 33.1346942 32.93319784 34.53442383 32.92456055 C36.54245777 32.9124768 38.55052957 32.90730193 40.55859375 32.90234375 C42.37315063 32.89448853 42.37315063 32.89448853 44.22436523 32.88647461 C47 33 47 33 48 34 C48.09879565 35.810285 48.12971514 37.62452727 48.125 39.4375 C48.12886719 40.92056641 48.12886719 40.92056641 48.1328125 42.43359375 C48 45 48 45 47 47 C31.49 47 15.98 47 0 47 C0 31.49 0 15.98 0 0 Z " fill="#FDE808" transform="translate(351,49)"/>
<path d="M0 0 C6.93 -0.185625 13.86 -0.37125 21 -0.5625 C23.17207031 -0.64443604 25.34414063 -0.72637207 27.58203125 -0.81079102 C41.07444838 -1.11113749 41.07444838 -1.11113749 46.13378906 1.80834961 C49.33859604 5.18038562 50.74509584 8.02898795 51.921875 12.51171875 C51.34057853 23.25249224 51.34057853 23.25249224 47 28 C47.825 28.7425 48.65 29.485 49.5 30.25 C52.92528702 34.26552009 52.43500779 38.4361026 52.2734375 43.48828125 C52 46 52 46 51 47 C49.65732587 47.08631874 48.31025678 47.10706473 46.96484375 47.09765625 C46.15595703 47.09443359 45.34707031 47.09121094 44.51367188 47.08789062 C43.66353516 47.07951172 42.81339844 47.07113281 41.9375 47.0625 C41.08349609 47.05798828 40.22949219 47.05347656 39.34960938 47.04882812 C37.23304337 47.03700373 35.11651315 47.01906769 33 47 C33 42.71 33 38.42 33 34 C28.05 34 23.1 34 18 34 C18 38.29 18 42.58 18 47 C12.06 47 6.12 47 0 47 C0 31.49 0 15.98 0 0 Z M18 13 C18 15.64 18 18.28 18 21 C22.95 21 27.9 21 33 21 C33 18.36 33 15.72 33 13 C28.05 13 23.1 13 18 13 Z " fill="#FDE809" transform="translate(404,49)"/>
<path d="M0 0 C15.51 0 31.02 0 47 0 C47 4.29 47 8.58 47 13 C37.43 13 27.86 13 18 13 C18 13.99 18 14.98 18 16 C26.91 16 35.82 16 45 16 C45 20.62 45 25.24 45 30 C36.09 30 27.18 30 18 30 C18 30.99 18 31.98 18 33 C27.57 33 37.14 33 47 33 C47 37.62 47 42.24 47 47 C31.49 47 15.98 47 0 47 C0 31.49 0 15.98 0 0 Z " fill="#FDE805" transform="translate(60,49)"/>
<path d="M0 0 C1.49111634 -0.03649077 2.98191259 -0.09089477 4.47167969 -0.1640625 C16.73571096 -0.75710869 16.73571096 -0.75710869 21.50415039 2.47705078 C25.04991087 6.2893099 26.69213867 8.2563142 26.69213867 13.56982422 C16.46213867 13.56982422 6.23213867 13.56982422 -4.30786133 13.56982422 C-4.30786133 14.55982422 -4.30786133 15.54982422 -4.30786133 16.56982422 C-3.5318457 16.52269287 -2.75583008 16.47556152 -1.95629883 16.42700195 C1.59250092 16.23881605 5.14025169 16.12255021 8.69213867 16.00732422 C9.91288086 15.93191406 11.13362305 15.85650391 12.39135742 15.77880859 C21.23687714 15.5636473 21.23687714 15.5636473 25.31713867 18.38476562 C29.22362495 22.51709564 31.81059364 26.20630322 31.69213867 32.06982422 C31.71276367 33.09076172 31.73338867 34.11169922 31.75463867 35.16357422 C30.02011829 40.7242425 27.65003613 44.38689409 22.69213867 47.56982422 C17.49320121 49.05504326 12.08396417 48.94913005 6.7199707 48.85302734 C4.19243955 48.81982817 1.68307399 48.89342896 -0.84301758 48.97607422 C-12.39414642 49.08998277 -12.39414642 49.08998277 -17.28051758 45.20849609 C-22.52046952 38.43301041 -22.52046952 38.43301041 -21.98168945 33.71142578 C-21.75932617 33.00469727 -21.53696289 32.29796875 -21.30786133 31.56982422 C-17.84286133 31.07482422 -17.84286133 31.07482422 -14.30786133 30.56982422 C-14.7177832 30.03873047 -15.12770508 29.50763672 -15.55004883 28.96044922 C-16.35829102 27.90083984 -16.35829102 27.90083984 -17.18286133 26.81982422 C-17.98336914 25.77568359 -17.98336914 25.77568359 -18.80004883 24.71044922 C-21.94300886 20.24842306 -23.20129925 17.10913931 -22.30786133 11.56982422 C-15.48549839 1.29829338 -11.85640614 0.22529373 0 0 Z M-13.30786133 30.56982422 C-13.30786133 30.89982422 -13.30786133 31.22982422 -13.30786133 31.56982422 C-4.72786133 31.56982422 3.85213867 31.56982422 12.69213867 31.56982422 C12.69213867 31.23982422 12.69213867 30.90982422 12.69213867 30.56982422 C4.11213867 30.56982422 -4.46786133 30.56982422 -13.30786133 30.56982422 Z " fill="#FDE804" transform="translate(481.307861328125,48.43017578125)"/>
<path d="M0 0 C1 1 1 1 1.03417969 3.05371094 C0.99711914 3.93833008 0.96005859 4.82294922 0.921875 5.734375 C0.88320313 7.18457031 0.88320313 7.18457031 0.84375 8.6640625 C0.78170791 10.70628116 0.7038161 12.74808549 0.609375 14.7890625 C0.35483801 20.92541842 0.35483801 20.92541842 3.578125 25.953125 C4.37734375 26.62859375 5.1765625 27.3040625 6 28 C6.12558718 31.81194017 3.41131607 34.07984932 0.9375 36.75 C-0.16271484 37.94882813 -0.16271484 37.94882813 -1.28515625 39.171875 C-2.13400391 40.07679688 -2.13400391 40.07679688 -3 41 C-4.98 40.34 -6.96 39.68 -9 39 C-9.165 40.258125 -9.33 41.51625 -9.5 42.8125 C-10.1460079 45.39653161 -10.50506985 46.63372851 -12.66796875 48.234375 C-18.3859065 50.57906127 -22.93133394 49.81831095 -28.8125 48.25 C-31 47 -31 47 -32.3125 44.5625 C-33 42 -33 42 -33 39 C-35.31 39.66 -37.62 40.32 -40 41 C-41.36940568 39.42982807 -42.72012895 37.84334609 -44.0625 36.25 C-44.81660156 35.36828125 -45.57070312 34.4865625 -46.34765625 33.578125 C-48 31 -48 31 -47.99609375 28.921875 C-47 27 -47 27 -44.953125 25.453125 C-41.7138383 21.38458091 -42.58420631 16.77482421 -42.75 11.75 C-42.76804688 10.71875 -42.78609375 9.6875 -42.8046875 8.625 C-42.85177288 6.08238936 -42.9175195 3.54166838 -43 1 C-41.42841311 0.37102454 -39.85679172 -0.2578647 -38.28515625 -0.88671875 C-37.40996338 -1.23694092 -36.53477051 -1.58716309 -35.63305664 -1.94799805 C-34.76414795 -2.29515869 -33.89523926 -2.64231934 -33 -3 C-32.18450684 -3.32806641 -31.36901367 -3.65613281 -30.52880859 -3.99414062 C-19.96749345 -8.12693637 -10.07895969 -3.80532152 0 0 Z M-36 22 C-37.87543354 25.86763446 -37.87543354 25.86763446 -37 30 C-33.59679066 30.67673447 -33.59679066 30.67673447 -30 31 C-27.7508092 29.17296773 -27.7508092 29.17296773 -27.75 26.5 C-27.7508092 23.82703227 -27.7508092 23.82703227 -30 22 C-33.08347826 21.83318891 -33.08347826 21.83318891 -36 22 Z M-14 24 C-14.33333333 26.5 -14.33333333 26.5 -14 29 C-12.17296773 31.2491908 -12.17296773 31.2491908 -9.5 31.25 C-6.82703227 31.2491908 -6.82703227 31.2491908 -5 29 C-4.74994614 25.95817107 -4.74994614 25.95817107 -5 23 C-6.11166864 21.66812207 -6.11166864 21.66812207 -8.9375 21.8125 C-12.10892859 21.66721267 -12.10892859 21.66721267 -14 24 Z M-22 33 C-22.33 34.32 -22.66 35.64 -23 37 C-22.01 36.67 -21.02 36.34 -20 36 C-19.67 36.66 -19.34 37.32 -19 38 C-19.34786708 36.02463255 -19.34786708 36.02463255 -20 34 C-20.66 33.67 -21.32 33.34 -22 33 Z " fill="#FDE80A" transform="translate(277,109)"/>
<path d="M0 0 C69.63 0 139.26 0 211 0 C208.196712 5.60657599 208.196712 5.60657599 205 8 C202.17513451 8.39496813 199.73927935 8.54497876 196.91516113 8.5146637 C195.68307694 8.52508199 195.68307694 8.52508199 194.42610216 8.53571075 C191.66986076 8.55402792 188.9144755 8.54370355 186.15820312 8.53344727 C184.18382623 8.54050332 182.20945475 8.549247 180.23509216 8.55955505 C174.86944076 8.58209278 169.50408371 8.57909923 164.13840294 8.57023358 C159.66248262 8.5651308 155.18661796 8.57241041 150.71070337 8.57970566 C140.15425425 8.59671826 129.59794964 8.59312467 119.04150391 8.57641602 C108.14185364 8.55948754 97.24260363 8.5753363 86.34299707 8.6076389 C76.99173339 8.63430536 67.64059453 8.64161893 58.28929663 8.63312382 C52.70112062 8.62818671 47.11318559 8.63045273 41.52503967 8.65091133 C36.27180595 8.66922253 31.01914973 8.66336557 25.76594734 8.63871193 C23.83578342 8.63368979 21.90557583 8.63722997 19.9754467 8.64986038 C17.34457382 8.66571711 14.71561995 8.65091129 12.08483887 8.62818909 C11.3171381 8.64002482 10.54943734 8.65186054 9.75847292 8.66405493 C5.94183491 8.59686899 4.32133845 8.30164481 1.49469757 5.64823818 C0 3 0 3 0 0 Z " fill="#FDE80D" transform="translate(18,131)"/>
<path d="M0 0 C69.63 0 139.26 0 211 0 C209.93075418 4.27698328 209.47936759 5.45765505 206 8 C203.19190725 8.39711577 200.77422175 8.54922687 197.96658325 8.52139282 C197.15068848 8.52904392 196.3347937 8.53669501 195.49417484 8.54457796 C192.75643488 8.56523872 190.0195338 8.55725447 187.28173828 8.54931641 C185.32045718 8.55800947 183.35918287 8.56837538 181.3979187 8.58029175 C176.06726787 8.60710874 170.73690032 8.608225 165.40619516 8.60316515 C160.95779914 8.60102802 156.50946071 8.61078665 152.061077 8.62037599 C141.56687875 8.64257954 131.07282367 8.64343398 120.57861328 8.63134766 C109.74938464 8.61926729 98.92067565 8.64388861 88.09153569 8.68648779 C78.79713694 8.72170646 69.50290369 8.73372461 60.20844066 8.72721231 C54.65591808 8.7235838 49.1037661 8.72888623 43.55130386 8.75664139 C38.32918196 8.78176753 33.10787051 8.77794047 27.88576126 8.75181961 C25.96933215 8.74708195 24.05284629 8.75257969 22.13648224 8.76906586 C19.51917322 8.78995819 16.90459456 8.77384451 14.28738403 8.7484436 C13.15040784 8.77056646 13.15040784 8.77056646 11.99046242 8.79313624 C7.78901429 8.70738237 5.45120452 7.92849378 2.4820385 5.07822227 C0 2 0 2 0 0 Z " fill="#FDE80C" transform="translate(283,131)"/>
<path d="M0 0 C5.94 0 11.88 0 18 0 C23.445 13.365 23.445 13.365 29 27 C32.18933415 20.71431296 32.18933415 20.71431296 34.88671875 14.31640625 C35.3343457 13.14368164 35.3343457 13.14368164 35.79101562 11.94726562 C36.08685547 11.16029297 36.38269531 10.37332031 36.6875 9.5625 C37.29319705 7.95873611 37.90114748 6.35582081 38.51171875 4.75390625 C38.77428467 4.05595947 39.03685059 3.3580127 39.30737305 2.63891602 C40 1 40 1 41 0 C42.34267413 -0.08631874 43.68974322 -0.10706473 45.03515625 -0.09765625 C45.84404297 -0.09443359 46.65292969 -0.09121094 47.48632812 -0.08789062 C48.33646484 -0.07951172 49.18660156 -0.07113281 50.0625 -0.0625 C50.91650391 -0.05798828 51.77050781 -0.05347656 52.65039062 -0.04882812 C54.76695663 -0.03700373 56.88348685 -0.01906769 59 0 C60.1760003 2.3520006 60.12084541 3.73734401 60.11352539 6.35791016 C60.11344986 7.25869293 60.11337433 8.15947571 60.11329651 9.08755493 C60.10813522 10.06155243 60.10297394 11.03554993 60.09765625 12.0390625 C60.0962413 13.03505463 60.09482635 14.03104675 60.09336853 15.05722046 C60.08775936 18.24651053 60.0752053 21.43573106 60.0625 24.625 C60.05748618 26.78385315 60.05292307 28.94270741 60.04882812 31.1015625 C60.03778695 36.4010655 60.02103988 41.70052778 60 47 C59.67 47 59.34 47 59 47 C58.67 33.8 58.34 20.6 58 7 C55.88415852 9.82112197 54.54342271 11.68534359 53.19067383 14.75878906 C52.87056839 15.47923401 52.55046295 16.19967896 52.22065735 16.94195557 C51.88616074 17.70876648 51.55166412 18.47557739 51.20703125 19.265625 C50.85613937 20.05902283 50.5052475 20.85242065 50.14372253 21.66986084 C49.02848999 24.19447812 47.92041191 26.7221628 46.8125 29.25 C46.05580897 30.96635331 45.29865272 32.6825016 44.54101562 34.3984375 C42.68772865 38.59624413 40.84415565 42.79812636 39 47 C32.73 47 26.46 47 20 47 C17.9528208 42.66358518 15.90737509 38.32642878 13.8659668 33.98730469 C13.17356037 32.51680352 12.48022834 31.04673776 11.78588867 29.57714844 C0 4.62680505 0 4.62680505 0 0 Z M58 3 C59 5 59 5 59 5 Z " fill="#FDE80A" transform="translate(290,49)"/>
<path d="M0 0 C5.94 0 11.88 0 18 0 C19 1 19 1 19.11352539 4.05102539 C19.11336634 5.39991271 19.10767612 6.74880614 19.09765625 8.09765625 C19.0962413 8.80651474 19.09482635 9.51537323 19.09336853 10.24571228 C19.08775443 12.51801712 19.07519963 14.79022475 19.0625 17.0625 C19.05748681 18.59960796 19.05292359 20.13671745 19.04882812 21.67382812 C19.0386297 25.44928667 19.01905732 29.22453404 19 33 C26.92 33 34.84 33 43 33 C43 37.62 43 42.24 43 47 C28.81 47 14.62 47 0 47 C0 31.49 0 15.98 0 0 Z " fill="#FDE90F" transform="translate(113,49)"/>
<path d="M0 0 C0.79792969 0.00386719 1.59585938 0.00773437 2.41796875 0.01171875 C3.21589844 0.00785156 4.01382813 0.00398438 4.8359375 0 C10.79136108 0.01011108 10.79136108 0.01011108 11.91796875 1.13671875 C12.00636545 3.51240395 12.0332718 5.85880549 12.015625 8.234375 C12.01421005 8.94323349 12.0127951 9.65209198 12.01133728 10.38243103 C12.00572318 12.65473587 11.99316838 14.9269435 11.98046875 17.19921875 C11.97545556 18.73632671 11.97089234 20.2734362 11.96679688 21.81054688 C11.95659845 25.58600542 11.93702607 29.36125279 11.91796875 33.13671875 C19.83796875 33.13671875 27.75796875 33.13671875 35.91796875 33.13671875 C35.91796875 37.75671875 35.91796875 42.37671875 35.91796875 47.13671875 C29.95483709 47.16136449 23.9917348 47.17955275 18.02856445 47.19165039 C15.99828577 47.19669153 13.96801073 47.20352432 11.93774414 47.2121582 C9.02619528 47.22423342 6.11469425 47.22994909 3.203125 47.234375 C1.83281883 47.24211693 1.83281883 47.24211693 0.43482971 47.25001526 C-1.73778552 47.25021043 -3.91030421 47.1988368 -6.08203125 47.13671875 C-7.64109907 45.57765093 -7.20925496 44.07517594 -7.21142578 41.90820312 C-7.21457794 41.01057251 -7.2177301 40.11294189 -7.22097778 39.18811035 C-7.21895355 38.21208862 -7.21692932 37.23606689 -7.21484375 36.23046875 C-7.21580048 35.23543335 -7.2167572 34.24039795 -7.21774292 33.21520996 C-7.21842485 31.10685157 -7.21656969 28.9984911 -7.21240234 26.89013672 C-7.20705428 23.65066848 -7.21234692 20.4113389 -7.21875 17.171875 C-7.21808922 15.12890594 -7.21680806 13.08593697 -7.21484375 11.04296875 C-7.21686798 10.06694702 -7.21889221 9.09092529 -7.22097778 8.08532715 C-7.21782562 7.18769653 -7.21467346 6.29006592 -7.21142578 5.36523438 C-7.21063019 4.57105103 -7.20983459 3.77686768 -7.20901489 2.95861816 C-6.91596067 -1.24598106 -3.42668309 0.0058178 0 0 Z " fill="#FDE803" transform="translate(167.08203125,48.86328125)"/>
<path d="M0 0 C0.79792969 0.00386719 1.59585937 0.00773437 2.41796875 0.01171875 C3.21589844 0.00785156 4.01382812 0.00398438 4.8359375 0 C10.79136108 0.01011108 10.79136108 0.01011108 11.91796875 1.13671875 C12.0109269 2.57961662 12.03543388 4.0270166 12.03149414 5.47290039 C12.03141861 6.39377945 12.03134308 7.31465851 12.03126526 8.26344299 C12.02610397 9.26447556 12.02094269 10.26550812 12.015625 11.296875 C12.01421005 12.31647812 12.0127951 13.33608124 12.01133728 14.38658142 C12.00571972 17.65748982 11.99316425 20.92833088 11.98046875 24.19921875 C11.97545601 26.41080631 11.97089271 28.62239493 11.96679688 30.83398438 C11.95574459 36.26825232 11.93898938 41.70248072 11.91796875 47.13671875 C8.93874282 47.16355862 5.9597558 47.18347912 2.98046875 47.19921875 C2.13033203 47.20759766 1.28019531 47.21597656 0.40429688 47.22460938 C-0.40458984 47.22783203 -1.21347656 47.23105469 -2.046875 47.234375 C-2.79573975 47.23961182 -3.54460449 47.24484863 -4.31616211 47.25024414 C-6.08203125 47.13671875 -6.08203125 47.13671875 -7.08203125 46.13671875 C-7.18007976 44.72996655 -7.21001311 43.31836739 -7.21142578 41.90820312 C-7.21457794 41.01057251 -7.2177301 40.11294189 -7.22097778 39.18811035 C-7.21895355 38.21208862 -7.21692932 37.23606689 -7.21484375 36.23046875 C-7.21580048 35.23543335 -7.2167572 34.24039795 -7.21774292 33.21520996 C-7.21842485 31.10685157 -7.21656969 28.9984911 -7.21240234 26.89013672 C-7.20705428 23.65066848 -7.21234692 20.4113389 -7.21875 17.171875 C-7.21808922 15.12890594 -7.21680806 13.08593697 -7.21484375 11.04296875 C-7.21686798 10.06694702 -7.21889221 9.09092529 -7.22097778 8.08532715 C-7.21782562 7.18769653 -7.21467346 6.29006592 -7.21142578 5.36523438 C-7.21063019 4.57105103 -7.20983459 3.77686768 -7.20901489 2.95861816 C-6.91596067 -1.24598106 -3.42668309 0.0058178 0 0 Z " fill="#FDE914" transform="translate(276.08203125,48.86328125)"/>
<path d="M0 0 C1.26108078 0.00022659 2.52216156 0.00045319 3.82145691 0.00068665 C5.19778803 0.01600655 6.57411553 0.03165453 7.95043945 0.04760742 C9.35862273 0.05320357 10.76681185 0.05747358 12.17500305 0.06047058 C15.87904014 0.07191799 19.5827236 0.10138383 23.28662109 0.13458252 C27.06709001 0.16528591 30.84761614 0.17897646 34.62817383 0.1940918 C42.04435057 0.22625401 49.46023606 0.27744862 56.8762207 0.34057617 C55.4981111 3.30881223 54.18722614 6.00242728 51.8762207 8.34057617 C49.12373352 8.82159424 49.12373352 8.82159424 45.75244141 8.79467773 C44.49136063 8.79437561 43.23027985 8.79407349 41.9309845 8.79376221 C40.55465058 8.77333563 39.17832309 8.75247165 37.80200195 8.73120117 C36.39382225 8.72373965 34.98563216 8.7180463 33.57743835 8.71405029 C29.87327341 8.69878656 26.16973709 8.65949953 22.46582031 8.61523438 C18.68538924 8.57429693 14.90485647 8.55604261 11.12426758 8.53588867 C3.70796554 8.493005 -3.70781876 8.42474597 -11.1237793 8.34057617 C-8.81009874 1.75548536 -7.10229077 -0.04252869 0 0 Z " fill="#FDEB2C" transform="translate(360.123779296875,141.659423828125)"/>
<path d="M0 0 C8.12769364 -0.13916149 16.25488778 -0.24570025 24.38347912 -0.31087303 C28.15818108 -0.34215688 31.93206671 -0.38457177 35.70629883 -0.45263672 C39.35032961 -0.51794061 42.99357649 -0.55372822 46.63814735 -0.56926346 C48.02689263 -0.58033059 49.41559605 -0.60194372 50.80400658 -0.63438034 C61.66013334 -0.87786561 61.66013334 -0.87786561 64.99234009 1.30535889 C66.82809465 3.41231948 68 5.15008821 68 8 C59.87230636 8.13916149 51.74511222 8.24570025 43.61652088 8.31087303 C39.84181892 8.34215688 36.06793329 8.38457177 32.29370117 8.45263672 C28.64967039 8.51794061 25.00642351 8.55372822 21.36185265 8.56926346 C19.97310737 8.58033059 18.58440395 8.60194372 17.19599342 8.63438034 C6.33986666 8.87786561 6.33986666 8.87786561 3.00765991 6.69464111 C1.17190535 4.58768052 0 2.84991179 0 0 Z " fill="#FDE910" transform="translate(95,142)"/>
<path d="M0 0 C2.63223267 -0.36076355 2.63223267 -0.36076355 6.01025391 -0.34057617 C7.27141022 -0.34034958 8.53256653 -0.34012299 9.8319397 -0.33988953 C11.21348421 -0.32456844 12.59502513 -0.30892044 13.9765625 -0.29296875 C15.38617503 -0.28737433 16.79579338 -0.2831035 18.20541382 -0.28010559 C21.91768464 -0.26864454 25.629604 -0.23916704 29.34173584 -0.20599365 C33.12881719 -0.1753196 36.91595526 -0.16160599 40.703125 -0.14648438 C48.135577 -0.11429811 55.56773928 -0.0630871 63 0 C61.6218904 2.96823606 60.31100543 5.66185111 58 8 C55.24751282 8.48101807 55.24751282 8.48101807 51.8762207 8.45410156 C50.61513992 8.45379944 49.35405914 8.45349731 48.05476379 8.45318604 C46.67842987 8.43275946 45.30210239 8.41189548 43.92578125 8.390625 C42.51760155 8.38316348 41.10941145 8.37747013 39.70121765 8.37347412 C35.99705271 8.35821038 32.29351638 8.31892336 28.58959961 8.2746582 C24.80916854 8.23372076 21.02863577 8.21546644 17.24804688 8.1953125 C9.83174484 8.15242883 2.41596054 8.0841698 -5 8 C-3.38731308 5.28775382 -1.75098126 2.62647188 0 0 Z " fill="#FDE700" transform="translate(285,142)"/>
<path d="M0 0 C8.14500509 -0.11588422 16.28966544 -0.20470902 24.43529129 -0.25906086 C28.21773661 -0.28514817 31.99961771 -0.32052825 35.78173828 -0.37719727 C39.43222338 -0.43155122 43.08216606 -0.46142706 46.7330246 -0.47438622 C48.12534882 -0.48362033 49.51764355 -0.5016532 50.90973663 -0.52865028 C52.86042797 -0.56497353 54.81166591 -0.56704264 56.76269531 -0.56762695 C58.42815399 -0.58428154 58.42815399 -0.58428154 60.1272583 -0.60127258 C63 0 63 0 65.38983154 2.34797668 C67 5 67 5 67 8 C59.00269233 8.1391696 51.00589247 8.24570419 43.00767231 8.31087303 C39.29349743 8.34215521 35.58015236 8.38456675 31.86645508 8.45263672 C28.28077767 8.51794703 24.69589703 8.55372947 21.10967064 8.56926346 C19.743252 8.58032948 18.37687583 8.60194052 17.0107975 8.63438034 C6.3308155 8.87785183 6.3308155 8.87785183 3.02108765 6.69464111 C1.18482848 4.58673366 0 2.85228978 0 0 Z " fill="#FDE701" transform="translate(164,142)"/>
<path d="M0 0 C0.33 0 0.66 0 1 0 C1 7.26 1 14.52 1 22 C-10.88 22 -22.76 22 -35 22 C-35 28.93 -35 35.86 -35 43 C-42.54498589 43.02255549 -50.08995931 43.04091769 -57.63497066 43.05181217 C-61.13808885 43.05703989 -64.64118285 43.0641355 -68.14428711 43.07543945 C-72.16780841 43.08834206 -76.19130414 43.09322912 -80.21484375 43.09765625 C-81.47836166 43.10281754 -82.74187958 43.10797882 -84.04368591 43.11329651 C-85.204814 43.11337204 -86.36594208 43.11344757 -87.56225586 43.11352539 C-89.1044706 43.11685631 -89.1044706 43.11685631 -90.67784119 43.12025452 C-93 43 -93 43 -94 42 C-94.08669432 40.5112814 -94.10703494 39.018555 -94.09765625 37.52734375 C-94.09515869 36.71773193 -94.09266113 35.90812012 -94.09008789 35.07397461 C-94.08098389 34.03893799 -94.07187988 33.00390137 -94.0625 31.9375 C-94.041875 28.658125 -94.02125 25.37875 -94 22 C-102.58 22 -111.16 22 -120 22 C-120 28.6 -120 35.2 -120 42 C-120.33 42 -120.66 42 -121 42 C-121 35.07 -121 28.14 -121 21 C-111.43 21 -101.86 21 -92 21 C-92 27.6 -92 34.2 -92 41 C-73.52 41 -55.04 41 -36 41 C-36 34.4 -36 27.8 -36 21 C-35 20 -35 20 -31.67358398 19.88647461 C-30.19774444 19.88663371 -28.72189931 19.89232686 -27.24609375 19.90234375 C-26.47064713 19.9037587 -25.6952005 19.90517365 -24.89625549 19.90663147 C-22.40996506 19.91224655 -19.9237634 19.92480154 -17.4375 19.9375 C-15.75586067 19.94251306 -14.07421994 19.9470763 -12.39257812 19.95117188 C-8.26165671 19.96137168 -4.13092818 19.98094395 0 20 C0 13.4 0 6.8 0 0 Z " fill="#FDED4C" transform="translate(363,0)"/>
<path d="M0 0 C0.79792969 0.00386719 1.59585938 0.00773437 2.41796875 0.01171875 C3.61486328 0.00591797 3.61486328 0.00591797 4.8359375 0 C10.79136108 0.01011108 10.79136108 0.01011108 11.91796875 1.13671875 C12.0109269 2.57961662 12.03543388 4.0270166 12.03149414 5.47290039 C12.03141861 6.39377945 12.03134308 7.31465851 12.03126526 8.26344299 C12.02610397 9.26447556 12.02094269 10.26550812 12.015625 11.296875 C12.01421005 12.31647812 12.0127951 13.33608124 12.01133728 14.38658142 C12.00571972 17.65748982 11.99316425 20.92833088 11.98046875 24.19921875 C11.97545601 26.41080631 11.97089271 28.62239493 11.96679688 30.83398438 C11.95574459 36.26825232 11.93898938 41.70248072 11.91796875 47.13671875 C8.93874282 47.16355862 5.9597558 47.18347912 2.98046875 47.19921875 C1.70526367 47.21178711 1.70526367 47.21178711 0.40429688 47.22460938 C-0.40458984 47.22783203 -1.21347656 47.23105469 -2.046875 47.234375 C-2.79573975 47.23961182 -3.54460449 47.24484863 -4.31616211 47.25024414 C-6.08203125 47.13671875 -6.08203125 47.13671875 -7.08203125 46.13671875 C-7.22596582 41.80140957 -7.12415186 37.47514144 -7.08203125 33.13671875 C-12.03203125 33.13671875 -16.98203125 33.13671875 -22.08203125 33.13671875 C-22.08203125 37.42671875 -22.08203125 41.71671875 -22.08203125 46.13671875 C-22.41203125 46.13671875 -22.74203125 46.13671875 -23.08203125 46.13671875 C-23.08203125 41.51671875 -23.08203125 36.89671875 -23.08203125 32.13671875 C-17.14203125 31.80671875 -11.20203125 31.47671875 -5.08203125 31.13671875 C-5.08203125 36.08671875 -5.08203125 41.03671875 -5.08203125 46.13671875 C-0.13203125 46.13671875 4.81796875 46.13671875 9.91796875 46.13671875 C9.91796875 31.61671875 9.91796875 17.09671875 9.91796875 2.13671875 C4.96796875 2.13671875 0.01796875 2.13671875 -5.08203125 2.13671875 C-5.08203125 6.42671875 -5.08203125 10.71671875 -5.08203125 15.13671875 C-11.02203125 14.80671875 -16.96203125 14.47671875 -23.08203125 14.13671875 C-23.08203125 9.84671875 -23.08203125 5.55671875 -23.08203125 1.13671875 C-22.75203125 1.13671875 -22.42203125 1.13671875 -22.08203125 1.13671875 C-22.08203125 5.09671875 -22.08203125 9.05671875 -22.08203125 13.13671875 C-17.13203125 13.13671875 -12.18203125 13.13671875 -7.08203125 13.13671875 C-7.10265625 11.17734375 -7.12328125 9.21796875 -7.14453125 7.19921875 C-7.16580313 5.17838999 -7.15447178 3.15636074 -7.08203125 1.13671875 C-5.19650595 -0.74880655 -2.50434294 0.00425186 0 0 Z " fill="#FDED43" transform="translate(42.08203125,48.86328125)"/>
<path d="M0 0 C1.56220024 0.01332367 1.56220024 0.01332367 3.15596008 0.0269165 C4.92745674 0.02736969 4.92745674 0.02736969 6.73474121 0.02783203 C8.00981033 0.04847717 9.28487946 0.06912231 10.59858704 0.09039307 C12.55656975 0.09888275 12.55656975 0.09888275 14.55410767 0.10754395 C18.02155775 0.12280415 21.48833578 0.16208775 24.95552063 0.20635986 C28.49465341 0.24730516 32.03389496 0.26555328 35.57319641 0.28570557 C42.51552948 0.32858275 49.45741661 0.39683791 56.39936829 0.48101807 C56.06936829 1.80101807 55.73936829 3.12101807 55.39936829 4.48101807 C35.26936829 4.48101807 15.13936829 4.48101807 -5.60063171 4.48101807 C-2.60063171 0.48101807 -2.60063171 0.48101807 0 0 Z " fill="#FDE700" transform="translate(357.6006317138672,143.51898193359375)"/>
<path d="M0 0 C75.9 0 151.8 0 230 0 C230 0.33 230 0.66 230 1 C154.1 1 78.2 1 0 1 C0 0.67 0 0.34 0 0 Z " fill="#FDE700" transform="translate(282,108)"/>
<path d="M0 0 C75.9 0 151.8 0 230 0 C230 0.33 230 0.66 230 1 C154.1 1 78.2 1 0 1 C0 0.67 0 0.34 0 0 Z " fill="#FDE700" transform="translate(0,108)"/>
<path d="M0 0 C71.61 0 143.22 0 217 0 C217 0.33 217 0.66 217 1 C145.39 1 73.78 1 0 1 C0 0.67 0 0.34 0 0 Z " fill="#FDEA1C" transform="translate(13,129)"/>
<path d="M0 0 C71.28 0 142.56 0 216 0 C216 0.33 216 0.66 216 1 C144.72 1 73.44 1 0 1 C0 0.67 0 0.34 0 0 Z " fill="#FDEA1B" transform="translate(282,129)"/>
<path d="M0 0 C-8.52001464 0.22759098 -17.04091656 0.40596474 -25.5625 0.5625 C-26.25459061 0.57523327 -26.94668121 0.58796654 -27.65974426 0.60108566 C-65.02149932 1.27080689 -102.38651056 0.87081164 -139.75 0.5625 C-140.52760382 0.55610205 -141.30520764 0.5497041 -142.10637522 0.54311228 C-162.40437871 0.37582777 -182.70224133 0.19479547 -203 0 C-203 -0.33 -203 -0.66 -203 -1 C-176.97512058 -1.17714758 -150.95019018 -1.34282961 -124.92515087 -1.49477577 C-112.84190451 -1.56559211 -100.75870343 -1.64019296 -88.67553711 -1.72363281 C-78.14668104 -1.79632991 -67.61780891 -1.86199799 -57.08885652 -1.91914403 C-51.51131263 -1.94966388 -45.93384123 -1.98375858 -40.35637474 -2.02626419 C-35.11081006 -2.06612951 -29.86527584 -2.09662359 -24.61961174 -2.11981392 C-22.6906188 -2.13001498 -20.76164076 -2.14369096 -18.83269882 -2.16103554 C-16.20626172 -2.1841409 -13.58005787 -2.19493207 -10.95353699 -2.20254517 C-10.18408585 -2.2122618 -9.41463472 -2.22197843 -8.62186688 -2.2319895 C-4.85739024 -2.2293177 -3.21575578 -2.14383719 0 0 Z " fill="#FDED41" transform="translate(226,141)"/>
<path d="M0 0 C1.16438239 0.01457495 1.16438239 0.01457495 2.35228765 0.02944434 C3.58604196 0.03300639 3.58604196 0.03300639 4.8447206 0.03664041 C7.61637059 0.04710416 10.38770736 0.07198794 13.15926397 0.0967356 C15.139825 0.10715575 17.12039086 0.11669208 19.10096014 0.12540686 C24.49124714 0.15164564 29.88138311 0.1903103 35.27157676 0.23113072 C40.89965687 0.27166439 46.52779517 0.30087484 52.15593755 0.33126318 C62.81967854 0.390573 73.48332731 0.46013283 84.146981 0.53333402 C96.28459903 0.61615731 108.42227552 0.68761665 120.5599705 0.75809991 C145.53374677 0.90337768 170.50741506 1.06299642 195.48104131 1.2319895 C195.48104131 1.5619895 195.48104131 1.8919895 195.48104131 2.2319895 C178.90605999 2.38954582 162.33102003 2.53731066 145.75586259 2.6749531 C138.05084832 2.73913934 130.34587836 2.80598967 122.64095342 2.88018286 C79.23656516 3.29617382 35.87952115 3.09471737 -7.51895869 2.2319895 C-4.99154273 -0.29542645 -3.44586421 0.00244049 0 0 Z " fill="#FDED41" transform="translate(293.5189586877823,138.7680104970932)"/>
<path d="M0 0 C0.79792969 0.00386719 1.59585938 0.00773437 2.41796875 0.01171875 C3.21589844 0.00785156 4.01382813 0.00398438 4.8359375 0 C10.79136108 0.01011108 10.79136108 0.01011108 11.91796875 1.13671875 C12.00636545 3.51240395 12.0332718 5.85880549 12.015625 8.234375 C12.01421005 8.94323349 12.0127951 9.65209198 12.01133728 10.38243103 C12.00572318 12.65473587 11.99316838 14.9269435 11.98046875 17.19921875 C11.97545556 18.73632671 11.97089234 20.2734362 11.96679688 21.81054688 C11.95574917 25.58597517 11.93847516 29.36133046 11.91796875 33.13671875 C11.25796875 33.13671875 10.59796875 33.13671875 9.91796875 33.13671875 C9.91796875 22.90671875 9.91796875 12.67671875 9.91796875 2.13671875 C4.96796875 2.13671875 0.01796875 2.13671875 -5.08203125 2.13671875 C-5.08203125 16.65671875 -5.08203125 31.17671875 -5.08203125 46.13671875 C-5.74203125 46.13671875 -6.40203125 46.13671875 -7.08203125 46.13671875 C-7.10730187 39.74634644 -7.12486442 33.35598692 -7.13696289 26.96557617 C-7.14200433 24.78979002 -7.14883732 22.61400728 -7.1574707 20.43823242 C-7.16954463 17.31818808 -7.1752613 14.19818837 -7.1796875 11.078125 C-7.18484879 10.09896622 -7.19001007 9.11980743 -7.19532776 8.11097717 C-7.19540329 7.21011887 -7.19547882 6.30926056 -7.19555664 5.38110352 C-7.19777725 4.58390396 -7.19999786 3.78670441 -7.20228577 2.96534729 C-6.92519487 -1.24818528 -3.4300559 0.00582352 0 0 Z " fill="#FDEE56" transform="translate(167.08203125,48.86328125)"/>
<path d="M0 0 C5.94 0 11.88 0 18 0 C18 4.95 18 9.9 18 15 C23.94 15 29.88 15 36 15 C36 15.33 36 15.66 36 16 C32.85418577 16.02888514 29.70840531 16.04675923 26.5625 16.0625 C25.66466797 16.07087891 24.76683594 16.07925781 23.84179688 16.08789062 C22.56079102 16.09272461 22.56079102 16.09272461 21.25390625 16.09765625 C20.06776733 16.10551147 20.06776733 16.10551147 18.85766602 16.11352539 C17 16 17 16 16 15 C15.85606543 10.66469082 15.95787939 6.33842269 16 2 C11.05 2 6.1 2 1 2 C1 16.52 1 31.04 1 46 C6.28 46 11.56 46 17 46 C17 40.72 17 35.44 17 30 C23.27 30 29.54 30 36 30 C36 30.33 36 30.66 36 31 C30.06 31 24.12 31 18 31 C18 36.28 18 41.56 18 47 C12.06 47 6.12 47 0 47 C0 31.49 0 15.98 0 0 Z " fill="#FDEB2F" transform="translate(0,49)"/>
<path d="M0 0 C8.17960554 -0.06943077 16.35908851 -0.12277566 24.53891563 -0.15543652 C28.33692183 -0.17111006 32.13472681 -0.19237859 35.93261719 -0.22631836 C39.59602467 -0.25885241 43.25923831 -0.27684029 46.92277908 -0.28463173 C48.3222827 -0.29018603 49.72177539 -0.30103199 51.12119675 -0.31719017 C53.07727511 -0.33888273 55.03354748 -0.3402247 56.98974609 -0.34057617 C58.1044931 -0.34723801 59.21924011 -0.35389984 60.36776733 -0.36076355 C61.6707225 -0.18218559 61.6707225 -0.18218559 63 0 C63.99 1.485 63.99 1.485 65 3 C44.54 2.67 24.08 2.34 3 2 C2.67 2.66 2.34 3.32 2 4 C1.34 2.68 0.68 1.36 0 0 Z " fill="#FDEB2D" transform="translate(95,142)"/>
<path d="M0 0 C2.63223267 -0.36076355 2.63223267 -0.36076355 6.01025391 -0.34057617 C7.27141022 -0.34034958 8.53256653 -0.34012299 9.8319397 -0.33988953 C11.21348421 -0.32456844 12.59502513 -0.30892044 13.9765625 -0.29296875 C15.38617503 -0.28737433 16.79579338 -0.2831035 18.20541382 -0.28010559 C21.91768464 -0.26864454 25.629604 -0.23916704 29.34173584 -0.20599365 C33.12881719 -0.1753196 36.91595526 -0.16160599 40.703125 -0.14648438 C48.135577 -0.11429811 55.56773928 -0.0630871 63 0 C62.67 0.99 62.34 1.98 62 3 C40.66666667 3 19.33333333 3 -2 3 C-1.34 2.01 -0.68 1.02 0 0 Z " fill="#FDEB2A" transform="translate(285,142)"/>
<path d="M0 0 C0.99 0.66 1.98 1.32 3 2 C3 2.99 3 3.98 3 5 C-17.46 5 -37.92 5 -59 5 C-59.33 4.34 -59.66 3.68 -60 3 C-40.2 2.67 -20.4 2.34 0 2 C0 1.34 0 0.68 0 0 Z " fill="#FDEB2B" transform="translate(228,145)"/>
<path d="M0 0 C0.33 0.66 0.66 1.32 1 2 C21.13 2 41.26 2 62 2 C61.67 2.66 61.34 3.32 61 4 C40.21 4 19.42 4 -2 4 C-1.34 2.68 -0.68 1.36 0 0 Z " fill="#FDEB2D" transform="translate(282,146)"/>
<path d="M0 0 C20.79 0 41.58 0 63 0 C63 0.66 63 1.32 63 2 C32.31 2.495 32.31 2.495 1 3 C0.67 2.01 0.34 1.02 0 0 Z " fill="#FDEB2A" transform="translate(164,142)"/>
<path d="M0 0 C2.23498656 0.08126777 4.46459365 0.10250259 6.70092773 0.11401367 C14.46652017 0.24107815 14.46652017 0.24107815 17.90991211 0.76831055 C18.56991211 1.75831055 19.22991211 2.74831055 19.90991211 3.76831055 C18.94166504 3.73688965 17.97341797 3.70546875 16.97583008 3.6730957 C13.36435562 3.5640386 9.75302483 3.49545192 6.14038086 3.4387207 C4.58056114 3.40864955 3.02090911 3.36777955 1.46166992 3.31567383 C-7.31468599 2.71148277 -7.31468599 2.71148277 -15.48364258 5.13061523 C-17.3496414 6.8830641 -17.3496414 6.8830641 -19.09008789 9.76831055 C-19.75008789 9.43831055 -20.41008789 9.10831055 -21.09008789 8.76831055 C-16.07229601 -0.27343577 -9.37184711 -0.34671982 0 0 Z " fill="#FDEB28" transform="translate(482.090087890625,48.231689453125)"/>
<path d="M0 0 C5.94 0 11.88 0 18 0 C18 5.28 18 10.56 18 16 C12.06 16 6.12 16 0 16 C0 10.72 0 5.44 0 0 Z M1 1 C1 5.62 1 10.24 1 15 C6.28 15 11.56 15 17 15 C17 10.38 17 5.76 17 1 C11.72 1 6.44 1 1 1 Z " fill="#FDE822" transform="translate(227,65)"/>
<path d="M0 0 C20.46 0 40.92 0 62 0 C62 0.33 62 0.66 62 1 C41.54 1 21.08 1 0 1 C0 0.67 0 0.34 0 0 Z " fill="#FDED3D" transform="translate(350,151)"/>
<path d="M0 0 C20.46 0 40.92 0 62 0 C62 0.33 62 0.66 62 1 C41.54 1 21.08 1 0 1 C0 0.67 0 0.34 0 0 Z " fill="#FDED3D" transform="translate(281,151)"/>
<path d="M0 0 C20.46 0 40.92 0 62 0 C62 0.33 62 0.66 62 1 C41.54 1 21.08 1 0 1 C0 0.67 0 0.34 0 0 Z " fill="#FDED3D" transform="translate(169,151)"/>
<path d="M0 0 C20.46 0 40.92 0 62 0 C62 0.33 62 0.66 62 1 C41.54 1 21.08 1 0 1 C0 0.67 0 0.34 0 0 Z " fill="#FDED3D" transform="translate(100,151)"/>
<path d="M0 0 C0.33 0 0.66 0 1 0 C1 14.52 1 29.04 1 44 C0.01 44.495 0.01 44.495 -1 45 C-1.07167069 34.8605888 -0.85536416 24.75645591 -0.5 14.625 C-0.45160782 13.19531976 -0.40342976 11.76563226 -0.35546875 10.3359375 C-0.23943423 6.89053817 -0.1205483 3.44524471 0 0 Z " fill="#FDED43" transform="translate(158,51)"/>
<path d="M0 0 C19.14 0 38.28 0 58 0 C58 0.33 58 0.66 58 1 C38.86 1 19.72 1 0 1 C0 0.67 0 0.34 0 0 Z " fill="#FEEC3E" transform="translate(184,44)"/>
<path d="M0 0 C18.81 0 37.62 0 57 0 C57 0.33 57 0.66 57 1 C38.19 1 19.38 1 0 1 C0 0.67 0 0.34 0 0 Z " fill="#FDED3F" transform="translate(270,44)"/>
<path d="M0 0 C17.82 0 35.64 0 54 0 C54 0.33 54 0.66 54 1 C36.18 1 18.36 1 0 1 C0 0.67 0 0.34 0 0 Z " fill="#FEED3F" transform="translate(184,154)"/>
<path d="M0 0 C17.49 0 34.98 0 53 0 C53 0.33 53 0.66 53 1 C35.51 1 18.02 1 0 1 C0 0.67 0 0.34 0 0 Z " fill="#FDED3F" transform="translate(274,154)"/>
<path d="M0 0 C0.33 0 0.66 0 1 0 C1 9.9 1 19.8 1 30 C8.26 30 15.52 30 23 30 C23 30.33 23 30.66 23 31 C15.41 31 7.82 31 0 31 C0 20.77 0 10.54 0 0 Z " fill="#FDE82F" transform="translate(180,50)"/>
<path d="M0 0 C0.33 0 0.66 0 1 0 C1 9.9 1 19.8 1 30 C8.26 30 15.52 30 23 30 C23 30.33 23 30.66 23 31 C15.41 31 7.82 31 0 31 C0 20.77 0 10.54 0 0 Z " fill="#FDE930" transform="translate(133,50)"/>
<path d="M0 0 C0.33 0 0.66 0 1 0 C1 5.94 1 11.88 1 18 C11.89 18 22.78 18 34 18 C34 18.33 34 18.66 34 19 C22.78 19 11.56 19 0 19 C0 12.73 0 6.46 0 0 Z " fill="#FDEB31" transform="translate(329,157)"/>
<path d="M0 0 C0.33 0 0.66 0 1 0 C1 6.27 1 12.54 1 19 C-10.22 19 -21.44 19 -33 19 C-33 18.67 -33 18.34 -33 18 C-22.11 18 -11.22 18 0 18 C0 12.06 0 6.12 0 0 Z " fill="#FDEB32" transform="translate(182,157)"/>
<path d="M0 0 C11.22 0 22.44 0 34 0 C34 0.33 34 0.66 34 1 C23.11 1 12.22 1 1 1 C1 6.94 1 12.88 1 19 C0.67 19 0.34 19 0 19 C0 12.73 0 6.46 0 0 Z " fill="#FDEB31" transform="translate(329,23)"/>
<path d="M0 0 C11.22 0 22.44 0 34 0 C34 6.27 34 12.54 34 19 C33.67 19 33.34 19 33 19 C33 13.06 33 7.12 33 1 C22.11 1 11.22 1 0 1 C0 0.67 0 0.34 0 0 Z " fill="#FEEB32" transform="translate(149,23)"/>
<path d="M0 0 C15.84 0 31.68 0 48 0 C48 0.33 48 0.66 48 1 C32.16 1 16.32 1 0 1 C0 0.67 0 0.34 0 0 Z " fill="#FDEA1D" transform="translate(208,97)"/>
<path d="M0 0 C15.84 0 31.68 0 48 0 C48 0.33 48 0.66 48 1 C32.16 1 16.32 1 0 1 C0 0.67 0 0.34 0 0 Z " fill="#FDED3D" transform="translate(208,47)"/>
<path d="M0 0 C15.51 0 31.02 0 47 0 C47 0.33 47 0.66 47 1 C31.49 1 15.98 1 0 1 C0 0.67 0 0.34 0 0 Z " fill="#FEEA1D" transform="translate(351,97)"/>
<path d="M0 0 C15.51 0 31.02 0 47 0 C47 0.33 47 0.66 47 1 C31.49 1 15.98 1 0 1 C0 0.67 0 0.34 0 0 Z " fill="#FDEA1D" transform="translate(60,97)"/>
<path d="M0 0 C15.51 0 31.02 0 47 0 C47 0.33 47 0.66 47 1 C31.49 1 15.98 1 0 1 C0 0.67 0 0.34 0 0 Z " fill="#FDED3D" transform="translate(60,47)"/>
<path d="M0 0 C0.33 0 0.66 0 1 0 C1 15.18 1 30.36 1 46 C0.67 46 0.34 46 0 46 C0 30.82 0 15.64 0 0 Z " fill="#FDE701" transform="translate(402,50)"/>
<path d="M0 0 C0.33 0 0.66 0 1 0 C1 15.18 1 30.36 1 46 C0.67 46 0.34 46 0 46 C0 30.82 0 15.64 0 0 Z " fill="#FDE400" transform="translate(58,50)"/>
<path d="M0 0 C15.18 0 30.36 0 46 0 C46 0.33 46 0.66 46 1 C30.82 1 15.64 1 0 1 C0 0.67 0 0.34 0 0 Z " fill="#FDED3D" transform="translate(352,47)"/>
<path d="M0 0 C2.05184856 3.07777284 2.24373768 3.57351565 2.13525391 7.01245117 C2.10499619 8.2133564 2.10499619 8.2133564 2.0741272 9.43852234 C2.04193085 10.29798965 2.0097345 11.15745697 1.9765625 12.04296875 C1.95153656 12.9265657 1.92651062 13.81016266 1.90072632 14.72053528 C1.81854151 17.54324799 1.72194628 20.36525944 1.625 23.1875 C1.56675887 25.10088279 1.50945563 27.01429438 1.453125 28.92773438 C1.31296494 33.61889306 1.15987917 38.30947363 1 43 C0.67 43 0.34 43 0 43 C0 28.81 0 14.62 0 0 Z " fill="#FDED4F" transform="translate(289,52)"/>
<path d="M0 0 C0.33 0 0.66 0 1 0 C1 14.85 1 29.7 1 45 C0.67 45 0.34 45 0 45 C0 30.15 0 15.3 0 0 Z " fill="#FDEE52" transform="translate(111,50)"/>
<path d="M0 0 C0.33 0 0.66 0 1 0 C1 14.85 1 29.7 1 45 C0.67 45 0.34 45 0 45 C0 30.15 0 15.3 0 0 Z " fill="#FDEE54" transform="translate(267,50)"/>
<path d="M0 0 C0.33 0 0.66 0 1 0 C1 14.85 1 29.7 1 45 C0.67 45 0.34 45 0 45 C0 30.15 0 15.3 0 0 Z " fill="#FEED40" transform="translate(55,50)"/>
<path d="M0 0 C14.19 0 28.38 0 43 0 C43 0.33 43 0.66 43 1 C28.81 1 14.62 1 0 1 C0 0.67 0 0.34 0 0 Z " fill="#FDED3E" transform="translate(404,47)"/>
<path d="M0 0 C13.86 0 27.72 0 42 0 C42 0.33 42 0.66 42 1 C28.14 1 14.28 1 0 1 C0 0.67 0 0.34 0 0 Z " fill="#FDEA1D" transform="translate(161,97)"/>
<path d="M0 0 C13.86 0 27.72 0 42 0 C42 0.33 42 0.66 42 1 C28.14 1 14.28 1 0 1 C0 0.67 0 0.34 0 0 Z " fill="#FEEA1D" transform="translate(114,97)"/>
<path d="M0 0 C7.92 0 15.84 0 24 0 C24 6.27 24 12.54 24 19 C23.67 19 23.34 19 23 19 C23 13.06 23 7.12 23 1 C15.41 1 7.82 1 0 1 C0 0.67 0 0.34 0 0 Z " fill="#FDEE4E" transform="translate(244,23)"/>
<path d="M0 0 C0.33 0 0.66 0 1 0 C1 4.62 1 9.24 1 14 C-6.92 14 -14.84 14 -23 14 C-23 13.67 -23 13.34 -23 13 C-15.41 13 -7.82 13 0 13 C0 8.71 0 4.42 0 0 Z " fill="#FDEE4E" transform="translate(267,162)"/>
<path d="M0 0 C11.88 0 23.76 0 36 0 C36 0.33 36 0.66 36 1 C24.12 1 12.24 1 0 1 C0 0.67 0 0.34 0 0 Z " fill="#FDEA1D" transform="translate(468,97)"/>
<path d="M0 0 C4.29 0 8.58 0 13 0 C13 1.98 13 3.96 13 6 C8.71 6 4.42 6 0 6 C0 4.02 0 2.04 0 0 Z M1 1 C1 2.32 1 3.64 1 5 C4.63 5 8.26 5 12 5 C12 3.68 12 2.36 12 1 C8.37 1 4.74 1 1 1 Z " fill="#FDE613" transform="translate(423,63)"/>
<path d="M0 0 C0.66 0 1.32 0 2 0 C2.33 7.26 2.66 14.52 3 22 C2.67 22 2.34 22 2 22 C1.66076424 19.64655194 1.32849466 17.2924516 1 14.9375 C0.85691406 13.95233398 0.85691406 13.95233398 0.7109375 12.94726562 C0.11112326 8.59861237 -0.09127093 4.38670929 0 0 Z " fill="#FDE821" transform="translate(231,110)"/>
<path d="M0 0 C0.66 0 1.32 0 2 0 C1.85856168 2.7294586 1.71200471 5.45848123 1.5625 8.1875 C1.52318359 8.95642578 1.48386719 9.72535156 1.44335938 10.51757812 C1.22492966 14.43251075 0.91307892 18.17120688 0 22 C-0.33 22 -0.66 22 -1 22 C-1.14715692 14.6094524 -0.70776992 7.35575165 0 0 Z " fill="#FDE820" transform="translate(279,110)"/>
<path d="M0 0 C4.29 0 8.58 0 13 0 C13 3.63 13 7.26 13 11 C12.67 11 12.34 11 12 11 C12 7.7 12 4.4 12 1 C8.37 1 4.74 1 1 1 C1 4.3 1 7.6 1 11 C0.67 11 0.34 11 0 11 C0 7.37 0 3.74 0 0 Z " fill="#FDED42" transform="translate(423,84)"/>
<path d="M0 0 C10.56 0 21.12 0 32 0 C32 0.33 32 0.66 32 1 C21.44 1 10.88 1 0 1 C0 0.67 0 0.34 0 0 Z " fill="#FDED3D" transform="translate(468,47)"/>
<path d="M0 0 C9.9 0 19.8 0 30 0 C25.83929946 2.08035027 24.40430096 2.19628926 19.921875 1.9765625 C18.18164062 1.89921875 18.18164062 1.89921875 16.40625 1.8203125 C15.1996875 1.75585938 13.993125 1.69140625 12.75 1.625 C10.91695313 1.53992188 10.91695313 1.53992188 9.046875 1.453125 C6.0306498 1.31173944 3.0152677 1.16033265 0 1 C0 0.67 0 0.34 0 0 Z " fill="#FDE500" transform="translate(478,63)"/>
<path d="M0 0 C9.24 0 18.48 0 28 0 C26 2 26 2 23.38623047 2.13525391 C22.30744629 2.08288574 21.22866211 2.03051758 20.1171875 1.9765625 C18.95058594 1.925 17.78398438 1.8734375 16.58203125 1.8203125 C15.35871094 1.75585938 14.13539062 1.69140625 12.875 1.625 C11.64394531 1.56828125 10.41289063 1.5115625 9.14453125 1.453125 C6.09579194 1.31132317 3.04783612 1.15988027 0 1 C0 0.67 0 0.34 0 0 Z " fill="#FDE500" transform="translate(79,63)"/>
<path d="M0 0 C0.33 0 0.66 0 1 0 C1 9.57 1 19.14 1 29 C0.67 29 0.34 29 0 29 C0 19.43 0 9.86 0 0 Z " fill="#FDE404" transform="translate(265,58)"/>
<path d="M0 0 C9.24 0 18.48 0 28 0 C28 0.33 28 0.66 28 1 C18.76 1 9.52 1 0 1 C0 0.67 0 0.34 0 0 Z " fill="#FDE400" transform="translate(370,80)"/>
<path d="M0 0 C9.24 0 18.48 0 28 0 C28 0.33 28 0.66 28 1 C18.76 1 9.52 1 0 1 C0 0.67 0 0.34 0 0 Z " fill="#FDE400" transform="translate(79,80)"/>
<path d="M0 0 C9.24 0 18.48 0 28 0 C28 0.33 28 0.66 28 1 C18.76 1 9.52 1 0 1 C0 0.67 0 0.34 0 0 Z " fill="#FDE500" transform="translate(370,63)"/>
<path d="M0 0 C0.33 0 0.66 0 1 0 C1 6.93 1 13.86 1 21 C0.67 21 0.34 21 0 21 C0 14.07 0 7.14 0 0 Z " fill="#FDE701" transform="translate(146,178)"/>
<path d="M0 0 C0.33 0 0.66 0 1 0 C1 6.93 1 13.86 1 21 C0.67 21 0.34 21 0 21 C0 14.07 0 7.14 0 0 Z " fill="#FDE701" transform="translate(365,178)"/>
<path d="M0 0 C0.33 0 0.66 0 1 0 C1 6.93 1 13.86 1 21 C0.67 21 0.34 21 0 21 C0 14.07 0 7.14 0 0 Z " fill="#FDE701" transform="translate(365,0)"/>
<path d="M0 0 C0.33 0 0.66 0 1 0 C1 6.93 1 13.86 1 21 C0.67 21 0.34 21 0 21 C0 14.07 0 7.14 0 0 Z " fill="#FDE701" transform="translate(146,0)"/>
<path d="M0 0 C5.94 0 11.88 0 18 0 C18 0.33 18 0.66 18 1 C12.06 1 6.12 1 0 1 C0 0.67 0 0.34 0 0 Z " fill="#FDEA1C" transform="translate(310,97)"/>
<path d="M0 0 C5.61 0 11.22 0 17 0 C17 0.33 17 0.66 17 1 C11.39 1 5.78 1 0 1 C0 0.67 0 0.34 0 0 Z " fill="#FEEA1D" transform="translate(438,97)"/>
<path d="M0 0 C5.61 0 11.22 0 17 0 C17 0.33 17 0.66 17 1 C11.39 1 5.78 1 0 1 C0 0.67 0 0.34 0 0 Z " fill="#FDEA1F" transform="translate(404,97)"/>
<path d="M0 0 C5.61 0 11.22 0 17 0 C17 0.33 17 0.66 17 1 C11.39 1 5.78 1 0 1 C0 0.67 0 0.34 0 0 Z " fill="#FDEA1D" transform="translate(270,97)"/>
<path d="M0 0 C5.61 0 11.22 0 17 0 C17 0.33 17 0.66 17 1 C11.39 1 5.78 1 0 1 C0 0.67 0 0.34 0 0 Z " fill="#FDEA1E" transform="translate(36,97)"/>
<path d="M0 0 C5.61 0 11.22 0 17 0 C17 0.33 17 0.66 17 1 C11.39 1 5.78 1 0 1 C0 0.67 0 0.34 0 0 Z " fill="#FDEA1D" transform="translate(0,97)"/>
<path d="M0 0 C5.61 0 11.22 0 17 0 C17 0.33 17 0.66 17 1 C11.39 1 5.78 1 0 1 C0 0.67 0 0.34 0 0 Z " fill="#FDED3D" transform="translate(331,47)"/>
<path d="M0 0 C5.61 0 11.22 0 17 0 C17 0.33 17 0.66 17 1 C11.39 1 5.78 1 0 1 C0 0.67 0 0.34 0 0 Z " fill="#FDED3D" transform="translate(290,47)"/>
<path d="M0 0 C5.61 0 11.22 0 17 0 C17 0.33 17 0.66 17 1 C11.39 1 5.78 1 0 1 C0 0.67 0 0.34 0 0 Z " fill="#FDED3E" transform="translate(270,47)"/>
<path d="M0 0 C5.61 0 11.22 0 17 0 C17 0.33 17 0.66 17 1 C11.39 1 5.78 1 0 1 C0 0.67 0 0.34 0 0 Z " fill="#FDED3E" transform="translate(161,47)"/>
<path d="M0 0 C5.61 0 11.22 0 17 0 C17 0.33 17 0.66 17 1 C11.39 1 5.78 1 0 1 C0 0.67 0 0.34 0 0 Z " fill="#FDED3E" transform="translate(114,47)"/>
<path d="M0 0 C5.61 0 11.22 0 17 0 C17 0.33 17 0.66 17 1 C11.39 1 5.78 1 0 1 C0 0.67 0 0.34 0 0 Z " fill="#FDED3F" transform="translate(36,47)"/>
<path d="M0 0 C5.61 0 11.22 0 17 0 C17 0.33 17 0.66 17 1 C11.39 1 5.78 1 0 1 C0 0.67 0 0.34 0 0 Z " fill="#FDED3E" transform="translate(0,47)"/>
<path d="M0 0 C0.33 0 0.66 0 1 0 C1 4.62 1 9.24 1 14 C0.67 14 0.34 14 0 14 C0 9.38 0 4.76 0 0 Z " fill="#FDE606" transform="translate(108,82)"/>
<path d="M0 0 C0.33 0 0.66 0 1 0 C1 4.62 1 9.24 1 14 C0.67 14 0.34 14 0 14 C0 9.38 0 4.76 0 0 Z " fill="#FDE503" transform="translate(204,82)"/>
<path d="M0 0 C0.33 0 0.66 0 1 0 C1 4.29 1 8.58 1 13 C0.67 13 0.34 13 0 13 C0 8.71 0 4.42 0 0 Z " fill="#FDD800" transform="translate(106,65)"/>
<path d="M0 0 C0.33 0 0.66 0 1 0 C1 4.29 1 8.58 1 13 C0.67 13 0.34 13 0 13 C0 8.71 0 4.42 0 0 Z " fill="#FDE608" transform="translate(108,49)"/>
<path d="M0 0 C0.33 0 0.66 0 1 0 C1 3.63 1 7.26 1 11 C0.67 11 0.34 11 0 11 C0 7.37 0 3.74 0 0 Z " fill="#FEEE55" transform="translate(398,66)"/>
<path d="M0 0 C0.33 0 0.66 0 1 0 C1 2.64 1 5.28 1 8 C0.67 8 0.34 8 0 8 C0 5.36 0 2.72 0 0 Z " fill="#FDEC3F" transform="translate(457,60)"/>
<path d="M0 0 C1.98 0 3.96 0 6 0 C6 0.33 6 0.66 6 1 C4.02 1 2.04 1 0 1 C0 0.67 0 0.34 0 0 Z " fill="#FEE920" transform="translate(253,101)"/>
<path d="M0 0 C1.65 0 3.3 0 5 0 C5 0.33 5 0.66 5 1 C3.35 1 1.7 1 0 1 C0 0.67 0 0.34 0 0 Z " fill="#FDEA23" transform="translate(265,138)"/>
<path d="M0 0 C1.65 0 3.3 0 5 0 C5 0.33 5 0.66 5 1 C3.35 1 1.7 1 0 1 C0 0.67 0 0.34 0 0 Z " fill="#FDE923" transform="translate(242,138)"/>
<path d="M0 0 C0.33 0 0.66 0 1 0 C1 1.65 1 3.3 1 5 C0.67 5 0.34 5 0 5 C0 3.35 0 1.7 0 0 Z " fill="#FDE91D" transform="translate(264,133)"/>
<path d="M0 0 C0.33 0 0.66 0 1 0 C1 1.65 1 3.3 1 5 C0.67 5 0.34 5 0 5 C0 3.35 0 1.7 0 0 Z " fill="#FDE816" transform="translate(247,133)"/>
<path d="M0 0 C0.99 0.495 0.99 0.495 2 1 C1.67 1.66 1.34 2.32 1 3 C0.67 2.01 0.34 1.02 0 0 Z " fill="#FDE82B" transform="translate(281,142)"/>
<path d="M0 0 C0.66 0 1.32 0 2 0 C1.67 0.99 1.34 1.98 1 3 C0.67 2.01 0.34 1.02 0 0 Z " fill="#FDE62F" transform="translate(269,132)"/>
<path d="M0 0 C1 4 1 4 1 4 Z " fill="#FDE70C" transform="translate(509,58)"/>
<path d="M0 0 C3 1 3 1 3 1 Z " fill="#FEE91E" transform="translate(258,159)"/>
<path d="M0 0 C3 1 3 1 3 1 Z " fill="#FDE91F" transform="translate(251,159)"/>
<path d="M0 0 C3 1 3 1 3 1 Z " fill="#FDE719" transform="translate(261,158)"/>
<path d="M0 0 C3 1 3 1 3 1 Z " fill="#FDE619" transform="translate(248,158)"/>
<path d="" fill="#FEEA21" transform="translate(0,0)"/>
<path d="M0 0 C3 1 3 1 3 1 Z " fill="#FDE624" transform="translate(239,150)"/>
<path d="M0 0 C0.99 0.495 0.99 0.495 2 1 C1.01 1.495 1.01 1.495 0 2 C0 1.34 0 0.68 0 0 Z " fill="#FDE92A" transform="translate(241,132)"/>
<path d="M0 0 C3 1 3 1 3 1 Z " fill="#FDE81E" transform="translate(274,107)"/>
<path d="M0 0 C3 1 3 1 3 1 Z " fill="#FDE81F" transform="translate(235,107)"/>
<path d="M0 0 C3 1 3 1 3 1 Z " fill="#FDE921" transform="translate(271,106)"/>
<path d="M0 0 C3 1 3 1 3 1 Z " fill="#FDE821" transform="translate(238,106)"/>
<path d="M0 0 C3 1 3 1 3 1 Z " fill="#FDE81F" transform="translate(268,105)"/>
<path d="M0 0 C3 1 3 1 3 1 Z " fill="#FEE820" transform="translate(241,105)"/>
<path d="M0 0 C3 1 3 1 3 1 Z " fill="#FEE91E" transform="translate(265,104)"/>
<path d="M0 0 C3 1 3 1 3 1 Z " fill="#FDE920" transform="translate(244,104)"/>
<path d="M0 0 C3 1 3 1 3 1 Z " fill="#FDE920" transform="translate(262,103)"/>
<path d="M0 0 C3 1 3 1 3 1 Z " fill="#FDE921" transform="translate(247,103)"/>
<path d="M0 0 C3 1 3 1 3 1 Z " fill="#FEE91C" transform="translate(259,102)"/>
<path d="M0 0 C3 1 3 1 3 1 Z " fill="#FDE91D" transform="translate(250,102)"/>
<path d="" fill="#FEEE4D" transform="translate(0,0)"/>
<path d="M0 0 C2 1 2 1 2 1 Z " fill="#FEED43" transform="translate(255,160)"/>
<path d="" fill="#FEE81A" transform="translate(0,0)"/>
<path d="" fill="#FDE615" transform="translate(0,0)"/>
<path d="" fill="#FEEA1F" transform="translate(0,0)"/>
<path d="M0 0 C2 1 2 1 2 1 Z " fill="#FDEC3B" transform="translate(270,150)"/>
<path d="" fill="#FDE736" transform="translate(0,0)"/>
<path d="" fill="#FDE527" transform="translate(0,0)"/>
<path d="" fill="#FDE221" transform="translate(0,0)"/>
<path d="" fill="#FDE92C" transform="translate(0,0)"/>
<path d="" fill="#FEE82A" transform="translate(0,0)"/>
<path d="" fill="#FEDC23" transform="translate(0,0)"/>
<path d="" fill="#FDE322" transform="translate(0,0)"/>
<path d="" fill="#FDE02A" transform="translate(0,0)"/>
<path d="" fill="#FDEB30" transform="translate(0,0)"/>
<path d="" fill="#FDEB27" transform="translate(0,0)"/>
<path d="" fill="#FEEA25" transform="translate(0,0)"/>
<path d="" fill="#FDE839" transform="translate(0,0)"/>
<path d="" fill="#FDEC3A" transform="translate(0,0)"/>
<path d="" fill="#FEE933" transform="translate(0,0)"/>
<path d="" fill="#FEE025" transform="translate(0,0)"/>
<path d="" fill="#FEE121" transform="translate(0,0)"/>
<path d="" fill="#FEE834" transform="translate(0,0)"/>
<path d="" fill="#FDE528" transform="translate(0,0)"/>
<path d="" fill="#FEE213" transform="translate(0,0)"/>
<path d="" fill="#FEE312" transform="translate(0,0)"/>
<path d="" fill="#FEE91E" transform="translate(0,0)"/>
<path d="" fill="#FDE328" transform="translate(0,0)"/>
<path d="" fill="#FDE623" transform="translate(0,0)"/>
<path d="" fill="#FDE81A" transform="translate(0,0)"/>
<path d="" fill="#FEEA1F" transform="translate(0,0)"/>
<path d="" fill="#FDE918" transform="translate(0,0)"/>
<path d="" fill="#FDEB31" transform="translate(0,0)"/>
<path d="" fill="#FDEB31" transform="translate(0,0)"/>
<path d="" fill="#FEEB2A" transform="translate(0,0)"/>
<path d="" fill="#FEDA11" transform="translate(0,0)"/>
<path d="" fill="#FEE719" transform="translate(0,0)"/>
<path d="" fill="#FDE515" transform="translate(0,0)"/>
<path d="" fill="#FEE92A" transform="translate(0,0)"/>
<path d="" fill="#FEE918" transform="translate(0,0)"/>
<path d="" fill="#FEE918" transform="translate(0,0)"/>
<path d="" fill="#FDEB2C" transform="translate(0,0)"/>
<path d="" fill="#FEEA22" transform="translate(0,0)"/>
<path d="" fill="#FEEB2A" transform="translate(0,0)"/>
<path d="" fill="#FDEB27" transform="translate(0,0)"/>
<path d="" fill="#FEEA1F" transform="translate(0,0)"/>
<path d="" fill="#FEEB2F" transform="translate(0,0)"/>
<path d="" fill="#FDE931" transform="translate(0,0)"/>
<path d="" fill="#FDEB32" transform="translate(0,0)"/>
<path d="" fill="#FEE717" transform="translate(0,0)"/>
<path d="" fill="#FDE614" transform="translate(0,0)"/>
<path d="" fill="#FDE91A" transform="translate(0,0)"/>
<path d="" fill="#FDE71C" transform="translate(0,0)"/>
<path d="" fill="#FDE816" transform="translate(0,0)"/>
<path d="" fill="#FDEA1E" transform="translate(0,0)"/>
<path d="" fill="#FDE918" transform="translate(0,0)"/>
<path d="" fill="#FDEB33" transform="translate(0,0)"/>
<path d="" fill="#FEEA23" transform="translate(0,0)"/>
<path d="" fill="#FDEB2E" transform="translate(0,0)"/>
<path d="" fill="#FDEB29" transform="translate(0,0)"/>
<path d="" fill="#FDEA1A" transform="translate(0,0)"/>
<path d="" fill="#FDEB2F" transform="translate(0,0)"/>
<path d="" fill="#FEE918" transform="translate(0,0)"/>
<path d="" fill="#FDEB2B" transform="translate(0,0)"/>
<path d="" fill="#FDE512" transform="translate(0,0)"/>
<path d="" fill="#FEE116" transform="translate(0,0)"/>
<path d="" fill="#FEEB31" transform="translate(0,0)"/>
<path d="" fill="#FEE917" transform="translate(0,0)"/>
<path d="" fill="#FEE818" transform="translate(0,0)"/>
<path d="" fill="#FEE214" transform="translate(0,0)"/>
<path d="" fill="#FDE511" transform="translate(0,0)"/>
<path d="" fill="#FEE814" transform="translate(0,0)"/>
<path d="" fill="#FEE818" transform="translate(0,0)"/>
<path d="" fill="#FDE413" transform="translate(0,0)"/>
<path d="" fill="#FEEA23" transform="translate(0,0)"/>
<path d="" fill="#FEE91E" transform="translate(0,0)"/>
<path d="" fill="#FEEB28" transform="translate(0,0)"/>
<path d="" fill="#FEE833" transform="translate(0,0)"/>
<path d="" fill="#FEE72C" transform="translate(0,0)"/>
<path d="" fill="#FDEA20" transform="translate(0,0)"/>
<path d="" fill="#FEE621" transform="translate(0,0)"/>
<path d="" fill="#FEE816" transform="translate(0,0)"/>
<path d="" fill="#FDE514" transform="translate(0,0)"/>
<path d="" fill="#FDDD25" transform="translate(0,0)"/>
<path d="" fill="#FDEB30" transform="translate(0,0)"/>
<path d="" fill="#FEEE4E" transform="translate(0,0)"/>
<path d="" fill="#FEEE4B" transform="translate(0,0)"/>
<path d="" fill="#FEED42" transform="translate(0,0)"/>
<path d="" fill="#FEEA22" transform="translate(0,0)"/>
<path d="" fill="#FEEB27" transform="translate(0,0)"/>
<path d="" fill="#FDE916" transform="translate(0,0)"/>
<path d="" fill="#FEE91A" transform="translate(0,0)"/>
<path d="" fill="#FDE500" transform="translate(0,0)"/>
<path d="" fill="#FEE704" transform="translate(0,0)"/>
<path d="" fill="#FEE808" transform="translate(0,0)"/>
<path d="" fill="#FEE911" transform="translate(0,0)"/>
<path d="" fill="#FEE700" transform="translate(0,0)"/>
<path d="" fill="#FEE400" transform="translate(0,0)"/>
<path d="" fill="#FDDF00" transform="translate(0,0)"/>
<path d="" fill="#FEE200" transform="translate(0,0)"/>
<path d="" fill="#FEED46" transform="translate(0,0)"/>
<path d="" fill="#FEEE4C" transform="translate(0,0)"/>
<path d="" fill="#FDEC38" transform="translate(0,0)"/>
<path d="" fill="#FEE80D" transform="translate(0,0)"/>
<path d="" fill="#FEEE4B" transform="translate(0,0)"/>
<path d="" fill="#FEEB23" transform="translate(0,0)"/>
<path d="" fill="#FDEC33" transform="translate(0,0)"/>
<path d="" fill="#FEEE4A" transform="translate(0,0)"/>
<path d="" fill="#FDE803" transform="translate(0,0)"/>
<path d="" fill="#FEE916" transform="translate(0,0)"/>
<path d="" fill="#FDEA1A" transform="translate(0,0)"/>
<path d="" fill="#FDE600" transform="translate(0,0)"/>
<path d="" fill="#FEEC39" transform="translate(0,0)"/>
<path d="" fill="#FEEB24" transform="translate(0,0)"/>
<path d="" fill="#FDEC35" transform="translate(0,0)"/>
<path d="" fill="#FEE400" transform="translate(0,0)"/>
<path d="" fill="#FEE910" transform="translate(0,0)"/>
<path d="" fill="#FEF16F" transform="translate(0,0)"/>
<path d="" fill="#FEED46" transform="translate(0,0)"/>
<path d="" fill="#FEE802" transform="translate(0,0)"/>
<path d="" fill="#FEEC3A" transform="translate(0,0)"/>
<path d="" fill="#FEEC37" transform="translate(0,0)"/>
<path d="" fill="#FEE915" transform="translate(0,0)"/>
<path d="" fill="#FEE600" transform="translate(0,0)"/>
<path d="" fill="#FEEC31" transform="translate(0,0)"/>
<path d="" fill="#FEE80D" transform="translate(0,0)"/>
<path d="" fill="#FEE700" transform="translate(0,0)"/>
<path d="" fill="#FEF063" transform="translate(0,0)"/>
<path d="" fill="#FDEA18" transform="translate(0,0)"/>
<path d="" fill="#FEEA21" transform="translate(0,0)"/>
<path d="" fill="#FEEA1D" transform="translate(0,0)"/>
<path d="" fill="#FEEA17" transform="translate(0,0)"/>
<path d="" fill="#FEEC34" transform="translate(0,0)"/>
<path d="" fill="#FEE300" transform="translate(0,0)"/>
<path d="" fill="#FEE809" transform="translate(0,0)"/>
<path d="" fill="#FEED40" transform="translate(0,0)"/>
<path d="" fill="#FEE80B" transform="translate(0,0)"/>
<path d="" fill="#FEEB2F" transform="translate(0,0)"/>
<path d="" fill="#FDEA20" transform="translate(0,0)"/>
<path d="" fill="#FEE911" transform="translate(0,0)"/>
<path d="" fill="#FEE701" transform="translate(0,0)"/>
<path d="" fill="#FEEC38" transform="translate(0,0)"/>
<path d="" fill="#FDEC3A" transform="translate(0,0)"/>
<path d="" fill="#FDE600" transform="translate(0,0)"/>
<path d="" fill="#FEEE47" transform="translate(0,0)"/>
<path d="" fill="#FDED42" transform="translate(0,0)"/>
<path d="" fill="#FDE500" transform="translate(0,0)"/>
<path d="" fill="#FDEA24" transform="translate(0,0)"/>
<path d="" fill="#FEEA1F" transform="translate(0,0)"/>
<path d="" fill="#FEF05E" transform="translate(0,0)"/>
<path d="" fill="#FEED3F" transform="translate(0,0)"/>
<path d="" fill="#FEF170" transform="translate(0,0)"/>
<path d="" fill="#FEEA1C" transform="translate(0,0)"/>
<path d="" fill="#FEEE4A" transform="translate(0,0)"/>
<path d="" fill="#FEEA22" transform="translate(0,0)"/>
<path d="" fill="#FEED40" transform="translate(0,0)"/>
<path d="" fill="#FEE90B" transform="translate(0,0)"/>
<path d="" fill="#FEE703" transform="translate(0,0)"/>
<path d="" fill="#FEED40" transform="translate(0,0)"/>
<path d="" fill="#FDE913" transform="translate(0,0)"/>
<path d="" fill="#FDE910" transform="translate(0,0)"/>
<path d="" fill="#FEEF5F" transform="translate(0,0)"/>
<path d="" fill="#FDE80B" transform="translate(0,0)"/>
<path d="" fill="#FEE912" transform="translate(0,0)"/>
<path d="" fill="#FEEF5A" transform="translate(0,0)"/>
<path d="" fill="#FEE80B" transform="translate(0,0)"/>
<path d="" fill="#FEEB2F" transform="translate(0,0)"/>
<path d="" fill="#FEEA1D" transform="translate(0,0)"/>
<path d="" fill="#FEE500" transform="translate(0,0)"/>
<path d="" fill="#FEE80B" transform="translate(0,0)"/>
<path d="" fill="#FEEB32" transform="translate(0,0)"/>
<path d="" fill="#FEEC3A" transform="translate(0,0)"/>
<path d="" fill="#FEEA1D" transform="translate(0,0)"/>
<path d="" fill="#FDEA22" transform="translate(0,0)"/>
<path d="" fill="#FEE910" transform="translate(0,0)"/>
<path d="" fill="#FEEC32" transform="translate(0,0)"/>
<path d="" fill="#FEE600" transform="translate(0,0)"/>
<path d="" fill="#FEEC3C" transform="translate(0,0)"/>
<path d="" fill="#FEEA1E" transform="translate(0,0)"/>
<path d="" fill="#FEE803" transform="translate(0,0)"/>
<path d="" fill="#FEEB2C" transform="translate(0,0)"/>
<path d="" fill="#FEE804" transform="translate(0,0)"/>
<path d="" fill="#FEEC33" transform="translate(0,0)"/>
<path d="" fill="#FEED3E" transform="translate(0,0)"/>
<path d="" fill="#FEEB25" transform="translate(0,0)"/>
<path d="" fill="#FEEA21" transform="translate(0,0)"/>
<path d="" fill="#FEE915" transform="translate(0,0)"/>
<path d="" fill="#FEEC37" transform="translate(0,0)"/>
<path d="" fill="#FEED43" transform="translate(0,0)"/>
<path d="" fill="#FEED42" transform="translate(0,0)"/>
<path d="" fill="#FEEC32" transform="translate(0,0)"/>
<path d="" fill="#FEF061" transform="translate(0,0)"/>
<path d="" fill="#FEEC3A" transform="translate(0,0)"/>
<path d="" fill="#FDEB2A" transform="translate(0,0)"/>
<path d="" fill="#FEEA23" transform="translate(0,0)"/>
<path d="" fill="#FDED46" transform="translate(0,0)"/>
<path d="" fill="#FEF16D" transform="translate(0,0)"/>
<path d="" fill="#FEEE50" transform="translate(0,0)"/>
<path d="" fill="#FDEC35" transform="translate(0,0)"/>
<path d="" fill="#FEEE4D" transform="translate(0,0)"/>
<path d="" fill="#FEED44" transform="translate(0,0)"/>
<path d="" fill="#FEED3F" transform="translate(0,0)"/>
<path d="" fill="#FDE500" transform="translate(0,0)"/>
<path d="" fill="#FEE913" transform="translate(0,0)"/>
<path d="" fill="#FEE700" transform="translate(0,0)"/>
<path d="" fill="#FDEB27" transform="translate(0,0)"/>
<path d="" fill="#FEEA21" transform="translate(0,0)"/>
<path d="" fill="#FEEB2D" transform="translate(0,0)"/>
<path d="" fill="#FEEB29" transform="translate(0,0)"/>
<path d="" fill="#FEEE52" transform="translate(0,0)"/>
<path d="" fill="#FEEC39" transform="translate(0,0)"/>
<path d="" fill="#FEE500" transform="translate(0,0)"/>
<path d="" fill="#FEE910" transform="translate(0,0)"/>
<path d="" fill="#FDE804" transform="translate(0,0)"/>
<path d="" fill="#FEE918" transform="translate(0,0)"/>
<path d="" fill="#FEE914" transform="translate(0,0)"/>
<path d="" fill="#FEEC3B" transform="translate(0,0)"/>
<path d="" fill="#FEEB27" transform="translate(0,0)"/>
<path d="" fill="#FEED43" transform="translate(0,0)"/>
<path d="" fill="#FEED3D" transform="translate(0,0)"/>
<path d="" fill="#FEEE4C" transform="translate(0,0)"/>
<path d="" fill="#FEE914" transform="translate(0,0)"/>
<path d="" fill="#FEE918" transform="translate(0,0)"/>
<path d="" fill="#FEE703" transform="translate(0,0)"/>
<path d="" fill="#FEEA21" transform="translate(0,0)"/>
<path d="" fill="#FEEA24" transform="translate(0,0)"/>
<path d="" fill="#FEEB2C" transform="translate(0,0)"/>
<path d="" fill="#FDEC35" transform="translate(0,0)"/>
<path d="" fill="#FEE600" transform="translate(0,0)"/>
<path d="" fill="#FEE700" transform="translate(0,0)"/>
<path d="" fill="#FEE808" transform="translate(0,0)"/>
<path d="" fill="#FEE500" transform="translate(0,0)"/>
<path d="" fill="#FEEA1E" transform="translate(0,0)"/>
<path d="" fill="#FEE915" transform="translate(0,0)"/>
<path d="" fill="#FEE915" transform="translate(0,0)"/>
<path d="" fill="#FDE80A" transform="translate(0,0)"/>
<path d="" fill="#FEEB27" transform="translate(0,0)"/>
<path d="" fill="#FEEB29" transform="translate(0,0)"/>
<path d="" fill="#FEE915" transform="translate(0,0)"/>
<path d="" fill="#FEEB2D" transform="translate(0,0)"/>
<path d="" fill="#FEEC3A" transform="translate(0,0)"/>
<path d="" fill="#FEEC39" transform="translate(0,0)"/>
<path d="" fill="#FEED3F" transform="translate(0,0)"/>
<path d="" fill="#FEE600" transform="translate(0,0)"/>
<path d="" fill="#FEE600" transform="translate(0,0)"/>
<path d="" fill="#FEE300" transform="translate(0,0)"/>
<path d="" fill="#FDE911" transform="translate(0,0)"/>
<path d="" fill="#FDE600" transform="translate(0,0)"/>
<path d="" fill="#FEEA18" transform="translate(0,0)"/>
<path d="" fill="#FEEC2F" transform="translate(0,0)"/>
<path d="" fill="#FEE300" transform="translate(0,0)"/>
<path d="" fill="#FEEA23" transform="translate(0,0)"/>
<path d="" fill="#FEE80B" transform="translate(0,0)"/>
<path d="" fill="#FDE700" transform="translate(0,0)"/>
<path d="" fill="#FEE808" transform="translate(0,0)"/>
<path d="" fill="#FEED40" transform="translate(0,0)"/>
<path d="" fill="#FEEB25" transform="translate(0,0)"/>
<path d="" fill="#FDEB30" transform="translate(0,0)"/>
<path d="" fill="#FDEB2A" transform="translate(0,0)"/>
<path d="" fill="#FEE100" transform="translate(0,0)"/>
<path d="" fill="#FEEE50" transform="translate(0,0)"/>
<path d="" fill="#FEE700" transform="translate(0,0)"/>
<path d="" fill="#FEE808" transform="translate(0,0)"/>
<path d="" fill="#FEE500" transform="translate(0,0)"/>
<path d="" fill="#FEEC36" transform="translate(0,0)"/>
<path d="" fill="#FDEB28" transform="translate(0,0)"/>
<path d="" fill="#FDE700" transform="translate(0,0)"/>
<path d="" fill="#FEE80B" transform="translate(0,0)"/>
<path d="" fill="#FEEC3B" transform="translate(0,0)"/>
<path d="" fill="#FEEA21" transform="translate(0,0)"/>
<path d="" fill="#FDE914" transform="translate(0,0)"/>
<path d="" fill="#FEEC37" transform="translate(0,0)"/>
<path d="" fill="#FEE700" transform="translate(0,0)"/>
<path d="" fill="#FEEC34" transform="translate(0,0)"/>
<path d="" fill="#FEEC30" transform="translate(0,0)"/>
<path d="" fill="#FDE918" transform="translate(0,0)"/>
<path d="" fill="#FEE804" transform="translate(0,0)"/>
<path d="" fill="#FEE000" transform="translate(0,0)"/>
<path d="" fill="#FEEA1D" transform="translate(0,0)"/>
<path d="" fill="#FDE600" transform="translate(0,0)"/>
<path d="" fill="#FEEB2A" transform="translate(0,0)"/>
<path d="" fill="#FEEA1C" transform="translate(0,0)"/>
<path d="" fill="#FDE918" transform="translate(0,0)"/>
<path d="" fill="#FEEC36" transform="translate(0,0)"/>
<path d="" fill="#FEE914" transform="translate(0,0)"/>
<path d="" fill="#FDE700" transform="translate(0,0)"/>
<path d="" fill="#FEE700" transform="translate(0,0)"/>
<path d="" fill="#FDEA22" transform="translate(0,0)"/>
<path d="" fill="#FDE700" transform="translate(0,0)"/>
<path d="" fill="#FEE90E" transform="translate(0,0)"/>
<path d="" fill="#FDE600" transform="translate(0,0)"/>
<path d="" fill="#FEEC35" transform="translate(0,0)"/>
<path d="" fill="#FEEC30" transform="translate(0,0)"/>
<path d="" fill="#FEEC3A" transform="translate(0,0)"/>
<path d="" fill="#FEEC31" transform="translate(0,0)"/>
<path d="" fill="#FEEB2B" transform="translate(0,0)"/>
<path d="" fill="#FEEC34" transform="translate(0,0)"/>
<path d="" fill="#FEE917" transform="translate(0,0)"/>
<path d="" fill="#FDEA20" transform="translate(0,0)"/>
<path d="" fill="#FEEC35" transform="translate(0,0)"/>
<path d="" fill="#FEE916" transform="translate(0,0)"/>
<path d="" fill="#FEE802" transform="translate(0,0)"/>
<path d="" fill="#FEE700" transform="translate(0,0)"/>
<path d="" fill="#FEEA19" transform="translate(0,0)"/>
<path d="" fill="#FEEA24" transform="translate(0,0)"/>
<path d="" fill="#FEE80B" transform="translate(0,0)"/>
<path d="" fill="#FEE804" transform="translate(0,0)"/>
<path d="" fill="#FEEA23" transform="translate(0,0)"/>
<path d="" fill="#FDE913" transform="translate(0,0)"/>
<path d="" fill="#FEE500" transform="translate(0,0)"/>
<path d="" fill="#FEE500" transform="translate(0,0)"/>
<path d="" fill="#FEE804" transform="translate(0,0)"/>
<path d="" fill="#FEEA19" transform="translate(0,0)"/>
</svg>
