<?xml version="1.0" encoding="UTF-8"?>
<svg version="1.1" xmlns="http://www.w3.org/2000/svg" width="530" height="213">
<path d="M0 0 C1.8748371 0.03232478 3.74988426 0.0625 5.625 0.0625 C9.625 0.0625 13.625 0.0625 17.625 0.0625 C19.51622022 0.06037074 21.40744029 0.05810233 23.29866028 0.05577087 C40.15110718 0.03559588 57.0035513 0.02046691 73.85600758 0.01068783 C82.51541952 0.00552876 91.17482239 -0.00150953 99.83422852 -0.01293945 C107.38786995 -0.0229049 114.94150482 -0.0293577 122.49515265 -0.03158849 C126.49319917 -0.03289204 130.49122686 -0.0359557 134.48926735 -0.04323006 C138.25093208 -0.05001943 142.01257022 -0.052111 145.77424049 -0.05060768 C147.15410507 -0.05088266 148.53397053 -0.05286998 149.9138298 -0.05670547 C151.79934291 -0.06168929 153.6848703 -0.05988672 155.57038879 -0.05775452 C156.62508771 -0.05867631 157.67978662 -0.0595981 158.76644611 -0.06054783 C161.49715232 0.05699673 163.96231666 0.47202061 166.625 1.0625 C168.02250628 1.13807987 169.42300125 1.17074016 170.82250977 1.16015625 C172.01645103 1.15520142 172.01645103 1.15520142 173.23451233 1.15014648 C174.08653732 1.14184814 174.93856232 1.1335498 175.81640625 1.125 C177.16628883 1.11932007 177.16628883 1.11932007 178.54344177 1.11352539 C182.36878305 1.09735277 186.19401437 1.06969483 190.01928711 1.04199219 C200.83880169 0.97047065 211.58627398 1.09017582 222.3894043 1.7091217 C230.0414189 2.12983617 237.65974281 2.10728194 245.32022095 2.02340698 C262.71192385 1.85144277 280.06013242 2.3125171 297.4375 3 C298.57542999 3.04365692 299.71335999 3.08731384 300.88577271 3.1322937 C304.11813466 3.25805959 307.3501 3.39099635 310.58203125 3.52734375 C311.55517273 3.56593506 312.52831421 3.60452637 313.53094482 3.64428711 C314.42412415 3.68424805 315.31730347 3.72420898 316.23754883 3.76538086 C317.01624832 3.79869003 317.79494781 3.83199921 318.59724426 3.86631775 C320.625 4.0625 320.625 4.0625 323.625 5.0625 C323.625 8.6925 323.625 12.3225 323.625 16.0625 C324.285 16.0625 324.945 16.0625 325.625 16.0625 C325.625 18.0425 325.625 20.0225 325.625 22.0625 C324.965 22.0625 324.305 22.0625 323.625 22.0625 C323.625 22.7225 323.625 23.3825 323.625 24.0625 C324.285 24.0625 324.945 24.0625 325.625 24.0625 C325.7937567 26.937391 325.96007115 29.81238896 326.125 32.6875 C326.17269531 33.49574219 326.22039063 34.30398437 326.26953125 35.13671875 C326.46727576 38.61137236 326.62519031 42.04142337 326.59375 45.5234375 C326.44032158 48.05662002 326.44032158 48.05662002 327.625 50.0625 C327.70808638 51.43798156 327.73236016 52.81735796 327.72265625 54.1953125 C327.71943359 55.00097656 327.71621094 55.80664062 327.71289062 56.63671875 C327.70451172 57.47847656 327.69613281 58.32023437 327.6875 59.1875 C327.68298828 60.03699219 327.67847656 60.88648438 327.67382812 61.76171875 C327.66202874 63.86200909 327.64409306 65.9622633 327.625 68.0625 C328.285 68.0625 328.945 68.0625 329.625 68.0625 C329.60759766 69.77759766 329.60759766 69.77759766 329.58984375 71.52734375 C329.58046712 73.01822754 329.57136679 74.50911309 329.5625 76 C329.55412109 76.75474609 329.54574219 77.50949219 329.53710938 78.28710938 C329.52847559 80.21244313 329.57275667 82.13785581 329.625 84.0625 C329.955 84.3925 330.285 84.7225 330.625 85.0625 C330.77134381 86.84672528 330.85245472 88.63637285 330.90625 90.42578125 C330.94363281 91.54146484 330.98101563 92.65714844 331.01953125 93.80664062 C331.07173828 95.57297852 331.07173828 95.57297852 331.125 97.375 C331.3610215 105.07192332 331.73074301 112.71111789 332.41552734 120.3815918 C332.6885468 123.8757953 332.72254691 127.30780874 332.6875 130.8125 C332.67847656 132.00359375 332.66945313 133.1946875 332.66015625 134.421875 C332.64275391 135.72898438 332.64275391 135.72898438 332.625 137.0625 C333.285 137.0625 333.945 137.0625 334.625 137.0625 C334.955 143.3325 335.285 149.6025 335.625 156.0625 C334.965 156.0625 334.305 156.0625 333.625 156.0625 C333.625 156.7225 333.625 157.3825 333.625 158.0625 C334.285 158.0625 334.945 158.0625 335.625 158.0625 C335.60759766 158.96742188 335.60759766 158.96742188 335.58984375 159.890625 C335.58082031 160.68984375 335.57179688 161.4890625 335.5625 162.3125 C335.54509766 163.49585938 335.54509766 163.49585938 335.52734375 164.703125 C335.62167197 166.98209474 336.06825027 168.8618042 336.625 171.0625 C336.66915392 172.43679088 336.66441033 173.81306491 336.625 175.1875 C336.52897017 183.15797569 337.13992024 191.11065671 337.625 199.0625 C336.965 199.0625 336.305 199.0625 335.625 199.0625 C336.285 200.0525 336.945 201.0425 337.625 202.0625 C338.0390625 204.76171875 338.0390625 204.76171875 338.25 207.75 C338.32476563 208.74386719 338.39953125 209.73773438 338.4765625 210.76171875 C338.52554688 211.52097656 338.57453125 212.28023437 338.625 213.0625 C258.35679976 213.0625 178.08859952 213.0625 82.625 213.0625 C82.625 212.4025 82.625 211.7425 82.625 211.0625 C81.635 211.0625 80.645 211.0625 79.625 211.0625 C79.625 211.7225 79.625 212.3825 79.625 213.0625 C77.975 213.0625 76.325 213.0625 74.625 213.0625 C74.625 212.4025 74.625 211.7425 74.625 211.0625 C73.14 212.0525 73.14 212.0525 71.625 213.0625 C69.5402832 213.28955078 69.5402832 213.28955078 67.17578125 213.2578125 C66.32822266 213.25136719 65.48066406 213.24492187 64.60742188 213.23828125 C63.72634766 213.22152344 62.84527344 213.20476562 61.9375 213.1875 C61.04482422 213.17847656 60.15214844 213.16945312 59.23242188 213.16015625 C57.02967686 213.13659748 54.82747412 213.10370329 52.625 213.0625 C52.625 212.4025 52.625 211.7425 52.625 211.0625 C51.305 211.0625 49.985 211.0625 48.625 211.0625 C48.625 211.7225 48.625 212.3825 48.625 213.0625 C10.95833333 213.0625 -26.70833333 213.0625 -64.375 213.0625 C-64.375 212.4025 -64.375 211.7425 -64.375 211.0625 C-65.08984055 211.38781708 -65.80468109 211.71313416 -66.54118347 212.04830933 C-69.49201663 213.10437892 -71.59847156 213.30472155 -74.71606445 213.28955078 C-76.27711662 213.28932419 -76.27711662 213.28932419 -77.8697052 213.28909302 C-79.53715034 213.27360916 -79.53715034 213.27360916 -81.23828125 213.2578125 C-82.38540085 213.2549826 -83.53252045 213.25215271 -84.71440125 213.24923706 C-88.37220768 213.23805697 -92.02976778 213.21295595 -95.6875 213.1875 C-98.16991833 213.17746741 -100.65234051 213.16834205 -103.13476562 213.16015625 C-109.21492756 213.13812471 -115.29494618 213.10466848 -121.375 213.0625 C-121.375 212.4025 -121.375 211.7425 -121.375 211.0625 C-122.035 211.0625 -122.695 211.0625 -123.375 211.0625 C-123.375 211.7225 -123.375 212.3825 -123.375 213.0625 C-145.815 213.0625 -168.255 213.0625 -191.375 213.0625 C-190.22032002 185.35018049 -190.22032002 185.35018049 -189.65625 175.9921875 C-189.59344849 174.93057404 -189.53064697 173.86896057 -189.46594238 172.775177 C-189.33597118 170.5897989 -189.20492473 168.40448445 -189.07275391 166.21923828 C-188.87134542 162.87685206 -188.67578947 159.53415318 -188.48046875 156.19140625 C-188.35191019 154.04164585 -188.22301706 151.89190542 -188.09375 149.7421875 C-188.036427 148.75475555 -187.979104 147.76732361 -187.92004395 146.74996948 C-187.63529078 142.11878964 -187.20724749 137.63391342 -186.375 133.0625 C-186.31039781 130.93838004 -186.28888921 128.81247095 -186.3125 126.6875 C-186.32152344 125.62789063 -186.33054688 124.56828125 -186.33984375 123.4765625 C-186.35144531 122.67992188 -186.36304688 121.88328125 -186.375 121.0625 C-185.715 121.0625 -185.055 121.0625 -184.375 121.0625 C-184.38587646 120.12212891 -184.39675293 119.18175781 -184.40795898 118.21289062 C-184.47082664 108.41751183 -184.15077591 98.6917165 -183.57543945 88.9140625 C-183.43598901 86.53674104 -183.30444292 84.15907174 -183.17382812 81.78125 C-183.08639555 80.23955729 -182.99852119 78.69788955 -182.91015625 77.15625 C-182.87156998 76.4602771 -182.8329837 75.7643042 -182.79322815 75.04724121 C-182.01450517 62.02175776 -182.01450517 62.02175776 -179.375 58.0625 C-180.035 58.0625 -180.695 58.0625 -181.375 58.0625 C-181.41754356 56.06295254 -181.41580783 54.06208364 -181.375 52.0625 C-180.88 51.5675 -180.88 51.5675 -180.375 51.0625 C-180.32622169 48.72114119 -180.33362654 46.40270322 -180.375 44.0625 C-180.42974209 37.98335604 -180.29388599 31.94420017 -179.9375 25.875 C-179.89818359 25.16923828 -179.85886719 24.46347656 -179.81835938 23.73632812 C-179.590398 20.0924532 -179.10391807 16.63358599 -178.375 13.0625 C-178.33482704 11.64640305 -178.33176315 10.22850672 -178.375 8.8125 C-178.375 5.0625 -178.375 5.0625 -177.375 4.0625 C-175.52347826 3.90909048 -173.66626773 3.82399202 -171.80932617 3.76538086 C-170.60852417 3.72541992 -169.40772217 3.68545898 -168.17053223 3.64428711 C-166.83635123 3.60507294 -165.50216315 3.56609907 -164.16796875 3.52734375 C-162.78632799 3.48415046 -161.40469562 3.44068825 -160.02307129 3.39697266 C-156.30647822 3.28120297 -152.58970438 3.17280253 -148.87282944 3.06650925 C-146.56976424 3.00020912 -144.26676674 2.93188964 -141.96377563 2.86306763 C-121.25785885 2.24794588 -100.57109132 1.84483119 -79.85424805 2.04858398 C-73.02874611 2.11015494 -66.28983197 2.13087707 -59.48046875 1.56640625 C-50.32825323 0.80830912 -41.17553362 0.99198355 -32 1.0625 C-28.47135697 1.08929498 -24.9427698 1.1091556 -21.4140625 1.125 C-20.62432037 1.13329834 -19.83457825 1.14159668 -19.02090454 1.15014648 C-12.62786378 1.17811545 -6.3591567 -0.11680084 0 0 Z M124.625 1.0625 C124.955 2.0525 125.285 3.0425 125.625 4.0625 C125.625 3.0725 125.625 2.0825 125.625 1.0625 C125.295 1.0625 124.965 1.0625 124.625 1.0625 Z M245.625 3.0625 C245.625 3.7225 245.625 4.3825 245.625 5.0625 C246.285 5.0625 246.945 5.0625 247.625 5.0625 C247.625 4.4025 247.625 3.7425 247.625 3.0625 C246.965 3.0625 246.305 3.0625 245.625 3.0625 Z M-25.375 10.0625 C-27.27030374 10.13889899 -29.1684524 10.14540746 -31.06518555 10.125 C-32.28615433 10.11654053 -33.50712311 10.10808105 -34.76509094 10.09936523 C-35.42442438 10.09315155 -36.08375782 10.08693787 -36.76307106 10.08053589 C-48.91970634 9.97416034 -61.05647944 10.11140924 -73.20703125 10.5 C-73.90378841 10.52206512 -74.60054558 10.54413025 -75.3184166 10.56686401 C-79.56229676 10.70242579 -83.80593064 10.84467592 -88.04949951 10.98962402 C-94.45596087 11.20799494 -100.86266402 11.41890321 -107.26953125 11.625 C-107.94720613 11.64695875 -108.62488102 11.6689175 -109.32309151 11.69154167 C-118.42725986 11.98336887 -127.51247182 12.13095444 -136.62036133 12.07080078 C-142.52405529 12.05774885 -148.41432197 12.26322473 -154.3125 12.5 C-155.44623047 12.53931641 -156.57996094 12.57863281 -157.74804688 12.61914062 C-158.83021484 12.66103516 -159.91238281 12.70292969 -161.02734375 12.74609375 C-161.98632568 12.78275146 -162.94530762 12.81940918 -163.93334961 12.85717773 C-166.51277122 12.97752381 -166.51277122 12.97752381 -169.375 14.0625 C-171.23713274 21.76678852 -171.74989253 29.21860506 -171.9375 37.125 C-172.00888555 39.52999385 -172.0817994 41.93494283 -172.15625 44.33984375 C-172.19105469 45.49597168 -172.22585937 46.65209961 -172.26171875 47.84326172 C-172.40674453 51.96461947 -172.65610655 56.07360708 -172.9375 60.1875 C-173.46808012 68.4861047 -173.46861129 76.75189811 -173.375 85.0625 C-174.035 85.0625 -174.695 85.0625 -175.375 85.0625 C-175.375 91.0025 -175.375 96.9425 -175.375 103.0625 C-176.035 103.0625 -176.695 103.0625 -177.375 103.0625 C-178.03179654 114.03343086 -178.68407359 125.00462053 -179.33075714 135.97615242 C-179.63125284 141.07196185 -179.9332402 146.16767329 -180.23876953 151.26318359 C-180.53417264 156.19076782 -180.82548376 161.11857919 -181.11408997 166.04656601 C-181.22428501 167.91627322 -181.33589546 169.78589762 -181.44902039 171.65542984 C-182.0825259 182.14165912 -182.54674403 192.55271976 -182.375 203.0625 C-158.70731431 204.01150526 -135.07418425 204.14544976 -111.38842773 204.02539062 C-110.21179062 204.02116089 -109.0351535 204.01693115 -107.82286072 204.01257324 C-105.58802783 204.00434898 -103.35320548 203.99190684 -101.11842346 203.97473145 C-99.62991127 203.96983704 -99.62991127 203.96983704 -98.11132812 203.96484375 C-97.24125122 203.95960693 -96.37117432 203.95437012 -95.47473145 203.94897461 C-93.375 204.0625 -93.375 204.0625 -91.375 205.0625 C-91.375 204.4025 -91.375 203.7425 -91.375 203.0625 C-90.385 203.0625 -89.395 203.0625 -88.375 203.0625 C-88.375 203.7225 -88.375 204.3825 -88.375 205.0625 C-87.715 205.0625 -87.055 205.0625 -86.375 205.0625 C-86.375 204.4025 -86.375 203.7425 -86.375 203.0625 C-85.63121094 203.09213837 -84.88742188 203.12177673 -84.12109375 203.15231323 C-50.97311702 204.40007088 -17.80466972 204.2159307 15.36077213 204.19106841 C21.88131088 204.18670179 28.40183049 204.18984958 34.92236805 204.1946975 C41.27982983 204.19923234 47.63728333 204.1998796 53.99474621 204.19725883 C57.76311383 204.1957077 61.53146844 204.19547171 65.29983521 204.19879532 C69.46422993 204.20221682 73.62857637 204.19747868 77.79296875 204.19189453 C79.0259671 204.19391876 80.25896545 204.19594299 81.52932739 204.19802856 C83.22640335 204.19379883 83.22640335 204.19379883 84.95776367 204.18948364 C85.93750656 204.18910662 86.91724945 204.18872959 87.92668152 204.18834114 C90.58943965 204.06415842 93.03034064 203.65749421 95.625 203.0625 C95.955 203.7225 96.285 204.3825 96.625 205.0625 C96.625 204.4025 96.625 203.7425 96.625 203.0625 C97.56316307 203.08462303 97.56316307 203.08462303 98.52027893 203.10719299 C105.15762463 203.26218394 111.79514914 203.40629265 118.43286133 203.54467773 C120.89483396 203.59734624 123.35675306 203.65259415 125.81860352 203.71069336 C141.80372408 204.0857778 157.66061834 204.0120603 173.625 203.0625 C173.295 204.0525 172.965 205.0425 172.625 206.0625 C173.945 205.7325 175.265 205.4025 176.625 205.0625 C175.965 205.0625 175.305 205.0625 174.625 205.0625 C174.625 204.4025 174.625 203.7425 174.625 203.0625 C186.505 203.0625 198.385 203.0625 210.625 203.0625 C210.955 203.7225 211.285 204.3825 211.625 205.0625 C211.625 204.4025 211.625 203.7425 211.625 203.0625 C212.58535156 203.1346875 213.54570312 203.206875 214.53515625 203.28125 C223.38036582 203.89777087 232.19526861 204.17081267 241.0625 204.1875 C242.58145874 204.19426758 242.58145874 204.19426758 244.13110352 204.20117188 C245.54927368 204.19827148 245.54927368 204.19827148 246.99609375 204.1953125 C247.84099365 204.19418457 248.68589355 204.19305664 249.55639648 204.19189453 C251.68797914 204.1937198 251.68797914 204.1937198 253.625 203.0625 C253.625 203.7225 253.625 204.3825 253.625 205.0625 C254.285 205.0625 254.945 205.0625 255.625 205.0625 C255.625 204.4025 255.625 203.7425 255.625 203.0625 C258.265 203.0625 260.905 203.0625 263.625 203.0625 C263.955 203.7225 264.285 204.3825 264.625 205.0625 C265.615 204.7325 266.605 204.4025 267.625 204.0625 C269.60305391 203.99294817 271.58334616 203.97798222 273.5625 204 C274.60277344 204.00902344 275.64304687 204.01804688 276.71484375 204.02734375 C278.15537109 204.04474609 278.15537109 204.04474609 279.625 204.0625 C280.945 204.0625 282.265 204.0625 283.625 204.0625 C285.70681829 204.07088714 287.78863641 204.07932188 289.87045288 204.08815002 C293.33354973 204.10150277 296.7966523 204.10964026 300.25976562 204.11743164 C302.08301367 204.12246734 303.90625767 204.12929621 305.72949219 204.13793945 C308.36915061 204.15011148 311.00875607 204.15575004 313.6484375 204.16015625 C314.45799896 204.16531754 315.26756042 204.17047882 316.10165405 204.17579651 C320.39202992 204.17621876 324.39887826 203.91830023 328.625 203.0625 C328.65222517 200.85423622 328.67149729 198.64587362 328.6875 196.4375 C328.70490234 194.59285156 328.70490234 194.59285156 328.72265625 192.7109375 C328.63363924 189.38526209 328.26186087 186.32202412 327.625 183.0625 C328.615 182.7325 329.605 182.4025 330.625 182.0625 C329.635 182.0625 328.645 182.0625 327.625 182.0625 C327.63023682 181.29059326 327.63547363 180.51868652 327.64086914 179.72338867 C327.66163242 176.23226737 327.67465811 172.74115905 327.6875 169.25 C327.69587891 168.03505859 327.70425781 166.82011719 327.71289062 165.56835938 C327.71772461 163.82329102 327.71772461 163.82329102 327.72265625 162.04296875 C327.72789307 160.96942139 327.73312988 159.89587402 327.73852539 158.78979492 C327.74694588 155.96750635 327.74694588 155.96750635 326.625 153.0625 C325.635 153.0625 324.645 153.0625 323.625 153.0625 C323.63023682 152.43496826 323.63547363 151.80743652 323.64086914 151.16088867 C323.80516387 128.32808071 322.37847077 105.82188692 320.625 83.0625 C319.965 83.0625 319.305 83.0625 318.625 83.0625 C318.65980469 81.70511719 318.65980469 81.70511719 318.6953125 80.3203125 C318.96108241 63.87164654 317.68718449 47.46703545 316.625 31.0625 C315.965 31.0625 315.305 31.0625 314.625 31.0625 C314.625 24.7925 314.625 18.5225 314.625 12.0625 C313.305 12.3925 311.985 12.7225 310.625 13.0625 C310.295 12.4025 309.965 11.7425 309.625 11.0625 C309.625 11.7225 309.625 12.3825 309.625 13.0625 C309.04128632 13.03966446 308.45757263 13.01682892 307.85617065 12.99330139 C274.14523754 11.68377861 240.45777869 10.78635343 206.72384071 10.42790985 C203.86162193 10.39713679 200.99943279 10.36394708 198.13724136 10.33073807 C196.22359501 10.30984103 194.30990173 10.29337544 192.39620972 10.27719116 C186.92981745 10.21597324 181.47919933 10.12127757 176.02047729 9.82891846 C156.8781243 8.81227878 137.73805153 8.91534958 118.57477617 8.9281745 C113.53848754 8.93073735 108.50220058 8.92835057 103.46591187 8.92678833 C95.0392829 8.92498164 86.61266277 8.92733709 78.18603516 8.93212891 C68.43861717 8.93760767 58.69121999 8.9357769 48.94380248 8.9303025 C40.54508937 8.92577469 32.14638255 8.92511801 23.74766862 8.92774117 C18.7429046 8.92930079 13.73815039 8.92950549 8.73338699 8.92620468 C4.04972216 8.92332951 -0.63391549 8.92529499 -5.31757736 8.93109894 C-7.03938756 8.93242678 -8.76120003 8.93203201 -10.48300934 8.92983627 C-12.82206821 8.92712672 -15.16103842 8.93050298 -17.50009155 8.93551636 C-19.4670955 8.9360819 -19.4670955 8.9360819 -21.4738369 8.93665886 C-24.26825399 8.7304874 -24.26825399 8.7304874 -25.375 10.0625 Z M316.625 17.0625 C317.625 19.0625 317.625 19.0625 317.625 19.0625 Z M322.625 20.0625 C323.625 22.0625 323.625 22.0625 323.625 22.0625 Z M330.625 134.0625 C331.625 136.0625 331.625 136.0625 331.625 136.0625 Z M333.625 183.0625 C333.625 183.7225 333.625 184.3825 333.625 185.0625 C334.285 185.0625 334.945 185.0625 335.625 185.0625 C335.625 184.4025 335.625 183.7425 335.625 183.0625 C334.965 183.0625 334.305 183.0625 333.625 183.0625 Z M-84.375 204.0625 C-83.715 204.7225 -83.055 205.3825 -82.375 206.0625 C-82.375 205.4025 -82.375 204.7425 -82.375 204.0625 C-83.035 204.0625 -83.695 204.0625 -84.375 204.0625 Z M228.625 204.0625 C228.625 204.7225 228.625 205.3825 228.625 206.0625 C229.285 206.0625 229.945 206.0625 230.625 206.0625 C230.625 205.4025 230.625 204.7425 230.625 204.0625 C229.965 204.0625 229.305 204.0625 228.625 204.0625 Z " fill="#F10000" transform="translate(191.375,-0.0625)"/>
<path d="M0 0 C1.02996094 -0.00128906 2.05992187 -0.00257812 3.12109375 -0.00390625 C4.74724609 0.00189453 4.74724609 0.00189453 6.40625 0.0078125 C7.49035156 0.00394531 8.57445312 0.00007813 9.69140625 -0.00390625 C10.72136719 -0.00261719 11.75132812 -0.00132813 12.8125 0 C14.24045898 0.00169189 14.24045898 0.00169189 15.69726562 0.00341797 C17.90625 0.1328125 17.90625 0.1328125 18.90625 1.1328125 C19.00054342 3.31086969 19.02367538 5.4920253 19.01977539 7.67211914 C19.01992142 8.35501511 19.02006744 9.03791107 19.0202179 9.74150085 C19.01951876 12.00868864 19.0117264 14.27579524 19.00390625 16.54296875 C19.00204207 18.11095637 19.00061817 19.67894457 18.99961853 21.24693298 C18.99579334 25.38157753 18.98596306 29.51618716 18.97491455 33.65081787 C18.96470044 37.86681648 18.96012091 42.08282072 18.95507812 46.29882812 C18.94434078 54.57684076 18.92674399 62.85481827 18.90625 71.1328125 C13.29625 71.1328125 7.68625 71.1328125 1.90625 71.1328125 C1.90625 63.5428125 1.90625 55.9528125 1.90625 48.1328125 C2.56625 48.4628125 3.22625 48.7928125 3.90625 49.1328125 C3.90625 49.7928125 3.90625 50.4528125 3.90625 51.1328125 C4.56625 50.8028125 5.22625 50.4728125 5.90625 50.1328125 C5.90625 49.1428125 5.90625 48.1528125 5.90625 47.1328125 C7.88625 47.6278125 7.88625 47.6278125 9.90625 48.1328125 C8.91625 46.1528125 8.91625 46.1528125 7.90625 44.1328125 C7.41125 45.1228125 7.41125 45.1228125 6.90625 46.1328125 C5.25625 46.1328125 3.60625 46.1328125 1.90625 46.1328125 C1.57625 39.5328125 1.24625 32.9328125 0.90625 26.1328125 C0.24625 27.7828125 -0.41375 29.4328125 -1.09375 31.1328125 C-1.42375 31.1328125 -1.75375 31.1328125 -2.09375 31.1328125 C-3.08375 35.0928125 -4.07375 39.0528125 -5.09375 43.1328125 C-6.08375 43.1328125 -7.07375 43.1328125 -8.09375 43.1328125 C-7.43375 43.7928125 -6.77375 44.4528125 -6.09375 45.1328125 C-6.5224471 48.67711106 -7.61136027 52.03806339 -8.65625 55.4453125 C-8.92566406 56.32832031 -9.19507813 57.21132812 -9.47265625 58.12109375 C-9.67761719 58.78496094 -9.88257813 59.44882813 -10.09375 60.1328125 C-10.75375 60.1328125 -11.41375 60.1328125 -12.09375 60.1328125 C-12.29291016 61.07253906 -12.29291016 61.07253906 -12.49609375 62.03125 C-12.67269531 62.84851563 -12.84929687 63.66578125 -13.03125 64.5078125 C-13.20527344 65.31992188 -13.37929687 66.13203125 -13.55859375 66.96875 C-14.09375 69.1328125 -14.09375 69.1328125 -15.09375 71.1328125 C-18.71513266 72.15554757 -22.16109756 72.24043482 -25.90625 72.1953125 C-27.36998047 72.18177734 -27.36998047 72.18177734 -28.86328125 72.16796875 C-29.59933594 72.15636719 -30.33539063 72.14476562 -31.09375 72.1328125 C-31.25651042 70.1796875 -31.41927083 68.2265625 -31.58203125 66.2734375 C-32.20871461 63.65189184 -33.47364711 62.27294841 -35.09375 60.1328125 C-35.82983315 58.26283655 -36.49218603 56.36279764 -37.09375 54.4453125 C-37.60228516 52.85396484 -37.60228516 52.85396484 -38.12109375 51.23046875 C-38.60255859 49.69712891 -38.60255859 49.69712891 -39.09375 48.1328125 C-42.21539454 37.72239553 -42.21539454 37.72239553 -47.09375 28.1328125 C-48.38186102 40.11684543 -48.19401305 52.09661879 -48.09375 64.1328125 C-51.06375 65.1228125 -51.06375 65.1228125 -54.09375 66.1328125 C-52.11375 66.4628125 -50.13375 66.7928125 -48.09375 67.1328125 C-48.42375 68.7828125 -48.75375 70.4328125 -49.09375 72.1328125 C-50.3003125 71.854375 -50.3003125 71.854375 -51.53125 71.5703125 C-52.376875 71.4259375 -53.2225 71.2815625 -54.09375 71.1328125 C-54.58875 71.6278125 -54.58875 71.6278125 -55.09375 72.1328125 C-56.75992115 72.17345082 -58.42763095 72.1755335 -60.09375 72.1328125 C-59.76375 71.1428125 -59.43375 70.1528125 -59.09375 69.1328125 C-60.08375 68.4728125 -61.07375 67.8128125 -62.09375 67.1328125 C-61.10375 66.1428125 -61.10375 66.1428125 -60.09375 65.1328125 C-59.69610737 63.14459937 -59.35599651 61.14336911 -59.09375 59.1328125 C-60.41375 58.8028125 -61.73375 58.4728125 -63.09375 58.1328125 C-63.09375 57.1428125 -63.09375 56.1528125 -63.09375 55.1328125 C-62.10375 55.1328125 -61.11375 55.1328125 -60.09375 55.1328125 C-60.09375 54.4728125 -60.09375 53.8128125 -60.09375 53.1328125 C-60.75375 53.1328125 -61.41375 53.1328125 -62.09375 53.1328125 C-63.26946451 49.45870465 -63.16741746 45.96352067 -63.09375 42.1328125 C-62.10375 42.1328125 -61.11375 42.1328125 -60.09375 42.1328125 C-60.09375 41.4728125 -60.09375 40.8128125 -60.09375 40.1328125 C-60.75375 40.1328125 -61.41375 40.1328125 -62.09375 40.1328125 C-63.24511362 31.94634519 -63.20789983 23.81771896 -63.15625 15.5703125 C-63.15122366 14.16601723 -63.14666276 12.7617202 -63.14257812 11.35742188 C-63.13086602 7.94920001 -63.11293305 4.5410005 -63.09375 1.1328125 C-54.84375 1.1328125 -46.59375 1.1328125 -38.09375 1.1328125 C-37.43375 4.1028125 -36.77375 7.0728125 -36.09375 10.1328125 C-35.10375 11.6178125 -35.10375 11.6178125 -34.09375 13.1328125 C-32.89287909 15.83477205 -32.00230367 18.46593841 -31.21875 21.3203125 C-30.33948564 24.30004171 -29.35661897 26.97228878 -28.15625 29.8203125 C-25.84261434 35.44409355 -24.4363738 41.21306209 -23.09375 47.1328125 C-22.43375 47.1328125 -21.77375 47.1328125 -21.09375 47.1328125 C-21.09375 46.4728125 -21.09375 45.8128125 -21.09375 45.1328125 C-20.43375 44.8028125 -19.77375 44.4728125 -19.09375 44.1328125 C-19.42375 43.1428125 -19.75375 42.1528125 -20.09375 41.1328125 C-19.43375 41.1328125 -18.77375 41.1328125 -18.09375 41.1328125 C-18.3 40.5759375 -18.50625 40.0190625 -18.71875 39.4453125 C-19.20070211 36.4732745 -18.35940028 34.81301309 -17.09375 32.1328125 C-16.43375 32.1328125 -15.77375 32.1328125 -15.09375 32.1328125 C-15.279375 31.5346875 -15.465 30.9365625 -15.65625 30.3203125 C-16.09375 28.1328125 -16.09375 28.1328125 -15.09375 25.1328125 C-14.10375 25.1328125 -13.11375 25.1328125 -12.09375 25.1328125 C-12.09375 24.4728125 -12.09375 23.8128125 -12.09375 23.1328125 C-10.77375 22.8028125 -9.45375 22.4728125 -8.09375 22.1328125 C-10.56875 21.1428125 -10.56875 21.1428125 -13.09375 20.1328125 C-12.660625 19.19308594 -12.660625 19.19308594 -12.21875 18.234375 C-11.8475 17.41710937 -11.47625 16.59984375 -11.09375 15.7578125 C-10.7225 14.94570312 -10.35125 14.13359375 -9.96875 13.296875 C-8.96879987 11.21282817 -8.96879987 11.21282817 -9.09375 9.1328125 C-8.43375 9.1328125 -7.77375 9.1328125 -7.09375 9.1328125 C-6.949375 7.8334375 -6.805 6.5340625 -6.65625 5.1953125 C-6.07598571 -0.0270661 -5.20464496 0.00616664 0 0 Z M-55.09375 9.1328125 C-55.42375 9.7928125 -55.75375 10.4528125 -56.09375 11.1328125 C-55.10375 11.4628125 -54.11375 11.7928125 -53.09375 12.1328125 C-53.42375 11.1428125 -53.75375 10.1528125 -54.09375 9.1328125 C-54.42375 9.1328125 -54.75375 9.1328125 -55.09375 9.1328125 Z M4.90625 17.1328125 C4.24625 17.7928125 3.58625 18.4528125 2.90625 19.1328125 C4.55625 19.1328125 6.20625 19.1328125 7.90625 19.1328125 C7.57625 18.4728125 7.24625 17.8128125 6.90625 17.1328125 C6.24625 17.1328125 5.58625 17.1328125 4.90625 17.1328125 Z M-33.09375 25.1328125 C-32.09375 27.1328125 -32.09375 27.1328125 -32.09375 27.1328125 Z M-37.09375 31.1328125 C-36.09375 33.1328125 -36.09375 33.1328125 -36.09375 33.1328125 Z M-31.09375 55.1328125 C-30.09375 57.1328125 -30.09375 57.1328125 -30.09375 57.1328125 Z M-33.09375 58.1328125 C-33.09375 58.7928125 -33.09375 59.4528125 -33.09375 60.1328125 C-32.10375 59.8028125 -31.11375 59.4728125 -30.09375 59.1328125 C-31.08375 58.8028125 -32.07375 58.4728125 -33.09375 58.1328125 Z M-27.09375 64.1328125 C-26.43375 64.7928125 -25.77375 65.4528125 -25.09375 66.1328125 C-25.09375 65.4728125 -25.09375 64.8128125 -25.09375 64.1328125 C-25.75375 64.1328125 -26.41375 64.1328125 -27.09375 64.1328125 Z M11.90625 65.1328125 C12.90625 67.1328125 12.90625 67.1328125 12.90625 67.1328125 Z " fill="#F10000" transform="translate(219.09375,110.8671875)"/>
<path d="M0 0 C3.07369116 -0.14935658 6.14644648 -0.24004774 9.22265625 -0.3203125 C10.09168579 -0.36325439 10.96071533 -0.40619629 11.8560791 -0.45043945 C18.33839574 -0.57745259 18.33839574 -0.57745259 21.7409668 2.39233398 C23.47705477 5.18871227 24.77145517 7.94967466 26 11 C27.74809127 13.95140066 29.58997437 16.60239939 32.0625 19 C34.41357729 21.4269185 35.54538994 23.96429205 37 27 C37.556875 27.721875 38.11375 28.44375 38.6875 29.1875 C40 31 40 31 40 34 C40.66 34 41.32 34 42 34 C42.67154933 35.28913487 43.33708859 36.58140204 44 37.875 C44.37125 38.59429687 44.7425 39.31359375 45.125 40.0546875 C46 42 46 42 46 44 C46.99 43.67 47.98 43.34 49 43 C49.33 42.01 49.66 41.02 50 40 C50.99 40 51.98 40 53 40 C53.144375 39.21625 53.28875 38.4325 53.4375 37.625 C54 35 54 35 55 33 C54.34 33 53.68 33 53 33 C52.67 34.32 52.34 35.64 52 37 C51.01 36.67 50.02 36.34 49 36 C48.97531553 31.19450253 48.95714745 26.38904182 48.94506836 21.58349609 C48.94003379 19.94807289 48.93320573 18.3126542 48.92456055 16.67724609 C48.91245665 14.32909025 48.906763 11.98099381 48.90234375 9.6328125 C48.89718246 8.89942657 48.89202118 8.16604065 48.88670349 7.41043091 C48.88612829 2.22774341 48.88612829 2.22774341 50 0 C54.95 0 59.9 0 65 0 C65 23.43 65 46.86 65 71 C59.39 71 53.78 71 48 71 C44.88365565 67.88365565 42.98720024 65.77568045 41 62 C41 61.34 41 60.68 41 60 C40.34 60 39.68 60 39 60 C37.99491199 58.21118264 36.99607264 56.41885304 36 54.625 C35.443125 53.62726563 34.88625 52.62953125 34.3125 51.6015625 C33 49 33 49 33 47 C31.68 46.34 30.36 45.68 29 45 C29 44.34 29 43.68 29 43 C28.34 43 27.68 43 27 43 C25.5393715 40.35261084 25 39.10551666 25 36 C23.69026002 34.6434836 22.35197858 33.31442362 21 32 C19.68 30.02 18.36 28.04 17 26 C16.67 40.85 16.34 55.7 16 71 C11.05 71 6.1 71 1 71 C-0.125 63.125 -0.125 63.125 -0.09765625 58.94140625 C-0.09443359 58.06162109 -0.09121094 57.18183594 -0.08789062 56.27539062 C-0.07951172 55.38013672 -0.07113281 54.48488281 -0.0625 53.5625 C-0.05798828 52.64017578 -0.05347656 51.71785156 -0.04882812 50.76757812 C-0.03713938 48.51164952 -0.02075455 46.25586033 0 44 C0.99 44 1.98 44 3 44 C2.26656372 43.29278809 2.26656372 43.29278809 1.51831055 42.57128906 C-0.74498956 38.73834539 -0.37217815 35.22967294 -0.29296875 30.859375 C-0.28872391 29.97719299 -0.28447906 29.09501099 -0.28010559 28.18609619 C-0.26333838 25.37375117 -0.22568998 22.56212774 -0.1875 19.75 C-0.17245062 17.8411562 -0.15876266 15.93230114 -0.14648438 14.0234375 C-0.11344127 9.34868111 -0.06167255 4.67446282 0 0 Z M57 20 C58 24 58 24 58 24 Z M58 31 C58 31.66 58 32.32 58 33 C58.66 33 59.32 33 60 33 C60 32.34 60 31.68 60 31 C59.34 31 58.68 31 58 31 Z M59 47 C59.33 47.66 59.66 48.32 60 49 C60.33 48.34 60.66 47.68 61 47 C60.34 47 59.68 47 59 47 Z M48 57 C48 57.66 48 58.32 48 59 C48.66 58.67 49.32 58.34 50 58 C49.34 57.67 48.68 57.34 48 57 Z M51 57 C51.99 58.485 51.99 58.485 53 60 C53 59.34 53 58.68 53 58 C53.66 57.67 54.32 57.34 55 57 C53.68 57 52.36 57 51 57 Z " fill="#F10000" transform="translate(374,112)"/>
<path d="M0 0 C0.82435547 -0.00322266 1.64871094 -0.00644531 2.49804688 -0.00976562 C8.14126605 0.03985501 12.62892699 0.94616718 17.75 3.4375 C20.42450734 6.40917483 20.17981277 9.38276979 20.4375 13.3125 C21.0975 13.3125 21.7575 13.3125 22.4375 13.3125 C22.4375 13.9725 22.4375 14.6325 22.4375 15.3125 C23.0975 15.3125 23.7575 15.3125 24.4375 15.3125 C24.4375 16.6325 24.4375 17.9525 24.4375 19.3125 C25.0975 19.3125 25.7575 19.3125 26.4375 19.3125 C26.9325 22.7775 26.9325 22.7775 27.4375 26.3125 C28.0975 26.3125 28.7575 26.3125 29.4375 26.3125 C34.34289455 36.66638636 36.10874505 42.98620098 32.4375 53.9375 C29.89069062 60.09288718 26.9045211 63.61066099 21.4375 67.3125 C20.73882812 67.81652344 20.04015625 68.32054687 19.3203125 68.83984375 C15.66855566 71.32717247 13.01741188 73.02811123 8.4375 72.3125 C8.4375 72.9725 8.4375 73.6325 8.4375 74.3125 C2.4975 74.3125 -3.4425 74.3125 -9.5625 74.3125 C-9.5625 73.6525 -9.5625 72.9925 -9.5625 72.3125 C-10.408125 72.23 -11.25375 72.1475 -12.125 72.0625 C-16.34198478 71.14243059 -20.4382262 69.4367738 -23.5625 66.3125 C-24.366875 65.52875 -25.17125 64.745 -26 63.9375 C-29.391136 60.46365337 -30.5625 59.26193661 -30.5625 54.3125 C-31.2225 53.9825 -31.8825 53.6525 -32.5625 53.3125 C-33.75 49.875 -33.75 49.875 -34.5625 46.3125 C-34.2325 45.6525 -33.9025 44.9925 -33.5625 44.3125 C-33.67866338 42.82851285 -33.85496252 41.34898779 -34.0625 39.875 C-35.22858183 28.58668002 -33.56075515 20.57347044 -26.5625 11.3125 C-25.9025 11.3125 -25.2425 11.3125 -24.5625 11.3125 C-24.5625 10.6525 -24.5625 9.9925 -24.5625 9.3125 C-23.9025 9.3125 -23.2425 9.3125 -22.5625 9.3125 C-22.500625 8.69375 -22.43875 8.075 -22.375 7.4375 C-21.5625 5.3125 -21.5625 5.3125 -19.4375 4.25 C-18.48875 3.940625 -17.54 3.63125 -16.5625 3.3125 C-15.54542969 2.80460937 -14.52835938 2.29671875 -13.48046875 1.7734375 C-9.01596267 -0.15388533 -4.79880495 -0.09424205 0 0 Z M-12.75 21.625 C-17.6047399 28.82340744 -17.2972659 36.93437659 -16.5625 45.3125 C-15.45478981 49.23516443 -14.12949426 52.43464008 -10.421875 54.51171875 C-9.50148438 54.90810547 -9.50148438 54.90810547 -8.5625 55.3125 C-8.5625 55.9725 -8.5625 56.6325 -8.5625 57.3125 C-5.83172124 58.67788938 -3.60689633 58.44481826 -0.5625 58.4375 C0.51 58.44007813 1.5825 58.44265625 2.6875 58.4453125 C5.39932052 58.4997341 5.39932052 58.4997341 7.4375 57.3125 C7.4375 56.6525 7.4375 55.9925 7.4375 55.3125 C8.55125 55.065 8.55125 55.065 9.6875 54.8125 C13.76508812 52.58836103 14.98225078 49.62781823 16.4375 45.3125 C18.21441848 37.29061441 16.97935056 30.61345155 14.25 23 C11.87988451 19.48569083 9.42692396 17.58709935 5.4375 16.3125 C-2.22106458 15.33597815 -7.32713671 15.89225881 -12.75 21.625 Z M-31.5625 23.3125 C-30.5625 25.3125 -30.5625 25.3125 -30.5625 25.3125 Z M-30.5625 38.3125 C-30.2325 39.9625 -29.9025 41.6125 -29.5625 43.3125 C-29.2325 43.3125 -28.9025 43.3125 -28.5625 43.3125 C-28.5625 41.6625 -28.5625 40.0125 -28.5625 38.3125 C-29.2225 38.3125 -29.8825 38.3125 -30.5625 38.3125 Z M19.4375 53.3125 C19.1075 53.9725 18.7775 54.6325 18.4375 55.3125 C19.7575 55.3125 21.0775 55.3125 22.4375 55.3125 C22.4375 54.6525 22.4375 53.9925 22.4375 53.3125 C21.4475 53.3125 20.4575 53.3125 19.4375 53.3125 Z M-3.5625 62.3125 C-2.5625 64.3125 -2.5625 64.3125 -2.5625 64.3125 Z M-10.5625 64.3125 C-9.9025 64.9725 -9.2425 65.6325 -8.5625 66.3125 C-8.5625 65.6525 -8.5625 64.9925 -8.5625 64.3125 C-9.2225 64.3125 -9.8825 64.3125 -10.5625 64.3125 Z M2.4375 64.3125 C3.9225 65.3025 3.9225 65.3025 5.4375 66.3125 C5.7675 65.6525 6.0975 64.9925 6.4375 64.3125 C5.1175 64.3125 3.7975 64.3125 2.4375 64.3125 Z M8.4375 64.3125 C8.4375 64.6425 8.4375 64.9725 8.4375 65.3125 C10.4175 65.3125 12.3975 65.3125 14.4375 65.3125 C14.4375 64.9825 14.4375 64.6525 14.4375 64.3125 C12.4575 64.3125 10.4775 64.3125 8.4375 64.3125 Z " fill="#F10000" transform="translate(114.5625,110.6875)"/>
<path d="M0 0 C6.93 0.33 13.86 0.66 21 1 C22.3406751 4.91429249 23.67279005 8.8311436 25 12.75 C25.3815625 13.86117187 25.763125 14.97234375 26.15625 16.1171875 C26.69765625 17.72207031 26.69765625 17.72207031 27.25 19.359375 C27.58515625 20.34389648 27.9203125 21.32841797 28.265625 22.34277344 C29 25 29 25 29 29 C29.66 29 30.32 29 31 29 C34.42857143 37.42857143 34.42857143 37.42857143 34 42 C33.34 42 32.68 42 32 42 C32 42.66 32 43.32 32 44 C33.65 44.33 35.3 44.66 37 45 C38.17076699 48.98060777 39.25749403 52.91621717 40 57 C36.52176885 58.15941038 34.54104422 57.70820884 31 57 C31 57.66 31 58.32 31 59 C32.32 59 33.64 59 35 59 C35 59.66 35 60.32 35 61 C36.65 61 38.3 61 40 61 C40 60.34 40 59.68 40 59 C42 60 42 60 42.88671875 61.9609375 C43.15097656 62.75757813 43.41523438 63.55421875 43.6875 64.375 C43.95949219 65.16648437 44.23148437 65.95796875 44.51171875 66.7734375 C45 69 45 69 44 72 C39.71 72 35.42 72 31 72 C31 71.34 31 70.68 31 70 C30.34 70 29.68 70 29 70 C29 70.66 29 71.32 29 72 C28.01 72 27.02 72 26 72 C25.47076428 69.87707704 24.95184623 67.75157949 24.4375 65.625 C24.14746094 64.44164062 23.85742188 63.25828125 23.55859375 62.0390625 C23 59 23 59 24 57 C22.35 57 20.7 57 19 57 C19 57.66 19 58.32 19 59 C17.7625 58.7215625 17.7625 58.7215625 16.5 58.4375 C12.38073281 57.9225916 9.09176645 58.36507072 5 59 C4.67 58.34 4.34 57.68 4 57 C3.67 57.66 3.34 58.32 3 59 C0.69 59 -1.62 59 -4 59 C-4.99 62.96 -5.98 66.92 -7 71 C-13.27 71 -19.54 71 -26 71 C-24.78348367 65.52567652 -23.67204578 60.64893276 -21.875 55.4375 C-21.52179688 54.40496094 -21.16859375 53.37242187 -20.8046875 52.30859375 C-20.53914063 51.54675781 -20.27359375 50.78492188 -20 50 C-19.34 50 -18.68 50 -18 50 C-17.7525 48.72125 -17.505 47.4425 -17.25 46.125 C-15.82513633 39.69275831 -13.66452153 33.4967823 -10 28 C-9.54605448 25.72087062 -9.54605448 25.72087062 -9.375 23.3125 C-9.30023438 22.50425781 -9.22546875 21.69601563 -9.1484375 20.86328125 C-9.09945313 20.24839844 -9.05046875 19.63351563 -9 19 C-8.34 19 -7.68 19 -7 19 C-6.896875 18.360625 -6.79375 17.72125 -6.6875 17.0625 C-5.76096927 12.93522674 -4.38339371 8.99357051 -3 5 C-2.34 5 -1.68 5 -1 5 C-0.67 3.35 -0.34 1.7 0 0 Z M-5 14 C-4 16 -4 16 -4 16 Z M8 19 C7.71125 20.051875 7.4225 21.10375 7.125 22.1875 C6.22774807 25.22818711 5.23576581 28.08712344 4 31 C3.01 31 2.02 31 1 31 C1.33 31.66 1.66 32.32 2 33 C2.66 33 3.32 33 4 33 C3.67 33.70125 3.34 34.4025 3 35.125 C1.67147938 38.43717198 1.67147938 38.43717198 2 44 C6.95 44 11.9 44 17 44 C17 40.7997785 16.36757608 38.38516529 15.5 35.3125 C15.2215625 34.31863281 14.943125 33.32476562 14.65625 32.30078125 C14.4396875 31.54152344 14.223125 30.78226563 14 30 C13.34 30 12.68 30 12 30 C11.855625 29.113125 11.71125 28.22625 11.5625 27.3125 C11.08980022 24.52882354 10.56929815 21.76516243 10 19 C9.34 19 8.68 19 8 19 Z M4 26 C5 28 5 28 5 28 Z M-4 42 C-4 42.66 -4 43.32 -4 44 C-3.01 44 -2.02 44 -1 44 C-1 43.34 -1 42.68 -1 42 C-1.99 42 -2.98 42 -4 42 Z M1 44 C0.67 44.99 0.34 45.98 0 47 C0.66 47 1.32 47 2 47 C1.67 46.01 1.34 45.02 1 44 Z M31 44 C32 46 32 46 32 46 Z M33 46 C34 49 34 49 34 49 Z M35 53 C34.67 54.32 34.34 55.64 34 57 C34.66 57 35.32 57 36 57 C35.67 55.68 35.34 54.36 35 53 Z M24 54 C24.66 56.97 25.32 59.94 26 63 C26.99 62.67 27.98 62.34 29 62 C29 60.68 29 59.36 29 58 C28.34 58 27.68 58 27 58 C26.67 56.68 26.34 55.36 26 54 C25.34 54 24.68 54 24 54 Z M35 66 C36 68 36 68 36 68 Z M33 68 C34 70 34 70 34 70 Z " fill="#F10000" transform="translate(325,111)"/>
<path d="M0 0 C35 0 35 0 45 3 C45.495 4.98 45.495 4.98 46 7 C46.66 7 47.32 7 48 7 C51.5420704 12.3131056 52.40846264 16.78324143 52.4375 23.125 C52.44716797 23.805625 52.45683594 24.48625 52.46679688 25.1875 C52.38966086 29.85195995 51.32046967 32.99191603 49 37 C48.608125 37.86625 48.21625 38.7325 47.8125 39.625 C45.19060642 43.06058469 41.92149747 44.35526938 38 46 C37.26136719 46.36480469 36.52273438 46.72960937 35.76171875 47.10546875 C32.05924313 48.30471474 28.52930796 48.21356968 24.6875 48.125 C20.8821875 48.063125 20.8821875 48.063125 17 48 C17 55.59 17 63.18 17 71 C11.39 71 5.78 71 0 71 C0 47.57 0 24.14 0 0 Z M17 13 C17 20.26 17 27.52 17 35 C19.31 35 21.62 35 24 35 C24 34.34 24 33.68 24 33 C24.66 33 25.32 33 26 33 C26.33 33.66 26.66 34.32 27 35 C28.32 34.34 29.64 33.68 31 33 C31 32.34 31 31.68 31 31 C31.66 31 32.32 31 33 31 C34.87028207 27.25943586 34.52525539 23.07393202 34 19 C32.44207799 15.69099991 32.44207799 15.69099991 29 14 C24.94823872 13.30450912 21.13073574 13.1361781 17 13 Z M2 22 C2.99 23.485 2.99 23.485 4 25 C4 24.01 4 23.02 4 22 C3.34 22 2.68 22 2 22 Z M40 33 C39.67 33.66 39.34 34.32 39 35 C39.99 35 40.98 35 42 35 C42 34.34 42 33.68 42 33 C41.34 33 40.68 33 40 33 Z " fill="#F10000" transform="translate(248,111)"/>
<path d="M0 0 C0.96679688 -0.00322266 1.93359375 -0.00644531 2.9296875 -0.00976562 C8.0280174 0.02885809 10.84777084 0.35160833 15.75 2.3125 C15.75 7.5925 15.75 12.8725 15.75 18.3125 C12.75 18.3125 12.75 18.3125 10.6875 17.3125 C4.05628536 15.05506523 -2.80212538 15.89202792 -9.27734375 18.3359375 C-14.52392956 20.93325721 -17.01500371 25.09958966 -19.25 30.3125 C-20.28264945 37.73036521 -20.30336233 44.72900408 -15.6953125 50.890625 C-13.74984015 52.80454915 -11.89944537 53.70691249 -9.25 54.3125 C-9.25 54.9725 -9.25 55.6325 -9.25 56.3125 C-2.65 56.3125 3.95 56.3125 10.75 56.3125 C10.75 55.6525 10.75 54.9925 10.75 54.3125 C11.41 54.3125 12.07 54.3125 12.75 54.3125 C12.75 54.9725 12.75 55.6325 12.75 56.3125 C13.74 56.6425 14.73 56.9725 15.75 57.3125 C15.83082094 59.27016281 15.88910778 61.22876728 15.9375 63.1875 C15.98970703 64.82332031 15.98970703 64.82332031 16.04296875 66.4921875 C15.94628906 67.42289062 15.84960938 68.35359375 15.75 69.3125 C12.75 71.3125 12.75 71.3125 8.75 71.3125 C8.75 71.9725 8.75 72.6325 8.75 73.3125 C4.79172765 73.37035647 0.8335633 73.40604717 -3.125 73.4375 C-4.25292969 73.45425781 -5.38085938 73.47101563 -6.54296875 73.48828125 C-8.15751953 73.49794922 -8.15751953 73.49794922 -9.8046875 73.5078125 C-10.79968262 73.51828613 -11.79467773 73.52875977 -12.81982422 73.53955078 C-15.25 73.3125 -15.25 73.3125 -17.25 71.3125 C-18.46411961 70.6984625 -19.69581771 70.11869561 -20.9375 69.5625 C-29.09009839 65.52319081 -33.20929869 60.89512467 -36.25 52.3125 C-40.3056269 40.1456193 -37.56559437 25.60813804 -32.25 14.3125 C-31.59 14.3125 -30.93 14.3125 -30.25 14.3125 C-30.25 13.6525 -30.25 12.9925 -30.25 12.3125 C-28.79269502 11.05391843 -27.32819068 9.80196596 -25.81640625 8.609375 C-24.11139281 7.27351183 -24.11139281 7.27351183 -22.4375 5.1875 C-16.1727721 -0.18226677 -7.85063203 -0.13297141 0 0 Z M-0.25 9.3125 C0.75 12.3125 0.75 12.3125 0.75 12.3125 Z " fill="#F10000" transform="translate(60.25,111.6875)"/>
<path d="M0 0 C5.94 0 11.88 0 18 0 C18 0.66 18 1.32 18 2 C18.66 2.33 19.32 2.66 20 3 C20.37046599 4.32349682 20.6985389 5.65910101 21 7 C21.56707201 8.26725952 22.17334407 9.51752402 22.8125 10.75 C23.16699219 11.43964844 23.52148438 12.12929687 23.88671875 12.83984375 C24.25410156 13.55269531 24.62148438 14.26554687 25 15 C26.02609992 17.07813016 27.04904797 19.15777127 28.0703125 21.23828125 C29.09630309 23.25522512 29.09630309 23.25522512 31 26 C32.3143315 22.89660564 33.62614781 19.79215432 34.9375 16.6875 C35.31068359 15.80642578 35.68386719 14.92535156 36.06835938 14.01757812 C36.42607422 13.17001953 36.78378906 12.32246094 37.15234375 11.44921875 C37.6472229 10.27879028 37.6472229 10.27879028 38.15209961 9.0847168 C38.83152111 7.41423588 39.42972637 5.71082088 40 4 C40.66 4 41.32 4 42 4 C42.33 3.01 42.66 2.02 43 1 C48.61 1 54.22 1 60 1 C59 7 59 7 58 9 C57.34 9 56.68 9 56 9 C55.731875 9.845625 55.46375 10.69125 55.1875 11.5625 C53.95711855 15.1241305 52.50130506 18.54796532 51 22 C50.69360596 22.71115967 50.38721191 23.42231934 50.0715332 24.1550293 C49.07580426 26.46075711 48.06987803 28.76184046 47.0625 31.0625 C46.56073242 32.22749023 46.56073242 32.22749023 46.04882812 33.41601562 C44.49499555 36.95180806 42.94569268 40.08141292 40.79296875 43.30859375 C39.1136177 45.82944969 38.46356889 47.05749534 38.25 50 C38.19328125 50.75410156 38.1365625 51.50820312 38.078125 52.28515625 C37.94597841 56.8772501 37.98322695 61.4657116 38.0625 66.05859375 C38 69 38 69 37 71 C31.72 71 26.44 71 21 71 C21.04382813 69.52273437 21.08765625 68.04546875 21.1328125 66.5234375 C21.23217706 51.36468202 18.21442272 40.34948263 10.90209961 27.09277344 C10 25 10 25 10 21 C9.34 21 8.68 21 8 21 C6.65712527 18.25430077 5.32553004 15.50405734 4 12.75 C3.6184375 11.97269531 3.236875 11.19539063 2.84375 10.39453125 C2.4828125 9.64042969 2.121875 8.88632813 1.75 8.109375 C1.41484375 7.41811523 1.0796875 6.72685547 0.734375 6.01464844 C0 4 0 4 0 0 Z " fill="#F10000" transform="translate(443,112)"/>
<path d="M0 0 C25.08 0 50.16 0 76 0 C76.495 0.99 76.495 0.99 77 2 C75.02 2 73.04 2 71 2 C71 3.98 71 5.96 71 8 C50.87 8 30.74 8 10 8 C9.67 6.02 9.34 4.04 9 2 C6.03 2 3.06 2 0 2 C0 1.34 0 0.68 0 0 Z " fill="#F10000" transform="translate(244,57)"/>
<path d="M0 0 C8.44989137 -0.02325528 16.89976917 -0.04098194 25.34968472 -0.05181217 C29.27406896 -0.0570123 33.19843117 -0.06405733 37.12280273 -0.07543945 C40.91590145 -0.08637095 44.70897909 -0.09229842 48.50209236 -0.09487724 C49.94323114 -0.0967131 51.38436887 -0.10029779 52.82549858 -0.10573006 C60.2841002 -0.13270556 67.60006254 -0.03163624 75 1 C73.74458443 3.51083114 72.49936512 3.87125446 70 5 C70.495 6.485 70.495 6.485 71 8 C52.52 8 34.04 8 15 8 C15.33 6.35 15.66 4.7 16 3 C10.72 2.67 5.44 2.34 0 2 C0 1.34 0 0.68 0 0 Z " fill="#F10000" transform="translate(333,67)"/>
<path d="M0 0 C1.44227966 -0.00143509 1.44227966 -0.00143509 2.91369629 -0.00289917 C4.92716539 -0.003575 6.94063674 -0.00176274 8.95410156 0.00244141 C12.05017893 0.00784554 15.14611431 0.00245219 18.2421875 -0.00390625 C20.20312532 -0.00324628 22.16406305 -0.00196682 24.125 0 C25.51857727 -0.00303635 25.51857727 -0.00303635 26.94030762 -0.00613403 C27.79209595 -0.00298187 28.64388428 0.00017029 29.52148438 0.00341797 C30.27377319 0.00421356 31.02606201 0.00500916 31.80114746 0.00582886 C33.53125 0.1328125 33.53125 0.1328125 34.53125 1.1328125 C34.65625 4.6328125 34.65625 4.6328125 34.53125 8.1328125 C32.70223186 9.96183064 30.16056225 9.26150038 27.72685242 9.27175903 C26.91335831 9.2697348 26.0998642 9.26771057 25.26171875 9.265625 C24.42917068 9.26658173 23.59662262 9.26753845 22.73884583 9.26852417 C20.97262497 9.2692062 19.20640162 9.26735033 17.44018555 9.26318359 C14.7406649 9.25785575 12.04131217 9.26311734 9.34179688 9.26953125 C7.6276038 9.26887008 5.91341083 9.2675881 4.19921875 9.265625 C3.39179733 9.26764923 2.58437592 9.26967346 1.75248718 9.27175903 C-1.8239584 9.25687174 -5.02770011 9.09753579 -8.46875 8.1328125 C-8.46875 8.4628125 -8.46875 8.7928125 -8.46875 9.1328125 C-16.71319444 9.75503472 -16.71319444 9.75503472 -19.59375 7.3828125 C-20.61713542 4.75124999 -20.25423932 3.76586119 -19.46875 1.1328125 C-12.93952836 0.29800725 -6.5784658 -0.01458753 0 0 Z " fill="#F10000" transform="translate(198.46875,22.8671875)"/>
<path d="M0 0 C10.56 0 21.12 0 32 0 C31.01 0.33 30.02 0.66 29 1 C29.33 2.65 29.66 4.3 30 6 C38.91 6 47.82 6 57 6 C57 4.02 57 2.04 57 0 C64.59 0 72.18 0 80 0 C80 0.33 80 0.66 80 1 C78.02 1 76.04 1 74 1 C74 3.64 74 6.28 74 9 C53.87 9 33.74 9 13 9 C13 6.36 13 3.72 13 1 C8.71 1 4.42 1 0 1 C0 0.67 0 0.34 0 0 Z " fill="#F10000" transform="translate(240,46)"/>
<path d="M0 0 C17.82 0 35.64 0 54 0 C54 0.99 54 1.98 54 3 C51.03 3 48.06 3 45 3 C45.495 3.763125 45.99 4.52625 46.5 5.3125 C48 8 48 8 48 11 C42.72 11 37.44 11 32 11 C31.67 10.34 31.34 9.68 31 9 C30.67 9.66 30.34 10.32 30 11 C24.39 11 18.78 11 13 11 C14 6 14 6 15 3 C13.50146484 2.92652344 13.50146484 2.92652344 11.97265625 2.8515625 C10.03712891 2.73941406 10.03712891 2.73941406 8.0625 2.625 C6.13083984 2.52058594 6.13083984 2.52058594 4.16015625 2.4140625 C2.59587891 2.20910156 2.59587891 2.20910156 1 2 C0.67 1.34 0.34 0.68 0 0 Z " fill="#F10000" transform="translate(344,34)"/>
<path d="M0 0 C1.13321686 -0.00095673 2.26643372 -0.00191345 3.43399048 -0.00289917 C5.82236792 -0.0035759 8.21074725 -0.00175722 10.59912109 0.00244141 C14.18201026 0.00774653 17.76477118 0.00250497 21.34765625 -0.00390625 C35.21197096 -0.00750195 49.01108977 0.31383858 62.8515625 1.1328125 C62.8515625 1.7928125 62.8515625 2.4528125 62.8515625 3.1328125 C60.5415625 3.1328125 58.2315625 3.1328125 55.8515625 3.1328125 C55.8515625 4.7828125 55.8515625 6.4328125 55.8515625 8.1328125 C50.2415625 8.1328125 44.6315625 8.1328125 38.8515625 8.1328125 C38.8515625 6.4828125 38.8515625 4.8328125 38.8515625 3.1328125 C29.2815625 3.1328125 19.7115625 3.1328125 9.8515625 3.1328125 C9.8515625 4.7828125 9.8515625 6.4328125 9.8515625 8.1328125 C4.2415625 8.1328125 -1.3684375 8.1328125 -7.1484375 8.1328125 C-7.1484375 6.4828125 -7.1484375 4.8328125 -7.1484375 3.1328125 C-12.7584375 3.1328125 -18.3684375 3.1328125 -24.1484375 3.1328125 C-23.8184375 2.4728125 -23.4884375 1.8128125 -23.1484375 1.1328125 C-15.6276664 -0.34972529 -7.63529363 -0.01460098 0 0 Z " fill="#F10000" transform="translate(259.1484375,65.8671875)"/>
<path d="M0 0 C5.88582053 -0.02496759 11.77160932 -0.04298502 17.6574707 -0.05493164 C19.65422097 -0.05991909 21.65096766 -0.06671145 23.64770508 -0.07543945 C34.48039926 -0.12155911 45.21389785 -0.13423505 56 1 C56 1.33 56 1.66 56 2 C52.37 2 48.74 2 45 2 C45.66 4.64 46.32 7.28 47 10 C41.39 10 35.78 10 30 10 C28 5 28 5 28 3 C25.03 2.505 25.03 2.505 22 2 C21.87625 3.134375 21.7525 4.26875 21.625 5.4375 C21.315625 7.2009375 21.315625 7.2009375 21 9 C17.81175432 10.59412284 14.37103338 10.10174735 10.875 10.0625 C10.12089844 10.05798828 9.36679687 10.05347656 8.58984375 10.04882812 C6.72652873 10.03703499 4.86325445 10.01909942 3 10 C3.66 7.36 4.32 4.72 5 2 C3.35 1.67 1.7 1.34 0 1 C0 0.67 0 0.34 0 0 Z " fill="#F10000" transform="translate(349,46)"/>
<path d="M0 0 C13.2 0 26.4 0 40 0 C40 2.64 40 5.28 40 8 C36.1784462 9.27385127 32.5931553 9.12353188 28.61328125 9.09765625 C27.79627243 9.0962413 26.97926361 9.09482635 26.13749695 9.09336853 C23.52912732 9.08777294 20.92084366 9.07522129 18.3125 9.0625 C16.54362103 9.05748443 14.77474072 9.05292162 13.00585938 9.04882812 C8.67053981 9.03780496 4.33528448 9.02054338 0 9 C0 6.03 0 3.06 0 0 Z " fill="#F10000" transform="translate(117,24)"/>
<path d="M0 0 C7.39338413 -0.02582438 14.78675624 -0.04306038 22.18017578 -0.05493164 C24.68376093 -0.05989209 27.18734329 -0.06666253 29.69091797 -0.07543945 C46.15590064 -0.13162265 62.55595652 0.14327547 79 1 C79 1.33 79 1.66 79 2 C75.7 2 72.4 2 69 2 C69 2.99 69 3.98 69 5 C69.99 5.495 69.99 5.495 71 6 C50.54 6 30.08 6 9 6 C9 4.35 9 2.7 9 1 C6.03 1 3.06 1 0 1 C0 0.67 0 0.34 0 0 Z " fill="#F10000" transform="translate(337,76)"/>
<path d="M0 0 C1.74135223 0.00022659 1.74135223 0.00022659 3.5178833 0.00045776 C4.76591736 0.01078033 6.01395142 0.02110291 7.29980469 0.03173828 C9.22237091 0.03598312 9.22237091 0.03598312 11.18377686 0.04031372 C14.58357607 0.0479329 17.98320315 0.06756644 21.38293457 0.08972168 C24.85520092 0.1102172 28.32749522 0.11932334 31.79980469 0.12939453 C38.60716686 0.15081412 45.414415 0.18492922 52.22167969 0.22705078 C52.22167969 0.55705078 52.22167969 0.88705078 52.22167969 1.22705078 C47.60167969 1.22705078 42.98167969 1.22705078 38.22167969 1.22705078 C38.22167969 3.20705078 38.22167969 5.18705078 38.22167969 7.22705078 C34.59167969 7.55705078 30.96167969 7.88705078 27.22167969 8.22705078 C26.56167969 6.57705078 25.90167969 4.92705078 25.22167969 3.22705078 C24.89167969 4.87705078 24.56167969 6.52705078 24.22167969 8.22705078 C15.97167969 8.22705078 7.72167969 8.22705078 -0.77832031 8.22705078 C-0.77832031 6.57705078 -0.77832031 4.92705078 -0.77832031 3.22705078 C-3.74832031 2.89705078 -6.71832031 2.56705078 -9.77832031 2.22705078 C-5.77960727 0.22769426 -4.29953594 -0.01869363 0 0 Z M0.22167969 4.22705078 C0.55167969 5.21705078 0.88167969 6.20705078 1.22167969 7.22705078 C1.55167969 6.23705078 1.88167969 5.24705078 2.22167969 4.22705078 C1.56167969 4.22705078 0.90167969 4.22705078 0.22167969 4.22705078 Z " fill="#F10000" transform="translate(114.7783203125,57.77294921875)"/>
<path d="M0 0 C21.78 0 43.56 0 66 0 C63 3 63 3 60.9152832 3.34057617 C59.74485474 3.3170105 59.74485474 3.3170105 58.55078125 3.29296875 C57.70322266 3.28330078 56.85566406 3.27363281 55.98242188 3.26367188 C55.10134766 3.23853516 54.22027344 3.21339844 53.3125 3.1875 C52.41982422 3.17396484 51.52714844 3.16042969 50.60742188 3.14648438 C48.40433834 3.11114079 46.20247418 3.06180493 44 3 C44 5.31 44 7.62 44 10 C38.39 10 32.78 10 27 10 C27 7.69 27 5.38 27 3 C25.081875 3.01740234 25.081875 3.01740234 23.125 3.03515625 C21.41666814 3.04454269 19.70833468 3.05364197 18 3.0625 C16.74123047 3.07506836 16.74123047 3.07506836 15.45703125 3.08789062 C10.20680661 3.10824033 5.19544338 2.76368207 0 2 C0 1.34 0 0.68 0 0 Z " fill="#F10000" transform="translate(170,34)"/>
<path d="M0 0 C1.70507678 0.00503452 3.41015504 0.00959391 5.11523438 0.01367188 C9.22269378 0.02450116 13.33007973 0.04165341 17.4375 0.0625 C17.4375 1.0525 17.4375 2.0425 17.4375 3.0625 C8.09763591 4.26764375 -1.16457216 4.15463655 -10.5625 4.0625 C-10.8925 6.3725 -11.2225 8.6825 -11.5625 11.0625 C-16.8425 11.0625 -22.1225 11.0625 -27.5625 11.0625 C-27.5625 8.4225 -27.5625 5.7825 -27.5625 3.0625 C-30.5325 3.0625 -33.5025 3.0625 -36.5625 3.0625 C-36.5625 2.4025 -36.5625 1.7425 -36.5625 1.0625 C-24.3584485 0.19057139 -12.23240854 -0.06403137 0 0 Z " fill="#F10000" transform="translate(143.5625,33.9375)"/>
<path d="M0 0 C22.44 0 44.88 0 68 0 C67.67 0.66 67.34 1.32 67 2 C62.71 2 58.42 2 54 2 C54 2.99 54 3.98 54 5 C39.98842972 5.71069074 26.02981156 6.14733758 12 6 C12 5.34 12 4.68 12 4 C8.04 3.67 4.08 3.34 0 3 C0 2.01 0 1.02 0 0 Z " fill="#F10000" transform="translate(100,84)"/>
<path d="M0 0 C0 0.66 0 1.32 0 2 C-1.32 2 -2.64 2 -4 2 C-4.33 2.99 -4.66 3.98 -5 5 C-13.70213607 6.16281933 -22.36788151 6.11579895 -31.125 6.0625 C-32.57291511 6.05747252 -34.02083192 6.05291183 -35.46875 6.04882812 C-38.97920259 6.03792705 -42.48959007 6.02073202 -46 6 C-46.33 5.34 -46.66 4.68 -47 4 C-53.27 3.67 -59.54 3.34 -66 3 C-66 2.34 -66 1.68 -66 1 C-44.01683663 -0.36632314 -22.01435929 -0.09752153 0 0 Z " fill="#F10000" transform="translate(90,85)"/>
<path d="M0 0 C13.75963886 -0.06666851 27.49580227 0.12258279 41.25 0.5 C43.0859312 0.54841659 44.92186871 0.59659453 46.7578125 0.64453125 C51.1719521 0.76028862 55.58599539 0.87920919 60 1 C60 1.99 60 2.98 60 4 C57.69 3.67 55.38 3.34 53 3 C53 4.32 53 5.64 53 7 C39.31709918 7.2032114 25.66796237 6.5839284 12 6 C12 5.01 12 4.02 12 3 C8.04 3 4.08 3 0 3 C0 2.01 0 1.02 0 0 Z " fill="#F10000" transform="translate(429,84)"/>
<path d="M0 0 C27.06 0 54.12 0 82 0 C81 3 81 3 79 5 C77.02880859 5.22705078 77.02880859 5.22705078 74.6484375 5.1953125 C73.37226563 5.18564453 73.37226563 5.18564453 72.0703125 5.17578125 C70.73613281 5.15064453 70.73613281 5.15064453 69.375 5.125 C68.02921875 5.11146484 68.02921875 5.11146484 66.65625 5.09765625 C64.43723414 5.0740497 62.21874923 5.0411231 60 5 C59.505 3.515 59.505 3.515 59 2 C49.43 2.33 39.86 2.66 30 3 C29.67 3.66 29.34 4.32 29 5 C22.73 5 16.46 5 10 5 C10.33 4.01 10.66 3.02 11 2 C7.37 2 3.74 2 0 2 C0 1.34 0 0.68 0 0 Z " fill="#F10000" transform="translate(332,84)"/>
<path d="M0 0 C22.77 0 45.54 0 69 0 C69 0.33 69 0.66 69 1 C64.71 1 60.42 1 56 1 C56.66 2.98 57.32 4.96 58 7 C57.67 7.33 57.34 7.66 57 8 C54.13311752 7.90903444 51.29699485 7.76232012 48.4375 7.5625 C47.63119141 7.51029297 46.82488281 7.45808594 45.99414062 7.40429688 C43.99578262 7.27422624 41.99784614 7.13770944 40 7 C39.505 4.03 39.505 4.03 39 1 C32.565 1.495 32.565 1.495 26 2 C25.67 2.99 25.34 3.98 25 5 C25.33 5.66 25.66 6.32 26 7 C20.39 7 14.78 7 9 7 C8.67 5.35 8.34 3.7 8 2 C5.36 1.67 2.72 1.34 0 1 C0 0.67 0 0.34 0 0 Z " fill="#F10000" transform="translate(342,58)"/>
<path d="M0 0 C10.56 0 21.12 0 32 0 C32 0.33 32 0.66 32 1 C29.36 1 26.72 1 24 1 C24 2.65 24 4.3 24 6 C30.93 6 37.86 6 45 6 C45 6.99 45 7.98 45 9 C36.39421862 9.87019244 27.8960185 10.12607367 19.25 10.0625 C18.0640625 10.05798828 16.878125 10.05347656 15.65625 10.04882812 C12.77077772 10.03719316 9.88541787 10.0208484 7 10 C7 7.69 7 5.38 7 3 C4.69 2.67 2.38 2.34 0 2 C0 1.34 0 0.68 0 0 Z " fill="#F10000" transform="translate(108,47)"/>
<path d="M0 0 C12.87 0 25.74 0 39 0 C39 0.66 39 1.32 39 2 C36.03 2 33.06 2 30 2 C30.020625 3.299375 30.04125 4.59875 30.0625 5.9375 C30.08399454 7.29165633 30.07148199 8.64756083 30 10 C29 11 29 11 25.62109375 11.09765625 C24.22652923 11.09098369 22.83198257 11.07902532 21.4375 11.0625 C20.72658203 11.05798828 20.01566406 11.05347656 19.28320312 11.04882812 C17.52209987 11.03700864 15.76103964 11.01907263 14 11 C12.875 6.25 12.875 6.25 14 4 C7.07 3.505 7.07 3.505 0 3 C0 2.01 0 1.02 0 0 Z " fill="#F10000" transform="translate(35,36)"/>
<path d="M0 0 C0 0.99 0 1.98 0 3 C-7.26 3 -14.52 3 -22 3 C-22 4.65 -22 6.3 -22 8 C-27.38490641 8.91657981 -32.54230189 9.11138159 -38 9 C-38.33 7.02 -38.66 5.04 -39 3 C-40.25683594 3.24556641 -40.25683594 3.24556641 -41.5390625 3.49609375 C-45.20517307 4.02987283 -48.67239385 4.09743025 -52.375 4.0625 C-54.24285156 4.04896484 -54.24285156 4.04896484 -56.1484375 4.03515625 C-57.55996094 4.01775391 -57.55996094 4.01775391 -59 4 C-59 3.34 -59 2.68 -59 2 C-54.20564951 1.07043002 -49.49811237 0.79163773 -44.62890625 0.68359375 C-43.82952133 0.66281265 -43.03013641 0.64203156 -42.20652771 0.62062073 C-40.51639687 0.57752649 -38.82621313 0.53646469 -37.13598633 0.49731445 C-34.60158554 0.43840845 -32.0674158 0.37310287 -29.53320312 0.30664062 C-19.68646752 0.05757125 -9.84990961 -0.05841517 0 0 Z " fill="#F10000" transform="translate(83,68)"/>
<path d="M0 0 C9.57 0 19.14 0 29 0 C29 0.99 29 1.98 29 3 C27.02 3 25.04 3 23 3 C23 5.64 23 8.28 23 11 C17.39 11 11.78 11 6 11 C6 8.36 6 5.72 6 3 C3.69 3 1.38 3 -1 3 C-0.67 2.01 -0.34 1.02 0 0 Z M16 8 C17 10 17 10 17 10 Z " fill="#F10000" transform="translate(246,33)"/>
<path d="M0 0 C4.27081848 -0.02941647 8.54161034 -0.04693715 12.8125 -0.0625 C14.00810547 -0.07087891 15.20371094 -0.07925781 16.43554688 -0.08789062 C23.68507559 -0.10764411 30.79538651 0.18206935 38 1 C37.67 1.66 37.34 2.32 37 3 C32.38 3 27.76 3 23 3 C23 5.64 23 8.28 23 11 C18.05 11 13.1 11 8 11 C7.67 8.03 7.34 5.06 7 2 C4.69 2 2.38 2 0 2 C0 1.34 0 0.68 0 0 Z " fill="#F10000" transform="translate(430,35)"/>
<path d="M0 0 C0 0.33 0 0.66 0 1 C-4.29 1 -8.58 1 -13 1 C-12.979375 2.299375 -12.95875 3.59875 -12.9375 4.9375 C-12.91600546 6.29165633 -12.92851801 7.64756083 -13 9 C-14 10 -14 10 -17.37890625 10.09765625 C-18.77347077 10.09098369 -20.16801743 10.07902532 -21.5625 10.0625 C-22.27341797 10.05798828 -22.98433594 10.05347656 -23.71679688 10.04882812 C-25.47790013 10.03700864 -27.23896036 10.01907263 -29 10 C-29.79953138 6.71303767 -30.09658936 5.28976808 -29 2 C-35.27 2 -41.54 2 -48 2 C-48 1.67 -48 1.34 -48 1 C-32.04413902 -0.46961877 -16.00522721 -0.09464518 0 0 Z " fill="#F10000" transform="translate(77,48)"/>
<path d="M0 0 C0 0.99 0 1.98 0 3 C-8.58 3.33 -17.16 3.66 -26 4 C-26.33 5.32 -26.66 6.64 -27 8 C-32.61 8 -38.22 8 -44 8 C-43.67 6.35 -43.34 4.7 -43 3 C-45.31 3 -47.62 3 -50 3 C-50 2.34 -50 1.68 -50 1 C-45.12946809 0.85495644 -40.25886528 0.71267773 -35.38818359 0.57275391 C-33.73777182 0.5249763 -32.08738021 0.47649602 -30.43701172 0.42724609 C-20.28711077 0.12490862 -10.15541144 -0.07441376 0 0 Z " fill="#F10000" transform="translate(157,67)"/>
<path d="M0 0 C27.39 0 54.78 0 83 0 C83.495 0.99 83.495 0.99 84 2 C82.02 2 80.04 2 78 2 C78 2.66 78 3.32 78 4 C71.73 4 65.46 4 59 4 C59 3.34 59 2.68 59 2 C54.51595436 1.975241 50.03194519 1.95711201 45.54785156 1.94506836 C44.02310493 1.94004635 42.49836309 1.9332275 40.97363281 1.92456055 C38.77928481 1.91240151 36.5850006 1.90675032 34.390625 1.90234375 C33.07094727 1.89710693 31.75126953 1.89187012 30.39160156 1.88647461 C27.652753 1.97815072 25.59394694 2.26210083 23 3 C20.42567699 3.09401394 17.88549355 3.13968883 15.3125 3.125 C14.62349609 3.12886719 13.93449219 3.13273437 13.22460938 3.13671875 C8.12669335 3.12669335 8.12669335 3.12669335 7 2 C4.67182036 1.63239269 2.3381615 1.29758419 0 1 C0 0.67 0 0.34 0 0 Z " fill="#F10000" transform="translate(334,91)"/>
<path d="M0 0 C7.74842287 -0.12170298 15.29205268 0.18863712 23 1 C22.34 4.3 21.68 7.6 21 11 C15.39 11 9.78 11 4 11 C4 8.36 4 5.72 4 3 C2.68 3 1.36 3 0 3 C0 2.01 0 1.02 0 0 Z " fill="#F10000" transform="translate(293,33)"/>
<path d="M0 0 C13.86 0 27.72 0 42 0 C42 0.33 42 0.66 42 1 C39.69 1 37.38 1 35 1 C35.04125 1.928125 35.0825 2.85625 35.125 3.8125 C35 7 35 7 33 10 C29.77734375 10.328125 29.77734375 10.328125 25.9375 10.25 C24.66777344 10.23453125 23.39804688 10.2190625 22.08984375 10.203125 C19 10 19 10 18 9 C18 6.36 18 3.72 18 1 C12.06 1.33 6.12 1.66 0 2 C0 1.34 0 0.68 0 0 Z " fill="#F10000" transform="translate(179,46)"/>
<path d="M0 0 C6.6 0 13.2 0 20 0 C22 5 22 5 22 8 C13.75 8 5.5 8 -3 8 C-2.01 5.36 -1.02 2.72 0 0 Z " fill="#F10000" transform="translate(364,24)"/>
<path d="M0 0 C-0.33 0.66 -0.66 1.32 -1 2 C-2.65 2 -4.3 2 -6 2 C-6 2.66 -6 3.32 -6 4 C-19.86 4 -33.72 4 -48 4 C-48 3.34 -48 2.68 -48 2 C-50.64 2 -53.28 2 -56 2 C-56 1.67 -56 1.34 -56 1 C-37.34803047 -0.31219886 -18.68560811 -0.09926157 0 0 Z " fill="#F10000" transform="translate(160,91)"/>
<path d="M0 0 C8.31000792 -0.04628625 16.61996221 -0.0818502 24.93006706 -0.10362434 C28.78854797 -0.11407343 32.64694085 -0.128253 36.50537109 -0.15087891 C40.22712192 -0.1725674 43.94878794 -0.18456014 47.67059708 -0.18975449 C49.09241191 -0.19345745 50.51422197 -0.20068819 51.93600082 -0.21146011 C53.92327114 -0.22592119 55.91062631 -0.22681646 57.89794922 -0.22705078 C59.03046112 -0.231492 60.16297302 -0.23593323 61.32980347 -0.24050903 C64 0 64 0 66 2 C64.39318359 2.09087891 64.39318359 2.09087891 62.75390625 2.18359375 C61.35675609 2.26798537 59.95962143 2.35263406 58.5625 2.4375 C57.50192383 2.49647461 57.50192383 2.49647461 56.41992188 2.55664062 C52.91309581 2.47624438 52.91309581 2.47624438 50 4 C46.96845465 4.01698933 43.96244596 3.97074045 40.93359375 3.87890625 C40.02497086 3.85529526 39.11634796 3.83168427 38.18019104 3.80735779 C35.26580954 3.73052149 32.35168056 3.64658363 29.4375 3.5625 C27.46680941 3.50929928 25.49610634 3.45655877 23.52539062 3.40429688 C18.68343255 3.27487948 13.84168946 3.13909094 9 3 C9 2.34 9 1.68 9 1 C6.03 1 3.06 1 0 1 C0 0.67 0 0.34 0 0 Z " fill="#F10000" transform="translate(432,92)"/>
<path d="M0 0 C15.84 0.33 31.68 0.66 48 1 C48 1.66 48 2.32 48 3 C42.06 3 36.12 3 30 3 C29.67 4.98 29.34 6.96 29 9 C24.05 8.67 19.1 8.34 14 8 C13.67 6.02 13.34 4.04 13 2 C8.71 2 4.42 2 0 2 C0 1.34 0 0.68 0 0 Z " fill="#F10000" transform="translate(425,58)"/>
<path d="M0 0 C9.70618661 -0.16831537 19.32153574 0.35782702 29 1 C28.01 1.33 27.02 1.66 26 2 C26 4.64 26 7.28 26 10 C20.72 10 15.44 10 10 10 C10 7.36 10 4.72 10 2 C6.7 2 3.4 2 0 2 C0 1.34 0 0.68 0 0 Z " fill="#F10000" transform="translate(428,47)"/>
<path d="M0 0 C10.56 0 21.12 0 32 0 C32 0.99 32 1.98 32 3 C29.03 3 26.06 3 23 3 C23 4.65 23 6.3 23 8 C21.083412 8.02712153 19.1667127 8.04645097 17.25 8.0625 C15.64898437 8.07990234 15.64898437 8.07990234 14.015625 8.09765625 C11.46631499 8.01510087 9.42066409 7.74617558 7 7 C7 5.35 7 3.7 7 2 C4.69 2 2.38 2 0 2 C0 1.34 0 0.68 0 0 Z " fill="#F10000" transform="translate(432,68)"/>
<path d="M0 0 C1.00969849 0.00141495 2.01939697 0.0028299 3.05969238 0.00428772 C6.25857611 0.00984844 9.45738772 0.02239355 12.65625 0.03515625 C14.83593648 0.04017633 17.01562407 0.04473835 19.1953125 0.04882812 C24.51564926 0.05980497 29.83594448 0.07650357 35.15625 0.09765625 C35.15625 0.42765625 35.15625 0.75765625 35.15625 1.09765625 C33.17625 1.09765625 31.19625 1.09765625 29.15625 1.09765625 C29.15625 1.75765625 29.15625 2.41765625 29.15625 3.09765625 C19.47417922 4.00585719 9.81543106 4.23304674 0.09375 4.28515625 C-1.08356689 4.29804687 -2.26088379 4.3109375 -3.47387695 4.32421875 C-5.15936646 4.32615234 -5.15936646 4.32615234 -6.87890625 4.328125 C-8.38529663 4.33428833 -8.38529663 4.33428833 -9.92211914 4.34057617 C-13.14882088 4.07229103 -15.82126701 3.23154379 -18.84375 2.09765625 C-18.84375 1.76765625 -18.84375 1.43765625 -18.84375 1.09765625 C-12.52146145 0.1577687 -6.38601642 -0.03415891 0 0 Z " fill="#F10000" transform="translate(55.84375,91.90234375)"/>
<path d="M0 0 C11.22 0 22.44 0 34 0 C34 0.99 34 1.98 34 3 C31.36 3 28.72 3 26 3 C26 3.99 26 4.98 26 6 C20.39 6 14.78 6 9 6 C9 5.01 9 4.02 9 3 C6.03 3 3.06 3 0 3 C0 2.01 0 1.02 0 0 Z " fill="#F10000" transform="translate(243,83)"/>
<path d="M0 0 C8.91 0 17.82 0 27 0 C27 0.66 27 1.32 27 2 C25.68 2 24.36 2 23 2 C23 3.65 23 5.3 23 7 C19.35861758 7.83725216 15.98405504 8.13509204 12.25 8.125 C10.80367187 8.12886719 10.80367187 8.12886719 9.328125 8.1328125 C7 8 7 8 6 7 C5.95936168 5.33382885 5.957279 3.66611905 6 2 C4.02 2 2.04 2 0 2 C0 1.34 0 0.68 0 0 Z " fill="#F10000" transform="translate(190,67)"/>
<path d="M0 0 C13.36929696 -0.13751277 26.65131342 0.25619259 40 1 C40 1.33 40 1.66 40 2 C35.38 2 30.76 2 26 2 C26 2.99 26 3.98 26 5 C34.25 5 42.5 5 51 5 C51 5.33 51 5.66 51 6 C37.47 6 23.94 6 10 6 C10 4.68 10 3.36 10 2 C6.7 2 3.4 2 0 2 C0 1.34 0 0.68 0 0 Z " fill="#F10000" transform="translate(430,77)"/>
<path d="M0 0 C2.64590014 -0.02684679 5.29153096 -0.04676357 7.9375 -0.0625 C8.69224609 -0.07087891 9.44699219 -0.07925781 10.22460938 -0.08789062 C12.14994313 -0.09652441 14.07535581 -0.05224333 16 0 C17 1 17 1 17.125 4.5 C17 8 17 8 16 9 C14.06461065 9.09955104 12.12544231 9.12968668 10.1875 9.125 C8.60001953 9.12886719 8.60001953 9.12886719 6.98046875 9.1328125 C4.46310983 9.02063661 2.39576745 8.7309121 0 8 C0 5.36 0 2.72 0 0 Z " fill="#F10000" transform="translate(297,23)"/>
<path d="M0 0 C12.87 0 25.74 0 39 0 C39 0.33 39 0.66 39 1 C35.7 1 32.4 1 29 1 C29 1.99 29 2.98 29 4 C37.25 4 45.5 4 54 4 C54 4.33 54 4.66 54 5 C40.14 5 26.28 5 12 5 C12 4.01 12 3.02 12 2 C8.04 2 4.08 2 0 2 C0 1.34 0 0.68 0 0 Z " fill="#F10000" transform="translate(101,77)"/>
<path d="M0 0 C0 0.66 0 1.32 0 2 C-2.64 2 -5.28 2 -8 2 C-8 3.98 -8 5.96 -8 8 C-13.61 8 -19.22 8 -25 8 C-25 6.02 -25 4.04 -25 2 C-27.97 2 -30.94 2 -34 2 C-34 1.67 -34 1.34 -34 1 C-29.64591438 0.83117086 -25.29172009 0.66532185 -20.9375 0.5 C-19.70837891 0.45230469 -18.47925781 0.40460937 -17.21289062 0.35546875 C-11.47177091 0.13882272 -5.74539679 -0.06829595 0 0 Z " fill="#F10000" transform="translate(221,57)"/>
<path d="M0 0 C9.24 0 18.48 0 28 0 C28.33 0.99 28.66 1.98 29 3 C27.35 3 25.7 3 24 3 C24 3.99 24 4.98 24 6 C18.39 6 12.78 6 7 6 C7 5.01 7 4.02 7 3 C4.69 3 2.38 3 0 3 C0 2.01 0 1.02 0 0 Z " fill="#F10000" transform="translate(291,83)"/>
<path d="M0 0 C5.61 0 11.22 0 17 0 C17 2.64 17 5.28 17 8 C11.39 8 5.78 8 0 8 C0 5.36 0 2.72 0 0 Z " fill="#F10000" transform="translate(252,23)"/>
<path d="M0 0 C13.86 0 27.72 0 42 0 C42 0.33 42 0.66 42 1 C38.7 1 35.4 1 32 1 C31.67 2.65 31.34 4.3 31 6 C26.05 6 21.1 6 16 6 C15.67 5.34 15.34 4.68 15 4 C15.33 3.01 15.66 2.02 16 1 C15.46890625 1.16371094 14.9378125 1.32742187 14.390625 1.49609375 C11.46123236 2.11356377 8.74177064 2.09501925 5.75 2.0625 C4.67234375 2.05347656 3.5946875 2.04445313 2.484375 2.03515625 C1.66453125 2.02355469 0.8446875 2.01195313 0 2 C0 1.34 0 0.68 0 0 Z " fill="#F10000" transform="translate(180,76)"/>
<path d="M0 0 C0 0.33 0 0.66 0 1 C-3.3 1 -6.6 1 -10 1 C-10 2.98 -10 4.96 -10 7 C-15.66666667 7 -21.33333333 7 -27 7 C-27 5.35 -27 3.7 -27 2 C-29.31 1.67 -31.62 1.34 -34 1 C-34 0.67 -34 0.34 -34 0 C-29.96178295 -0.16833857 -25.92333583 -0.32881721 -21.88452148 -0.48217773 C-20.51204126 -0.53538216 -19.13964095 -0.59069309 -17.76733398 -0.64819336 C-15.7891258 -0.73070839 -13.81057586 -0.80489585 -11.83203125 -0.87890625 C-10.64327393 -0.9260376 -9.4545166 -0.97316895 -8.22973633 -1.02172852 C-5.31628032 -1.00212782 -2.82024478 -0.69052984 0 0 Z " fill="#F10000" transform="translate(72,60)"/>
<path d="M0 0 C12.87 0 25.74 0 39 0 C39 0.33 39 0.66 39 1 C34.71 1 30.42 1 26 1 C26 1.99 26 2.98 26 4 C28.97 4 31.94 4 35 4 C35 4.33 35 4.66 35 5 C22.625 5.495 22.625 5.495 10 6 C10 4.68 10 3.36 10 2 C6.7 2 3.4 2 0 2 C0 1.34 0 0.68 0 0 Z " fill="#F10000" transform="translate(34,78)"/>
<path d="M0 0 C4.95 0 9.9 0 15 0 C15 2.64 15 5.28 15 8 C7.08 8.495 7.08 8.495 -1 9 C-2 6 -2 6 0 0 Z " fill="#F10000" transform="translate(51,26)"/>
<path d="M0 0 C4.95 0 9.9 0 15 0 C16 2 16 2 16 8 C10.72 8 5.44 8 0 8 C0 5.36 0 2.72 0 0 Z " fill="#F10000" transform="translate(435,25)"/>
<path d="M0 0 C0 0.99 0 1.98 0 3 C-1.32 3 -2.64 3 -4 3 C-4 3.99 -4 4.98 -4 6 C-9.61 6 -15.22 6 -21 6 C-21 5.01 -21 4.02 -21 3 C-22.65 3 -24.3 3 -26 3 C-26 2.34 -26 1.68 -26 1 C-8.14350797 -0.14806378 -8.14350797 -0.14806378 0 0 Z " fill="#F10000" transform="translate(216,83)"/>
<path d="M0 0 C10.89 0 21.78 0 33 0 C33 0.66 33 1.32 33 2 C31.02 2 29.04 2 27 2 C27 2.66 27 3.32 27 4 C21.39 4 15.78 4 10 4 C10 3.34 10 2.68 10 2 C6.7 2 3.4 2 0 2 C0 1.34 0 0.68 0 0 Z " fill="#F10000" transform="translate(242,90)"/>
<path d="M0 0 C8.58 0 17.16 0 26 0 C26 0.33 26 0.66 26 1 C24.35 1 22.7 1 21 1 C21 2.32 21 3.64 21 5 C15.39 5 9.78 5 4 5 C4 3.68 4 2.36 4 1 C2.68 0.67 1.36 0.34 0 0 Z " fill="#F10000" transform="translate(294,76)"/>
<path d="M0 0 C8.58 0 17.16 0 26 0 C25.01 0.33 24.02 0.66 23 1 C23 2.32 23 3.64 23 5 C17.39 5 11.78 5 6 5 C6 3.68 6 2.36 6 1 C4.02 1 2.04 1 0 1 C0 0.67 0 0.34 0 0 Z " fill="#F10000" transform="translate(246,76)"/>
<path d="M0 0 C7.26 0 14.52 0 22 0 C22.33 0.66 22.66 1.32 23 2 C22.34 2 21.68 2 21 2 C21 2.66 21 3.32 21 4 C15.39 4 9.78 4 4 4 C4 3.34 4 2.68 4 2 C2.68 2 1.36 2 0 2 C0 1.34 0 0.68 0 0 Z " fill="#F10000" transform="translate(294,90)"/>
<path d="M0 0 C0.99 0 1.98 0 3 0 C6.90631972 7.32207836 8.14041547 12.71548698 8 21 C4.89584069 18.46023329 4.12539924 15.77812602 3 12 C2.67 11.34 2.34 10.68 2 10 C2.33 9.34 2.66 8.68 3 8 C2.525625 7.5875 2.05125 7.175 1.5625 6.75 C-0.17203947 4.80731579 -0.65877936 3.55915481 -1 1 C-0.67 0.67 -0.34 0.34 0 0 Z " fill="#F10000" transform="translate(141,124)"/>
<path d="M0 0 C11.55 0 23.1 0 35 0 C35 0.33 35 0.66 35 1 C32.36 1 29.72 1 27 1 C27 1.66 27 2.32 27 3 C21.39 3 15.78 3 10 3 C10 2.34 10 1.68 10 1 C6.7 1 3.4 1 0 1 C0 0.67 0 0.34 0 0 Z " fill="#F10000" transform="translate(185,91)"/>
<path d="M0 0 C0.66 0 1.32 0 2 0 C3.38232443 1.62626404 4.71937515 3.2925002 6 5 C5.67 5.66 5.34 6.32 5 7 C4.34 7 3.68 7 3 7 C3 6.34 3 5.68 3 5 C2.01 4.67 1.02 4.34 0 4 C0 2.68 0 1.36 0 0 Z " fill="#F10000" transform="translate(135,116)"/>
<path d="M0 0 C5.28 0 10.56 0 16 0 C16 0.33 16 0.66 16 1 C10.72 1 5.44 1 0 1 C0 0.67 0 0.34 0 0 Z " fill="#F10000" transform="translate(70,82)"/>
<path d="M0 0 C1.98 0 3.96 0 6 0 C6 0.66 6 1.32 6 2 C4.35 2 2.7 2 1 2 C0.67 1.34 0.34 0.68 0 0 Z " fill="#F10000" transform="translate(421,68)"/>
<path d="M0 0 C1.98 0 3.96 0 6 0 C5.67 0.66 5.34 1.32 5 2 C3.35 2 1.7 2 0 2 C0 1.34 0 0.68 0 0 Z " fill="#F10000" transform="translate(77,59)"/>
<path d="M0 0 C1.65 0 3.3 0 5 0 C5 0.66 5 1.32 5 2 C3.35 2 1.7 2 0 2 C0 1.34 0 0.68 0 0 Z " fill="#F10000" transform="translate(321,34)"/>
<path d="M0 0 C0.66 0.99 1.32 1.98 2 3 C1.01 3 0.02 3 -1 3 C-0.67 2.01 -0.34 1.02 0 0 Z " fill="#F10000" transform="translate(406,34)"/>
<path d="M0 0 C0.66 0 1.32 0 2 0 C2 0.66 2 1.32 2 2 C1.34 2 0.68 2 0 2 C0 1.34 0 0.68 0 0 Z " fill="#F10000" transform="translate(157,171)"/>
<path d="" fill="#F10000" transform="translate(0,0)"/>
<path d="M0 0 C2 1 2 1 2 1 Z " fill="#F10000" transform="translate(472,203)"/>
<path d="" fill="#F10000" transform="translate(0,0)"/>
<path d="" fill="#F10000" transform="translate(0,0)"/>
<path d="" fill="#F10000" transform="translate(0,0)"/>
<path d="" fill="#F10000" transform="translate(0,0)"/>
</svg>
