<?xml version="1.0" encoding="UTF-8"?>
<svg height="200" width="500" xmlns="http://www.w3.org/2000/svg">
 <metadata/>
 <g transform="translate(-82.48 -641.68)">
  <text fill="#040404" font-family="Arial" letter-spacing="0" word-spacing="0" x="558.72" y="658.37"><tspan fill="#040404" font-size="10.166" x="558.72" y="658.37">®</tspan></text>
  <text font-family="Arial" letter-spacing="0" transform="scale(1.01816 .98216)" word-spacing="0" x="545.68" y="835.98"><tspan font-size="5.833" x="545.68" y="835.98">TM</tspan></text>
  <path d="m104.932 666.434c-1.53781-.19813-4.23672-.79498-5.63862-1.24688l-.54304-.17507 2.55843-1.44224 2.5584-1.44222 1.75535.57068c3.02596.98371 4.74428 1.28029 7.47856 1.29072 2.24295.009 2.48595-.0199 3.2132-.37763.94187-.46314 1.72062-1.55692 1.72062-2.41674 0-.4397-.13493-.68706-.63211-1.15956-.90532-.86029-2.87107-1.51628-6.80906-2.27233-6.09606-1.17038-7.38071-1.55405-9.28191-2.77207-4.04196-2.58953-.66239-6.09597 7.42163-7.7003 4.60339-.91357 9.30152-.86428 13.2563.13915 1.64906.41841 3.78586 1.22085 3.63248 1.36414-.12494.11664-5.25862 2.19699-5.4216 2.19699-.0901 0-.52922-.17597-.97553-.39104-2.89073-1.39299-7.85114-2.09588-10.3364-1.46467-.73873.18762-1.10595.39392-1.57074.88246-.6932.7286-.76363 1.21507-.26712 1.84554.81273 1.0321 2.6141 1.5922 8.39575 2.61048 5.68952 1.00204 7.28194 1.47689 8.49011 2.5317 1.49889 1.30863 1.18938 3.21525-.79845 4.91879-3.3866 2.90216-8.20118 4.49579-14.0813 4.6609-1.50735.0423-3.06983-.014-4.12498-.15074zm124.72-.18378c-.66727-.11649-1.5681-.21647-2.00183-.22205-.90839-.0112-.88442.33134-.18722-2.67627.22659-.97761.81275-4.21336 1.30254-7.19054 1.24783-7.58468 1.41337-8.53189 1.52023-8.69952.0518-.0813 1.18802-.17836 2.52487-.21559l2.43065-.0678.66743 1.13853c.90815 1.54913 3.33788 4.84211 6.48838 8.79354 1.4437 1.81071 2.76547 3.48311 2.93729 3.71646.28506.38715.33093.40071.52456.15512 2.68822-3.40904 8.09628-10.5336 9.55597-12.5891l.7545-1.06246 2.22678-.1798c1.22472-.0989 2.25726-.14948 2.29446-.11224.0371.0372.12537 1.06945.19599 2.29392.19936 3.45911.71972 8.1448 1.60943 14.4917.17347 1.2374.29084 2.27434.26086 2.30429-.0297.0301-1.18718.10112-2.57157.1582l-2.51708.10382-.0987-1.11537c-.20903-2.36355-.45217-3.97509-1.07035-7.09399-.35225-1.77744-.69631-3.63163-.76453-4.12041-.0682-.48881-.16866-.88872-.22325-.88872-.16041 0-6.76468 8.26465-8.24489 10.3178l-1.35678 1.88188h-1.31093-1.31096l-.79222-1.00749c-.43573-.55414-1.6789-2.03566-2.7626-3.29229-2.27017-2.63247-4.32609-5.31476-5.07242-6.61777-.28485-.49728-.57786-.84381-.65114-.76999-.0732.0738-.43232 2.17016-.79788 4.65859-.63632 4.33143-.96653 6.23418-1.31104 7.55409-.18181.69658-.23532.705-2.2486.35337zm80.2892-.0948c.63218-.86707.91524-1.36376.91582-1.60704 0-.23409-.10735-.23607-1.17218-.0215-1.73728.35006-5.43188.33606-6.75366-.0257-2.06918-.56615-3.4067-1.61022-3.97844-3.10566-.34456-.90121-.20378-1.43654.57147-2.17321 2.07585-1.97254 8.39277-3.4141 12.7062-2.89967 1.49558.17836 3.75968.74442 3.60309.90087-.0386.0385-.806.28992-1.70541.55871l-1.63532.4887-1.90948-.51798c-3.30082-.89534-5.95968-.68146-7.45846.60003-1.12489.96182-1.42076 1.8532-.92982 2.80153.52168 1.00772 2.16169 2.04112 4.02627 2.537 1.13462.30177 3.44517.28932 4.33234-.0232 1.19965-.42279 2.2452-1.6456 2.2452-2.62587v-.46737l1.73899-.1676c.95641-.0921 1.76449-.14478 1.7957-.11679.0637.0569-1.21723 2.37131-2.42986 4.39047-.89228 1.48574-.97274 1.53074-3.11689 1.74295l-1.12234.11101.27682-.37968zm117.287-.24835c.51888-2.54171.82201-9.26751.59984-13.3091-.0994-1.80403-.22209-3.3218-.27315-3.3728-.0509-.0509-2.54767-.0744-5.54802-.0519-6.51504.0486-6.67124.0141-5.01793-1.09043.57033-.3812 1.19781-.83801 1.39434-1.01512.33543-.30228.44511-.31082 1.78499-.13916 3.11972.39965 8.26033.5446 15.8135.44591 4.1816-.0546 8.11245-.16637 8.73526-.24826.87424-.11493 1.18206-.10079 1.35053.0619.18294.17666.17929.27244-.0223.59291-.13228.21025-.32641.65267-.43129.98316l-.19066.60091-1.56632-.11617c-.86149-.0639-3.02218-.11618-4.8016-.11618h-3.23528l-.12836.88873c-.0705.48878-.16858 4.31308-.21783 8.49842l-.0895 7.60976-3.50276-.0156c-1.92652-.009-3.78252.0439-4.12445.11602-.61781.13057-.62114.12854-.52892-.32314zm-243.194-.93325c0-.0367.11267-.55207.25043-1.14532.29958-1.29026.36249-3.21657.18575-5.68762l-.13007-1.81784h.51576c.28367 0 .97119-.0838 1.52782-.18626.99605-.18335 1.02509-.17828 1.83371.31873.4519.27774 2.04312 1.13498 3.53599 1.90499 1.49291.77 3.76013 1.93907 5.03834 2.59792 1.27818.65885 2.35635 1.16556 2.39589 1.12606.0396-.0395.14607-1.29745.23676-2.79545.0906-1.498.22911-2.79.30771-2.87117.0785-.0811.73591-.18186 1.46074-.22377 1.23242-.0713 1.31219-.0566 1.23033.22836-.43536 1.51418-.79277 5.19499-.65167 6.71135.0803.86461.0544 1.11423-.12273 1.16838-.12381.0378-.58368.17921-1.02191.31408l-.79686.24523-1.79139-.85375c-.98525-.46955-3.81516-1.85375-6.28863-3.07599-2.47349-1.22222-4.53259-2.18693-4.57582-2.14375-.0785.0784-.35201 3.13419-.42978 4.80331l-.0414.88565-.80881.17773c-1.41945.31192-1.86029.38754-1.86029.31913zm292.146-.0355c.0001-.0729.11724-.67743.26017-1.34396.21068-.98187.24127-1.78696.16119-4.24161l-.099-3.02974h.61226c.33674 0 .98313-.0961 1.43644-.21354l.82423-.21356 1.27353.75132c1.48169.8741 10.5804 5.54641 10.6448 5.46624.0238-.03.1254-1.3187.22533-2.86425.10003-1.54554.2144-2.84269.2543-2.88255.04-.0399.67044-.11336 1.40121-.16346l1.32857-.091-.0936.54974c-.42316 2.48462-.62158 4.62176-.55759 6.00584l.0729 1.57806-.90564.26721c-.49811.14695-1.02126.26027-1.16259.25178-.14133-.009-3.01182-1.36691-6.37889-3.01875-4.04448-1.98414-6.16014-2.94163-6.23445-2.82155-.0618.0999-.1606.99162-.21945 1.98143-.0589.98979-.14901 2.20994-.20031 2.71143l-.0935.91182-.9921.18811c-.54565.10347-1.11947.2252-1.27518.27055-.15575.0453-.28304.0231-.28297-.0496zm31.2204-.00012c-.85643-.0784-2.41969-.37975-2.88438-.55624-.40064-.15214-.38114-.17574.65869-.7978l1.07155-.64103 1.40398.4064c.94179.27261 1.80154.4064 2.61155.4064 1.11901 0 1.24228-.0347 1.68045-.47232.54122-.54061.5892-.84264.19616-1.23522-.43887-.43841-1.24635-.71237-3.56555-1.20973-3.05694-.65557-4.08422-1.2272-4.08422-2.27266 0-1.40381 3.77931-2.6983 7.36028-2.52108 1.63146.0808 3.9858.66094 3.69989.91181-.0776.0679-.61515.32047-1.19451.56085l-1.05343.43712-.726-.31768c-2.24344-.98175-5.14962-.77308-4.97936.35752.0933.61969.82088.92113 3.54859 1.47014 2.8451.57263 3.53928.8298 3.95643 1.4657.50427.76882-.16237 1.83206-1.74585 2.7844-1.33408.80235-4.17486 1.38606-5.95427 1.22342zm-354.587-2.05626v-2.04737l-5.136.10055c-2.82481.0551-5.21607.12429-5.31391.15353-.10617.0317-.21446.71618-.26851 1.69575-.0497.90343-.11653 1.66843-.14806 1.69997-.0315.0316-.86343.10831-1.8486.17054l-1.7912.11321.12366-.86966c.0677-.47831.12897-1.48962.13554-2.24736.0107-1.21762-.045-1.90558-.38634-4.80293l-.0809-.68674h1.93807c1.89592 0 1.93853.009 1.95865.36357.0107.19997.0659 1.16343.12132 2.141l.10085 1.77743 4.85293-.0625c2.66909-.0344 5.01226-.12181 5.20705-.19426.56422-.20988.762-.76791.85398-2.40938l.086-1.53505 1.8603.0573c1.02312.0316 1.86392.0679 1.86838.0808.005.0125-.0425.7868-.10425 1.71996-.0618.93316-.12005 2.80554-.12945 4.16082l-.0174 2.46416-1.33455.00078c-.73401.00058-1.60752.0468-1.94117.10202l-.60661.10011v-2.04738zm172.279 1.87086c0-.034.20021-.21703.44488-.40695 1.95074-1.51429 5.63398-4.70863 7.21743-6.25937l1.91969-1.88007 1.2347-.091 1.23474-.091.48314.75532c.75508 1.18045 3.08123 3.79783 5.30261 5.96644l2.02759 1.9794-1.07579.00059c-.59169.00056-1.54897.0382-2.12726.0834l-1.05146.0821-1.08893-1.25476c-2.07426-2.39021-1.60767-2.14366-4.05364-2.14205-3.6841.00077-3.58036-.03-5.41398 1.69773l-1.58469 1.49327-1.73451.0642c-.95399.0353-1.73452.0365-1.73452.00078zm10.219-3.90539h1.92851l-.99864-1.1715c-.54923-.64431-1.04467-1.22305-1.10095-1.28607-.0565-.063-.72042.51103-1.47585 1.27567-1.32326 1.33941-1.35353 1.38647-.82755 1.28609.30025-.0572 1.41377-.10415 2.47448-.10415zm20.1523 3.91981c-.60055-.0309-1.0919-.0881-1.0919-.12666 0-.0385.10734-.34427.23854-.67934.22347-.57072.99121-3.56513 1.63202-6.36545l.28188-1.23189 1.59973-.0769 1.59971-.0768 1.16595 1.20577c.99711 1.03117 4.45048 4.18403 5.33142 4.8675.25243.19585.43665.0816 1.69855-1.05243 1.67594-1.50627 1.35393-1.21097 3.50109-3.21113.95402-.88872 1.93052-1.66179 2.17002-1.71792.23949-.0561.91219-.11067 1.49489-.12118l1.05949-.019.19453 1.73703c.10688.95538.4073 2.8635.66733 4.24029.26004 1.37679.46008 2.51528.44451 2.52996-.0159.0141-.7744.079-1.68636.14337l-1.65807.11663v-.49502c0-1.00803-1.15187-5.47632-1.39052-5.39403-.17671.0609-3.80764 3.20488-5.15379 4.46255-.90881.84905-1.00974.89985-1.77942.89544-.79104-.005-.87278-.0519-2.67624-1.54902-1.02317-.84938-2.38804-2.06341-3.03308-2.69783-.64503-.63442-1.17278-1.10877-1.17278-1.05414 0 .25888-.69212 3.42463-.99215 4.53814-.33371 1.23856-.34297 1.25193-.84543 1.22065-.27942-.0172-.99936-.0572-1.59992-.0882zm-186.86-1.19021c.0677-.65701.12772-2.59427.13337-4.305l.0107-3.11041 1.84102-.00011 1.84099-.00006-.10331.60593c-.23083 1.35334-.28767 4.10682-.12069 5.84617.0975 1.0158.14447 1.87967.10463 1.91967-.0401.0399-.91806.11011-1.95108.15558l-1.87825.0829.12303-1.19457zm108.827.9052c.0513-.13384.21432-.83896.36201-1.56708.3184-1.56968.23903-4.42899-.15807-5.69587-.13791-.44021-.23446-.8168-.21438-.83684.0325-.0327 10.3236-.10135 10.7002-.0715.0842.008-.20162.23674-.63499.51128l-.78799.49915-2.55985-.11585-2.55986-.11587v1.49671 1.49668l2.8969-.0759 2.89689-.0758-.33912.45815-.33906.45812h-2.63868-2.63867v.54184c0 .29801-.0468.98881-.10393 1.53507l-.10391.9932h3.58185c1.97002 0 3.58185.0592 3.58185.13165 0 .0725-.25725.25419-.57166.40396-.49747.23699-1.21358.27232-5.51729.27232-4.33728 0-4.93412-.0299-4.85219-.24323zm111.452-1.21056c.0588-.82741.10687-2.76571.10687-4.30731v-2.80291h1.8776c1.72469 0 1.86812.0231 1.76118.28278-.19525.4742-.28061 5.53677-.11514 6.82697.0855.66654.13479 1.23572.10959 1.26486-.0251.029-.90108.095-1.94644.14651l-1.90068.0935.10686-1.50439zm65.7231.68624c.57923-1.91786.57302-5.30735-.0126-6.96584l-.23632-.66904 4.80534-.00078c2.6429-.00056 5.07828-.0468 5.41191-.10189.80663-.13323.76521.0841-.12288.64449l-.72892.46002-2.59356-.11742-2.59354-.11743.047 1.43485.0471 1.43482 2.86239-.0112c2.93818-.0112 2.96053-.005 2.42613.61644-.2131.2479-.5695.2828-2.88715.2828h-2.64406v.78536c0 .43195-.0461 1.12134-.10238 1.53197l-.10237.74661 7.4034.087-.61589.36357c-.60285.35587-.72137.36357-5.60547.36357h-4.9896l.23177-.76753zm71.7233.64636c0-.0666.11525-.48476.25374-.9291.38027-1.21969.47734-4.2799.17925-5.65549-.13477-.6221-.29348-1.25303-.35267-1.40204-.0991-.24966.31615-.27505 5.28388-.32318 2.96524-.0287 5.41473-.0412 5.44318-.0275.0281.014-.28572.2568-.69833.54034l-.7501.51556-2.57742-.11664-2.57737-.11664v1.49672 1.49669l5.80418-.1524-.35431.44935-.35429.4493-2.59851.0101-2.59845.0102-.15152 1.53235-.15153 1.53235 7.27941.0862-.56618.36295c-.55539.35606-.66081.36299-5.54045.36356-2.73581.00033-4.97343-.054-4.97249-.12055zm20.9219-1.84321c.0582-1.08041.10568-3.0073.10568-4.28201v-2.3176h1.83617 1.83611l-.1393.84833c-.17008 1.03552-.19607 4.53449-.0465 6.24775l.1097 1.25728-.76928.1054c-.42306.0579-1.27985.10538-1.90391.10538h-1.13461l.1058-1.96439z" fill="#040404"/>
  <g transform="translate(0 208.5)">
   <path d="m396.573 475.488h124.949v68.4725h-105.226v48.8441h-19.2242v-67.9826h105.101v-30.1998h-105.601z" fill="#1f6db7"/>
   <path d="m257.291 527.557h-17.8364l.365 16.4132h-86.5026l-.36499 49.9729h-19.6856v-102.571h16.3861v-16.2254h89.975v16.9587h17.6636zm-20.5739-2.93319v-29.7685h-83.4146v29.7685z" fill="#040404"/>
   <path d="m386.665 577.246h-17.1191v15.6363h-106.794v-19.6108h104.224v-29.492h-86.7323v-19.1473h86.7323v-29.9555h-104.087v-19.5516h106.274v16.2025h17.5012v36.0843h-17.483v14.2982h17.483z" fill="#040404"/>
  </g>
  <g transform="translate(0 208.5)">
   <path d="m334.601 616.509h21.675v-4.77113h-21.675v-3.00316h24.7227v10.7626h-21.6943v8.07195h-3.02841zm27.7511-7.77429h24.6322v18.8346h-24.6322zm21.6943 2.91163h-18.709v12.9132h18.709zm88.6418-2.91163h24.5459v18.8346h-24.5459zm21.608 10.7626h-18.7091v5.15057h18.7091zm0-7.89516h-18.7091v4.97379h18.7091zm5.25706-2.71276h2.98207v15.7585h21.7185v2.92138h-24.7006zm27.1281-.15468h24.6605l-.0003 2.94066h-21.6318v4.83363h21.3818v2.98831h-21.3818v5.08363h21.6318v2.98832h-24.6602zm-136.842 0h24.4964v17.333h-2.89369v-6.57038h-18.7091v6.57038h-2.8937zm21.6028 2.91163h-18.7091v4.9296h18.7091zm16.0363.0915h-10.4602v-3.00316h24.742v3.00316h-11.2966v14.4861h-2.98521zm16.7045 5.74145v-8.74461h24.617v17.4892h-2.92281v-6.72663h-18.709v6.72663h-2.98521zm21.6943-5.74145h-18.7091l.00002 4.77113h18.709z" fill="#1f6db7"/>
   <g fill="#040404">
    <text font-family="Arial" letter-spacing="0" word-spacing="0" x="286.42" y="610.04"><tspan fill="#040404" font-size="8.219" x="286.42" y="610.04">®</tspan></text>
    <path d="m123.698 617.042h-3.7616v2.65846h-17.2098v8.05877h-3.90473v-16.038h3.78023v-2.57435h17.2452v2.56045h3.85075zm-3.885-.15287v-4.9177h-17.0346v4.9177z"/>
    <path d="m151.095 611.921h-20.7174v5.00344h16.7694v2.77541h-16.6697l-.0997 5.37023h20.5927v2.70343h-20.9471v-2.72479h-3.78702v-13.2447h3.38812v-2.65773h21.4707z"/>
    <path d="m178.595 617.042h-3.39138v2.65846h-10.3545v5.37023h13.5344v2.96648h-14.2935v-2.88003h-3.53342v-5.75081h3.62055v-2.56118h10.3721v-4.96722h-16.908v15.8535h-4.11628v-16.1491h3.53342v-2.43538h17.4743v2.56045h4.0623z"/>
    <path d="m206.062 625.017h-3.66865v3.19627h-21.2253v-3.19209h20.5405l.00011-5.3211h-17.0777v-2.97292h-3.46292v-5.10639h3.46292v-2.47422h20.6729v2.77468h-20.2437l.00024 4.92515 17.664-.00033v3.03188h3.33827z"/>
    <path d="m233.295 625.017h-3.49716v2.93362h-17.6098v-2.8034h-3.71222v-13.5653h3.50067v-2.43538h17.8556v2.46119h3.46292zm-3.89606-.19653v-13.0162h-16.8583v13.0162z"/>
    <path d="m260.581 625.155h-3.34756v2.81569h-7.07147v-2.78374h-4.0862v-13.2653h-6.12266v15.656h-3.99183v-16.0088h3.53771v-2.42189h7.5794v2.46119h3.03907v13.1678h6.67117v-15.629h3.79237z"/>
    <path d="m288.25 627.676h-4.02812v-8.08657h-13.7459v-2.82751h13.7459v-4.81435h-16.7494v15.645h-4.1218v-16.0102h3.66236v-2.43538h17.2452v2.43538h3.99177z"/>
    <path d="m320.922 625.155h-3.54791v2.4128h-20.8358v-3.14564h20.8398v-4.44371h-17.2522v-3.20274h17.2617v-4.85406h-20.7246v-2.77468h20.708v2.43538h3.56868v5.56778h-3.55306v2.41405h3.53544z"/>
   </g>
  </g>
 </g>
</svg>
