<?xml version="1.0" standalone="no"?>
<!DOCTYPE svg PUBLIC "-//W3C//DTD SVG 20010904//EN"
 "http://www.w3.org/TR/2001/REC-SVG-20010904/DTD/svg10.dtd">
<svg version="1.0" xmlns="http://www.w3.org/2000/svg"
 width="657.000000pt" height="380.000000pt" viewBox="0 0 657.000000 380.000000"
 preserveAspectRatio="xMidYMid meet">

<g transform="translate(0.000000,380.000000) scale(0.100000,-0.100000)"
fill="#000000" stroke="none">
<path d="M3055 3496 c-343 -56 -619 -199 -871 -450 -189 -190 -311 -385 -392
-631 -37 -111 -67 -254 -55 -266 4 -4 148 -67 318 -139 171 -73 393 -168 494
-212 l185 -79 47 21 c26 11 71 23 101 28 l53 7 83 115 c240 331 224 305 243
397 23 106 69 193 138 259 251 244 671 135 773 -200 17 -56 20 -86 16 -167 -4
-89 -9 -106 -41 -171 -76 -152 -204 -244 -369 -266 -53 -7 -68 -16 -271 -169
l-214 -161 -6 -53 c-14 -116 -110 -236 -222 -278 -76 -29 -185 -28 -262 1 -82
30 -172 121 -203 205 l-22 61 -276 117 c-153 64 -341 144 -420 178 -78 33
-144 58 -146 56 -3 -2 2 -38 10 -79 46 -244 190 -535 359 -728 233 -264 526
-436 877 -513 119 -26 404 -37 531 -20 655 87 1200 591 1336 1236 39 184 39
479 1 655 -103 479 -415 883 -845 1094 -246 121 -393 156 -675 162 -130 2
-222 -1 -275 -10z"/>
<path d="M3624 2516 c-139 -45 -236 -193 -220 -338 19 -187 186 -314 375 -286
104 16 184 77 233 175 62 126 39 269 -58 368 -60 60 -124 88 -214 92 -44 2
-92 -3 -116 -11z m215 -102 c165 -89 159 -328 -11 -415 -158 -81 -340 33 -340
213 0 183 188 291 351 202z"/>
<path d="M2880 1693 c-46 -8 -42 -20 17 -43 106 -42 174 -83 199 -119 71 -104
40 -236 -69 -293 -67 -35 -125 -29 -240 22 -53 23 -100 40 -103 37 -9 -9 50
-85 88 -113 47 -35 131 -58 190 -51 171 21 283 174 248 341 -30 145 -182 245
-330 219z"/>
</g>
</svg>
